<svg width="797" height="1200" viewBox="0 0 797 1200" fill="none" xmlns="http://www.w3.org/2000/svg">
<g clip-path="url(#clip0_1009_309)">
<rect width="797" height="1200" fill="#FFD6A7"/>
<g filter="url(#filter0_d_1009_309)">
<g clip-path="url(#clip1_1009_309)">
<rect width="595" height="842" transform="translate(101 179)" fill="#FFD6A7"/>
<g opacity="0.78" filter="url(#filter1_f_1009_309)">
<line x1="123" y1="179" x2="123" y2="1021" stroke="black" stroke-opacity="0.31" stroke-width="4"/>
</g>
<g opacity="0.78" filter="url(#filter2_f_1009_309)">
<line x1="127" y1="179" x2="127" y2="1021" stroke="white" stroke-opacity="0.62" stroke-width="4"/>
</g>
<mask id="path-3-outside-1_1009_309" maskUnits="userSpaceOnUse" x="263" y="532" width="304" height="201" fill="black">
<rect fill="white" x="263" y="532" width="304" height="201"/>
<path d="M305.685 536.688V547.952H293.653V582H279.445V547.952H267.541V536.688H305.685ZM340.579 582.448C336.312 582.448 332.387 581.445 328.803 579.44C325.261 577.435 322.445 574.661 320.355 571.12C318.264 567.579 317.219 563.589 317.219 559.152C317.219 554.715 318.264 550.725 320.355 547.184C322.445 543.643 325.261 540.891 328.803 538.928C332.387 536.923 336.312 535.92 340.579 535.92C344.845 535.92 348.749 536.923 352.291 538.928C355.832 540.891 358.627 543.643 360.675 547.184C362.765 550.725 363.811 554.715 363.811 559.152C363.811 563.589 362.765 567.579 360.675 571.12C358.627 574.661 355.811 577.435 352.227 579.44C348.685 581.445 344.803 582.448 340.579 582.448ZM340.579 569.2C343.395 569.2 345.571 568.304 347.107 566.512C348.643 564.677 349.411 562.224 349.411 559.152C349.411 556.037 348.643 553.584 347.107 551.792C345.571 549.957 343.395 549.04 340.579 549.04C337.72 549.04 335.523 549.957 333.987 551.792C332.451 553.584 331.683 556.037 331.683 559.152C331.683 562.224 332.451 564.677 333.987 566.512C335.523 568.304 337.72 569.2 340.579 569.2ZM428.067 558.768C430.798 559.408 432.91 560.731 434.403 562.736C435.939 564.699 436.707 566.981 436.707 569.584C436.707 573.552 435.385 576.624 432.739 578.8C430.137 580.933 426.382 582 421.475 582H397.731V536.688H420.835C425.443 536.688 429.07 537.691 431.715 539.696C434.361 541.701 435.683 544.624 435.683 548.464C435.683 551.109 434.979 553.349 433.571 555.184C432.206 556.976 430.371 558.171 428.067 558.768ZM411.939 554.352H417.443C418.723 554.352 419.662 554.096 420.259 553.584C420.899 553.072 421.219 552.283 421.219 551.216C421.219 550.107 420.899 549.296 420.259 548.784C419.662 548.229 418.723 547.952 417.443 547.952H411.939V554.352ZM418.403 570.608C419.683 570.608 420.622 570.373 421.219 569.904C421.859 569.392 422.179 568.581 422.179 567.472C422.179 565.296 420.921 564.208 418.403 564.208H411.939V570.608H418.403ZM464.649 548.016V553.584H478.729V564.272H464.649V570.672H480.649V582H450.441V536.688H480.649V548.016H464.649ZM543.855 575.152H528.751L526.511 582H511.599L528.175 536.688H544.559L561.071 582H546.095L543.855 575.152ZM540.399 564.464L536.303 551.856L532.207 564.464H540.399ZM306.824 632.768C309.554 633.408 311.666 634.731 313.16 636.736C314.696 638.699 315.464 640.981 315.464 643.584C315.464 647.552 314.141 650.624 311.496 652.8C308.893 654.933 305.138 656 300.232 656H276.488V610.688H299.592C304.2 610.688 307.826 611.691 310.472 613.696C313.117 615.701 314.44 618.624 314.44 622.464C314.44 625.109 313.736 627.349 312.328 629.184C310.962 630.976 309.128 632.171 306.824 632.768ZM290.696 628.352H296.2C297.48 628.352 298.418 628.096 299.016 627.584C299.656 627.072 299.976 626.283 299.976 625.216C299.976 624.107 299.656 623.296 299.016 622.784C298.418 622.229 297.48 621.952 296.2 621.952H290.696V628.352ZM297.16 644.608C298.44 644.608 299.378 644.373 299.976 643.904C300.616 643.392 300.936 642.581 300.936 641.472C300.936 639.296 299.677 638.208 297.16 638.208H290.696V644.608H297.16ZM343.406 622.016V627.584H357.486V638.272H343.406V644.672H359.406V656H329.198V610.688H359.406V622.016H343.406ZM409.304 610.688V621.952H397.272V656H383.064V621.952H371.16V610.688H409.304ZM457.702 610.688V621.952H445.67V656H431.462V621.952H419.558V610.688H457.702ZM484.723 622.016V627.584H498.803V638.272H484.723V644.672H500.723V656H470.515V610.688H500.723V622.016H484.723ZM537.822 656L529.31 639.744H529.246V656H515.038V610.688H536.158C539.827 610.688 542.963 611.349 545.566 612.672C548.168 613.952 550.11 615.723 551.39 617.984C552.712 620.203 553.374 622.72 553.374 625.536C553.374 628.565 552.52 631.253 550.814 633.6C549.15 635.947 546.739 637.632 543.582 638.656L553.438 656H537.822ZM529.246 630.272H534.878C536.243 630.272 537.267 629.973 537.95 629.376C538.632 628.736 538.974 627.755 538.974 626.432C538.974 625.237 538.611 624.299 537.886 623.616C537.203 622.933 536.2 622.592 534.878 622.592H529.246V630.272ZM334.205 684.688L323.837 730H306.173L300.925 704.272L295.677 730H278.013L267.645 684.688H282.941L287.037 713.232L293.181 684.688H308.669L314.813 713.232L318.909 684.688H334.205ZM371.044 730L362.532 713.744H362.468V730H348.26V684.688H369.38C373.049 684.688 376.185 685.349 378.788 686.672C381.391 687.952 383.332 689.723 384.612 691.984C385.935 694.203 386.596 696.72 386.596 699.536C386.596 702.565 385.743 705.253 384.036 707.6C382.372 709.947 379.961 711.632 376.804 712.656L386.66 730H371.044ZM362.468 704.272H368.1C369.465 704.272 370.489 703.973 371.172 703.376C371.855 702.736 372.196 701.755 372.196 700.432C372.196 699.237 371.833 698.299 371.108 697.616C370.425 696.933 369.423 696.592 368.1 696.592H362.468V704.272ZM414.303 684.688V730H400.095V684.688H414.303ZM465.264 684.688V695.952H453.232V730H439.024V695.952H427.12V684.688H465.264ZM492.286 696.016V701.584H506.366V712.272H492.286V718.672H508.286V730H478.078V684.688H508.286V696.016H492.286ZM545.384 730L536.872 713.744H536.808V730H522.6V684.688H543.72C547.389 684.688 550.525 685.349 553.128 686.672C555.731 687.952 557.672 689.723 558.952 691.984C560.275 694.203 560.936 696.72 560.936 699.536C560.936 702.565 560.083 705.253 558.376 707.6C556.712 709.947 554.301 711.632 551.144 712.656L561 730H545.384ZM536.808 704.272H542.44C543.805 704.272 544.829 703.973 545.512 703.376C546.195 702.736 546.536 701.755 546.536 700.432C546.536 699.237 546.173 698.299 545.448 697.616C544.765 696.933 543.763 696.592 542.44 696.592H536.808V704.272Z"/>
</mask>
<path d="M305.685 536.688V547.952H293.653V582H279.445V547.952H267.541V536.688H305.685ZM340.579 582.448C336.312 582.448 332.387 581.445 328.803 579.44C325.261 577.435 322.445 574.661 320.355 571.12C318.264 567.579 317.219 563.589 317.219 559.152C317.219 554.715 318.264 550.725 320.355 547.184C322.445 543.643 325.261 540.891 328.803 538.928C332.387 536.923 336.312 535.92 340.579 535.92C344.845 535.92 348.749 536.923 352.291 538.928C355.832 540.891 358.627 543.643 360.675 547.184C362.765 550.725 363.811 554.715 363.811 559.152C363.811 563.589 362.765 567.579 360.675 571.12C358.627 574.661 355.811 577.435 352.227 579.44C348.685 581.445 344.803 582.448 340.579 582.448ZM340.579 569.2C343.395 569.2 345.571 568.304 347.107 566.512C348.643 564.677 349.411 562.224 349.411 559.152C349.411 556.037 348.643 553.584 347.107 551.792C345.571 549.957 343.395 549.04 340.579 549.04C337.72 549.04 335.523 549.957 333.987 551.792C332.451 553.584 331.683 556.037 331.683 559.152C331.683 562.224 332.451 564.677 333.987 566.512C335.523 568.304 337.72 569.2 340.579 569.2ZM428.067 558.768C430.798 559.408 432.91 560.731 434.403 562.736C435.939 564.699 436.707 566.981 436.707 569.584C436.707 573.552 435.385 576.624 432.739 578.8C430.137 580.933 426.382 582 421.475 582H397.731V536.688H420.835C425.443 536.688 429.07 537.691 431.715 539.696C434.361 541.701 435.683 544.624 435.683 548.464C435.683 551.109 434.979 553.349 433.571 555.184C432.206 556.976 430.371 558.171 428.067 558.768ZM411.939 554.352H417.443C418.723 554.352 419.662 554.096 420.259 553.584C420.899 553.072 421.219 552.283 421.219 551.216C421.219 550.107 420.899 549.296 420.259 548.784C419.662 548.229 418.723 547.952 417.443 547.952H411.939V554.352ZM418.403 570.608C419.683 570.608 420.622 570.373 421.219 569.904C421.859 569.392 422.179 568.581 422.179 567.472C422.179 565.296 420.921 564.208 418.403 564.208H411.939V570.608H418.403ZM464.649 548.016V553.584H478.729V564.272H464.649V570.672H480.649V582H450.441V536.688H480.649V548.016H464.649ZM543.855 575.152H528.751L526.511 582H511.599L528.175 536.688H544.559L561.071 582H546.095L543.855 575.152ZM540.399 564.464L536.303 551.856L532.207 564.464H540.399ZM306.824 632.768C309.554 633.408 311.666 634.731 313.16 636.736C314.696 638.699 315.464 640.981 315.464 643.584C315.464 647.552 314.141 650.624 311.496 652.8C308.893 654.933 305.138 656 300.232 656H276.488V610.688H299.592C304.2 610.688 307.826 611.691 310.472 613.696C313.117 615.701 314.44 618.624 314.44 622.464C314.44 625.109 313.736 627.349 312.328 629.184C310.962 630.976 309.128 632.171 306.824 632.768ZM290.696 628.352H296.2C297.48 628.352 298.418 628.096 299.016 627.584C299.656 627.072 299.976 626.283 299.976 625.216C299.976 624.107 299.656 623.296 299.016 622.784C298.418 622.229 297.48 621.952 296.2 621.952H290.696V628.352ZM297.16 644.608C298.44 644.608 299.378 644.373 299.976 643.904C300.616 643.392 300.936 642.581 300.936 641.472C300.936 639.296 299.677 638.208 297.16 638.208H290.696V644.608H297.16ZM343.406 622.016V627.584H357.486V638.272H343.406V644.672H359.406V656H329.198V610.688H359.406V622.016H343.406ZM409.304 610.688V621.952H397.272V656H383.064V621.952H371.16V610.688H409.304ZM457.702 610.688V621.952H445.67V656H431.462V621.952H419.558V610.688H457.702ZM484.723 622.016V627.584H498.803V638.272H484.723V644.672H500.723V656H470.515V610.688H500.723V622.016H484.723ZM537.822 656L529.31 639.744H529.246V656H515.038V610.688H536.158C539.827 610.688 542.963 611.349 545.566 612.672C548.168 613.952 550.11 615.723 551.39 617.984C552.712 620.203 553.374 622.72 553.374 625.536C553.374 628.565 552.52 631.253 550.814 633.6C549.15 635.947 546.739 637.632 543.582 638.656L553.438 656H537.822ZM529.246 630.272H534.878C536.243 630.272 537.267 629.973 537.95 629.376C538.632 628.736 538.974 627.755 538.974 626.432C538.974 625.237 538.611 624.299 537.886 623.616C537.203 622.933 536.2 622.592 534.878 622.592H529.246V630.272ZM334.205 684.688L323.837 730H306.173L300.925 704.272L295.677 730H278.013L267.645 684.688H282.941L287.037 713.232L293.181 684.688H308.669L314.813 713.232L318.909 684.688H334.205ZM371.044 730L362.532 713.744H362.468V730H348.26V684.688H369.38C373.049 684.688 376.185 685.349 378.788 686.672C381.391 687.952 383.332 689.723 384.612 691.984C385.935 694.203 386.596 696.72 386.596 699.536C386.596 702.565 385.743 705.253 384.036 707.6C382.372 709.947 379.961 711.632 376.804 712.656L386.66 730H371.044ZM362.468 704.272H368.1C369.465 704.272 370.489 703.973 371.172 703.376C371.855 702.736 372.196 701.755 372.196 700.432C372.196 699.237 371.833 698.299 371.108 697.616C370.425 696.933 369.423 696.592 368.1 696.592H362.468V704.272ZM414.303 684.688V730H400.095V684.688H414.303ZM465.264 684.688V695.952H453.232V730H439.024V695.952H427.12V684.688H465.264ZM492.286 696.016V701.584H506.366V712.272H492.286V718.672H508.286V730H478.078V684.688H508.286V696.016H492.286ZM545.384 730L536.872 713.744H536.808V730H522.6V684.688H543.72C547.389 684.688 550.525 685.349 553.128 686.672C555.731 687.952 557.672 689.723 558.952 691.984C560.275 694.203 560.936 696.72 560.936 699.536C560.936 702.565 560.083 705.253 558.376 707.6C556.712 709.947 554.301 711.632 551.144 712.656L561 730H545.384ZM536.808 704.272H542.44C543.805 704.272 544.829 703.973 545.512 703.376C546.195 702.736 546.536 701.755 546.536 700.432C546.536 699.237 546.173 698.299 545.448 697.616C544.765 696.933 543.763 696.592 542.44 696.592H536.808V704.272Z" fill="white"/>
<path d="M305.685 536.688H308.685V533.688H305.685V536.688ZM305.685 547.952V550.952H308.685V547.952H305.685ZM293.653 547.952V544.952H290.653V547.952H293.653ZM293.653 582V585H296.653V582H293.653ZM279.445 582H276.445V585H279.445V582ZM279.445 547.952H282.445V544.952H279.445V547.952ZM267.541 547.952H264.541V550.952H267.541V547.952ZM267.541 536.688V533.688H264.541V536.688H267.541ZM302.685 536.688V547.952H308.685V536.688H302.685ZM305.685 544.952H293.653V550.952H305.685V544.952ZM290.653 547.952V582H296.653V547.952H290.653ZM293.653 579H279.445V585H293.653V579ZM282.445 582V547.952H276.445V582H282.445ZM279.445 544.952H267.541V550.952H279.445V544.952ZM270.541 547.952V536.688H264.541V547.952H270.541ZM267.541 539.688H305.685V533.688H267.541V539.688ZM328.803 579.44L327.325 582.051L327.331 582.054L327.338 582.058L328.803 579.44ZM320.355 571.12L317.771 572.645L317.771 572.645L320.355 571.12ZM328.803 538.928L330.257 541.552L330.268 541.546L328.803 538.928ZM352.291 538.928L350.813 541.539L350.824 541.545L350.837 541.552L352.291 538.928ZM360.675 547.184L358.078 548.686L358.084 548.698L358.091 548.709L360.675 547.184ZM360.675 571.12L358.091 569.595L358.084 569.606L358.078 569.618L360.675 571.12ZM352.227 579.44L350.762 576.822L350.755 576.826L350.749 576.829L352.227 579.44ZM347.107 566.512L349.385 568.464L349.396 568.451L349.407 568.438L347.107 566.512ZM347.107 551.792L344.806 553.718L344.818 553.731L344.829 553.744L347.107 551.792ZM333.987 551.792L336.265 553.744L336.276 553.731L336.287 553.718L333.987 551.792ZM333.987 566.512L331.686 568.438L331.698 568.451L331.709 568.464L333.987 566.512ZM340.579 579.448C336.804 579.448 333.386 578.567 330.268 576.822L327.338 582.058C331.387 584.324 335.82 585.448 340.579 585.448V579.448ZM330.281 576.829C327.202 575.086 324.765 572.689 322.938 569.595L317.771 572.645C320.126 576.634 323.321 579.784 327.325 582.051L330.281 576.829ZM322.938 569.595C321.142 566.552 320.219 563.097 320.219 559.152H314.219C314.219 564.082 315.386 568.605 317.771 572.645L322.938 569.595ZM320.219 559.152C320.219 555.207 321.142 551.752 322.938 548.709L317.771 545.659C315.386 549.699 314.219 554.222 314.219 559.152H320.219ZM322.938 548.709C324.762 545.621 327.191 543.251 330.257 541.552L327.349 536.304C323.332 538.53 320.129 541.665 317.771 545.659L322.938 548.709ZM330.268 541.546C333.386 539.801 336.804 538.92 340.579 538.92V532.92C335.82 532.92 331.387 534.044 327.338 536.31L330.268 541.546ZM340.579 538.92C344.353 538.92 347.744 539.801 350.813 541.539L353.769 536.317C349.755 534.044 345.337 532.92 340.579 532.92V538.92ZM350.837 541.552C353.897 543.248 356.299 545.61 358.078 548.686L363.272 545.682C360.955 541.675 357.767 538.533 353.745 536.304L350.837 541.552ZM358.091 548.709C359.888 551.752 360.811 555.207 360.811 559.152H366.811C366.811 554.222 365.643 549.699 363.258 545.659L358.091 548.709ZM360.811 559.152C360.811 563.097 359.888 566.552 358.091 569.595L363.258 572.645C365.643 568.605 366.811 564.082 366.811 559.152H360.811ZM358.078 569.618C356.301 572.69 353.877 575.079 350.762 576.822L353.692 582.058C357.745 579.79 360.952 576.632 363.272 572.622L358.078 569.618ZM350.749 576.829C347.675 578.57 344.305 579.448 340.579 579.448V585.448C345.3 585.448 349.695 584.321 353.705 582.051L350.749 576.829ZM340.579 572.2C344.085 572.2 347.168 571.051 349.385 568.464L344.829 564.56C343.974 565.557 342.705 566.2 340.579 566.2V572.2ZM349.407 568.438C351.511 565.925 352.411 562.724 352.411 559.152H346.411C346.411 561.724 345.775 563.43 344.806 564.586L349.407 568.438ZM352.411 559.152C352.411 555.553 351.518 552.329 349.385 549.84L344.829 553.744C345.767 554.839 346.411 556.521 346.411 559.152H352.411ZM349.407 549.866C347.198 547.228 344.108 546.04 340.579 546.04V552.04C342.681 552.04 343.944 552.687 344.806 553.718L349.407 549.866ZM340.579 546.04C337.023 546.04 333.905 547.217 331.686 549.866L336.287 553.718C337.141 552.698 338.417 552.04 340.579 552.04V546.04ZM331.709 549.84C329.575 552.329 328.683 555.553 328.683 559.152H334.683C334.683 556.521 335.326 554.839 336.265 553.744L331.709 549.84ZM328.683 559.152C328.683 562.724 329.583 565.925 331.686 568.438L336.287 564.586C335.319 563.43 334.683 561.724 334.683 559.152H328.683ZM331.709 568.464C333.935 571.061 337.047 572.2 340.579 572.2V566.2C338.393 566.2 337.111 565.547 336.265 564.56L331.709 568.464ZM428.067 558.768L427.314 555.864L427.383 561.689L428.067 558.768ZM434.403 562.736L431.997 564.528L432.019 564.557L432.041 564.585L434.403 562.736ZM432.739 578.8L434.641 581.12L434.645 581.117L432.739 578.8ZM397.731 582H394.731V585H397.731V582ZM397.731 536.688V533.688H394.731V536.688H397.731ZM433.571 555.184L431.191 553.358L431.185 553.366L433.571 555.184ZM411.939 554.352H408.939V557.352H411.939V554.352ZM420.259 553.584L418.385 551.241L418.345 551.273L418.307 551.306L420.259 553.584ZM420.259 548.784L418.218 550.982L418.299 551.058L418.385 551.127L420.259 548.784ZM411.939 547.952V544.952H408.939V547.952H411.939ZM421.219 569.904L423.073 572.263L423.083 572.255L423.093 572.247L421.219 569.904ZM411.939 564.208V561.208H408.939V564.208H411.939ZM411.939 570.608H408.939V573.608H411.939V570.608ZM427.383 561.689C429.514 562.188 430.978 563.16 431.997 564.528L436.809 560.944C434.842 558.302 432.082 556.628 428.752 555.847L427.383 561.689ZM432.041 564.585C433.144 565.995 433.707 567.62 433.707 569.584H439.707C439.707 566.343 438.734 563.402 436.766 560.887L432.041 564.585ZM433.707 569.584C433.707 572.814 432.672 574.971 430.833 576.483L434.645 581.117C438.097 578.277 439.707 574.29 439.707 569.584H433.707ZM430.837 576.48C428.969 578.011 425.997 579 421.475 579V585C426.767 585 431.304 583.855 434.641 581.12L430.837 576.48ZM421.475 579H397.731V585H421.475V579ZM400.731 582V536.688H394.731V582H400.731ZM397.731 539.688H420.835V533.688H397.731V539.688ZM420.835 539.688C425.038 539.688 427.948 540.604 429.903 542.087L433.528 537.305C430.192 534.777 425.849 533.688 420.835 533.688V539.688ZM429.903 542.087C431.676 543.431 432.683 545.396 432.683 548.464H438.683C438.683 543.852 437.045 539.972 433.528 537.305L429.903 542.087ZM432.683 548.464C432.683 550.548 432.141 552.121 431.191 553.358L435.951 557.01C437.818 554.578 438.683 551.67 438.683 548.464H432.683ZM431.185 553.366C430.251 554.592 429.007 555.425 427.314 555.864L428.82 561.672C431.735 560.916 434.161 559.36 435.958 557.002L431.185 553.366ZM411.939 557.352H417.443V551.352H411.939V557.352ZM417.443 557.352C419.02 557.352 420.82 557.055 422.212 555.862L418.307 551.306C418.416 551.213 418.458 551.228 418.318 551.266C418.172 551.305 417.895 551.352 417.443 551.352V557.352ZM422.133 555.927C423.688 554.682 424.219 552.897 424.219 551.216H418.219C418.219 551.457 418.182 551.522 418.199 551.481C418.208 551.458 418.228 551.417 418.265 551.367C418.302 551.317 418.344 551.274 418.385 551.241L422.133 555.927ZM424.219 551.216C424.219 549.539 423.716 547.707 422.133 546.441L418.385 551.127C418.336 551.087 418.29 551.039 418.251 550.986C418.214 550.934 418.195 550.894 418.189 550.877C418.178 550.851 418.219 550.94 418.219 551.216H424.219ZM422.301 546.586C420.905 545.29 419.066 544.952 417.443 544.952V550.952C417.879 550.952 418.134 551.001 418.257 551.037C418.371 551.071 418.32 551.077 418.218 550.982L422.301 546.586ZM417.443 544.952H411.939V550.952H417.443V544.952ZM408.939 547.952V554.352H414.939V547.952H408.939ZM418.403 573.608C419.936 573.608 421.692 573.348 423.073 572.263L419.366 567.545C419.477 567.458 419.507 567.48 419.34 567.522C419.171 567.564 418.872 567.608 418.403 567.608V573.608ZM423.093 572.247C424.676 570.981 425.179 569.149 425.179 567.472H419.179C419.179 567.748 419.138 567.837 419.149 567.811C419.155 567.794 419.174 567.754 419.211 567.702C419.25 567.649 419.296 567.601 419.345 567.561L423.093 572.247ZM425.179 567.472C425.179 565.798 424.675 564.032 423.197 562.754C421.803 561.549 420.026 561.208 418.403 561.208V567.208C418.826 567.208 419.086 567.255 419.225 567.295C419.354 567.332 419.341 567.352 419.273 567.294C419.196 567.227 419.155 567.15 419.144 567.123C419.141 567.114 419.179 567.21 419.179 567.472H425.179ZM418.403 561.208H411.939V567.208H418.403V561.208ZM408.939 564.208V570.608H414.939V564.208H408.939ZM411.939 573.608H418.403V567.608H411.939V573.608ZM464.649 548.016V545.016H461.649V548.016H464.649ZM464.649 553.584H461.649V556.584H464.649V553.584ZM478.729 553.584H481.729V550.584H478.729V553.584ZM478.729 564.272V567.272H481.729V564.272H478.729ZM464.649 564.272V561.272H461.649V564.272H464.649ZM464.649 570.672H461.649V573.672H464.649V570.672ZM480.649 570.672H483.649V567.672H480.649V570.672ZM480.649 582V585H483.649V582H480.649ZM450.441 582H447.441V585H450.441V582ZM450.441 536.688V533.688H447.441V536.688H450.441ZM480.649 536.688H483.649V533.688H480.649V536.688ZM480.649 548.016V551.016H483.649V548.016H480.649ZM461.649 548.016V553.584H467.649V548.016H461.649ZM464.649 556.584H478.729V550.584H464.649V556.584ZM475.729 553.584V564.272H481.729V553.584H475.729ZM478.729 561.272H464.649V567.272H478.729V561.272ZM461.649 564.272V570.672H467.649V564.272H461.649ZM464.649 573.672H480.649V567.672H464.649V573.672ZM477.649 570.672V582H483.649V570.672H477.649ZM480.649 579H450.441V585H480.649V579ZM453.441 582V536.688H447.441V582H453.441ZM450.441 539.688H480.649V533.688H450.441V539.688ZM477.649 536.688V548.016H483.649V536.688H477.649ZM480.649 545.016H464.649V551.016H480.649V545.016ZM543.855 575.152L546.706 574.219L546.03 572.152H543.855V575.152ZM528.751 575.152V572.152H526.576L525.899 574.219L528.751 575.152ZM526.511 582V585H528.686L529.362 582.933L526.511 582ZM511.599 582L508.781 580.969L507.307 585H511.599V582ZM528.175 536.688V533.688H526.078L525.357 535.657L528.175 536.688ZM544.559 536.688L547.377 535.661L546.659 533.688H544.559V536.688ZM561.071 582V585H565.357L563.889 580.973L561.071 582ZM546.095 582L543.243 582.933L543.92 585H546.095V582ZM540.399 564.464V567.464H544.528L543.252 563.537L540.399 564.464ZM536.303 551.856L539.156 550.929L536.303 542.147L533.45 550.929L536.303 551.856ZM532.207 564.464L529.354 563.537L528.078 567.464H532.207V564.464ZM543.855 572.152H528.751V578.152H543.855V572.152ZM525.899 574.219L523.659 581.067L529.362 582.933L531.602 576.085L525.899 574.219ZM526.511 579H511.599V585H526.511V579ZM514.416 583.031L530.992 537.719L525.357 535.657L508.781 580.969L514.416 583.031ZM528.175 539.688H544.559V533.688H528.175V539.688ZM541.74 537.715L558.252 583.027L563.889 580.973L547.377 535.661L541.74 537.715ZM561.071 579H546.095V585H561.071V579ZM548.946 581.067L546.706 574.219L541.003 576.085L543.243 582.933L548.946 581.067ZM543.252 563.537L539.156 550.929L533.45 552.783L537.546 565.391L543.252 563.537ZM533.45 550.929L529.354 563.537L535.06 565.391L539.156 552.783L533.45 550.929ZM532.207 567.464H540.399V561.464H532.207V567.464ZM306.824 632.768L306.071 629.864L306.139 635.689L306.824 632.768ZM313.16 636.736L310.753 638.528L310.775 638.557L310.797 638.585L313.16 636.736ZM311.496 652.8L313.397 655.12L313.401 655.117L311.496 652.8ZM276.488 656H273.488V659H276.488V656ZM276.488 610.688V607.688H273.488V610.688H276.488ZM312.328 629.184L309.948 627.358L309.941 627.366L312.328 629.184ZM290.696 628.352H287.696V631.352H290.696V628.352ZM299.016 627.584L297.141 625.241L297.102 625.273L297.063 625.306L299.016 627.584ZM299.016 622.784L296.974 624.982L297.055 625.058L297.141 625.127L299.016 622.784ZM290.696 621.952V618.952H287.696V621.952H290.696ZM299.976 643.904L301.829 646.263L301.839 646.255L301.85 646.247L299.976 643.904ZM290.696 638.208V635.208H287.696V638.208H290.696ZM290.696 644.608H287.696V647.608H290.696V644.608ZM306.139 635.689C308.27 636.188 309.735 637.16 310.753 638.528L315.566 634.944C313.598 632.302 310.838 630.628 307.508 629.847L306.139 635.689ZM310.797 638.585C311.901 639.995 312.464 641.62 312.464 643.584H318.464C318.464 640.343 317.49 637.402 315.522 634.887L310.797 638.585ZM312.464 643.584C312.464 646.814 311.428 648.971 309.59 650.483L313.401 655.117C316.853 652.277 318.464 648.29 318.464 643.584H312.464ZM309.594 650.48C307.725 652.011 304.753 653 300.232 653V659C305.523 659 310.06 657.855 313.397 655.12L309.594 650.48ZM300.232 653H276.488V659H300.232V653ZM279.488 656V610.688H273.488V656H279.488ZM276.488 613.688H299.592V607.688H276.488V613.688ZM299.592 613.688C303.794 613.688 306.704 614.604 308.659 616.087L312.284 611.305C308.948 608.777 304.605 607.688 299.592 607.688V613.688ZM308.659 616.087C310.433 617.431 311.44 619.396 311.44 622.464H317.44C317.44 617.852 315.801 613.972 312.284 611.305L308.659 616.087ZM311.44 622.464C311.44 624.548 310.897 626.121 309.948 627.358L314.707 631.01C316.574 628.578 317.44 625.67 317.44 622.464H311.44ZM309.941 627.366C309.007 628.592 307.763 629.425 306.071 629.864L307.576 635.672C310.492 634.916 312.917 633.36 314.714 631.002L309.941 627.366ZM290.696 631.352H296.2V625.352H290.696V631.352ZM296.2 631.352C297.776 631.352 299.576 631.055 300.968 629.862L297.063 625.306C297.172 625.213 297.214 625.228 297.074 625.266C296.928 625.305 296.652 625.352 296.2 625.352V631.352ZM300.89 629.927C302.445 628.682 302.976 626.897 302.976 625.216H296.976C296.976 625.457 296.939 625.522 296.955 625.481C296.964 625.458 296.985 625.417 297.021 625.367C297.058 625.317 297.101 625.274 297.141 625.241L300.89 629.927ZM302.976 625.216C302.976 623.539 302.472 621.707 300.89 620.441L297.141 625.127C297.092 625.087 297.046 625.039 297.008 624.986C296.97 624.934 296.952 624.894 296.945 624.877C296.935 624.851 296.976 624.94 296.976 625.216H302.976ZM301.057 620.586C299.662 619.29 297.822 618.952 296.2 618.952V624.952C296.635 624.952 296.89 625.001 297.013 625.037C297.127 625.071 297.076 625.077 296.974 624.982L301.057 620.586ZM296.2 618.952H290.696V624.952H296.2V618.952ZM287.696 621.952V628.352H293.696V621.952H287.696ZM297.16 647.608C298.692 647.608 300.448 647.348 301.829 646.263L298.122 641.545C298.233 641.458 298.263 641.48 298.096 641.522C297.927 641.564 297.628 641.608 297.16 641.608V647.608ZM301.85 646.247C303.432 644.981 303.936 643.149 303.936 641.472H297.936C297.936 641.748 297.895 641.837 297.905 641.811C297.912 641.794 297.93 641.754 297.968 641.702C298.006 641.649 298.052 641.601 298.101 641.561L301.85 646.247ZM303.936 641.472C303.936 639.798 303.431 638.032 301.953 636.754C300.559 635.549 298.782 635.208 297.16 635.208V641.208C297.582 641.208 297.842 641.255 297.981 641.295C298.111 641.332 298.097 641.352 298.03 641.294C297.953 641.227 297.911 641.15 297.9 641.123C297.897 641.114 297.936 641.21 297.936 641.472H303.936ZM297.16 635.208H290.696V641.208H297.16V635.208ZM287.696 638.208V644.608H293.696V638.208H287.696ZM290.696 647.608H297.16V641.608H290.696V647.608ZM343.406 622.016V619.016H340.406V622.016H343.406ZM343.406 627.584H340.406V630.584H343.406V627.584ZM357.486 627.584H360.486V624.584H357.486V627.584ZM357.486 638.272V641.272H360.486V638.272H357.486ZM343.406 638.272V635.272H340.406V638.272H343.406ZM343.406 644.672H340.406V647.672H343.406V644.672ZM359.406 644.672H362.406V641.672H359.406V644.672ZM359.406 656V659H362.406V656H359.406ZM329.198 656H326.198V659H329.198V656ZM329.198 610.688V607.688H326.198V610.688H329.198ZM359.406 610.688H362.406V607.688H359.406V610.688ZM359.406 622.016V625.016H362.406V622.016H359.406ZM340.406 622.016V627.584H346.406V622.016H340.406ZM343.406 630.584H357.486V624.584H343.406V630.584ZM354.486 627.584V638.272H360.486V627.584H354.486ZM357.486 635.272H343.406V641.272H357.486V635.272ZM340.406 638.272V644.672H346.406V638.272H340.406ZM343.406 647.672H359.406V641.672H343.406V647.672ZM356.406 644.672V656H362.406V644.672H356.406ZM359.406 653H329.198V659H359.406V653ZM332.198 656V610.688H326.198V656H332.198ZM329.198 613.688H359.406V607.688H329.198V613.688ZM356.406 610.688V622.016H362.406V610.688H356.406ZM359.406 619.016H343.406V625.016H359.406V619.016ZM409.304 610.688H412.304V607.688H409.304V610.688ZM409.304 621.952V624.952H412.304V621.952H409.304ZM397.272 621.952V618.952H394.272V621.952H397.272ZM397.272 656V659H400.272V656H397.272ZM383.064 656H380.064V659H383.064V656ZM383.064 621.952H386.064V618.952H383.064V621.952ZM371.16 621.952H368.16V624.952H371.16V621.952ZM371.16 610.688V607.688H368.16V610.688H371.16ZM406.304 610.688V621.952H412.304V610.688H406.304ZM409.304 618.952H397.272V624.952H409.304V618.952ZM394.272 621.952V656H400.272V621.952H394.272ZM397.272 653H383.064V659H397.272V653ZM386.064 656V621.952H380.064V656H386.064ZM383.064 618.952H371.16V624.952H383.064V618.952ZM374.16 621.952V610.688H368.16V621.952H374.16ZM371.16 613.688H409.304V607.688H371.16V613.688ZM457.702 610.688H460.702V607.688H457.702V610.688ZM457.702 621.952V624.952H460.702V621.952H457.702ZM445.67 621.952V618.952H442.67V621.952H445.67ZM445.67 656V659H448.67V656H445.67ZM431.462 656H428.462V659H431.462V656ZM431.462 621.952H434.462V618.952H431.462V621.952ZM419.558 621.952H416.558V624.952H419.558V621.952ZM419.558 610.688V607.688H416.558V610.688H419.558ZM454.702 610.688V621.952H460.702V610.688H454.702ZM457.702 618.952H445.67V624.952H457.702V618.952ZM442.67 621.952V656H448.67V621.952H442.67ZM445.67 653H431.462V659H445.67V653ZM434.462 656V621.952H428.462V656H434.462ZM431.462 618.952H419.558V624.952H431.462V618.952ZM422.558 621.952V610.688H416.558V621.952H422.558ZM419.558 613.688H457.702V607.688H419.558V613.688ZM484.723 622.016V619.016H481.723V622.016H484.723ZM484.723 627.584H481.723V630.584H484.723V627.584ZM498.803 627.584H501.803V624.584H498.803V627.584ZM498.803 638.272V641.272H501.803V638.272H498.803ZM484.723 638.272V635.272H481.723V638.272H484.723ZM484.723 644.672H481.723V647.672H484.723V644.672ZM500.723 644.672H503.723V641.672H500.723V644.672ZM500.723 656V659H503.723V656H500.723ZM470.515 656H467.515V659H470.515V656ZM470.515 610.688V607.688H467.515V610.688H470.515ZM500.723 610.688H503.723V607.688H500.723V610.688ZM500.723 622.016V625.016H503.723V622.016H500.723ZM481.723 622.016V627.584H487.723V622.016H481.723ZM484.723 630.584H498.803V624.584H484.723V630.584ZM495.803 627.584V638.272H501.803V627.584H495.803ZM498.803 635.272H484.723V641.272H498.803V635.272ZM481.723 638.272V644.672H487.723V638.272H481.723ZM484.723 647.672H500.723V641.672H484.723V647.672ZM497.723 644.672V656H503.723V644.672H497.723ZM500.723 653H470.515V659H500.723V653ZM473.515 656V610.688H467.515V656H473.515ZM470.515 613.688H500.723V607.688H470.515V613.688ZM497.723 610.688V622.016H503.723V610.688H497.723ZM500.723 619.016H484.723V625.016H500.723V619.016ZM537.822 656L535.164 657.392L536.006 659H537.822V656ZM529.31 639.744L531.967 638.352L531.125 636.744H529.31V639.744ZM529.246 639.744V636.744H526.246V639.744H529.246ZM529.246 656V659H532.246V656H529.246ZM515.038 656H512.038V659H515.038V656ZM515.038 610.688V607.688H512.038V610.688H515.038ZM545.566 612.672L544.206 615.346L544.224 615.355L544.242 615.364L545.566 612.672ZM551.39 617.984L548.779 619.462L548.795 619.491L548.813 619.52L551.39 617.984ZM550.814 633.6L548.387 631.835L548.377 631.85L548.366 631.865L550.814 633.6ZM543.582 638.656L542.656 635.802L539.155 636.938L540.973 640.138L543.582 638.656ZM553.438 656V659H558.593L556.046 654.518L553.438 656ZM529.246 630.272H526.246V633.272H529.246V630.272ZM537.95 629.376L539.925 631.634L539.964 631.6L540.001 631.565L537.95 629.376ZM537.886 623.616L535.764 625.737L535.796 625.769L535.829 625.801L537.886 623.616ZM529.246 622.592V619.592H526.246V622.592H529.246ZM540.479 654.608L531.967 638.352L526.652 641.136L535.164 657.392L540.479 654.608ZM529.31 636.744H529.246V642.744H529.31V636.744ZM526.246 639.744V656H532.246V639.744H526.246ZM529.246 653H515.038V659H529.246V653ZM518.038 656V610.688H512.038V656H518.038ZM515.038 613.688H536.158V607.688H515.038V613.688ZM536.158 613.688C539.473 613.688 542.119 614.286 544.206 615.346L546.925 609.998C543.807 608.413 540.181 607.688 536.158 607.688V613.688ZM544.242 615.364C546.368 616.41 547.83 617.785 548.779 619.462L554 616.506C552.389 613.66 549.968 611.494 546.889 609.98L544.242 615.364ZM548.813 619.52C549.834 621.233 550.374 623.21 550.374 625.536H556.374C556.374 622.23 555.591 619.172 553.966 616.448L548.813 619.52ZM550.374 625.536C550.374 627.961 549.704 630.025 548.387 631.835L553.24 635.365C555.336 632.482 556.374 629.17 556.374 625.536H550.374ZM548.366 631.865C547.132 633.606 545.297 634.946 542.656 635.802L544.507 641.51C548.18 640.318 551.167 638.287 553.261 635.335L548.366 631.865ZM540.973 640.138L550.829 657.482L556.046 654.518L546.19 637.174L540.973 640.138ZM553.438 653H537.822V659H553.438V653ZM529.246 633.272H534.878V627.272H529.246V633.272ZM534.878 633.272C536.614 633.272 538.477 632.901 539.925 631.634L535.974 627.118C536.057 627.046 535.872 627.272 534.878 627.272V633.272ZM540.001 631.565C541.504 630.156 541.974 628.234 541.974 626.432H535.974C535.974 626.845 535.919 627.074 535.884 627.174C535.855 627.258 535.847 627.235 535.898 627.187L540.001 631.565ZM541.974 626.432C541.974 624.588 541.388 622.793 539.942 621.431L535.829 625.801C535.862 625.831 535.882 625.858 535.903 625.913C535.929 625.98 535.974 626.137 535.974 626.432H541.974ZM540.007 621.495C538.579 620.067 536.695 619.592 534.878 619.592V625.592C535.288 625.592 535.531 625.646 535.655 625.688C535.764 625.725 535.778 625.751 535.764 625.737L540.007 621.495ZM534.878 619.592H529.246V625.592H534.878V619.592ZM526.246 622.592V630.272H532.246V622.592H526.246ZM334.205 684.688L337.129 685.357L337.969 681.688H334.205V684.688ZM323.837 730V733H326.228L326.761 730.669L323.837 730ZM306.173 730L303.234 730.6L303.723 733H306.173V730ZM300.925 704.272L303.864 703.672L297.986 703.672L300.925 704.272ZM295.677 730V733H298.127L298.616 730.6L295.677 730ZM278.013 730L275.089 730.669L275.622 733H278.013V730ZM267.645 684.688V681.688H263.881L264.721 685.357L267.645 684.688ZM282.941 684.688L285.911 684.262L285.541 681.688H282.941V684.688ZM287.037 713.232L284.067 713.658L289.97 713.863L287.037 713.232ZM293.181 684.688V681.688H290.758L290.248 684.057L293.181 684.688ZM308.669 684.688L311.602 684.057L311.092 681.688H308.669V684.688ZM314.813 713.232L311.88 713.863L317.783 713.658L314.813 713.232ZM318.909 684.688V681.688H316.309L315.939 684.262L318.909 684.688ZM331.281 684.019L320.913 729.331L326.761 730.669L337.129 685.357L331.281 684.019ZM323.837 727H306.173V733H323.837V727ZM309.112 729.4L303.864 703.672L297.986 704.872L303.234 730.6L309.112 729.4ZM297.986 703.672L292.738 729.4L298.616 730.6L303.864 704.872L297.986 703.672ZM295.677 727H278.013V733H295.677V727ZM280.937 729.331L270.569 684.019L264.721 685.357L275.089 730.669L280.937 729.331ZM267.645 687.688H282.941V681.688H267.645V687.688ZM279.971 685.114L284.067 713.658L290.007 712.806L285.911 684.262L279.971 685.114ZM289.97 713.863L296.114 685.319L290.248 684.057L284.104 712.601L289.97 713.863ZM293.181 687.688H308.669V681.688H293.181V687.688ZM305.736 685.319L311.88 713.863L317.746 712.601L311.602 684.057L305.736 685.319ZM317.783 713.658L321.879 685.114L315.939 684.262L311.843 712.806L317.783 713.658ZM318.909 687.688H334.205V681.688H318.909V687.688ZM371.044 730L368.386 731.392L369.228 733H371.044V730ZM362.532 713.744L365.19 712.352L364.348 710.744H362.532V713.744ZM362.468 713.744V710.744H359.468V713.744H362.468ZM362.468 730V733H365.468V730H362.468ZM348.26 730H345.26V733H348.26V730ZM348.26 684.688V681.688H345.26V684.688H348.26ZM378.788 686.672L377.429 689.346L377.446 689.355L377.464 689.364L378.788 686.672ZM384.612 691.984L382.001 693.462L382.018 693.491L382.035 693.52L384.612 691.984ZM384.036 707.6L381.61 705.835L381.599 705.85L381.589 705.865L384.036 707.6ZM376.804 712.656L375.878 709.802L372.377 710.938L374.196 714.138L376.804 712.656ZM386.66 730V733H391.815L389.268 728.518L386.66 730ZM362.468 704.272H359.468V707.272H362.468V704.272ZM371.172 703.376L373.148 705.634L373.186 705.6L373.224 705.565L371.172 703.376ZM371.108 697.616L368.987 699.737L369.019 699.769L369.052 699.801L371.108 697.616ZM362.468 696.592V693.592H359.468V696.592H362.468ZM373.702 728.608L365.19 712.352L359.874 715.136L368.386 731.392L373.702 728.608ZM362.532 710.744H362.468V716.744H362.532V710.744ZM359.468 713.744V730H365.468V713.744H359.468ZM362.468 727H348.26V733H362.468V727ZM351.26 730V684.688H345.26V730H351.26ZM348.26 687.688H369.38V681.688H348.26V687.688ZM369.38 687.688C372.695 687.688 375.342 688.286 377.429 689.346L380.147 683.998C377.029 682.413 373.403 681.688 369.38 681.688V687.688ZM377.464 689.364C379.591 690.41 381.052 691.785 382.001 693.462L387.223 690.506C385.612 687.66 383.19 685.494 380.112 683.98L377.464 689.364ZM382.035 693.52C383.056 695.233 383.596 697.21 383.596 699.536H389.596C389.596 696.23 388.813 693.172 387.189 690.448L382.035 693.52ZM383.596 699.536C383.596 701.961 382.926 704.025 381.61 705.835L386.462 709.365C388.559 706.482 389.596 703.17 389.596 699.536H383.596ZM381.589 705.865C380.354 707.606 378.52 708.946 375.878 709.802L377.73 715.51C381.403 714.318 384.39 712.287 386.483 709.335L381.589 705.865ZM374.196 714.138L384.052 731.482L389.268 728.518L379.412 711.174L374.196 714.138ZM386.66 727H371.044V733H386.66V727ZM362.468 707.272H368.1V701.272H362.468V707.272ZM368.1 707.272C369.837 707.272 371.699 706.901 373.148 705.634L369.196 701.118C369.279 701.046 369.094 701.272 368.1 701.272V707.272ZM373.224 705.565C374.727 704.156 375.196 702.234 375.196 700.432H369.196C369.196 700.845 369.142 701.074 369.107 701.174C369.077 701.258 369.07 701.235 369.12 701.187L373.224 705.565ZM375.196 700.432C375.196 698.588 374.61 696.793 373.164 695.431L369.052 699.801C369.084 699.831 369.104 699.858 369.126 699.913C369.151 699.98 369.196 700.137 369.196 700.432H375.196ZM373.229 695.495C371.802 694.067 369.917 693.592 368.1 693.592V699.592C368.511 699.592 368.754 699.646 368.877 699.688C368.987 699.725 369.001 699.751 368.987 699.737L373.229 695.495ZM368.1 693.592H362.468V699.592H368.1V693.592ZM359.468 696.592V704.272H365.468V696.592H359.468ZM414.303 684.688H417.303V681.688H414.303V684.688ZM414.303 730V733H417.303V730H414.303ZM400.095 730H397.095V733H400.095V730ZM400.095 684.688V681.688H397.095V684.688H400.095ZM411.303 684.688V730H417.303V684.688H411.303ZM414.303 727H400.095V733H414.303V727ZM403.095 730V684.688H397.095V730H403.095ZM400.095 687.688H414.303V681.688H400.095V687.688ZM465.264 684.688H468.264V681.688H465.264V684.688ZM465.264 695.952V698.952H468.264V695.952H465.264ZM453.232 695.952V692.952H450.232V695.952H453.232ZM453.232 730V733H456.232V730H453.232ZM439.024 730H436.024V733H439.024V730ZM439.024 695.952H442.024V692.952H439.024V695.952ZM427.12 695.952H424.12V698.952H427.12V695.952ZM427.12 684.688V681.688H424.12V684.688H427.12ZM462.264 684.688V695.952H468.264V684.688H462.264ZM465.264 692.952H453.232V698.952H465.264V692.952ZM450.232 695.952V730H456.232V695.952H450.232ZM453.232 727H439.024V733H453.232V727ZM442.024 730V695.952H436.024V730H442.024ZM439.024 692.952H427.12V698.952H439.024V692.952ZM430.12 695.952V684.688H424.12V695.952H430.12ZM427.12 687.688H465.264V681.688H427.12V687.688ZM492.286 696.016V693.016H489.286V696.016H492.286ZM492.286 701.584H489.286V704.584H492.286V701.584ZM506.366 701.584H509.366V698.584H506.366V701.584ZM506.366 712.272V715.272H509.366V712.272H506.366ZM492.286 712.272V709.272H489.286V712.272H492.286ZM492.286 718.672H489.286V721.672H492.286V718.672ZM508.286 718.672H511.286V715.672H508.286V718.672ZM508.286 730V733H511.286V730H508.286ZM478.078 730H475.078V733H478.078V730ZM478.078 684.688V681.688H475.078V684.688H478.078ZM508.286 684.688H511.286V681.688H508.286V684.688ZM508.286 696.016V699.016H511.286V696.016H508.286ZM489.286 696.016V701.584H495.286V696.016H489.286ZM492.286 704.584H506.366V698.584H492.286V704.584ZM503.366 701.584V712.272H509.366V701.584H503.366ZM506.366 709.272H492.286V715.272H506.366V709.272ZM489.286 712.272V718.672H495.286V712.272H489.286ZM492.286 721.672H508.286V715.672H492.286V721.672ZM505.286 718.672V730H511.286V718.672H505.286ZM508.286 727H478.078V733H508.286V727ZM481.078 730V684.688H475.078V730H481.078ZM478.078 687.688H508.286V681.688H478.078V687.688ZM505.286 684.688V696.016H511.286V684.688H505.286ZM508.286 693.016H492.286V699.016H508.286V693.016ZM545.384 730L542.726 731.392L543.569 733H545.384V730ZM536.872 713.744L539.53 712.352L538.688 710.744H536.872V713.744ZM536.808 713.744V710.744H533.808V713.744H536.808ZM536.808 730V733H539.808V730H536.808ZM522.6 730H519.6V733H522.6V730ZM522.6 684.688V681.688H519.6V684.688H522.6ZM553.128 686.672L551.769 689.346L551.786 689.355L551.804 689.364L553.128 686.672ZM558.952 691.984L556.341 693.462L556.358 693.491L556.375 693.52L558.952 691.984ZM558.376 707.6L555.95 705.835L555.939 705.85L555.929 705.865L558.376 707.6ZM551.144 712.656L550.219 709.802L546.717 710.938L548.536 714.138L551.144 712.656ZM561 730V733H566.155L563.608 728.518L561 730ZM536.808 704.272H533.808V707.272H536.808V704.272ZM545.512 703.376L547.488 705.634L547.526 705.6L547.564 705.565L545.512 703.376ZM545.448 697.616L543.327 699.737L543.359 699.769L543.392 699.801L545.448 697.616ZM536.808 696.592V693.592H533.808V696.592H536.808ZM548.042 728.608L539.53 712.352L534.214 715.136L542.726 731.392L548.042 728.608ZM536.872 710.744H536.808V716.744H536.872V710.744ZM533.808 713.744V730H539.808V713.744H533.808ZM536.808 727H522.6V733H536.808V727ZM525.6 730V684.688H519.6V730H525.6ZM522.6 687.688H543.72V681.688H522.6V687.688ZM543.72 687.688C547.035 687.688 549.682 688.286 551.769 689.346L554.487 683.998C551.369 682.413 547.743 681.688 543.72 681.688V687.688ZM551.804 689.364C553.931 690.41 555.392 691.785 556.341 693.462L561.563 690.506C559.952 687.66 557.531 685.494 554.452 683.98L551.804 689.364ZM556.375 693.52C557.396 695.233 557.936 697.21 557.936 699.536H563.936C563.936 696.23 563.153 693.172 561.529 690.448L556.375 693.52ZM557.936 699.536C557.936 701.961 557.266 704.025 555.95 705.835L560.802 709.365C562.899 706.482 563.936 703.17 563.936 699.536H557.936ZM555.929 705.865C554.694 707.606 552.86 708.946 550.219 709.802L552.07 715.51C555.743 714.318 558.73 712.287 560.823 709.335L555.929 705.865ZM548.536 714.138L558.392 731.482L563.608 728.518L553.752 711.174L548.536 714.138ZM561 727H545.384V733H561V727ZM536.808 707.272H542.44V701.272H536.808V707.272ZM542.44 707.272C544.177 707.272 546.04 706.901 547.488 705.634L543.537 701.118C543.619 701.046 543.434 701.272 542.44 701.272V707.272ZM547.564 705.565C549.067 704.156 549.536 702.234 549.536 700.432H543.536C543.536 700.845 543.482 701.074 543.447 701.174C543.417 701.258 543.41 701.235 543.46 701.187L547.564 705.565ZM549.536 700.432C549.536 698.588 548.95 696.793 547.504 695.431L543.392 699.801C543.424 699.831 543.444 699.858 543.466 699.913C543.491 699.98 543.536 700.137 543.536 700.432H549.536ZM547.569 695.495C546.142 694.067 544.257 693.592 542.44 693.592V699.592C542.851 699.592 543.094 699.646 543.217 699.688C543.327 699.725 543.341 699.751 543.327 699.737L547.569 695.495ZM542.44 693.592H536.808V699.592H542.44V693.592ZM533.808 696.592V704.272H539.808V696.592H533.808Z" fill="black" mask="url(#path-3-outside-1_1009_309)"/>
<rect x="570" y="250" width="126" height="48" fill="#F5F5F5"/>
<mask id="path-6-outside-2_1009_309" maskUnits="userSpaceOnUse" x="242" y="463" width="343" height="55" fill="black">
<rect fill="white" x="242" y="463" width="343" height="55"/>
<path d="M245.041 480.528V467.216H266.737V514H251.825V480.528H245.041ZM280.972 489.936C280.972 482.555 282.529 476.752 285.644 472.528C288.801 468.304 293.644 466.192 300.172 466.192C306.657 466.192 311.478 468.325 314.636 472.592C317.793 476.816 319.372 482.597 319.372 489.936C319.372 497.317 317.793 503.141 314.636 507.408C311.478 511.632 306.657 513.744 300.172 513.744C293.644 513.744 288.801 511.632 285.644 507.408C282.529 503.141 280.972 497.317 280.972 489.936ZM305.356 489.936C305.356 486.523 305.014 483.963 304.332 482.256C303.649 480.507 302.262 479.632 300.172 479.632C298.038 479.632 296.63 480.507 295.948 482.256C295.265 483.963 294.924 486.523 294.924 489.936C294.924 493.392 295.265 495.995 295.948 497.744C296.63 499.451 298.038 500.304 300.172 500.304C302.262 500.304 303.649 499.451 304.332 497.744C305.014 495.995 305.356 493.392 305.356 489.936ZM418.574 468.688L408.206 514H390.542L385.294 488.272L380.046 514H362.382L352.014 468.688H367.31L371.406 497.232L377.55 468.688H393.038L399.182 497.232L403.278 468.688H418.574ZM461.685 507.152H446.581L444.341 514H429.429L446.005 468.688H462.389L478.901 514H463.925L461.685 507.152ZM458.229 496.464L454.133 483.856L450.037 496.464H458.229ZM534.609 468.688L518.353 500.24V514H504.145V500.24L487.889 468.688H504.145L511.377 484.752L518.609 468.688H534.609ZM564.527 514.448C559.108 514.448 554.628 513.189 551.087 510.672C547.588 508.112 545.689 504.379 545.391 499.472H560.495C560.708 502.075 561.86 503.376 563.951 503.376C564.719 503.376 565.359 503.205 565.871 502.864C566.425 502.48 566.703 501.904 566.703 501.136C566.703 500.069 566.127 499.216 564.975 498.576C563.823 497.893 562.031 497.125 559.599 496.272C556.697 495.248 554.287 494.245 552.367 493.264C550.489 492.283 548.868 490.853 547.503 488.976C546.137 487.099 545.476 484.688 545.519 481.744C545.519 478.8 546.265 476.304 547.759 474.256C549.295 472.165 551.364 470.587 553.967 469.52C556.612 468.453 559.577 467.92 562.863 467.92C568.409 467.92 572.804 469.2 576.047 471.76C579.332 474.32 581.06 477.925 581.231 482.576H565.935C565.892 481.296 565.572 480.379 564.975 479.824C564.377 479.269 563.652 478.992 562.799 478.992C562.201 478.992 561.711 479.205 561.327 479.632C560.943 480.016 560.751 480.571 560.751 481.296C560.751 482.32 561.305 483.173 562.415 483.856C563.567 484.496 565.38 485.285 567.855 486.224C570.713 487.291 573.06 488.315 574.895 489.296C576.772 490.277 578.393 491.643 579.759 493.392C581.124 495.141 581.807 497.339 581.807 499.984C581.807 502.757 581.124 505.253 579.759 507.472C578.393 509.648 576.409 511.355 573.807 512.592C571.204 513.829 568.111 514.448 564.527 514.448Z"/>
</mask>
<path d="M245.041 480.528V467.216H266.737V514H251.825V480.528H245.041ZM280.972 489.936C280.972 482.555 282.529 476.752 285.644 472.528C288.801 468.304 293.644 466.192 300.172 466.192C306.657 466.192 311.478 468.325 314.636 472.592C317.793 476.816 319.372 482.597 319.372 489.936C319.372 497.317 317.793 503.141 314.636 507.408C311.478 511.632 306.657 513.744 300.172 513.744C293.644 513.744 288.801 511.632 285.644 507.408C282.529 503.141 280.972 497.317 280.972 489.936ZM305.356 489.936C305.356 486.523 305.014 483.963 304.332 482.256C303.649 480.507 302.262 479.632 300.172 479.632C298.038 479.632 296.63 480.507 295.948 482.256C295.265 483.963 294.924 486.523 294.924 489.936C294.924 493.392 295.265 495.995 295.948 497.744C296.63 499.451 298.038 500.304 300.172 500.304C302.262 500.304 303.649 499.451 304.332 497.744C305.014 495.995 305.356 493.392 305.356 489.936ZM418.574 468.688L408.206 514H390.542L385.294 488.272L380.046 514H362.382L352.014 468.688H367.31L371.406 497.232L377.55 468.688H393.038L399.182 497.232L403.278 468.688H418.574ZM461.685 507.152H446.581L444.341 514H429.429L446.005 468.688H462.389L478.901 514H463.925L461.685 507.152ZM458.229 496.464L454.133 483.856L450.037 496.464H458.229ZM534.609 468.688L518.353 500.24V514H504.145V500.24L487.889 468.688H504.145L511.377 484.752L518.609 468.688H534.609ZM564.527 514.448C559.108 514.448 554.628 513.189 551.087 510.672C547.588 508.112 545.689 504.379 545.391 499.472H560.495C560.708 502.075 561.86 503.376 563.951 503.376C564.719 503.376 565.359 503.205 565.871 502.864C566.425 502.48 566.703 501.904 566.703 501.136C566.703 500.069 566.127 499.216 564.975 498.576C563.823 497.893 562.031 497.125 559.599 496.272C556.697 495.248 554.287 494.245 552.367 493.264C550.489 492.283 548.868 490.853 547.503 488.976C546.137 487.099 545.476 484.688 545.519 481.744C545.519 478.8 546.265 476.304 547.759 474.256C549.295 472.165 551.364 470.587 553.967 469.52C556.612 468.453 559.577 467.92 562.863 467.92C568.409 467.92 572.804 469.2 576.047 471.76C579.332 474.32 581.06 477.925 581.231 482.576H565.935C565.892 481.296 565.572 480.379 564.975 479.824C564.377 479.269 563.652 478.992 562.799 478.992C562.201 478.992 561.711 479.205 561.327 479.632C560.943 480.016 560.751 480.571 560.751 481.296C560.751 482.32 561.305 483.173 562.415 483.856C563.567 484.496 565.38 485.285 567.855 486.224C570.713 487.291 573.06 488.315 574.895 489.296C576.772 490.277 578.393 491.643 579.759 493.392C581.124 495.141 581.807 497.339 581.807 499.984C581.807 502.757 581.124 505.253 579.759 507.472C578.393 509.648 576.409 511.355 573.807 512.592C571.204 513.829 568.111 514.448 564.527 514.448Z" fill="white"/>
<path d="M245.041 480.528H242.041V483.528H245.041V480.528ZM245.041 467.216V464.216H242.041V467.216H245.041ZM266.737 467.216H269.737V464.216H266.737V467.216ZM266.737 514V517H269.737V514H266.737ZM251.825 514H248.825V517H251.825V514ZM251.825 480.528H254.825V477.528H251.825V480.528ZM248.041 480.528V467.216H242.041V480.528H248.041ZM245.041 470.216H266.737V464.216H245.041V470.216ZM263.737 467.216V514H269.737V467.216H263.737ZM266.737 511H251.825V517H266.737V511ZM254.825 514V480.528H248.825V514H254.825ZM251.825 477.528H245.041V483.528H251.825V477.528ZM285.644 472.528L283.241 470.732L283.235 470.74L283.229 470.748L285.644 472.528ZM314.636 472.592L312.224 474.377L312.229 474.382L312.233 474.388L314.636 472.592ZM314.636 507.408L317.039 509.204L317.043 509.198L317.047 509.193L314.636 507.408ZM285.644 507.408L283.221 509.177L283.231 509.191L283.241 509.204L285.644 507.408ZM304.332 482.256L301.537 483.347L301.542 483.358L301.546 483.37L304.332 482.256ZM295.948 482.256L298.733 483.37L298.738 483.358L298.742 483.347L295.948 482.256ZM295.948 497.744L293.153 498.835L293.158 498.846L293.162 498.858L295.948 497.744ZM304.332 497.744L307.117 498.858L307.122 498.846L307.126 498.835L304.332 497.744ZM283.972 489.936C283.972 482.942 285.451 477.845 288.058 474.308L283.229 470.748C279.607 475.659 277.972 482.167 277.972 489.936H283.972ZM288.047 474.324C290.503 471.038 294.339 469.192 300.172 469.192V463.192C292.948 463.192 287.099 465.57 283.241 470.732L288.047 474.324ZM300.172 469.192C305.942 469.192 309.76 471.046 312.224 474.377L317.047 470.807C313.197 465.604 307.372 463.192 300.172 463.192V469.192ZM312.233 474.388C314.877 477.925 316.372 482.997 316.372 489.936H322.372C322.372 482.198 320.71 475.707 317.039 470.796L312.233 474.388ZM316.372 489.936C316.372 496.92 314.876 502.041 312.224 505.623L317.047 509.193C320.711 504.242 322.372 497.715 322.372 489.936H316.372ZM312.233 505.612C309.773 508.903 305.954 510.744 300.172 510.744V516.744C307.361 516.744 313.184 514.361 317.039 509.204L312.233 505.612ZM300.172 510.744C294.339 510.744 290.503 508.898 288.047 505.612L283.241 509.204C287.099 514.366 292.948 516.744 300.172 516.744V510.744ZM288.067 505.639C285.45 502.054 283.972 496.927 283.972 489.936H277.972C277.972 497.707 279.608 504.228 283.221 509.177L288.067 505.639ZM308.356 489.936C308.356 486.411 308.016 483.388 307.117 481.142L301.546 483.37C302.013 484.537 302.356 486.634 302.356 489.936H308.356ZM307.126 481.165C306.587 479.784 305.693 478.579 304.38 477.751C303.092 476.938 301.629 476.632 300.172 476.632V482.632C300.805 482.632 301.081 482.763 301.179 482.825C301.253 482.872 301.394 482.979 301.537 483.347L307.126 481.165ZM300.172 476.632C298.704 476.632 297.23 476.933 295.933 477.74C294.606 478.564 293.697 479.771 293.153 481.165L298.742 483.347C298.881 482.992 299.018 482.887 299.099 482.836C299.209 482.768 299.506 482.632 300.172 482.632V476.632ZM293.162 481.142C292.264 483.388 291.924 486.411 291.924 489.936H297.924C297.924 486.634 298.266 484.537 298.733 483.37L293.162 481.142ZM291.924 489.936C291.924 493.505 292.265 496.558 293.153 498.835L298.742 496.653C298.266 495.431 297.924 493.279 297.924 489.936H291.924ZM293.162 498.858C293.716 500.242 294.635 501.426 295.961 502.23C297.253 503.013 298.716 503.304 300.172 503.304V497.304C299.494 497.304 299.186 497.168 299.071 497.098C298.988 497.048 298.862 496.953 298.733 496.63L293.162 498.858ZM300.172 503.304C301.617 503.304 303.069 503.008 304.352 502.219C305.664 501.412 306.569 500.229 307.117 498.858L301.546 496.63C301.412 496.966 301.283 497.063 301.207 497.109C301.104 497.173 300.817 497.304 300.172 497.304V503.304ZM307.126 498.835C308.015 496.558 308.356 493.505 308.356 489.936H302.356C302.356 493.279 302.014 495.431 301.537 496.653L307.126 498.835ZM418.574 468.688L421.498 469.357L422.338 465.688H418.574V468.688ZM408.206 514V517H410.597L411.13 514.669L408.206 514ZM390.542 514L387.602 514.6L388.092 517H390.542V514ZM385.294 488.272L388.233 487.672L382.354 487.672L385.294 488.272ZM380.046 514V517H382.496L382.985 514.6L380.046 514ZM362.382 514L359.457 514.669L359.991 517H362.382V514ZM352.014 468.688V465.688H348.25L349.089 469.357L352.014 468.688ZM367.31 468.688L370.279 468.262L369.91 465.688H367.31V468.688ZM371.406 497.232L368.436 497.658L374.339 497.863L371.406 497.232ZM377.55 468.688V465.688H375.127L374.617 468.057L377.55 468.688ZM393.038 468.688L395.971 468.057L395.461 465.688H393.038V468.688ZM399.182 497.232L396.249 497.863L402.151 497.658L399.182 497.232ZM403.278 468.688V465.688H400.678L400.308 468.262L403.278 468.688ZM415.649 468.019L405.281 513.331L411.13 514.669L421.498 469.357L415.649 468.019ZM408.206 511H390.542V517H408.206V511ZM393.481 513.4L388.233 487.672L382.354 488.872L387.602 514.6L393.481 513.4ZM382.354 487.672L377.106 513.4L382.985 514.6L388.233 488.872L382.354 487.672ZM380.046 511H362.382V517H380.046V511ZM365.306 513.331L354.938 468.019L349.089 469.357L359.457 514.669L365.306 513.331ZM352.014 471.688H367.31V465.688H352.014V471.688ZM364.34 469.114L368.436 497.658L374.375 496.806L370.279 468.262L364.34 469.114ZM374.339 497.863L380.483 469.319L374.617 468.057L368.473 496.601L374.339 497.863ZM377.55 471.688H393.038V465.688H377.55V471.688ZM390.105 469.319L396.249 497.863L402.115 496.601L395.971 468.057L390.105 469.319ZM402.151 497.658L406.247 469.114L400.308 468.262L396.212 496.806L402.151 497.658ZM403.278 471.688H418.574V465.688H403.278V471.688ZM461.685 507.152L464.536 506.219L463.86 504.152H461.685V507.152ZM446.581 507.152V504.152H444.406L443.729 506.219L446.581 507.152ZM444.341 514V517H446.516L447.192 514.933L444.341 514ZM429.429 514L426.611 512.969L425.137 517H429.429V514ZM446.005 468.688V465.688H443.908L443.187 467.657L446.005 468.688ZM462.389 468.688L465.207 467.661L464.489 465.688H462.389V468.688ZM478.901 514V517H483.187L481.719 512.973L478.901 514ZM463.925 514L461.073 514.933L461.75 517H463.925V514ZM458.229 496.464V499.464H462.358L461.082 495.537L458.229 496.464ZM454.133 483.856L456.986 482.929L454.133 474.147L451.28 482.929L454.133 483.856ZM450.037 496.464L447.184 495.537L445.908 499.464H450.037V496.464ZM461.685 504.152H446.581V510.152H461.685V504.152ZM443.729 506.219L441.489 513.067L447.192 514.933L449.432 508.085L443.729 506.219ZM444.341 511H429.429V517H444.341V511ZM432.246 515.031L448.822 469.719L443.187 467.657L426.611 512.969L432.246 515.031ZM446.005 471.688H462.389V465.688H446.005V471.688ZM459.57 469.715L476.082 515.027L481.719 512.973L465.207 467.661L459.57 469.715ZM478.901 511H463.925V517H478.901V511ZM466.776 513.067L464.536 506.219L458.833 508.085L461.073 514.933L466.776 513.067ZM461.082 495.537L456.986 482.929L451.28 484.783L455.376 497.391L461.082 495.537ZM451.28 482.929L447.184 495.537L452.89 497.391L456.986 484.783L451.28 482.929ZM450.037 499.464H458.229V493.464H450.037V499.464ZM534.609 468.688L537.276 470.062L539.529 465.688H534.609V468.688ZM518.353 500.24L515.686 498.866L515.353 499.513V500.24H518.353ZM518.353 514V517H521.353V514H518.353ZM504.145 514H501.145V517H504.145V514ZM504.145 500.24H507.145V499.513L506.812 498.866L504.145 500.24ZM487.889 468.688V465.688H482.968L485.222 470.062L487.889 468.688ZM504.145 468.688L506.88 467.456L506.084 465.688H504.145V468.688ZM511.377 484.752L508.641 485.984L511.377 492.06L514.112 485.984L511.377 484.752ZM518.609 468.688V465.688H516.669L515.873 467.456L518.609 468.688ZM531.942 467.314L515.686 498.866L521.02 501.614L537.276 470.062L531.942 467.314ZM515.353 500.24V514H521.353V500.24H515.353ZM518.353 511H504.145V517H518.353V511ZM507.145 514V500.24H501.145V514H507.145ZM506.812 498.866L490.556 467.314L485.222 470.062L501.478 501.614L506.812 498.866ZM487.889 471.688H504.145V465.688H487.889V471.688ZM501.409 469.92L508.641 485.984L514.112 483.52L506.88 467.456L501.409 469.92ZM514.112 485.984L521.344 469.92L515.873 467.456L508.641 483.52L514.112 485.984ZM518.609 471.688H534.609V465.688H518.609V471.688ZM551.087 510.672L549.315 513.093L549.332 513.105L549.349 513.117L551.087 510.672ZM545.391 499.472V496.472H542.203L542.396 499.654L545.391 499.472ZM560.495 499.472L563.485 499.227L563.259 496.472H560.495V499.472ZM565.871 502.864L567.535 505.36L567.557 505.346L567.578 505.331L565.871 502.864ZM564.975 498.576L563.445 501.157L563.481 501.178L563.518 501.198L564.975 498.576ZM559.599 496.272L558.6 499.101L558.605 499.103L559.599 496.272ZM552.367 493.264L550.977 495.923L550.989 495.929L551.001 495.935L552.367 493.264ZM547.503 488.976L549.929 487.211L549.929 487.211L547.503 488.976ZM545.519 481.744L548.518 481.787L548.519 481.766V481.744H545.519ZM547.759 474.256L545.341 472.48L545.335 472.488L547.759 474.256ZM553.967 469.52L552.845 466.738L552.837 466.741L552.829 466.744L553.967 469.52ZM576.047 471.76L574.188 474.115L574.195 474.121L574.203 474.126L576.047 471.76ZM581.231 482.576V485.576H584.343L584.229 482.466L581.231 482.576ZM565.935 482.576L562.936 482.676L563.033 485.576H565.935V482.576ZM561.327 479.632L563.448 481.753L563.504 481.698L563.557 481.639L561.327 479.632ZM562.415 483.856L560.842 486.411L560.899 486.446L560.958 486.478L562.415 483.856ZM567.855 486.224L566.791 489.029L566.798 489.032L566.806 489.035L567.855 486.224ZM574.895 489.296L573.48 491.941L573.492 491.948L573.505 491.955L574.895 489.296ZM579.759 493.392L577.394 495.238L577.394 495.238L579.759 493.392ZM579.759 507.472L582.3 509.066L582.307 509.055L582.314 509.044L579.759 507.472ZM573.807 512.592L572.519 509.883L573.807 512.592ZM564.527 511.448C559.576 511.448 555.745 510.303 552.825 508.227L549.349 513.117C553.511 516.076 558.641 517.448 564.527 517.448V511.448ZM552.858 508.251C550.182 506.293 548.638 503.439 548.385 499.29L542.396 499.654C542.741 505.318 544.994 509.931 549.315 513.093L552.858 508.251ZM545.391 502.472H560.495V496.472H545.391V502.472ZM557.505 499.717C557.639 501.356 558.099 503.063 559.272 504.389C560.533 505.812 562.237 506.376 563.951 506.376V500.376C563.737 500.376 563.664 500.343 563.676 500.348C563.701 500.358 563.742 500.386 563.765 500.411C563.787 500.436 563.564 500.19 563.485 499.227L557.505 499.717ZM563.951 506.376C565.164 506.376 566.42 506.103 567.535 505.36L564.207 500.368C564.244 500.343 564.261 500.342 564.234 500.349C564.202 500.358 564.114 500.376 563.951 500.376V506.376ZM567.578 505.331C569.064 504.302 569.703 502.73 569.703 501.136H563.703C563.703 501.159 563.699 501.034 563.792 500.843C563.891 500.636 564.038 500.484 564.163 500.397L567.578 505.331ZM569.703 501.136C569.703 498.708 568.272 496.976 566.432 495.954L563.518 501.198C563.793 501.351 563.824 501.433 563.784 501.374C563.763 501.344 563.739 501.296 563.721 501.238C563.704 501.181 563.703 501.143 563.703 501.136H569.703ZM566.504 495.995C565.091 495.158 563.073 494.312 560.592 493.441L558.605 499.103C560.988 499.939 562.555 500.629 563.445 501.157L566.504 495.995ZM560.597 493.443C557.773 492.446 555.495 491.494 553.732 490.593L551.001 495.935C553.078 496.997 555.622 498.05 558.6 499.101L560.597 493.443ZM553.757 490.605C552.327 489.858 551.049 488.751 549.929 487.211L545.077 490.741C546.687 492.955 548.652 494.707 550.977 495.923L553.757 490.605ZM549.929 487.211C549.037 485.985 548.483 484.259 548.518 481.787L542.519 481.701C542.47 485.117 543.238 488.212 545.077 490.741L549.929 487.211ZM548.519 481.744C548.519 479.329 549.122 477.479 550.183 476.024L545.335 472.488C543.409 475.129 542.519 478.271 542.519 481.744H548.519ZM550.176 476.032C551.358 474.423 552.968 473.172 555.104 472.296L552.829 466.744C549.761 468.002 547.231 469.907 545.341 472.48L550.176 476.032ZM555.089 472.302C557.328 471.4 559.904 470.92 562.863 470.92V464.92C559.251 464.92 555.897 465.507 552.845 466.738L555.089 472.302ZM562.863 470.92C567.965 470.92 571.631 472.096 574.188 474.115L577.906 469.405C573.977 466.304 568.854 464.92 562.863 464.92V470.92ZM574.203 474.126C576.702 476.074 578.09 478.804 578.233 482.686L584.229 482.466C584.03 477.047 581.963 472.566 577.891 469.394L574.203 474.126ZM581.231 479.576H565.935V485.576H581.231V479.576ZM568.933 482.476C568.879 480.84 568.459 478.966 567.016 477.626L562.933 482.022C562.811 481.909 562.8 481.831 562.83 481.916C562.864 482.014 562.922 482.248 562.936 482.676L568.933 482.476ZM567.016 477.626C565.836 476.53 564.37 475.992 562.799 475.992V481.992C562.849 481.992 562.88 481.996 562.896 481.999C562.91 482.001 562.914 482.003 562.911 482.002C562.908 482.001 562.905 481.999 562.905 481.999C562.906 482 562.915 482.005 562.933 482.022L567.016 477.626ZM562.799 475.992C561.39 475.992 560.075 476.538 559.097 477.625L563.557 481.639C563.483 481.721 563.356 481.826 563.179 481.903C563.005 481.979 562.864 481.992 562.799 481.992V475.992ZM559.205 477.511C558.09 478.626 557.751 480.051 557.751 481.296H563.751C563.751 481.192 563.765 481.215 563.73 481.317C563.689 481.434 563.603 481.599 563.448 481.753L559.205 477.511ZM557.751 481.296C557.751 483.649 559.122 485.352 560.842 486.411L563.987 481.301C563.709 481.13 563.659 481.034 563.682 481.069C563.695 481.089 563.716 481.128 563.732 481.182C563.748 481.236 563.751 481.278 563.751 481.296H557.751ZM560.958 486.478C562.307 487.228 564.287 488.079 566.791 489.029L568.919 483.419C566.473 482.491 564.826 481.764 563.872 481.234L560.958 486.478ZM566.806 489.035C569.591 490.074 571.804 491.045 573.48 491.941L576.31 486.651C574.316 485.584 571.836 484.507 568.904 483.413L566.806 489.035ZM573.505 491.955C574.985 492.728 576.279 493.809 577.394 495.238L582.124 491.546C580.508 489.476 578.559 487.826 576.285 486.637L573.505 491.955ZM577.394 495.238C578.273 496.364 578.807 497.874 578.807 499.984H584.807C584.807 496.803 583.976 493.919 582.124 491.546L577.394 495.238ZM578.807 499.984C578.807 502.24 578.259 504.185 577.204 505.9L582.314 509.044C583.989 506.322 584.807 503.275 584.807 499.984H578.807ZM577.218 505.878C576.191 507.513 574.671 508.859 572.519 509.883L575.095 515.301C578.148 513.85 580.595 511.783 582.3 509.066L577.218 505.878ZM572.519 509.883C570.404 510.888 567.771 511.448 564.527 511.448V517.448C568.45 517.448 572.004 516.771 575.095 515.301L572.519 509.883Z" fill="black" mask="url(#path-6-outside-2_1009_309)"/>
<path d="M385.35 950.38V953.02H382.53V961H379.2V953.02H376.41V950.38H385.35ZM393.528 961.105C392.528 961.105 391.608 960.87 390.768 960.4C389.938 959.93 389.278 959.28 388.788 958.45C388.298 957.62 388.053 956.685 388.053 955.645C388.053 954.605 388.298 953.67 388.788 952.84C389.278 952.01 389.938 951.365 390.768 950.905C391.608 950.435 392.528 950.2 393.528 950.2C394.528 950.2 395.443 950.435 396.273 950.905C397.103 951.365 397.758 952.01 398.238 952.84C398.728 953.67 398.973 954.605 398.973 955.645C398.973 956.685 398.728 957.62 398.238 958.45C397.758 959.28 397.098 959.93 396.258 960.4C395.428 960.87 394.518 961.105 393.528 961.105ZM393.528 958C394.188 958 394.698 957.79 395.058 957.37C395.418 956.94 395.598 956.365 395.598 955.645C395.598 954.915 395.418 954.34 395.058 953.92C394.698 953.49 394.188 953.275 393.528 953.275C392.858 953.275 392.343 953.49 391.983 953.92C391.623 954.34 391.443 954.915 391.443 955.645C391.443 956.365 391.623 956.94 391.983 957.37C392.343 957.79 392.858 958 393.528 958ZM407.449 961.105C406.449 961.105 405.529 960.87 404.689 960.4C403.859 959.93 403.199 959.28 402.709 958.45C402.219 957.62 401.974 956.685 401.974 955.645C401.974 954.605 402.219 953.67 402.709 952.84C403.199 952.01 403.859 951.365 404.689 950.905C405.529 950.435 406.449 950.2 407.449 950.2C408.449 950.2 409.364 950.435 410.194 950.905C411.024 951.365 411.679 952.01 412.159 952.84C412.649 953.67 412.894 954.605 412.894 955.645C412.894 956.685 412.649 957.62 412.159 958.45C411.679 959.28 411.019 959.93 410.179 960.4C409.349 960.87 408.439 961.105 407.449 961.105ZM407.449 958C408.109 958 408.619 957.79 408.979 957.37C409.339 956.94 409.519 956.365 409.519 955.645C409.519 954.915 409.339 954.34 408.979 953.92C408.619 953.49 408.109 953.275 407.449 953.275C406.779 953.275 406.264 953.49 405.904 953.92C405.544 954.34 405.364 954.915 405.364 955.645C405.364 956.365 405.544 956.94 405.904 957.37C406.264 957.79 406.779 958 407.449 958ZM426.381 961H423.051L419.526 955.66V961H416.196V950.38H419.526L423.051 955.81V950.38H426.381V961ZM440.185 950.38L436.375 957.775V961H433.045V957.775L429.235 950.38H433.045L434.74 954.145L436.435 950.38H440.185ZM446.732 958.345H450.992V961H443.042V958.495L447.242 953.02H443.042V950.38H450.992V952.885L446.732 958.345Z" fill="black"/>
<path d="M598.942 273.952C598.942 268.416 600.11 264.064 602.446 260.896C604.814 257.728 608.446 256.144 613.342 256.144C618.206 256.144 621.822 257.744 624.19 260.944C626.558 264.112 627.742 268.448 627.742 273.952C627.742 279.488 626.558 283.856 624.19 287.056C621.822 290.224 618.206 291.808 613.342 291.808C608.446 291.808 604.814 290.224 602.446 287.056C600.11 283.856 598.942 279.488 598.942 273.952ZM617.23 273.952C617.23 271.392 616.974 269.472 616.462 268.192C615.95 266.88 614.91 266.224 613.342 266.224C611.742 266.224 610.686 266.88 610.174 268.192C609.662 269.472 609.406 271.392 609.406 273.952C609.406 276.544 609.662 278.496 610.174 279.808C610.686 281.088 611.742 281.728 613.342 281.728C614.91 281.728 615.95 281.088 616.462 279.808C616.974 278.496 617.23 276.544 617.23 273.952ZM663.939 266.272H650.019V270.304C650.627 269.76 651.411 269.328 652.371 269.008C653.363 268.688 654.467 268.528 655.683 268.528C657.859 268.528 659.699 269.04 661.203 270.064C662.707 271.088 663.827 272.464 664.563 274.192C665.299 275.888 665.667 277.776 665.667 279.856C665.667 283.696 664.579 286.688 662.403 288.832C660.259 290.944 657.299 292 653.523 292C650.771 292 648.387 291.52 646.371 290.56C644.387 289.6 642.867 288.272 641.811 286.576C640.787 284.88 640.307 282.944 640.371 280.768H650.739C650.739 281.28 650.915 281.76 651.267 282.208C651.619 282.656 652.195 282.88 652.995 282.88C653.795 282.88 654.387 282.592 654.771 282.016C655.155 281.44 655.347 280.656 655.347 279.664C655.347 278.736 655.123 278.032 654.675 277.552C654.259 277.072 653.651 276.832 652.851 276.832C652.179 276.832 651.667 276.992 651.315 277.312C650.963 277.632 650.787 278 650.787 278.416H640.419V256.912H663.939V266.272Z" fill="black"/>
</g>
</g>
</g>
<defs>
<filter id="filter0_d_1009_309" x="62.6" y="139.6" width="697.8" height="944.8" filterUnits="userSpaceOnUse" color-interpolation-filters="sRGB">
<feFlood flood-opacity="0" result="BackgroundImageFix"/>
<feColorMatrix in="SourceAlpha" type="matrix" values="0 0 0 0 0 0 0 0 0 0 0 0 0 0 0 0 0 0 127 0" result="hardAlpha"/>
<feOffset dx="13" dy="12"/>
<feGaussianBlur stdDeviation="25.7"/>
<feComposite in2="hardAlpha" operator="out"/>
<feColorMatrix type="matrix" values="0 0 0 0 0 0 0 0 0 0 0 0 0 0 0 0 0 0 0.25 0"/>
<feBlend mode="normal" in2="BackgroundImageFix" result="effect1_dropShadow_1009_309"/>
<feBlend mode="normal" in="SourceGraphic" in2="effect1_dropShadow_1009_309" result="shape"/>
</filter>
<filter id="filter1_f_1009_309" x="119" y="177" width="8.00004" height="846" filterUnits="userSpaceOnUse" color-interpolation-filters="sRGB">
<feFlood flood-opacity="0" result="BackgroundImageFix"/>
<feBlend mode="normal" in="SourceGraphic" in2="BackgroundImageFix" result="shape"/>
<feGaussianBlur stdDeviation="1" result="effect1_foregroundBlur_1009_309"/>
</filter>
<filter id="filter2_f_1009_309" x="123" y="177" width="8.00004" height="846" filterUnits="userSpaceOnUse" color-interpolation-filters="sRGB">
<feFlood flood-opacity="0" result="BackgroundImageFix"/>
<feBlend mode="normal" in="SourceGraphic" in2="BackgroundImageFix" result="shape"/>
<feGaussianBlur stdDeviation="1" result="effect1_foregroundBlur_1009_309"/>
</filter>
<clipPath id="clip0_1009_309">
<rect width="797" height="1200" fill="white"/>
</clipPath>
<clipPath id="clip1_1009_309">
<rect width="595" height="842" fill="white" transform="translate(101 179)"/>
</clipPath>
</defs>
</svg>
