<svg width="797" height="1200" viewBox="0 0 797 1200" fill="none" xmlns="http://www.w3.org/2000/svg">
<g clip-path="url(#clip0_1_2)">
<rect width="797" height="1200" fill="#DBEAFE"/>
<g filter="url(#filter0_d_1_2)">
<g clip-path="url(#clip1_1_2)">
<rect width="595" height="842" transform="translate(101 179)" fill="#DBEAFE"/>
<g opacity="0.78" filter="url(#filter1_f_1_2)">
<line x1="123" y1="179" x2="123" y2="1021" stroke="black" stroke-opacity="0.31" stroke-width="4"/>
</g>
<g opacity="0.78" filter="url(#filter2_f_1_2)">
<line x1="127" y1="179" x2="127" y2="1021" stroke="white" stroke-opacity="0.62" stroke-width="4"/>
</g>
<mask id="path-3-outside-1_1_2" maskUnits="userSpaceOnUse" x="189" y="544" width="454" height="128" fill="black">
<rect fill="white" x="189" y="544" width="454" height="128"/>
<path d="M259.91 548.688L249.542 594H231.878L226.63 568.272L221.382 594H203.718L193.35 548.688H208.646L212.742 577.232L218.886 548.688H234.374L240.518 577.232L244.614 548.688H259.91ZM288.173 560.016V565.584H302.253V576.272H288.173V582.672H304.173V594H273.965V548.688H304.173V560.016H288.173ZM348.823 570.768C351.554 571.408 353.666 572.731 355.159 574.736C356.695 576.699 357.463 578.981 357.463 581.584C357.463 585.552 356.141 588.624 353.495 590.8C350.893 592.933 347.138 594 342.231 594H318.487V548.688H341.591C346.199 548.688 349.826 549.691 352.471 551.696C355.117 553.701 356.439 556.624 356.439 560.464C356.439 563.109 355.735 565.349 354.327 567.184C352.962 568.976 351.127 570.171 348.823 570.768ZM332.695 566.352H338.199C339.479 566.352 340.418 566.096 341.015 565.584C341.655 565.072 341.975 564.283 341.975 563.216C341.975 562.107 341.655 561.296 341.015 560.784C340.418 560.229 339.479 559.952 338.199 559.952H332.695V566.352ZM339.159 582.608C340.439 582.608 341.378 582.373 341.975 581.904C342.615 581.392 342.935 580.581 342.935 579.472C342.935 577.296 341.677 576.208 339.159 576.208H332.695V582.608H339.159ZM434.488 594H420.28L405.24 571.216V594H391.032V548.688H405.24L420.28 571.856V548.688H434.488V594ZM471.947 594.448C467.681 594.448 463.755 593.445 460.171 591.44C456.63 589.435 453.814 586.661 451.723 583.12C449.633 579.579 448.587 575.589 448.587 571.152C448.587 566.715 449.633 562.725 451.723 559.184C453.814 555.643 456.63 552.891 460.171 550.928C463.755 548.923 467.681 547.92 471.947 547.92C476.214 547.92 480.118 548.923 483.659 550.928C487.201 552.891 489.995 555.643 492.043 559.184C494.134 562.725 495.179 566.715 495.179 571.152C495.179 575.589 494.134 579.579 492.043 583.12C489.995 586.661 487.179 589.435 483.595 591.44C480.054 593.445 476.171 594.448 471.947 594.448ZM471.947 581.2C474.763 581.2 476.939 580.304 478.475 578.512C480.011 576.677 480.779 574.224 480.779 571.152C480.779 568.037 480.011 565.584 478.475 563.792C476.939 561.957 474.763 561.04 471.947 561.04C469.089 561.04 466.891 561.957 465.355 563.792C463.819 565.584 463.051 568.037 463.051 571.152C463.051 574.224 463.819 576.677 465.355 578.512C466.891 580.304 469.089 581.2 471.947 581.2ZM554.897 548.688L539.665 594H521.297L506.065 548.688H521.169L530.513 579.856L539.793 548.688H554.897ZM581.245 560.016V565.584H595.325V576.272H581.245V582.672H597.245V594H567.037V548.688H597.245V560.016H581.245ZM625.768 583.248H639.464V594H611.56V548.688H625.768V583.248ZM321.631 622.688L311.263 668H293.599L288.351 642.272L283.103 668H265.439L255.071 622.688H270.367L274.463 651.232L280.607 622.688H296.095L302.239 651.232L306.335 622.688H321.631ZM358.47 668L349.958 651.744H349.894V668H335.686V622.688H356.806C360.476 622.688 363.612 623.349 366.214 624.672C368.817 625.952 370.758 627.723 372.038 629.984C373.361 632.203 374.022 634.72 374.022 637.536C374.022 640.565 373.169 643.253 371.462 645.6C369.798 647.947 367.388 649.632 364.23 650.656L374.086 668H358.47ZM349.894 642.272H355.526C356.892 642.272 357.916 641.973 358.598 641.376C359.281 640.736 359.622 639.755 359.622 638.432C359.622 637.237 359.26 636.299 358.534 635.616C357.852 634.933 356.849 634.592 355.526 634.592H349.894V642.272ZM401.729 622.688V668H387.521V622.688H401.729ZM452.69 622.688V633.952H440.658V668H426.45V633.952H414.546V622.688H452.69ZM479.712 622.688V668H465.504V622.688H479.712ZM538.545 668H524.337L509.297 645.216V668H495.089V622.688H509.297L524.337 645.856V622.688H538.545V668ZM581.7 638.176C581.145 637.28 580.356 636.597 579.332 636.128C578.308 635.616 577.07 635.36 575.62 635.36C572.889 635.36 570.777 636.256 569.284 638.048C567.79 639.797 567.044 642.208 567.044 645.28C567.044 648.821 567.876 651.467 569.54 653.216C571.204 654.965 573.764 655.84 577.22 655.84C580.505 655.84 583.15 654.517 585.156 651.872H573.828V641.824H596.932V656.032C594.969 659.403 592.26 662.304 588.804 664.736C585.348 667.125 580.974 668.32 575.684 668.32C570.99 668.32 566.894 667.36 563.396 665.44C559.94 663.477 557.273 660.747 555.396 657.248C553.561 653.749 552.644 649.76 552.644 645.28C552.644 640.8 553.561 636.811 555.396 633.312C557.273 629.813 559.94 627.104 563.396 625.184C566.852 623.221 570.905 622.24 575.556 622.24C581.486 622.24 586.308 623.669 590.02 626.528C593.774 629.387 595.993 633.269 596.676 638.176H581.7Z"/>
</mask>
<path d="M259.91 548.688L249.542 594H231.878L226.63 568.272L221.382 594H203.718L193.35 548.688H208.646L212.742 577.232L218.886 548.688H234.374L240.518 577.232L244.614 548.688H259.91ZM288.173 560.016V565.584H302.253V576.272H288.173V582.672H304.173V594H273.965V548.688H304.173V560.016H288.173ZM348.823 570.768C351.554 571.408 353.666 572.731 355.159 574.736C356.695 576.699 357.463 578.981 357.463 581.584C357.463 585.552 356.141 588.624 353.495 590.8C350.893 592.933 347.138 594 342.231 594H318.487V548.688H341.591C346.199 548.688 349.826 549.691 352.471 551.696C355.117 553.701 356.439 556.624 356.439 560.464C356.439 563.109 355.735 565.349 354.327 567.184C352.962 568.976 351.127 570.171 348.823 570.768ZM332.695 566.352H338.199C339.479 566.352 340.418 566.096 341.015 565.584C341.655 565.072 341.975 564.283 341.975 563.216C341.975 562.107 341.655 561.296 341.015 560.784C340.418 560.229 339.479 559.952 338.199 559.952H332.695V566.352ZM339.159 582.608C340.439 582.608 341.378 582.373 341.975 581.904C342.615 581.392 342.935 580.581 342.935 579.472C342.935 577.296 341.677 576.208 339.159 576.208H332.695V582.608H339.159ZM434.488 594H420.28L405.24 571.216V594H391.032V548.688H405.24L420.28 571.856V548.688H434.488V594ZM471.947 594.448C467.681 594.448 463.755 593.445 460.171 591.44C456.63 589.435 453.814 586.661 451.723 583.12C449.633 579.579 448.587 575.589 448.587 571.152C448.587 566.715 449.633 562.725 451.723 559.184C453.814 555.643 456.63 552.891 460.171 550.928C463.755 548.923 467.681 547.92 471.947 547.92C476.214 547.92 480.118 548.923 483.659 550.928C487.201 552.891 489.995 555.643 492.043 559.184C494.134 562.725 495.179 566.715 495.179 571.152C495.179 575.589 494.134 579.579 492.043 583.12C489.995 586.661 487.179 589.435 483.595 591.44C480.054 593.445 476.171 594.448 471.947 594.448ZM471.947 581.2C474.763 581.2 476.939 580.304 478.475 578.512C480.011 576.677 480.779 574.224 480.779 571.152C480.779 568.037 480.011 565.584 478.475 563.792C476.939 561.957 474.763 561.04 471.947 561.04C469.089 561.04 466.891 561.957 465.355 563.792C463.819 565.584 463.051 568.037 463.051 571.152C463.051 574.224 463.819 576.677 465.355 578.512C466.891 580.304 469.089 581.2 471.947 581.2ZM554.897 548.688L539.665 594H521.297L506.065 548.688H521.169L530.513 579.856L539.793 548.688H554.897ZM581.245 560.016V565.584H595.325V576.272H581.245V582.672H597.245V594H567.037V548.688H597.245V560.016H581.245ZM625.768 583.248H639.464V594H611.56V548.688H625.768V583.248ZM321.631 622.688L311.263 668H293.599L288.351 642.272L283.103 668H265.439L255.071 622.688H270.367L274.463 651.232L280.607 622.688H296.095L302.239 651.232L306.335 622.688H321.631ZM358.47 668L349.958 651.744H349.894V668H335.686V622.688H356.806C360.476 622.688 363.612 623.349 366.214 624.672C368.817 625.952 370.758 627.723 372.038 629.984C373.361 632.203 374.022 634.72 374.022 637.536C374.022 640.565 373.169 643.253 371.462 645.6C369.798 647.947 367.388 649.632 364.23 650.656L374.086 668H358.47ZM349.894 642.272H355.526C356.892 642.272 357.916 641.973 358.598 641.376C359.281 640.736 359.622 639.755 359.622 638.432C359.622 637.237 359.26 636.299 358.534 635.616C357.852 634.933 356.849 634.592 355.526 634.592H349.894V642.272ZM401.729 622.688V668H387.521V622.688H401.729ZM452.69 622.688V633.952H440.658V668H426.45V633.952H414.546V622.688H452.69ZM479.712 622.688V668H465.504V622.688H479.712ZM538.545 668H524.337L509.297 645.216V668H495.089V622.688H509.297L524.337 645.856V622.688H538.545V668ZM581.7 638.176C581.145 637.28 580.356 636.597 579.332 636.128C578.308 635.616 577.07 635.36 575.62 635.36C572.889 635.36 570.777 636.256 569.284 638.048C567.79 639.797 567.044 642.208 567.044 645.28C567.044 648.821 567.876 651.467 569.54 653.216C571.204 654.965 573.764 655.84 577.22 655.84C580.505 655.84 583.15 654.517 585.156 651.872H573.828V641.824H596.932V656.032C594.969 659.403 592.26 662.304 588.804 664.736C585.348 667.125 580.974 668.32 575.684 668.32C570.99 668.32 566.894 667.36 563.396 665.44C559.94 663.477 557.273 660.747 555.396 657.248C553.561 653.749 552.644 649.76 552.644 645.28C552.644 640.8 553.561 636.811 555.396 633.312C557.273 629.813 559.94 627.104 563.396 625.184C566.852 623.221 570.905 622.24 575.556 622.24C581.486 622.24 586.308 623.669 590.02 626.528C593.774 629.387 595.993 633.269 596.676 638.176H581.7Z" fill="white"/>
<path d="M259.91 548.688L262.834 549.357L263.674 545.688H259.91V548.688ZM249.542 594V597H251.933L252.466 594.669L249.542 594ZM231.878 594L228.939 594.6L229.428 597H231.878V594ZM226.63 568.272L229.569 567.672L223.691 567.672L226.63 568.272ZM221.382 594V597H223.832L224.321 594.6L221.382 594ZM203.718 594L200.794 594.669L201.327 597H203.718V594ZM193.35 548.688V545.688H189.586L190.426 549.357L193.35 548.688ZM208.646 548.688L211.616 548.262L211.246 545.688H208.646V548.688ZM212.742 577.232L209.772 577.658L215.675 577.863L212.742 577.232ZM218.886 548.688V545.688H216.463L215.953 548.057L218.886 548.688ZM234.374 548.688L237.307 548.057L236.797 545.688H234.374V548.688ZM240.518 577.232L237.585 577.863L243.488 577.658L240.518 577.232ZM244.614 548.688V545.688H242.014L241.644 548.262L244.614 548.688ZM256.986 548.019L246.618 593.331L252.466 594.669L262.834 549.357L256.986 548.019ZM249.542 591H231.878V597H249.542V591ZM234.817 593.4L229.569 567.672L223.691 568.872L228.939 594.6L234.817 593.4ZM223.691 567.672L218.443 593.4L224.321 594.6L229.569 568.872L223.691 567.672ZM221.382 591H203.718V597H221.382V591ZM206.642 593.331L196.274 548.019L190.426 549.357L200.794 594.669L206.642 593.331ZM193.35 551.688H208.646V545.688H193.35V551.688ZM205.676 549.114L209.772 577.658L215.712 576.806L211.616 548.262L205.676 549.114ZM215.675 577.863L221.819 549.319L215.953 548.057L209.809 576.601L215.675 577.863ZM218.886 551.688H234.374V545.688H218.886V551.688ZM231.441 549.319L237.585 577.863L243.451 576.601L237.307 548.057L231.441 549.319ZM243.488 577.658L247.584 549.114L241.644 548.262L237.548 576.806L243.488 577.658ZM244.614 551.688H259.91V545.688H244.614V551.688ZM288.173 560.016V557.016H285.173V560.016H288.173ZM288.173 565.584H285.173V568.584H288.173V565.584ZM302.253 565.584H305.253V562.584H302.253V565.584ZM302.253 576.272V579.272H305.253V576.272H302.253ZM288.173 576.272V573.272H285.173V576.272H288.173ZM288.173 582.672H285.173V585.672H288.173V582.672ZM304.173 582.672H307.173V579.672H304.173V582.672ZM304.173 594V597H307.173V594H304.173ZM273.965 594H270.965V597H273.965V594ZM273.965 548.688V545.688H270.965V548.688H273.965ZM304.173 548.688H307.173V545.688H304.173V548.688ZM304.173 560.016V563.016H307.173V560.016H304.173ZM285.173 560.016V565.584H291.173V560.016H285.173ZM288.173 568.584H302.253V562.584H288.173V568.584ZM299.253 565.584V576.272H305.253V565.584H299.253ZM302.253 573.272H288.173V579.272H302.253V573.272ZM285.173 576.272V582.672H291.173V576.272H285.173ZM288.173 585.672H304.173V579.672H288.173V585.672ZM301.173 582.672V594H307.173V582.672H301.173ZM304.173 591H273.965V597H304.173V591ZM276.965 594V548.688H270.965V594H276.965ZM273.965 551.688H304.173V545.688H273.965V551.688ZM301.173 548.688V560.016H307.173V548.688H301.173ZM304.173 557.016H288.173V563.016H304.173V557.016ZM348.823 570.768L348.071 567.864L348.139 573.689L348.823 570.768ZM355.159 574.736L352.753 576.528L352.775 576.557L352.797 576.585L355.159 574.736ZM353.495 590.8L355.397 593.12L355.401 593.117L353.495 590.8ZM318.487 594H315.487V597H318.487V594ZM318.487 548.688V545.688H315.487V548.688H318.487ZM354.327 567.184L351.948 565.358L351.941 565.366L354.327 567.184ZM332.695 566.352H329.695V569.352H332.695V566.352ZM341.015 565.584L339.141 563.241L339.102 563.273L339.063 563.306L341.015 565.584ZM341.015 560.784L338.974 562.982L339.055 563.058L339.141 563.127L341.015 560.784ZM332.695 559.952V556.952H329.695V559.952H332.695ZM341.975 581.904L343.829 584.263L343.839 584.255L343.85 584.247L341.975 581.904ZM332.695 576.208V573.208H329.695V576.208H332.695ZM332.695 582.608H329.695V585.608H332.695V582.608ZM348.139 573.689C350.27 574.188 351.735 575.16 352.753 576.528L357.566 572.944C355.598 570.302 352.838 568.628 349.508 567.847L348.139 573.689ZM352.797 576.585C353.901 577.995 354.463 579.62 354.463 581.584H360.463C360.463 578.343 359.49 575.402 357.522 572.887L352.797 576.585ZM354.463 581.584C354.463 584.814 353.428 586.971 351.59 588.483L355.401 593.117C358.853 590.277 360.463 586.29 360.463 581.584H354.463ZM351.594 588.48C349.725 590.011 346.753 591 342.231 591V597C347.523 597 352.06 595.855 355.397 593.12L351.594 588.48ZM342.231 591H318.487V597H342.231V591ZM321.487 594V548.688H315.487V594H321.487ZM318.487 551.688H341.591V545.688H318.487V551.688ZM341.591 551.688C345.794 551.688 348.704 552.604 350.659 554.087L354.284 549.305C350.948 546.777 346.605 545.688 341.591 545.688V551.688ZM350.659 554.087C352.433 555.431 353.439 557.396 353.439 560.464H359.439C359.439 555.852 357.801 551.972 354.284 549.305L350.659 554.087ZM353.439 560.464C353.439 562.548 352.897 564.121 351.948 565.358L356.707 569.01C358.574 566.578 359.439 563.67 359.439 560.464H353.439ZM351.941 565.366C351.007 566.592 349.763 567.425 348.071 567.864L349.576 573.672C352.492 572.916 354.917 571.36 356.714 569.002L351.941 565.366ZM332.695 569.352H338.199V563.352H332.695V569.352ZM338.199 569.352C339.776 569.352 341.576 569.055 342.968 567.862L339.063 563.306C339.172 563.213 339.214 563.228 339.074 563.266C338.928 563.305 338.652 563.352 338.199 563.352V569.352ZM342.89 567.927C344.445 566.682 344.975 564.897 344.975 563.216H338.975C338.975 563.457 338.939 563.522 338.955 563.481C338.964 563.458 338.985 563.417 339.021 563.367C339.058 563.317 339.101 563.274 339.141 563.241L342.89 567.927ZM344.975 563.216C344.975 561.539 344.472 559.707 342.89 558.441L339.141 563.127C339.092 563.087 339.046 563.039 339.008 562.986C338.97 562.934 338.951 562.894 338.945 562.877C338.934 562.851 338.975 562.94 338.975 563.216H344.975ZM343.057 558.586C341.662 557.29 339.822 556.952 338.199 556.952V562.952C338.635 562.952 338.89 563.001 339.013 563.037C339.127 563.071 339.076 563.077 338.974 562.982L343.057 558.586ZM338.199 556.952H332.695V562.952H338.199V556.952ZM329.695 559.952V566.352H335.695V559.952H329.695ZM339.159 585.608C340.692 585.608 342.448 585.348 343.829 584.263L340.122 579.545C340.233 579.458 340.263 579.48 340.096 579.522C339.927 579.564 339.628 579.608 339.159 579.608V585.608ZM343.85 584.247C345.432 582.981 345.935 581.149 345.935 579.472H339.935C339.935 579.748 339.894 579.837 339.905 579.811C339.911 579.794 339.93 579.754 339.968 579.702C340.006 579.649 340.052 579.601 340.101 579.561L343.85 584.247ZM345.935 579.472C345.935 577.798 345.431 576.032 343.953 574.754C342.559 573.549 340.782 573.208 339.159 573.208V579.208C339.582 579.208 339.842 579.255 339.981 579.295C340.111 579.332 340.097 579.352 340.03 579.294C339.952 579.227 339.911 579.15 339.9 579.123C339.897 579.114 339.935 579.21 339.935 579.472H345.935ZM339.159 573.208H332.695V579.208H339.159V573.208ZM329.695 576.208V582.608H335.695V576.208H329.695ZM332.695 585.608H339.159V579.608H332.695V585.608ZM434.488 594V597H437.488V594H434.488ZM420.28 594L417.777 595.653L418.666 597H420.28V594ZM405.24 571.216L407.744 569.563L402.24 561.226V571.216H405.24ZM405.24 594V597H408.24V594H405.24ZM391.032 594H388.032V597H391.032V594ZM391.032 548.688V545.688H388.032V548.688H391.032ZM405.24 548.688L407.757 547.055L406.87 545.688H405.24V548.688ZM420.28 571.856L417.764 573.489L423.28 581.987V571.856H420.28ZM420.28 548.688V545.688H417.28V548.688H420.28ZM434.488 548.688H437.488V545.688H434.488V548.688ZM434.488 591H420.28V597H434.488V591ZM422.784 592.347L407.744 569.563L402.737 572.869L417.777 595.653L422.784 592.347ZM402.24 571.216V594H408.24V571.216H402.24ZM405.24 591H391.032V597H405.24V591ZM394.032 594V548.688H388.032V594H394.032ZM391.032 551.688H405.24V545.688H391.032V551.688ZM402.724 550.321L417.764 573.489L422.797 570.223L407.757 547.055L402.724 550.321ZM423.28 571.856V548.688H417.28V571.856H423.28ZM420.28 551.688H434.488V545.688H420.28V551.688ZM431.488 548.688V594H437.488V548.688H431.488ZM460.171 591.44L458.693 594.051L458.7 594.054L458.707 594.058L460.171 591.44ZM451.723 583.12L449.14 584.645L449.14 584.645L451.723 583.12ZM460.171 550.928L461.626 553.552L461.636 553.546L460.171 550.928ZM483.659 550.928L482.181 553.539L482.193 553.545L482.205 553.552L483.659 550.928ZM492.043 559.184L489.447 560.686L489.453 560.698L489.46 560.709L492.043 559.184ZM492.043 583.12L489.46 581.595L489.453 581.606L489.447 581.618L492.043 583.12ZM483.595 591.44L482.131 588.822L482.124 588.826L482.117 588.829L483.595 591.44ZM478.475 578.512L480.753 580.464L480.765 580.451L480.776 580.438L478.475 578.512ZM478.475 563.792L476.175 565.718L476.186 565.731L476.198 565.744L478.475 563.792ZM465.355 563.792L467.633 565.744L467.645 565.731L467.656 565.718L465.355 563.792ZM465.355 578.512L463.055 580.438L463.066 580.451L463.078 580.464L465.355 578.512ZM471.947 591.448C468.173 591.448 464.755 590.567 461.636 588.822L458.707 594.058C462.756 596.324 467.189 597.448 471.947 597.448V591.448ZM461.65 588.829C458.57 587.086 456.133 584.689 454.307 581.595L449.14 584.645C451.495 588.634 454.69 591.784 458.693 594.051L461.65 588.829ZM454.307 581.595C452.51 578.552 451.587 575.097 451.587 571.152H445.587C445.587 576.082 446.755 580.605 449.14 584.645L454.307 581.595ZM451.587 571.152C451.587 567.207 452.51 563.752 454.307 560.709L449.14 557.659C446.755 561.699 445.587 566.222 445.587 571.152H451.587ZM454.307 560.709C456.13 557.621 458.56 555.251 461.626 553.552L458.717 548.304C454.701 550.53 451.498 553.665 449.14 557.659L454.307 560.709ZM461.636 553.546C464.755 551.801 468.173 550.92 471.947 550.92V544.92C467.189 544.92 462.756 546.044 458.707 548.31L461.636 553.546ZM471.947 550.92C475.722 550.92 479.113 551.801 482.181 553.539L485.138 548.317C481.123 546.044 476.706 544.92 471.947 544.92V550.92ZM482.205 553.552C485.266 555.248 487.668 557.61 489.447 560.686L494.64 557.682C492.323 553.675 489.136 550.533 485.114 548.304L482.205 553.552ZM489.46 560.709C491.257 563.752 492.179 567.207 492.179 571.152H498.179C498.179 566.222 497.012 561.699 494.627 557.659L489.46 560.709ZM492.179 571.152C492.179 575.097 491.257 578.552 489.46 581.595L494.627 584.645C497.012 580.605 498.179 576.082 498.179 571.152H492.179ZM489.447 581.618C487.67 584.69 485.246 587.079 482.131 588.822L485.06 594.058C489.113 591.79 492.321 588.632 494.64 584.622L489.447 581.618ZM482.117 588.829C479.044 590.57 475.674 591.448 471.947 591.448V597.448C476.669 597.448 481.064 596.321 485.074 594.051L482.117 588.829ZM471.947 584.2C475.453 584.2 478.536 583.051 480.753 580.464L476.198 576.56C475.343 577.557 474.074 578.2 471.947 578.2V584.2ZM480.776 580.438C482.879 577.925 483.779 574.724 483.779 571.152H477.779C477.779 573.724 477.144 575.43 476.175 576.586L480.776 580.438ZM483.779 571.152C483.779 567.553 482.887 564.329 480.753 561.84L476.198 565.744C477.136 566.839 477.779 568.521 477.779 571.152H483.779ZM480.776 561.866C478.567 559.228 475.477 558.04 471.947 558.04V564.04C474.05 564.04 475.312 564.687 476.175 565.718L480.776 561.866ZM471.947 558.04C468.392 558.04 465.273 559.217 463.055 561.866L467.656 565.718C468.51 564.698 469.786 564.04 471.947 564.04V558.04ZM463.078 561.84C460.944 564.329 460.051 567.553 460.051 571.152H466.051C466.051 568.521 466.695 566.839 467.633 565.744L463.078 561.84ZM460.051 571.152C460.051 574.724 460.952 577.925 463.055 580.438L467.656 576.586C466.687 575.43 466.051 573.724 466.051 571.152H460.051ZM463.078 580.464C465.303 583.061 468.416 584.2 471.947 584.2V578.2C469.762 578.2 468.48 577.547 467.633 576.56L463.078 580.464ZM554.897 548.688L557.741 549.644L559.07 545.688H554.897V548.688ZM539.665 594V597H541.821L542.509 594.956L539.665 594ZM521.297 594L518.453 594.956L519.141 597H521.297V594ZM506.065 548.688V545.688H501.892L503.221 549.644L506.065 548.688ZM521.169 548.688L524.043 547.826L523.402 545.688H521.169V548.688ZM530.513 579.856L527.639 580.718L530.523 590.336L533.388 580.712L530.513 579.856ZM539.793 548.688V545.688H537.556L536.918 547.832L539.793 548.688ZM552.053 547.732L536.821 593.044L542.509 594.956L557.741 549.644L552.053 547.732ZM539.665 591H521.297V597H539.665V591ZM524.141 593.044L508.909 547.732L503.221 549.644L518.453 594.956L524.141 593.044ZM506.065 551.688H521.169V545.688H506.065V551.688ZM518.295 549.55L527.639 580.718L533.387 578.994L524.043 547.826L518.295 549.55ZM533.388 580.712L542.668 549.544L536.918 547.832L527.638 579L533.388 580.712ZM539.793 551.688H554.897V545.688H539.793V551.688ZM581.245 560.016V557.016H578.245V560.016H581.245ZM581.245 565.584H578.245V568.584H581.245V565.584ZM595.325 565.584H598.325V562.584H595.325V565.584ZM595.325 576.272V579.272H598.325V576.272H595.325ZM581.245 576.272V573.272H578.245V576.272H581.245ZM581.245 582.672H578.245V585.672H581.245V582.672ZM597.245 582.672H600.245V579.672H597.245V582.672ZM597.245 594V597H600.245V594H597.245ZM567.037 594H564.037V597H567.037V594ZM567.037 548.688V545.688H564.037V548.688H567.037ZM597.245 548.688H600.245V545.688H597.245V548.688ZM597.245 560.016V563.016H600.245V560.016H597.245ZM578.245 560.016V565.584H584.245V560.016H578.245ZM581.245 568.584H595.325V562.584H581.245V568.584ZM592.325 565.584V576.272H598.325V565.584H592.325ZM595.325 573.272H581.245V579.272H595.325V573.272ZM578.245 576.272V582.672H584.245V576.272H578.245ZM581.245 585.672H597.245V579.672H581.245V585.672ZM594.245 582.672V594H600.245V582.672H594.245ZM597.245 591H567.037V597H597.245V591ZM570.037 594V548.688H564.037V594H570.037ZM567.037 551.688H597.245V545.688H567.037V551.688ZM594.245 548.688V560.016H600.245V548.688H594.245ZM597.245 557.016H581.245V563.016H597.245V557.016ZM625.768 583.248H622.768V586.248H625.768V583.248ZM639.464 583.248H642.464V580.248H639.464V583.248ZM639.464 594V597H642.464V594H639.464ZM611.56 594H608.56V597H611.56V594ZM611.56 548.688V545.688H608.56V548.688H611.56ZM625.768 548.688H628.768V545.688H625.768V548.688ZM625.768 586.248H639.464V580.248H625.768V586.248ZM636.464 583.248V594H642.464V583.248H636.464ZM639.464 591H611.56V597H639.464V591ZM614.56 594V548.688H608.56V594H614.56ZM611.56 551.688H625.768V545.688H611.56V551.688ZM622.768 548.688V583.248H628.768V548.688H622.768ZM321.631 622.688L324.556 623.357L325.395 619.688H321.631V622.688ZM311.263 668V671H313.654L314.188 668.669L311.263 668ZM293.599 668L290.66 668.6L291.149 671H293.599V668ZM288.351 642.272L291.291 641.672L285.412 641.672L288.351 642.272ZM283.103 668V671H285.553L286.043 668.6L283.103 668ZM265.439 668L262.515 668.669L263.048 671H265.439V668ZM255.071 622.688V619.688H251.307L252.147 623.357L255.071 622.688ZM270.367 622.688L273.337 622.262L272.967 619.688H270.367V622.688ZM274.463 651.232L271.494 651.658L277.396 651.863L274.463 651.232ZM280.607 622.688V619.688H278.184L277.674 622.057L280.607 622.688ZM296.095 622.688L299.028 622.057L298.518 619.688H296.095V622.688ZM302.239 651.232L299.306 651.863L305.209 651.658L302.239 651.232ZM306.335 622.688V619.688H303.735L303.366 622.262L306.335 622.688ZM318.707 622.019L308.339 667.331L314.188 668.669L324.556 623.357L318.707 622.019ZM311.263 665H293.599V671H311.263V665ZM296.539 667.4L291.291 641.672L285.412 642.872L290.66 668.6L296.539 667.4ZM285.412 641.672L280.164 667.4L286.043 668.6L291.291 642.872L285.412 641.672ZM283.103 665H265.439V671H283.103V665ZM268.364 667.331L257.996 622.019L252.147 623.357L262.515 668.669L268.364 667.331ZM255.071 625.688H270.367V619.688H255.071V625.688ZM267.398 623.114L271.494 651.658L277.433 650.806L273.337 622.262L267.398 623.114ZM277.396 651.863L283.54 623.319L277.674 622.057L271.53 650.601L277.396 651.863ZM280.607 625.688H296.095V619.688H280.607V625.688ZM293.162 623.319L299.306 651.863L305.172 650.601L299.028 622.057L293.162 623.319ZM305.209 651.658L309.305 623.114L303.366 622.262L299.27 650.806L305.209 651.658ZM306.335 625.688H321.631V619.688H306.335V625.688ZM358.47 668L355.813 669.392L356.655 671H358.47V668ZM349.958 651.744L352.616 650.352L351.774 648.744H349.958V651.744ZM349.894 651.744V648.744H346.894V651.744H349.894ZM349.894 668V671H352.894V668H349.894ZM335.686 668H332.686V671H335.686V668ZM335.686 622.688V619.688H332.686V622.688H335.686ZM366.214 624.672L364.855 627.346L364.873 627.355L364.89 627.364L366.214 624.672ZM372.038 629.984L369.427 631.462L369.444 631.491L369.461 631.52L372.038 629.984ZM371.462 645.6L369.036 643.835L369.025 643.85L369.015 643.865L371.462 645.6ZM364.23 650.656L363.305 647.802L359.803 648.938L361.622 652.138L364.23 650.656ZM374.086 668V671H379.242L376.695 666.518L374.086 668ZM349.894 642.272H346.894V645.272H349.894V642.272ZM358.598 641.376L360.574 643.634L360.613 643.6L360.65 643.565L358.598 641.376ZM358.534 635.616L356.413 637.737L356.445 637.769L356.478 637.801L358.534 635.616ZM349.894 634.592V631.592H346.894V634.592H349.894ZM361.128 666.608L352.616 650.352L347.301 653.136L355.813 669.392L361.128 666.608ZM349.958 648.744H349.894V654.744H349.958V648.744ZM346.894 651.744V668H352.894V651.744H346.894ZM349.894 665H335.686V671H349.894V665ZM338.686 668V622.688H332.686V668H338.686ZM335.686 625.688H356.806V619.688H335.686V625.688ZM356.806 625.688C360.122 625.688 362.768 626.286 364.855 627.346L367.573 621.998C364.455 620.413 360.829 619.688 356.806 619.688V625.688ZM364.89 627.364C367.017 628.41 368.479 629.785 369.427 631.462L374.649 628.506C373.038 625.66 370.617 623.494 367.538 621.98L364.89 627.364ZM369.461 631.52C370.482 633.233 371.022 635.21 371.022 637.536H377.022C377.022 634.23 376.239 631.172 374.615 628.448L369.461 631.52ZM371.022 637.536C371.022 639.961 370.353 642.025 369.036 643.835L373.888 647.365C375.985 644.482 377.022 641.17 377.022 637.536H371.022ZM369.015 643.865C367.78 645.606 365.946 646.946 363.305 647.802L365.156 653.51C368.829 652.318 371.816 650.287 373.909 647.335L369.015 643.865ZM361.622 652.138L371.478 669.482L376.695 666.518L366.839 649.174L361.622 652.138ZM374.086 665H358.47V671H374.086V665ZM349.894 645.272H355.526V639.272H349.894V645.272ZM355.526 645.272C357.263 645.272 359.126 644.901 360.574 643.634L356.623 639.118C356.705 639.046 356.52 639.272 355.526 639.272V645.272ZM360.65 643.565C362.153 642.156 362.622 640.234 362.622 638.432H356.622C356.622 638.845 356.568 639.074 356.533 639.174C356.504 639.258 356.496 639.235 356.546 639.187L360.65 643.565ZM362.622 638.432C362.622 636.588 362.037 634.793 360.59 633.431L356.478 637.801C356.51 637.831 356.531 637.858 356.552 637.913C356.578 637.98 356.622 638.137 356.622 638.432H362.622ZM360.656 633.495C359.228 632.067 357.343 631.592 355.526 631.592V637.592C355.937 637.592 356.18 637.646 356.303 637.688C356.413 637.725 356.427 637.751 356.413 637.737L360.656 633.495ZM355.526 631.592H349.894V637.592H355.526V631.592ZM346.894 634.592V642.272H352.894V634.592H346.894ZM401.729 622.688H404.729V619.688H401.729V622.688ZM401.729 668V671H404.729V668H401.729ZM387.521 668H384.521V671H387.521V668ZM387.521 622.688V619.688H384.521V622.688H387.521ZM398.729 622.688V668H404.729V622.688H398.729ZM401.729 665H387.521V671H401.729V665ZM390.521 668V622.688H384.521V668H390.521ZM387.521 625.688H401.729V619.688H387.521V625.688ZM452.69 622.688H455.69V619.688H452.69V622.688ZM452.69 633.952V636.952H455.69V633.952H452.69ZM440.658 633.952V630.952H437.658V633.952H440.658ZM440.658 668V671H443.658V668H440.658ZM426.45 668H423.45V671H426.45V668ZM426.45 633.952H429.45V630.952H426.45V633.952ZM414.546 633.952H411.546V636.952H414.546V633.952ZM414.546 622.688V619.688H411.546V622.688H414.546ZM449.69 622.688V633.952H455.69V622.688H449.69ZM452.69 630.952H440.658V636.952H452.69V630.952ZM437.658 633.952V668H443.658V633.952H437.658ZM440.658 665H426.45V671H440.658V665ZM429.45 668V633.952H423.45V668H429.45ZM426.45 630.952H414.546V636.952H426.45V630.952ZM417.546 633.952V622.688H411.546V633.952H417.546ZM414.546 625.688H452.69V619.688H414.546V625.688ZM479.712 622.688H482.712V619.688H479.712V622.688ZM479.712 668V671H482.712V668H479.712ZM465.504 668H462.504V671H465.504V668ZM465.504 622.688V619.688H462.504V622.688H465.504ZM476.712 622.688V668H482.712V622.688H476.712ZM479.712 665H465.504V671H479.712V665ZM468.504 668V622.688H462.504V668H468.504ZM465.504 625.688H479.712V619.688H465.504V625.688ZM538.545 668V671H541.545V668H538.545ZM524.337 668L521.833 669.653L522.722 671H524.337V668ZM509.297 645.216L511.8 643.563L506.297 635.226V645.216H509.297ZM509.297 668V671H512.297V668H509.297ZM495.089 668H492.089V671H495.089V668ZM495.089 622.688V619.688H492.089V622.688H495.089ZM509.297 622.688L511.813 621.055L510.926 619.688H509.297V622.688ZM524.337 645.856L521.82 647.489L527.337 655.987V645.856H524.337ZM524.337 622.688V619.688H521.337V622.688H524.337ZM538.545 622.688H541.545V619.688H538.545V622.688ZM538.545 665H524.337V671H538.545V665ZM526.84 666.347L511.8 643.563L506.793 646.869L521.833 669.653L526.84 666.347ZM506.297 645.216V668H512.297V645.216H506.297ZM509.297 665H495.089V671H509.297V665ZM498.089 668V622.688H492.089V668H498.089ZM495.089 625.688H509.297V619.688H495.089V625.688ZM506.78 624.321L521.82 647.489L526.853 644.223L511.813 621.055L506.78 624.321ZM527.337 645.856V622.688H521.337V645.856H527.337ZM524.337 625.688H538.545V619.688H524.337V625.688ZM535.545 622.688V668H541.545V622.688H535.545ZM581.7 638.176L579.149 639.755L580.029 641.176H581.7V638.176ZM579.332 636.128L577.99 638.811L578.036 638.834L578.082 638.855L579.332 636.128ZM569.284 638.048L571.565 639.996L571.577 639.982L571.588 639.969L569.284 638.048ZM569.54 653.216L567.366 655.284L567.366 655.284L569.54 653.216ZM585.156 651.872L587.546 653.684L591.195 648.872H585.156V651.872ZM573.828 651.872H570.828V654.872H573.828V651.872ZM573.828 641.824V638.824H570.828V641.824H573.828ZM596.932 641.824H599.932V638.824H596.932V641.824ZM596.932 656.032L599.524 657.542L599.932 656.842V656.032H596.932ZM588.804 664.736L590.51 667.204L590.52 667.197L590.53 667.189L588.804 664.736ZM563.396 665.44L561.914 668.049L561.933 668.059L561.952 668.07L563.396 665.44ZM555.396 657.248L552.739 658.641L552.746 658.654L552.752 658.666L555.396 657.248ZM555.396 633.312L552.752 631.894L552.746 631.906L552.739 631.919L555.396 633.312ZM563.396 625.184L564.853 627.806L564.865 627.8L564.877 627.793L563.396 625.184ZM590.02 626.528L588.189 628.905L588.196 628.91L588.202 628.915L590.02 626.528ZM596.676 638.176V641.176H600.122L599.647 637.763L596.676 638.176ZM584.251 636.597C583.363 635.163 582.104 634.099 580.582 633.401L578.082 638.855C578.607 639.096 578.927 639.397 579.149 639.755L584.251 636.597ZM580.673 633.445C579.137 632.676 577.415 632.36 575.62 632.36V638.36C576.726 638.36 577.479 638.556 577.99 638.811L580.673 633.445ZM575.62 632.36C572.168 632.36 569.142 633.532 566.979 636.127L571.588 639.969C572.412 638.98 573.611 638.36 575.62 638.36V632.36ZM567.002 636.1C564.909 638.552 564.044 641.736 564.044 645.28H570.044C570.044 642.68 570.672 641.043 571.565 639.996L567.002 636.1ZM564.044 645.28C564.044 649.236 564.969 652.763 567.366 655.284L571.713 651.148C570.783 650.17 570.044 648.407 570.044 645.28H564.044ZM567.366 655.284C569.804 657.846 573.302 658.84 577.22 658.84V652.84C574.226 652.84 572.604 652.084 571.713 651.148L567.366 655.284ZM577.22 658.84C581.455 658.84 584.981 657.069 587.546 653.684L582.765 650.06C581.32 651.966 579.555 652.84 577.22 652.84V658.84ZM585.156 648.872H573.828V654.872H585.156V648.872ZM576.828 651.872V641.824H570.828V651.872H576.828ZM573.828 644.824H596.932V638.824H573.828V644.824ZM593.932 641.824V656.032H599.932V641.824H593.932ZM594.339 654.522C592.612 657.489 590.21 660.078 587.077 662.283L590.53 667.189C594.31 664.53 597.327 661.316 599.524 657.542L594.339 654.522ZM587.098 662.268C584.259 664.231 580.523 665.32 575.684 665.32V671.32C581.425 671.32 586.436 670.02 590.51 667.204L587.098 662.268ZM575.684 665.32C571.406 665.32 567.823 664.448 564.839 662.81L561.952 668.07C565.965 670.272 570.575 671.32 575.684 671.32V665.32ZM564.877 662.831C561.912 661.148 559.649 658.829 558.039 655.83L552.752 658.666C554.897 662.664 557.967 665.807 561.914 668.049L564.877 662.831ZM558.053 655.855C556.472 652.841 555.644 649.34 555.644 645.28H549.644C549.644 650.18 550.65 654.658 552.739 658.641L558.053 655.855ZM555.644 645.28C555.644 641.22 556.472 637.719 558.053 634.705L552.739 631.919C550.65 635.902 549.644 640.38 549.644 645.28H555.644ZM558.039 634.73C559.646 631.736 561.902 629.446 564.853 627.806L561.939 622.562C557.978 624.762 554.9 627.89 552.752 631.894L558.039 634.73ZM564.877 627.793C567.81 626.127 571.335 625.24 575.556 625.24V619.24C570.475 619.24 565.893 620.316 561.914 622.575L564.877 627.793ZM575.556 625.24C581.003 625.24 585.128 626.547 588.189 628.905L591.85 624.151C587.488 620.792 581.97 619.24 575.556 619.24V625.24ZM588.202 628.915C591.293 631.268 593.125 634.424 593.704 638.589L599.647 637.763C598.861 632.115 596.256 627.505 591.837 624.141L588.202 628.915ZM596.676 635.176H581.7V641.176H596.676V635.176Z" fill="black" mask="url(#path-3-outside-1_1_2)"/>
<rect x="570" y="250" width="126" height="48" fill="#F5F5F5"/>
<mask id="path-6-outside-2_1_2" maskUnits="userSpaceOnUse" x="327" y="476" width="204" height="54" fill="black">
<rect fill="white" x="327" y="476" width="204" height="54"/>
<path d="M344.562 492.016V497.584H358.642V508.272H344.562V514.672H360.562V526H330.354V480.688H360.562V492.016H344.562ZM403.932 519.152H388.828L386.588 526H371.676L388.252 480.688H404.636L421.148 526H406.172L403.932 519.152ZM400.476 508.464L396.38 495.856L392.284 508.464H400.476ZM451.064 526.448C445.646 526.448 441.166 525.189 437.624 522.672C434.126 520.112 432.227 516.379 431.928 511.472H447.032C447.246 514.075 448.398 515.376 450.488 515.376C451.256 515.376 451.896 515.205 452.408 514.864C452.963 514.48 453.24 513.904 453.24 513.136C453.24 512.069 452.664 511.216 451.512 510.576C450.36 509.893 448.568 509.125 446.136 508.272C443.235 507.248 440.824 506.245 438.904 505.264C437.027 504.283 435.406 502.853 434.04 500.976C432.675 499.099 432.014 496.688 432.056 493.744C432.056 490.8 432.803 488.304 434.296 486.256C435.832 484.165 437.902 482.587 440.504 481.52C443.15 480.453 446.115 479.92 449.4 479.92C454.947 479.92 459.342 481.2 462.584 483.76C465.87 486.32 467.598 489.925 467.768 494.576H452.472C452.43 493.296 452.11 492.379 451.512 491.824C450.915 491.269 450.19 490.992 449.336 490.992C448.739 490.992 448.248 491.205 447.864 491.632C447.48 492.016 447.288 492.571 447.288 493.296C447.288 494.32 447.843 495.173 448.952 495.856C450.104 496.496 451.918 497.285 454.392 498.224C457.251 499.291 459.598 500.315 461.432 501.296C463.31 502.277 464.931 503.643 466.296 505.392C467.662 507.141 468.344 509.339 468.344 511.984C468.344 514.757 467.662 517.253 466.296 519.472C464.931 521.648 462.947 523.355 460.344 524.592C457.742 525.829 454.648 526.448 451.064 526.448ZM525.816 480.688L509.56 512.24V526H495.352V512.24L479.096 480.688H495.352L502.584 496.752L509.816 480.688H525.816Z"/>
</mask>
<path d="M344.562 492.016V497.584H358.642V508.272H344.562V514.672H360.562V526H330.354V480.688H360.562V492.016H344.562ZM403.932 519.152H388.828L386.588 526H371.676L388.252 480.688H404.636L421.148 526H406.172L403.932 519.152ZM400.476 508.464L396.38 495.856L392.284 508.464H400.476ZM451.064 526.448C445.646 526.448 441.166 525.189 437.624 522.672C434.126 520.112 432.227 516.379 431.928 511.472H447.032C447.246 514.075 448.398 515.376 450.488 515.376C451.256 515.376 451.896 515.205 452.408 514.864C452.963 514.48 453.24 513.904 453.24 513.136C453.24 512.069 452.664 511.216 451.512 510.576C450.36 509.893 448.568 509.125 446.136 508.272C443.235 507.248 440.824 506.245 438.904 505.264C437.027 504.283 435.406 502.853 434.04 500.976C432.675 499.099 432.014 496.688 432.056 493.744C432.056 490.8 432.803 488.304 434.296 486.256C435.832 484.165 437.902 482.587 440.504 481.52C443.15 480.453 446.115 479.92 449.4 479.92C454.947 479.92 459.342 481.2 462.584 483.76C465.87 486.32 467.598 489.925 467.768 494.576H452.472C452.43 493.296 452.11 492.379 451.512 491.824C450.915 491.269 450.19 490.992 449.336 490.992C448.739 490.992 448.248 491.205 447.864 491.632C447.48 492.016 447.288 492.571 447.288 493.296C447.288 494.32 447.843 495.173 448.952 495.856C450.104 496.496 451.918 497.285 454.392 498.224C457.251 499.291 459.598 500.315 461.432 501.296C463.31 502.277 464.931 503.643 466.296 505.392C467.662 507.141 468.344 509.339 468.344 511.984C468.344 514.757 467.662 517.253 466.296 519.472C464.931 521.648 462.947 523.355 460.344 524.592C457.742 525.829 454.648 526.448 451.064 526.448ZM525.816 480.688L509.56 512.24V526H495.352V512.24L479.096 480.688H495.352L502.584 496.752L509.816 480.688H525.816Z" fill="white"/>
<path d="M344.562 492.016V489.016H341.562V492.016H344.562ZM344.562 497.584H341.562V500.584H344.562V497.584ZM358.642 497.584H361.642V494.584H358.642V497.584ZM358.642 508.272V511.272H361.642V508.272H358.642ZM344.562 508.272V505.272H341.562V508.272H344.562ZM344.562 514.672H341.562V517.672H344.562V514.672ZM360.562 514.672H363.562V511.672H360.562V514.672ZM360.562 526V529H363.562V526H360.562ZM330.354 526H327.354V529H330.354V526ZM330.354 480.688V477.688H327.354V480.688H330.354ZM360.562 480.688H363.562V477.688H360.562V480.688ZM360.562 492.016V495.016H363.562V492.016H360.562ZM341.562 492.016V497.584H347.562V492.016H341.562ZM344.562 500.584H358.642V494.584H344.562V500.584ZM355.642 497.584V508.272H361.642V497.584H355.642ZM358.642 505.272H344.562V511.272H358.642V505.272ZM341.562 508.272V514.672H347.562V508.272H341.562ZM344.562 517.672H360.562V511.672H344.562V517.672ZM357.562 514.672V526H363.562V514.672H357.562ZM360.562 523H330.354V529H360.562V523ZM333.354 526V480.688H327.354V526H333.354ZM330.354 483.688H360.562V477.688H330.354V483.688ZM357.562 480.688V492.016H363.562V480.688H357.562ZM360.562 489.016H344.562V495.016H360.562V489.016ZM403.932 519.152L406.784 518.219L406.107 516.152H403.932V519.152ZM388.828 519.152V516.152H386.653L385.977 518.219L388.828 519.152ZM386.588 526V529H388.763L389.44 526.933L386.588 526ZM371.676 526L368.859 524.969L367.384 529H371.676V526ZM388.252 480.688V477.688H386.155L385.435 479.657L388.252 480.688ZM404.636 480.688L407.455 479.661L406.736 477.688H404.636V480.688ZM421.148 526V529H425.434L423.967 524.973L421.148 526ZM406.172 526L403.321 526.933L403.997 529H406.172V526ZM400.476 508.464V511.464H404.605L403.329 507.537L400.476 508.464ZM396.38 495.856L399.233 494.929L396.38 486.147L393.527 494.929L396.38 495.856ZM392.284 508.464L389.431 507.537L388.155 511.464H392.284V508.464ZM403.932 516.152H388.828V522.152H403.932V516.152ZM385.977 518.219L383.737 525.067L389.44 526.933L391.68 520.085L385.977 518.219ZM386.588 523H371.676V529H386.588V523ZM374.494 527.031L391.07 481.719L385.435 479.657L368.859 524.969L374.494 527.031ZM388.252 483.688H404.636V477.688H388.252V483.688ZM401.818 481.715L418.33 527.027L423.967 524.973L407.455 479.661L401.818 481.715ZM421.148 523H406.172V529H421.148V523ZM409.024 525.067L406.784 518.219L401.081 520.085L403.321 526.933L409.024 525.067ZM403.329 507.537L399.233 494.929L393.527 496.783L397.623 509.391L403.329 507.537ZM393.527 494.929L389.431 507.537L395.137 509.391L399.233 496.783L393.527 494.929ZM392.284 511.464H400.476V505.464H392.284V511.464ZM437.624 522.672L435.853 525.093L435.869 525.105L435.886 525.117L437.624 522.672ZM431.928 511.472V508.472H428.74L428.934 511.654L431.928 511.472ZM447.032 511.472L450.022 511.227L449.796 508.472H447.032V511.472ZM452.408 514.864L454.072 517.36L454.094 517.346L454.116 517.331L452.408 514.864ZM451.512 510.576L449.983 513.157L450.019 513.178L450.055 513.198L451.512 510.576ZM446.136 508.272L445.138 511.101L445.143 511.103L446.136 508.272ZM438.904 505.264L437.514 507.923L437.527 507.929L437.539 507.935L438.904 505.264ZM434.04 500.976L436.466 499.211L436.466 499.211L434.04 500.976ZM432.056 493.744L435.056 493.787L435.056 493.766V493.744H432.056ZM434.296 486.256L431.879 484.48L431.872 484.488L434.296 486.256ZM440.504 481.52L439.382 478.738L439.374 478.741L439.367 478.744L440.504 481.52ZM462.584 483.76L460.725 486.115L460.733 486.121L460.74 486.126L462.584 483.76ZM467.768 494.576V497.576H470.88L470.766 494.466L467.768 494.576ZM452.472 494.576L449.474 494.676L449.571 497.576H452.472V494.576ZM447.864 491.632L449.986 493.753L450.041 493.698L450.094 493.639L447.864 491.632ZM448.952 495.856L447.38 498.411L447.437 498.446L447.495 498.478L448.952 495.856ZM454.392 498.224L453.328 501.029L453.336 501.032L453.343 501.035L454.392 498.224ZM461.432 501.296L460.017 503.941L460.03 503.948L460.042 503.955L461.432 501.296ZM466.296 505.392L463.931 507.238L463.931 507.238L466.296 505.392ZM466.296 519.472L468.837 521.066L468.844 521.055L468.851 521.044L466.296 519.472ZM460.344 524.592L459.056 521.883L460.344 524.592ZM451.064 523.448C446.113 523.448 442.283 522.303 439.362 520.227L435.886 525.117C440.049 528.076 445.178 529.448 451.064 529.448V523.448ZM439.396 520.251C436.719 518.293 435.175 515.439 434.923 511.29L428.934 511.654C429.279 517.318 431.532 521.931 435.853 525.093L439.396 520.251ZM431.928 514.472H447.032V508.472H431.928V514.472ZM444.042 511.717C444.177 513.356 444.636 515.063 445.81 516.389C447.07 517.812 448.774 518.376 450.488 518.376V512.376C450.275 512.376 450.201 512.343 450.214 512.348C450.239 512.358 450.28 512.386 450.303 512.411C450.324 512.436 450.101 512.19 450.022 511.227L444.042 511.717ZM450.488 518.376C451.701 518.376 452.958 518.103 454.072 517.36L450.744 512.368C450.781 512.343 450.798 512.342 450.771 512.349C450.74 512.358 450.652 512.376 450.488 512.376V518.376ZM454.116 517.331C455.602 516.302 456.24 514.73 456.24 513.136H450.24C450.24 513.159 450.237 513.034 450.329 512.843C450.428 512.636 450.575 512.484 450.701 512.397L454.116 517.331ZM456.24 513.136C456.24 510.708 454.809 508.976 452.969 507.954L450.055 513.198C450.331 513.351 450.361 513.433 450.322 513.374C450.301 513.344 450.276 513.296 450.259 513.238C450.242 513.181 450.24 513.143 450.24 513.136H456.24ZM453.042 507.995C451.628 507.158 449.611 506.312 447.13 505.441L445.143 511.103C447.526 511.939 449.092 512.629 449.983 513.157L453.042 507.995ZM447.135 505.443C444.311 504.446 442.033 503.494 440.27 502.593L437.539 507.935C439.616 508.997 442.159 510.05 445.138 511.101L447.135 505.443ZM440.294 502.605C438.865 501.858 437.586 500.751 436.466 499.211L431.614 502.741C433.225 504.955 435.189 506.707 437.514 507.923L440.294 502.605ZM436.466 499.211C435.575 497.985 435.02 496.259 435.056 493.787L429.057 493.701C429.007 497.117 429.775 500.212 431.614 502.741L436.466 499.211ZM435.056 493.744C435.056 491.329 435.659 489.479 436.72 488.024L431.872 484.488C429.947 487.129 429.056 490.271 429.056 493.744H435.056ZM436.714 488.032C437.896 486.423 439.505 485.172 441.642 484.296L439.367 478.744C436.298 480.002 433.769 481.907 431.879 484.48L436.714 488.032ZM441.626 484.302C443.865 483.4 446.442 482.92 449.4 482.92V476.92C445.788 476.92 442.434 477.507 439.382 478.738L441.626 484.302ZM449.4 482.92C454.503 482.92 458.168 484.096 460.725 486.115L464.443 481.405C460.515 478.304 455.391 476.92 449.4 476.92V482.92ZM460.74 486.126C463.239 488.074 464.628 490.804 464.77 494.686L470.766 494.466C470.567 489.047 468.5 484.566 464.428 481.394L460.74 486.126ZM467.768 491.576H452.472V497.576H467.768V491.576ZM455.471 494.476C455.416 492.84 454.997 490.966 453.554 489.626L449.471 494.022C449.348 493.909 449.338 493.831 449.368 493.916C449.402 494.014 449.46 494.248 449.474 494.676L455.471 494.476ZM453.554 489.626C452.373 488.53 450.908 487.992 449.336 487.992V493.992C449.387 493.992 449.418 493.996 449.433 493.999C449.448 494.001 449.452 494.003 449.449 494.002C449.446 494.001 449.443 493.999 449.443 493.999C449.443 494 449.453 494.005 449.471 494.022L453.554 489.626ZM449.336 487.992C447.928 487.992 446.613 488.538 445.634 489.625L450.094 493.639C450.02 493.721 449.893 493.826 449.716 493.903C449.543 493.979 449.401 493.992 449.336 493.992V487.992ZM445.743 489.511C444.627 490.626 444.288 492.051 444.288 493.296H450.288C450.288 493.192 450.303 493.215 450.267 493.317C450.227 493.434 450.14 493.599 449.986 493.753L445.743 489.511ZM444.288 493.296C444.288 495.649 445.659 497.352 447.38 498.411L450.525 493.301C450.246 493.13 450.197 493.034 450.22 493.069C450.232 493.089 450.253 493.128 450.269 493.182C450.285 493.236 450.288 493.278 450.288 493.296H444.288ZM447.495 498.478C448.845 499.228 450.825 500.079 453.328 501.029L455.456 495.419C453.011 494.491 451.364 493.764 450.409 493.234L447.495 498.478ZM453.343 501.035C456.129 502.074 458.341 503.045 460.017 503.941L462.847 498.651C460.854 497.584 458.373 496.507 455.441 495.413L453.343 501.035ZM460.042 503.955C461.522 504.728 462.817 505.809 463.931 507.238L468.661 503.546C467.045 501.476 465.097 499.826 462.822 498.637L460.042 503.955ZM463.931 507.238C464.81 508.364 465.344 509.874 465.344 511.984H471.344C471.344 508.803 470.513 505.919 468.661 503.546L463.931 507.238ZM465.344 511.984C465.344 514.24 464.797 516.185 463.741 517.9L468.851 521.044C470.527 518.322 471.344 515.275 471.344 511.984H465.344ZM463.755 517.878C462.729 519.513 461.208 520.859 459.056 521.883L461.632 527.301C464.686 525.85 467.133 523.783 468.837 521.066L463.755 517.878ZM459.056 521.883C456.942 522.888 454.309 523.448 451.064 523.448V529.448C454.988 529.448 458.541 528.771 461.632 527.301L459.056 521.883ZM525.816 480.688L528.483 482.062L530.737 477.688H525.816V480.688ZM509.56 512.24L506.893 510.866L506.56 511.513V512.24H509.56ZM509.56 526V529H512.56V526H509.56ZM495.352 526H492.352V529H495.352V526ZM495.352 512.24H498.352V511.513L498.019 510.866L495.352 512.24ZM479.096 480.688V477.688H474.176L476.429 482.062L479.096 480.688ZM495.352 480.688L498.088 479.456L497.292 477.688H495.352V480.688ZM502.584 496.752L499.849 497.984L502.584 504.06L505.32 497.984L502.584 496.752ZM509.816 480.688V477.688H507.877L507.081 479.456L509.816 480.688ZM523.149 479.314L506.893 510.866L512.227 513.614L528.483 482.062L523.149 479.314ZM506.56 512.24V526H512.56V512.24H506.56ZM509.56 523H495.352V529H509.56V523ZM498.352 526V512.24H492.352V526H498.352ZM498.019 510.866L481.763 479.314L476.429 482.062L492.685 513.614L498.019 510.866ZM479.096 483.688H495.352V477.688H479.096V483.688ZM492.617 481.92L499.849 497.984L505.32 495.52L498.088 479.456L492.617 481.92ZM505.32 497.984L512.552 481.92L507.081 479.456L499.849 495.52L505.32 497.984ZM509.816 483.688H525.816V477.688H509.816V483.688Z" fill="black" mask="url(#path-6-outside-2_1_2)"/>
<path d="M385.35 950.38V953.02H382.53V961H379.2V953.02H376.41V950.38H385.35ZM393.528 961.105C392.528 961.105 391.608 960.87 390.768 960.4C389.938 959.93 389.278 959.28 388.788 958.45C388.298 957.62 388.053 956.685 388.053 955.645C388.053 954.605 388.298 953.67 388.788 952.84C389.278 952.01 389.938 951.365 390.768 950.905C391.608 950.435 392.528 950.2 393.528 950.2C394.528 950.2 395.443 950.435 396.273 950.905C397.103 951.365 397.758 952.01 398.238 952.84C398.728 953.67 398.973 954.605 398.973 955.645C398.973 956.685 398.728 957.62 398.238 958.45C397.758 959.28 397.098 959.93 396.258 960.4C395.428 960.87 394.518 961.105 393.528 961.105ZM393.528 958C394.188 958 394.698 957.79 395.058 957.37C395.418 956.94 395.598 956.365 395.598 955.645C395.598 954.915 395.418 954.34 395.058 953.92C394.698 953.49 394.188 953.275 393.528 953.275C392.858 953.275 392.343 953.49 391.983 953.92C391.623 954.34 391.443 954.915 391.443 955.645C391.443 956.365 391.623 956.94 391.983 957.37C392.343 957.79 392.858 958 393.528 958ZM407.449 961.105C406.449 961.105 405.529 960.87 404.689 960.4C403.859 959.93 403.199 959.28 402.709 958.45C402.219 957.62 401.974 956.685 401.974 955.645C401.974 954.605 402.219 953.67 402.709 952.84C403.199 952.01 403.859 951.365 404.689 950.905C405.529 950.435 406.449 950.2 407.449 950.2C408.449 950.2 409.364 950.435 410.194 950.905C411.024 951.365 411.679 952.01 412.159 952.84C412.649 953.67 412.894 954.605 412.894 955.645C412.894 956.685 412.649 957.62 412.159 958.45C411.679 959.28 411.019 959.93 410.179 960.4C409.349 960.87 408.439 961.105 407.449 961.105ZM407.449 958C408.109 958 408.619 957.79 408.979 957.37C409.339 956.94 409.519 956.365 409.519 955.645C409.519 954.915 409.339 954.34 408.979 953.92C408.619 953.49 408.109 953.275 407.449 953.275C406.779 953.275 406.264 953.49 405.904 953.92C405.544 954.34 405.364 954.915 405.364 955.645C405.364 956.365 405.544 956.94 405.904 957.37C406.264 957.79 406.779 958 407.449 958ZM426.381 961H423.051L419.526 955.66V961H416.196V950.38H419.526L423.051 955.81V950.38H426.381V961ZM440.185 950.38L436.375 957.775V961H433.045V957.775L429.235 950.38H433.045L434.74 954.145L436.435 950.38H440.185ZM446.732 958.345H450.992V961H443.042V958.495L447.242 953.02H443.042V950.38H450.992V952.885L446.732 958.345Z" fill="black"/>
<path d="M604.699 273.952C604.699 268.416 605.867 264.064 608.203 260.896C610.571 257.728 614.203 256.144 619.099 256.144C623.963 256.144 627.579 257.744 629.947 260.944C632.315 264.112 633.499 268.448 633.499 273.952C633.499 279.488 632.315 283.856 629.947 287.056C627.579 290.224 623.963 291.808 619.099 291.808C614.203 291.808 610.571 290.224 608.203 287.056C605.867 283.856 604.699 279.488 604.699 273.952ZM622.987 273.952C622.987 271.392 622.731 269.472 622.219 268.192C621.707 266.88 620.667 266.224 619.099 266.224C617.499 266.224 616.443 266.88 615.931 268.192C615.419 269.472 615.163 271.392 615.163 273.952C615.163 276.544 615.419 278.496 615.931 279.808C616.443 281.088 617.499 281.728 619.099 281.728C620.667 281.728 621.707 281.088 622.219 279.808C622.731 278.496 622.987 276.544 622.987 273.952ZM642.145 266.896V256.912H658.417V292H647.233V266.896H642.145Z" fill="black"/>
</g>
</g>
</g>
<defs>
<filter id="filter0_d_1_2" x="62.6" y="139.6" width="697.8" height="944.8" filterUnits="userSpaceOnUse" color-interpolation-filters="sRGB">
<feFlood flood-opacity="0" result="BackgroundImageFix"/>
<feColorMatrix in="SourceAlpha" type="matrix" values="0 0 0 0 0 0 0 0 0 0 0 0 0 0 0 0 0 0 127 0" result="hardAlpha"/>
<feOffset dx="13" dy="12"/>
<feGaussianBlur stdDeviation="25.7"/>
<feComposite in2="hardAlpha" operator="out"/>
<feColorMatrix type="matrix" values="0 0 0 0 0 0 0 0 0 0 0 0 0 0 0 0 0 0 0.25 0"/>
<feBlend mode="normal" in2="BackgroundImageFix" result="effect1_dropShadow_1_2"/>
<feBlend mode="normal" in="SourceGraphic" in2="effect1_dropShadow_1_2" result="shape"/>
</filter>
<filter id="filter1_f_1_2" x="119" y="177" width="8.00006" height="846" filterUnits="userSpaceOnUse" color-interpolation-filters="sRGB">
<feFlood flood-opacity="0" result="BackgroundImageFix"/>
<feBlend mode="normal" in="SourceGraphic" in2="BackgroundImageFix" result="shape"/>
<feGaussianBlur stdDeviation="1" result="effect1_foregroundBlur_1_2"/>
</filter>
<filter id="filter2_f_1_2" x="123" y="177" width="8.00006" height="846" filterUnits="userSpaceOnUse" color-interpolation-filters="sRGB">
<feFlood flood-opacity="0" result="BackgroundImageFix"/>
<feBlend mode="normal" in="SourceGraphic" in2="BackgroundImageFix" result="shape"/>
<feGaussianBlur stdDeviation="1" result="effect1_foregroundBlur_1_2"/>
</filter>
<clipPath id="clip0_1_2">
<rect width="797" height="1200" fill="white"/>
</clipPath>
<clipPath id="clip1_1_2">
<rect width="595" height="842" fill="white" transform="translate(101 179)"/>
</clipPath>
</defs>
</svg>
