<svg width="797" height="1200" viewBox="0 0 797 1200" fill="none" xmlns="http://www.w3.org/2000/svg">
<g clip-path="url(#clip0_1010_367)">
<rect width="797" height="1200" fill="#FCCEE8"/>
<g filter="url(#filter0_d_1010_367)">
<g clip-path="url(#clip1_1010_367)">
<rect width="595" height="842" transform="translate(101 179)" fill="#FCCEE8"/>
<g opacity="0.78" filter="url(#filter1_f_1010_367)">
<line x1="123" y1="179" x2="123" y2="1021" stroke="black" stroke-opacity="0.31" stroke-width="4"/>
</g>
<g opacity="0.78" filter="url(#filter2_f_1010_367)">
<line x1="127" y1="179" x2="127" y2="1021" stroke="white" stroke-opacity="0.62" stroke-width="4"/>
</g>
<mask id="path-3-outside-1_1010_367" maskUnits="userSpaceOnUse" x="239" y="545" width="350" height="127" fill="black">
<rect fill="white" x="239" y="545" width="350" height="127"/>
<path d="M309.631 548.688L299.263 594H281.599L276.351 568.272L271.103 594H253.439L243.071 548.688H258.367L262.463 577.232L268.607 548.688H284.095L290.239 577.232L294.335 548.688H309.631ZM346.47 594L337.958 577.744H337.894V594H323.686V548.688H344.806C348.476 548.688 351.612 549.349 354.214 550.672C356.817 551.952 358.758 553.723 360.038 555.984C361.361 558.203 362.022 560.72 362.022 563.536C362.022 566.565 361.169 569.253 359.462 571.6C357.798 573.947 355.388 575.632 352.23 576.656L362.086 594H346.47ZM337.894 568.272H343.526C344.892 568.272 345.916 567.973 346.598 567.376C347.281 566.736 347.622 565.755 347.622 564.432C347.622 563.237 347.26 562.299 346.534 561.616C345.852 560.933 344.849 560.592 343.526 560.592H337.894V568.272ZM389.729 548.688V594H375.521V548.688H389.729ZM440.69 548.688V559.952H428.658V594H414.45V559.952H402.546V548.688H440.69ZM467.712 548.688V594H453.504V548.688H467.712ZM526.545 594H512.337L497.297 571.216V594H483.089V548.688H497.297L512.337 571.856V548.688H526.545V594ZM569.7 564.176C569.145 563.28 568.356 562.597 567.332 562.128C566.308 561.616 565.07 561.36 563.62 561.36C560.889 561.36 558.777 562.256 557.284 564.048C555.79 565.797 555.044 568.208 555.044 571.28C555.044 574.821 555.876 577.467 557.54 579.216C559.204 580.965 561.764 581.84 565.22 581.84C568.505 581.84 571.15 580.517 573.156 577.872H561.828V567.824H584.932V582.032C582.969 585.403 580.26 588.304 576.804 590.736C573.348 593.125 568.974 594.32 563.684 594.32C558.99 594.32 554.894 593.36 551.396 591.44C547.94 589.477 545.273 586.747 543.396 583.248C541.561 579.749 540.644 575.76 540.644 571.28C540.644 566.8 541.561 562.811 543.396 559.312C545.273 555.813 547.94 553.104 551.396 551.184C554.852 549.221 558.905 548.24 563.556 548.24C569.486 548.24 574.308 549.669 578.02 552.528C581.774 555.387 583.993 559.269 584.676 564.176H569.7ZM323.137 661.152H308.033L305.793 668H290.881L307.457 622.688H323.841L340.353 668H325.377L323.137 661.152ZM319.681 650.464L315.585 637.856L311.489 650.464H319.681ZM407.96 622.688V633.952H395.928V668H381.72V633.952H369.816V622.688H407.96ZM442.854 668.448C438.587 668.448 434.662 667.445 431.078 665.44C427.536 663.435 424.72 660.661 422.63 657.12C420.539 653.579 419.494 649.589 419.494 645.152C419.494 640.715 420.539 636.725 422.63 633.184C424.72 629.643 427.536 626.891 431.078 624.928C434.662 622.923 438.587 621.92 442.854 621.92C447.12 621.92 451.024 622.923 454.566 624.928C458.107 626.891 460.902 629.643 462.95 633.184C465.04 636.725 466.086 640.715 466.086 645.152C466.086 649.589 465.04 653.579 462.95 657.12C460.902 660.661 458.086 663.435 454.502 665.44C450.96 667.445 447.078 668.448 442.854 668.448ZM442.854 655.2C445.67 655.2 447.846 654.304 449.382 652.512C450.918 650.677 451.686 648.224 451.686 645.152C451.686 642.037 450.918 639.584 449.382 637.792C447.846 635.957 445.67 635.04 442.854 635.04C439.995 635.04 437.798 635.957 436.262 637.792C434.726 639.584 433.958 642.037 433.958 645.152C433.958 648.224 434.726 650.677 436.262 652.512C437.798 654.304 439.995 655.2 442.854 655.2ZM515.75 656.672H533.926V668H500.006V657.312L517.926 633.952H500.006V622.688H533.926V633.376L515.75 656.672Z"/>
</mask>
<path d="M309.631 548.688L299.263 594H281.599L276.351 568.272L271.103 594H253.439L243.071 548.688H258.367L262.463 577.232L268.607 548.688H284.095L290.239 577.232L294.335 548.688H309.631ZM346.47 594L337.958 577.744H337.894V594H323.686V548.688H344.806C348.476 548.688 351.612 549.349 354.214 550.672C356.817 551.952 358.758 553.723 360.038 555.984C361.361 558.203 362.022 560.72 362.022 563.536C362.022 566.565 361.169 569.253 359.462 571.6C357.798 573.947 355.388 575.632 352.23 576.656L362.086 594H346.47ZM337.894 568.272H343.526C344.892 568.272 345.916 567.973 346.598 567.376C347.281 566.736 347.622 565.755 347.622 564.432C347.622 563.237 347.26 562.299 346.534 561.616C345.852 560.933 344.849 560.592 343.526 560.592H337.894V568.272ZM389.729 548.688V594H375.521V548.688H389.729ZM440.69 548.688V559.952H428.658V594H414.45V559.952H402.546V548.688H440.69ZM467.712 548.688V594H453.504V548.688H467.712ZM526.545 594H512.337L497.297 571.216V594H483.089V548.688H497.297L512.337 571.856V548.688H526.545V594ZM569.7 564.176C569.145 563.28 568.356 562.597 567.332 562.128C566.308 561.616 565.07 561.36 563.62 561.36C560.889 561.36 558.777 562.256 557.284 564.048C555.79 565.797 555.044 568.208 555.044 571.28C555.044 574.821 555.876 577.467 557.54 579.216C559.204 580.965 561.764 581.84 565.22 581.84C568.505 581.84 571.15 580.517 573.156 577.872H561.828V567.824H584.932V582.032C582.969 585.403 580.26 588.304 576.804 590.736C573.348 593.125 568.974 594.32 563.684 594.32C558.99 594.32 554.894 593.36 551.396 591.44C547.94 589.477 545.273 586.747 543.396 583.248C541.561 579.749 540.644 575.76 540.644 571.28C540.644 566.8 541.561 562.811 543.396 559.312C545.273 555.813 547.94 553.104 551.396 551.184C554.852 549.221 558.905 548.24 563.556 548.24C569.486 548.24 574.308 549.669 578.02 552.528C581.774 555.387 583.993 559.269 584.676 564.176H569.7ZM323.137 661.152H308.033L305.793 668H290.881L307.457 622.688H323.841L340.353 668H325.377L323.137 661.152ZM319.681 650.464L315.585 637.856L311.489 650.464H319.681ZM407.96 622.688V633.952H395.928V668H381.72V633.952H369.816V622.688H407.96ZM442.854 668.448C438.587 668.448 434.662 667.445 431.078 665.44C427.536 663.435 424.72 660.661 422.63 657.12C420.539 653.579 419.494 649.589 419.494 645.152C419.494 640.715 420.539 636.725 422.63 633.184C424.72 629.643 427.536 626.891 431.078 624.928C434.662 622.923 438.587 621.92 442.854 621.92C447.12 621.92 451.024 622.923 454.566 624.928C458.107 626.891 460.902 629.643 462.95 633.184C465.04 636.725 466.086 640.715 466.086 645.152C466.086 649.589 465.04 653.579 462.95 657.12C460.902 660.661 458.086 663.435 454.502 665.44C450.96 667.445 447.078 668.448 442.854 668.448ZM442.854 655.2C445.67 655.2 447.846 654.304 449.382 652.512C450.918 650.677 451.686 648.224 451.686 645.152C451.686 642.037 450.918 639.584 449.382 637.792C447.846 635.957 445.67 635.04 442.854 635.04C439.995 635.04 437.798 635.957 436.262 637.792C434.726 639.584 433.958 642.037 433.958 645.152C433.958 648.224 434.726 650.677 436.262 652.512C437.798 654.304 439.995 655.2 442.854 655.2ZM515.75 656.672H533.926V668H500.006V657.312L517.926 633.952H500.006V622.688H533.926V633.376L515.75 656.672Z" fill="white"/>
<path d="M309.631 548.688L312.556 549.357L313.395 545.688H309.631V548.688ZM299.263 594V597H301.654L302.188 594.669L299.263 594ZM281.599 594L278.66 594.6L279.149 597H281.599V594ZM276.351 568.272L279.291 567.672L273.412 567.672L276.351 568.272ZM271.103 594V597H273.553L274.043 594.6L271.103 594ZM253.439 594L250.515 594.669L251.048 597H253.439V594ZM243.071 548.688V545.688H239.307L240.147 549.357L243.071 548.688ZM258.367 548.688L261.337 548.262L260.967 545.688H258.367V548.688ZM262.463 577.232L259.494 577.658L265.396 577.863L262.463 577.232ZM268.607 548.688V545.688H266.184L265.674 548.057L268.607 548.688ZM284.095 548.688L287.028 548.057L286.518 545.688H284.095V548.688ZM290.239 577.232L287.306 577.863L293.209 577.658L290.239 577.232ZM294.335 548.688V545.688H291.735L291.366 548.262L294.335 548.688ZM306.707 548.019L296.339 593.331L302.188 594.669L312.556 549.357L306.707 548.019ZM299.263 591H281.599V597H299.263V591ZM284.539 593.4L279.291 567.672L273.412 568.872L278.66 594.6L284.539 593.4ZM273.412 567.672L268.164 593.4L274.043 594.6L279.291 568.872L273.412 567.672ZM271.103 591H253.439V597H271.103V591ZM256.364 593.331L245.996 548.019L240.147 549.357L250.515 594.669L256.364 593.331ZM243.071 551.688H258.367V545.688H243.071V551.688ZM255.398 549.114L259.494 577.658L265.433 576.806L261.337 548.262L255.398 549.114ZM265.396 577.863L271.54 549.319L265.674 548.057L259.53 576.601L265.396 577.863ZM268.607 551.688H284.095V545.688H268.607V551.688ZM281.162 549.319L287.306 577.863L293.172 576.601L287.028 548.057L281.162 549.319ZM293.209 577.658L297.305 549.114L291.366 548.262L287.27 576.806L293.209 577.658ZM294.335 551.688H309.631V545.688H294.335V551.688ZM346.47 594L343.813 595.392L344.655 597H346.47V594ZM337.958 577.744L340.616 576.352L339.774 574.744H337.958V577.744ZM337.894 577.744V574.744H334.894V577.744H337.894ZM337.894 594V597H340.894V594H337.894ZM323.686 594H320.686V597H323.686V594ZM323.686 548.688V545.688H320.686V548.688H323.686ZM354.214 550.672L352.855 553.346L352.873 553.355L352.89 553.364L354.214 550.672ZM360.038 555.984L357.427 557.462L357.444 557.491L357.461 557.52L360.038 555.984ZM359.462 571.6L357.036 569.835L357.025 569.85L357.015 569.865L359.462 571.6ZM352.23 576.656L351.305 573.802L347.803 574.938L349.622 578.138L352.23 576.656ZM362.086 594V597H367.242L364.695 592.518L362.086 594ZM337.894 568.272H334.894V571.272H337.894V568.272ZM346.598 567.376L348.574 569.634L348.613 569.6L348.65 569.565L346.598 567.376ZM346.534 561.616L344.413 563.737L344.445 563.769L344.478 563.801L346.534 561.616ZM337.894 560.592V557.592H334.894V560.592H337.894ZM349.128 592.608L340.616 576.352L335.301 579.136L343.813 595.392L349.128 592.608ZM337.958 574.744H337.894V580.744H337.958V574.744ZM334.894 577.744V594H340.894V577.744H334.894ZM337.894 591H323.686V597H337.894V591ZM326.686 594V548.688H320.686V594H326.686ZM323.686 551.688H344.806V545.688H323.686V551.688ZM344.806 551.688C348.122 551.688 350.768 552.286 352.855 553.346L355.573 547.998C352.455 546.413 348.829 545.688 344.806 545.688V551.688ZM352.89 553.364C355.017 554.41 356.479 555.785 357.427 557.462L362.649 554.506C361.038 551.66 358.617 549.494 355.538 547.98L352.89 553.364ZM357.461 557.52C358.482 559.233 359.022 561.21 359.022 563.536H365.022C365.022 560.23 364.239 557.172 362.615 554.448L357.461 557.52ZM359.022 563.536C359.022 565.961 358.353 568.025 357.036 569.835L361.888 573.365C363.985 570.482 365.022 567.17 365.022 563.536H359.022ZM357.015 569.865C355.78 571.606 353.946 572.946 351.305 573.802L353.156 579.51C356.829 578.318 359.816 576.287 361.909 573.335L357.015 569.865ZM349.622 578.138L359.478 595.482L364.695 592.518L354.839 575.174L349.622 578.138ZM362.086 591H346.47V597H362.086V591ZM337.894 571.272H343.526V565.272H337.894V571.272ZM343.526 571.272C345.263 571.272 347.126 570.901 348.574 569.634L344.623 565.118C344.705 565.046 344.52 565.272 343.526 565.272V571.272ZM348.65 569.565C350.153 568.156 350.622 566.234 350.622 564.432H344.622C344.622 564.845 344.568 565.074 344.533 565.174C344.504 565.258 344.496 565.235 344.546 565.187L348.65 569.565ZM350.622 564.432C350.622 562.588 350.037 560.793 348.59 559.431L344.478 563.801C344.51 563.831 344.531 563.858 344.552 563.913C344.578 563.98 344.622 564.137 344.622 564.432H350.622ZM348.656 559.495C347.228 558.067 345.343 557.592 343.526 557.592V563.592C343.937 563.592 344.18 563.646 344.303 563.688C344.413 563.725 344.427 563.751 344.413 563.737L348.656 559.495ZM343.526 557.592H337.894V563.592H343.526V557.592ZM334.894 560.592V568.272H340.894V560.592H334.894ZM389.729 548.688H392.729V545.688H389.729V548.688ZM389.729 594V597H392.729V594H389.729ZM375.521 594H372.521V597H375.521V594ZM375.521 548.688V545.688H372.521V548.688H375.521ZM386.729 548.688V594H392.729V548.688H386.729ZM389.729 591H375.521V597H389.729V591ZM378.521 594V548.688H372.521V594H378.521ZM375.521 551.688H389.729V545.688H375.521V551.688ZM440.69 548.688H443.69V545.688H440.69V548.688ZM440.69 559.952V562.952H443.69V559.952H440.69ZM428.658 559.952V556.952H425.658V559.952H428.658ZM428.658 594V597H431.658V594H428.658ZM414.45 594H411.45V597H414.45V594ZM414.45 559.952H417.45V556.952H414.45V559.952ZM402.546 559.952H399.546V562.952H402.546V559.952ZM402.546 548.688V545.688H399.546V548.688H402.546ZM437.69 548.688V559.952H443.69V548.688H437.69ZM440.69 556.952H428.658V562.952H440.69V556.952ZM425.658 559.952V594H431.658V559.952H425.658ZM428.658 591H414.45V597H428.658V591ZM417.45 594V559.952H411.45V594H417.45ZM414.45 556.952H402.546V562.952H414.45V556.952ZM405.546 559.952V548.688H399.546V559.952H405.546ZM402.546 551.688H440.69V545.688H402.546V551.688ZM467.712 548.688H470.712V545.688H467.712V548.688ZM467.712 594V597H470.712V594H467.712ZM453.504 594H450.504V597H453.504V594ZM453.504 548.688V545.688H450.504V548.688H453.504ZM464.712 548.688V594H470.712V548.688H464.712ZM467.712 591H453.504V597H467.712V591ZM456.504 594V548.688H450.504V594H456.504ZM453.504 551.688H467.712V545.688H453.504V551.688ZM526.545 594V597H529.545V594H526.545ZM512.337 594L509.833 595.653L510.722 597H512.337V594ZM497.297 571.216L499.8 569.563L494.297 561.226V571.216H497.297ZM497.297 594V597H500.297V594H497.297ZM483.089 594H480.089V597H483.089V594ZM483.089 548.688V545.688H480.089V548.688H483.089ZM497.297 548.688L499.813 547.055L498.926 545.688H497.297V548.688ZM512.337 571.856L509.82 573.489L515.337 581.987V571.856H512.337ZM512.337 548.688V545.688H509.337V548.688H512.337ZM526.545 548.688H529.545V545.688H526.545V548.688ZM526.545 591H512.337V597H526.545V591ZM514.84 592.347L499.8 569.563L494.793 572.869L509.833 595.653L514.84 592.347ZM494.297 571.216V594H500.297V571.216H494.297ZM497.297 591H483.089V597H497.297V591ZM486.089 594V548.688H480.089V594H486.089ZM483.089 551.688H497.297V545.688H483.089V551.688ZM494.78 550.321L509.82 573.489L514.853 570.223L499.813 547.055L494.78 550.321ZM515.337 571.856V548.688H509.337V571.856H515.337ZM512.337 551.688H526.545V545.688H512.337V551.688ZM523.545 548.688V594H529.545V548.688H523.545ZM569.7 564.176L567.149 565.755L568.029 567.176H569.7V564.176ZM567.332 562.128L565.99 564.811L566.036 564.834L566.082 564.855L567.332 562.128ZM557.284 564.048L559.565 565.996L559.577 565.982L559.588 565.969L557.284 564.048ZM557.54 579.216L555.366 581.284L555.366 581.284L557.54 579.216ZM573.156 577.872L575.546 579.684L579.195 574.872H573.156V577.872ZM561.828 577.872H558.828V580.872H561.828V577.872ZM561.828 567.824V564.824H558.828V567.824H561.828ZM584.932 567.824H587.932V564.824H584.932V567.824ZM584.932 582.032L587.524 583.542L587.932 582.842V582.032H584.932ZM576.804 590.736L578.51 593.204L578.52 593.197L578.53 593.189L576.804 590.736ZM551.396 591.44L549.914 594.049L549.933 594.059L549.952 594.07L551.396 591.44ZM543.396 583.248L540.739 584.641L540.746 584.654L540.752 584.666L543.396 583.248ZM543.396 559.312L540.752 557.894L540.746 557.906L540.739 557.919L543.396 559.312ZM551.396 551.184L552.853 553.806L552.865 553.8L552.877 553.793L551.396 551.184ZM578.02 552.528L576.189 554.905L576.196 554.91L576.202 554.915L578.02 552.528ZM584.676 564.176V567.176H588.122L587.647 563.763L584.676 564.176ZM572.251 562.597C571.363 561.163 570.104 560.099 568.582 559.401L566.082 564.855C566.607 565.096 566.927 565.397 567.149 565.755L572.251 562.597ZM568.673 559.445C567.137 558.676 565.415 558.36 563.62 558.36V564.36C564.726 564.36 565.479 564.556 565.99 564.811L568.673 559.445ZM563.62 558.36C560.168 558.36 557.142 559.532 554.979 562.127L559.588 565.969C560.412 564.98 561.611 564.36 563.62 564.36V558.36ZM555.002 562.1C552.909 564.552 552.044 567.736 552.044 571.28H558.044C558.044 568.68 558.672 567.043 559.565 565.996L555.002 562.1ZM552.044 571.28C552.044 575.236 552.969 578.763 555.366 581.284L559.713 577.148C558.783 576.17 558.044 574.407 558.044 571.28H552.044ZM555.366 581.284C557.804 583.846 561.302 584.84 565.22 584.84V578.84C562.226 578.84 560.604 578.084 559.713 577.148L555.366 581.284ZM565.22 584.84C569.455 584.84 572.981 583.069 575.546 579.684L570.765 576.06C569.32 577.966 567.555 578.84 565.22 578.84V584.84ZM573.156 574.872H561.828V580.872H573.156V574.872ZM564.828 577.872V567.824H558.828V577.872H564.828ZM561.828 570.824H584.932V564.824H561.828V570.824ZM581.932 567.824V582.032H587.932V567.824H581.932ZM582.339 580.522C580.612 583.489 578.21 586.078 575.077 588.283L578.53 593.189C582.31 590.53 585.327 587.316 587.524 583.542L582.339 580.522ZM575.098 588.268C572.259 590.231 568.523 591.32 563.684 591.32V597.32C569.425 597.32 574.436 596.02 578.51 593.204L575.098 588.268ZM563.684 591.32C559.406 591.32 555.823 590.448 552.839 588.81L549.952 594.07C553.965 596.272 558.575 597.32 563.684 597.32V591.32ZM552.877 588.831C549.912 587.148 547.649 584.829 546.039 581.83L540.752 584.666C542.897 588.664 545.967 591.807 549.914 594.049L552.877 588.831ZM546.053 581.855C544.472 578.841 543.644 575.34 543.644 571.28H537.644C537.644 576.18 538.65 580.658 540.739 584.641L546.053 581.855ZM543.644 571.28C543.644 567.22 544.472 563.719 546.053 560.705L540.739 557.919C538.65 561.902 537.644 566.38 537.644 571.28H543.644ZM546.039 560.73C547.646 557.736 549.902 555.446 552.853 553.806L549.939 548.562C545.978 550.762 542.9 553.89 540.752 557.894L546.039 560.73ZM552.877 553.793C555.81 552.127 559.335 551.24 563.556 551.24V545.24C558.475 545.24 553.893 546.316 549.914 548.575L552.877 553.793ZM563.556 551.24C569.003 551.24 573.128 552.547 576.189 554.905L579.85 550.151C575.488 546.792 569.97 545.24 563.556 545.24V551.24ZM576.202 554.915C579.293 557.268 581.125 560.424 581.704 564.589L587.647 563.763C586.861 558.115 584.256 553.505 579.837 550.141L576.202 554.915ZM584.676 561.176H569.7V567.176H584.676V561.176ZM323.137 661.152L325.989 660.219L325.312 658.152H323.137V661.152ZM308.033 661.152V658.152H305.858L305.182 660.219L308.033 661.152ZM305.793 668V671H307.968L308.645 668.933L305.793 668ZM290.881 668L288.064 666.969L286.589 671H290.881V668ZM307.457 622.688V619.688H305.36L304.64 621.657L307.457 622.688ZM323.841 622.688L326.66 621.661L325.941 619.688H323.841V622.688ZM340.353 668V671H344.639L343.172 666.973L340.353 668ZM325.377 668L322.526 668.933L323.202 671H325.377V668ZM319.681 650.464V653.464H323.81L322.534 649.537L319.681 650.464ZM315.585 637.856L318.438 636.929L315.585 628.147L312.732 636.929L315.585 637.856ZM311.489 650.464L308.636 649.537L307.36 653.464H311.489V650.464ZM323.137 658.152H308.033V664.152H323.137V658.152ZM305.182 660.219L302.942 667.067L308.645 668.933L310.885 662.085L305.182 660.219ZM305.793 665H290.881V671H305.793V665ZM293.699 669.031L310.275 623.719L304.64 621.657L288.064 666.969L293.699 669.031ZM307.457 625.688H323.841V619.688H307.457V625.688ZM321.023 623.715L337.535 669.027L343.172 666.973L326.66 621.661L321.023 623.715ZM340.353 665H325.377V671H340.353V665ZM328.229 667.067L325.989 660.219L320.286 662.085L322.526 668.933L328.229 667.067ZM322.534 649.537L318.438 636.929L312.732 638.783L316.828 651.391L322.534 649.537ZM312.732 636.929L308.636 649.537L314.342 651.391L318.438 638.783L312.732 636.929ZM311.489 653.464H319.681V647.464H311.489V653.464ZM407.96 622.688H410.96V619.688H407.96V622.688ZM407.96 633.952V636.952H410.96V633.952H407.96ZM395.928 633.952V630.952H392.928V633.952H395.928ZM395.928 668V671H398.928V668H395.928ZM381.72 668H378.72V671H381.72V668ZM381.72 633.952H384.72V630.952H381.72V633.952ZM369.816 633.952H366.816V636.952H369.816V633.952ZM369.816 622.688V619.688H366.816V622.688H369.816ZM404.96 622.688V633.952H410.96V622.688H404.96ZM407.96 630.952H395.928V636.952H407.96V630.952ZM392.928 633.952V668H398.928V633.952H392.928ZM395.928 665H381.72V671H395.928V665ZM384.72 668V633.952H378.72V668H384.72ZM381.72 630.952H369.816V636.952H381.72V630.952ZM372.816 633.952V622.688H366.816V633.952H372.816ZM369.816 625.688H407.96V619.688H369.816V625.688ZM431.078 665.44L429.6 668.051L429.606 668.054L429.613 668.058L431.078 665.44ZM422.63 657.12L420.046 658.645L420.046 658.645L422.63 657.12ZM431.078 624.928L432.532 627.552L432.543 627.546L431.078 624.928ZM454.566 624.928L453.088 627.539L453.099 627.545L453.112 627.552L454.566 624.928ZM462.95 633.184L460.353 634.686L460.36 634.698L460.366 634.709L462.95 633.184ZM462.95 657.12L460.366 655.595L460.36 655.606L460.353 655.618L462.95 657.12ZM454.502 665.44L453.037 662.822L453.03 662.826L453.024 662.829L454.502 665.44ZM449.382 652.512L451.66 654.464L451.671 654.451L451.682 654.438L449.382 652.512ZM449.382 637.792L447.081 639.718L447.093 639.731L447.104 639.744L449.382 637.792ZM436.262 637.792L438.54 639.744L438.551 639.731L438.562 639.718L436.262 637.792ZM436.262 652.512L433.961 654.438L433.973 654.451L433.984 654.464L436.262 652.512ZM442.854 665.448C439.079 665.448 435.661 664.567 432.543 662.822L429.613 668.058C433.662 670.324 438.095 671.448 442.854 671.448V665.448ZM432.556 662.829C429.477 661.086 427.04 658.689 425.213 655.595L420.046 658.645C422.401 662.634 425.596 665.784 429.6 668.051L432.556 662.829ZM425.213 655.595C423.417 652.552 422.494 649.097 422.494 645.152H416.494C416.494 650.082 417.661 654.605 420.046 658.645L425.213 655.595ZM422.494 645.152C422.494 641.207 423.417 637.752 425.213 634.709L420.046 631.659C417.661 635.699 416.494 640.222 416.494 645.152H422.494ZM425.213 634.709C427.037 631.621 429.466 629.251 432.532 627.552L429.624 622.304C425.607 624.53 422.404 627.665 420.046 631.659L425.213 634.709ZM432.543 627.546C435.661 625.801 439.079 624.92 442.854 624.92V618.92C438.095 618.92 433.662 620.044 429.613 622.31L432.543 627.546ZM442.854 624.92C446.628 624.92 450.019 625.801 453.088 627.539L456.044 622.317C452.03 620.044 447.612 618.92 442.854 618.92V624.92ZM453.112 627.552C456.172 629.248 458.574 631.61 460.353 634.686L465.547 631.682C463.23 627.675 460.042 624.533 456.02 622.304L453.112 627.552ZM460.366 634.709C462.163 637.752 463.086 641.207 463.086 645.152H469.086C469.086 640.222 467.918 635.699 465.533 631.659L460.366 634.709ZM463.086 645.152C463.086 649.097 462.163 652.552 460.366 655.595L465.533 658.645C467.918 654.605 469.086 650.082 469.086 645.152H463.086ZM460.353 655.618C458.576 658.69 456.152 661.079 453.037 662.822L455.967 668.058C460.02 665.79 463.227 662.632 465.547 658.622L460.353 655.618ZM453.024 662.829C449.95 664.57 446.58 665.448 442.854 665.448V671.448C447.575 671.448 451.97 670.321 455.98 668.051L453.024 662.829ZM442.854 658.2C446.36 658.2 449.443 657.051 451.66 654.464L447.104 650.56C446.249 651.557 444.98 652.2 442.854 652.2V658.2ZM451.682 654.438C453.786 651.925 454.686 648.724 454.686 645.152H448.686C448.686 647.724 448.05 649.43 447.081 650.586L451.682 654.438ZM454.686 645.152C454.686 641.553 453.793 638.329 451.66 635.84L447.104 639.744C448.042 640.839 448.686 642.521 448.686 645.152H454.686ZM451.682 635.866C449.473 633.228 446.383 632.04 442.854 632.04V638.04C444.956 638.04 446.219 638.687 447.081 639.718L451.682 635.866ZM442.854 632.04C439.298 632.04 436.18 633.217 433.961 635.866L438.562 639.718C439.416 638.698 440.692 638.04 442.854 638.04V632.04ZM433.984 635.84C431.85 638.329 430.958 641.553 430.958 645.152H436.958C436.958 642.521 437.601 640.839 438.54 639.744L433.984 635.84ZM430.958 645.152C430.958 648.724 431.858 651.925 433.961 654.438L438.562 650.586C437.594 649.43 436.958 647.724 436.958 645.152H430.958ZM433.984 654.464C436.21 657.061 439.322 658.2 442.854 658.2V652.2C440.668 652.2 439.386 651.547 438.54 650.56L433.984 654.464ZM515.75 656.672L513.385 654.827L509.604 659.672H515.75V656.672ZM533.926 656.672H536.926V653.672H533.926V656.672ZM533.926 668V671H536.926V668H533.926ZM500.006 668H497.006V671H500.006V668ZM500.006 657.312L497.626 655.486L497.006 656.294V657.312H500.006ZM517.926 633.952L520.307 635.778L524.009 630.952H517.926V633.952ZM500.006 633.952H497.006V636.952H500.006V633.952ZM500.006 622.688V619.688H497.006V622.688H500.006ZM533.926 622.688H536.926V619.688H533.926V622.688ZM533.926 633.376L536.292 635.221L536.926 634.408V633.376H533.926ZM515.75 659.672H533.926V653.672H515.75V659.672ZM530.926 656.672V668H536.926V656.672H530.926ZM533.926 665H500.006V671H533.926V665ZM503.006 668V657.312H497.006V668H503.006ZM502.387 659.138L520.307 635.778L515.546 632.126L497.626 655.486L502.387 659.138ZM517.926 630.952H500.006V636.952H517.926V630.952ZM503.006 633.952V622.688H497.006V633.952H503.006ZM500.006 625.688H533.926V619.688H500.006V625.688ZM530.926 622.688V633.376H536.926V622.688H530.926ZM531.561 631.531L513.385 654.827L518.115 658.517L536.292 635.221L531.561 631.531Z" fill="black" mask="url(#path-3-outside-1_1010_367)"/>
<rect x="570" y="250" width="126" height="48" fill="#F5F5F5"/>
<mask id="path-6-outside-2_1010_367" maskUnits="userSpaceOnUse" x="187" y="476" width="454" height="54" fill="black">
<rect fill="white" x="187" y="476" width="454" height="54"/>
<path d="M257.828 480.688L247.46 526H229.796L224.548 500.272L219.3 526H201.636L191.268 480.688H206.564L210.66 509.232L216.804 480.688H232.292L238.436 509.232L242.532 480.688H257.828ZM286.091 492.016V497.584H300.171V508.272H286.091V514.672H302.091V526H271.883V480.688H302.091V492.016H286.091ZM346.741 502.768C349.472 503.408 351.584 504.731 353.077 506.736C354.613 508.699 355.381 510.981 355.381 513.584C355.381 517.552 354.058 520.624 351.413 522.8C348.81 524.933 345.056 526 340.149 526H316.405V480.688H339.509C344.117 480.688 347.744 481.691 350.389 483.696C353.034 485.701 354.357 488.624 354.357 492.464C354.357 495.109 353.653 497.349 352.245 499.184C350.88 500.976 349.045 502.171 346.741 502.768ZM330.613 498.352H336.117C337.397 498.352 338.336 498.096 338.933 497.584C339.573 497.072 339.893 496.283 339.893 495.216C339.893 494.107 339.573 493.296 338.933 492.784C338.336 492.229 337.397 491.952 336.117 491.952H330.613V498.352ZM337.077 514.608C338.357 514.608 339.296 514.373 339.893 513.904C340.533 513.392 340.853 512.581 340.853 511.472C340.853 509.296 339.594 508.208 337.077 508.208H330.613V514.608H337.077ZM432.406 526H418.198L403.158 503.216V526H388.95V480.688H403.158L418.198 503.856V480.688H432.406V526ZM469.865 526.448C465.598 526.448 461.673 525.445 458.089 523.44C454.548 521.435 451.732 518.661 449.641 515.12C447.55 511.579 446.505 507.589 446.505 503.152C446.505 498.715 447.55 494.725 449.641 491.184C451.732 487.643 454.548 484.891 458.089 482.928C461.673 480.923 465.598 479.92 469.865 479.92C474.132 479.92 478.036 480.923 481.577 482.928C485.118 484.891 487.913 487.643 489.961 491.184C492.052 494.725 493.097 498.715 493.097 503.152C493.097 507.589 492.052 511.579 489.961 515.12C487.913 518.661 485.097 521.435 481.513 523.44C477.972 525.445 474.089 526.448 469.865 526.448ZM469.865 513.2C472.681 513.2 474.857 512.304 476.393 510.512C477.929 508.677 478.697 506.224 478.697 503.152C478.697 500.037 477.929 497.584 476.393 495.792C474.857 493.957 472.681 493.04 469.865 493.04C467.006 493.04 464.809 493.957 463.273 495.792C461.737 497.584 460.969 500.037 460.969 503.152C460.969 506.224 461.737 508.677 463.273 510.512C464.809 512.304 467.006 513.2 469.865 513.2ZM552.815 480.688L537.583 526H519.215L503.983 480.688H519.087L528.431 511.856L537.711 480.688H552.815ZM579.163 492.016V497.584H593.243V508.272H579.163V514.672H595.163V526H564.955V480.688H595.163V492.016H579.163ZM623.685 515.248H637.381V526H609.477V480.688H623.685V515.248Z"/>
</mask>
<path d="M257.828 480.688L247.46 526H229.796L224.548 500.272L219.3 526H201.636L191.268 480.688H206.564L210.66 509.232L216.804 480.688H232.292L238.436 509.232L242.532 480.688H257.828ZM286.091 492.016V497.584H300.171V508.272H286.091V514.672H302.091V526H271.883V480.688H302.091V492.016H286.091ZM346.741 502.768C349.472 503.408 351.584 504.731 353.077 506.736C354.613 508.699 355.381 510.981 355.381 513.584C355.381 517.552 354.058 520.624 351.413 522.8C348.81 524.933 345.056 526 340.149 526H316.405V480.688H339.509C344.117 480.688 347.744 481.691 350.389 483.696C353.034 485.701 354.357 488.624 354.357 492.464C354.357 495.109 353.653 497.349 352.245 499.184C350.88 500.976 349.045 502.171 346.741 502.768ZM330.613 498.352H336.117C337.397 498.352 338.336 498.096 338.933 497.584C339.573 497.072 339.893 496.283 339.893 495.216C339.893 494.107 339.573 493.296 338.933 492.784C338.336 492.229 337.397 491.952 336.117 491.952H330.613V498.352ZM337.077 514.608C338.357 514.608 339.296 514.373 339.893 513.904C340.533 513.392 340.853 512.581 340.853 511.472C340.853 509.296 339.594 508.208 337.077 508.208H330.613V514.608H337.077ZM432.406 526H418.198L403.158 503.216V526H388.95V480.688H403.158L418.198 503.856V480.688H432.406V526ZM469.865 526.448C465.598 526.448 461.673 525.445 458.089 523.44C454.548 521.435 451.732 518.661 449.641 515.12C447.55 511.579 446.505 507.589 446.505 503.152C446.505 498.715 447.55 494.725 449.641 491.184C451.732 487.643 454.548 484.891 458.089 482.928C461.673 480.923 465.598 479.92 469.865 479.92C474.132 479.92 478.036 480.923 481.577 482.928C485.118 484.891 487.913 487.643 489.961 491.184C492.052 494.725 493.097 498.715 493.097 503.152C493.097 507.589 492.052 511.579 489.961 515.12C487.913 518.661 485.097 521.435 481.513 523.44C477.972 525.445 474.089 526.448 469.865 526.448ZM469.865 513.2C472.681 513.2 474.857 512.304 476.393 510.512C477.929 508.677 478.697 506.224 478.697 503.152C478.697 500.037 477.929 497.584 476.393 495.792C474.857 493.957 472.681 493.04 469.865 493.04C467.006 493.04 464.809 493.957 463.273 495.792C461.737 497.584 460.969 500.037 460.969 503.152C460.969 506.224 461.737 508.677 463.273 510.512C464.809 512.304 467.006 513.2 469.865 513.2ZM552.815 480.688L537.583 526H519.215L503.983 480.688H519.087L528.431 511.856L537.711 480.688H552.815ZM579.163 492.016V497.584H593.243V508.272H579.163V514.672H595.163V526H564.955V480.688H595.163V492.016H579.163ZM623.685 515.248H637.381V526H609.477V480.688H623.685V515.248Z" fill="white"/>
<path d="M257.828 480.688L260.752 481.357L261.591 477.688H257.828V480.688ZM247.46 526V529H249.851L250.384 526.669L247.46 526ZM229.796 526L226.856 526.6L227.346 529H229.796V526ZM224.548 500.272L227.487 499.672L221.608 499.672L224.548 500.272ZM219.3 526V529H221.749L222.239 526.6L219.3 526ZM201.636 526L198.711 526.669L199.244 529H201.636V526ZM191.268 480.688V477.688H187.504L188.343 481.357L191.268 480.688ZM206.564 480.688L209.533 480.262L209.164 477.688H206.564V480.688ZM210.66 509.232L207.69 509.658L213.592 509.863L210.66 509.232ZM216.804 480.688V477.688H214.381L213.871 480.057L216.804 480.688ZM232.292 480.688L235.224 480.057L234.714 477.688H232.292V480.688ZM238.436 509.232L235.503 509.863L241.405 509.658L238.436 509.232ZM242.532 480.688V477.688H239.931L239.562 480.262L242.532 480.688ZM254.903 480.019L244.535 525.331L250.384 526.669L260.752 481.357L254.903 480.019ZM247.46 523H229.796V529H247.46V523ZM232.735 525.4L227.487 499.672L221.608 500.872L226.856 526.6L232.735 525.4ZM221.608 499.672L216.36 525.4L222.239 526.6L227.487 500.872L221.608 499.672ZM219.3 523H201.636V529H219.3V523ZM204.56 525.331L194.192 480.019L188.343 481.357L198.711 526.669L204.56 525.331ZM191.268 483.688H206.564V477.688H191.268V483.688ZM203.594 481.114L207.69 509.658L213.629 508.806L209.533 480.262L203.594 481.114ZM213.592 509.863L219.736 481.319L213.871 480.057L207.727 508.601L213.592 509.863ZM216.804 483.688H232.292V477.688H216.804V483.688ZM229.359 481.319L235.503 509.863L241.368 508.601L235.224 480.057L229.359 481.319ZM241.405 509.658L245.501 481.114L239.562 480.262L235.466 508.806L241.405 509.658ZM242.532 483.688H257.828V477.688H242.532V483.688ZM286.091 492.016V489.016H283.091V492.016H286.091ZM286.091 497.584H283.091V500.584H286.091V497.584ZM300.171 497.584H303.171V494.584H300.171V497.584ZM300.171 508.272V511.272H303.171V508.272H300.171ZM286.091 508.272V505.272H283.091V508.272H286.091ZM286.091 514.672H283.091V517.672H286.091V514.672ZM302.091 514.672H305.091V511.672H302.091V514.672ZM302.091 526V529H305.091V526H302.091ZM271.883 526H268.883V529H271.883V526ZM271.883 480.688V477.688H268.883V480.688H271.883ZM302.091 480.688H305.091V477.688H302.091V480.688ZM302.091 492.016V495.016H305.091V492.016H302.091ZM283.091 492.016V497.584H289.091V492.016H283.091ZM286.091 500.584H300.171V494.584H286.091V500.584ZM297.171 497.584V508.272H303.171V497.584H297.171ZM300.171 505.272H286.091V511.272H300.171V505.272ZM283.091 508.272V514.672H289.091V508.272H283.091ZM286.091 517.672H302.091V511.672H286.091V517.672ZM299.091 514.672V526H305.091V514.672H299.091ZM302.091 523H271.883V529H302.091V523ZM274.883 526V480.688H268.883V526H274.883ZM271.883 483.688H302.091V477.688H271.883V483.688ZM299.091 480.688V492.016H305.091V480.688H299.091ZM302.091 489.016H286.091V495.016H302.091V489.016ZM346.741 502.768L345.988 499.864L346.056 505.689L346.741 502.768ZM353.077 506.736L350.671 508.528L350.692 508.557L350.714 508.585L353.077 506.736ZM351.413 522.8L353.315 525.12L353.319 525.117L351.413 522.8ZM316.405 526H313.405V529H316.405V526ZM316.405 480.688V477.688H313.405V480.688H316.405ZM352.245 499.184L349.865 497.358L349.859 497.366L352.245 499.184ZM330.613 498.352H327.613V501.352H330.613V498.352ZM338.933 497.584L337.059 495.241L337.019 495.273L336.981 495.306L338.933 497.584ZM338.933 492.784L336.892 494.982L336.973 495.058L337.059 495.127L338.933 492.784ZM330.613 491.952V488.952H327.613V491.952H330.613ZM339.893 513.904L341.746 516.263L341.757 516.255L341.767 516.247L339.893 513.904ZM330.613 508.208V505.208H327.613V508.208H330.613ZM330.613 514.608H327.613V517.608H330.613V514.608ZM346.056 505.689C348.187 506.188 349.652 507.16 350.671 508.528L355.483 504.944C353.515 502.302 350.756 500.628 347.426 499.847L346.056 505.689ZM350.714 508.585C351.818 509.995 352.381 511.62 352.381 513.584H358.381C358.381 510.343 357.408 507.402 355.44 504.887L350.714 508.585ZM352.381 513.584C352.381 516.814 351.346 518.971 349.507 520.483L353.319 525.117C356.771 522.277 358.381 518.29 358.381 513.584H352.381ZM349.511 520.48C347.643 522.011 344.671 523 340.149 523V529C345.441 529 349.978 527.855 353.315 525.12L349.511 520.48ZM340.149 523H316.405V529H340.149V523ZM319.405 526V480.688H313.405V526H319.405ZM316.405 483.688H339.509V477.688H316.405V483.688ZM339.509 483.688C343.712 483.688 346.621 484.604 348.577 486.087L352.201 481.305C348.866 478.777 344.522 477.688 339.509 477.688V483.688ZM348.577 486.087C350.35 487.431 351.357 489.396 351.357 492.464H357.357C357.357 487.852 355.719 483.972 352.201 481.305L348.577 486.087ZM351.357 492.464C351.357 494.548 350.814 496.121 349.865 497.358L354.625 501.01C356.492 498.578 357.357 495.67 357.357 492.464H351.357ZM349.859 497.366C348.925 498.592 347.681 499.425 345.988 499.864L347.494 505.672C350.409 504.916 352.834 503.36 354.631 501.002L349.859 497.366ZM330.613 501.352H336.117V495.352H330.613V501.352ZM336.117 501.352C337.693 501.352 339.493 501.055 340.885 499.862L336.981 495.306C337.089 495.213 337.132 495.228 336.992 495.266C336.846 495.305 336.569 495.352 336.117 495.352V501.352ZM340.807 499.927C342.362 498.682 342.893 496.897 342.893 495.216H336.893C336.893 495.457 336.856 495.522 336.873 495.481C336.882 495.458 336.902 495.417 336.939 495.367C336.976 495.317 337.018 495.274 337.059 495.241L340.807 499.927ZM342.893 495.216C342.893 493.539 342.39 491.707 340.807 490.441L337.059 495.127C337.01 495.087 336.963 495.039 336.925 494.986C336.887 494.934 336.869 494.894 336.863 494.877C336.852 494.851 336.893 494.94 336.893 495.216H342.893ZM340.974 490.586C339.579 489.29 337.74 488.952 336.117 488.952V494.952C336.552 494.952 336.807 495.001 336.931 495.037C337.044 495.071 336.994 495.077 336.892 494.982L340.974 490.586ZM336.117 488.952H330.613V494.952H336.117V488.952ZM327.613 491.952V498.352H333.613V491.952H327.613ZM337.077 517.608C338.61 517.608 340.365 517.348 341.746 516.263L338.04 511.545C338.151 511.458 338.181 511.48 338.013 511.522C337.844 511.564 337.545 511.608 337.077 511.608V517.608ZM341.767 516.247C343.35 514.981 343.853 513.149 343.853 511.472H337.853C337.853 511.748 337.812 511.837 337.823 511.811C337.829 511.794 337.847 511.754 337.885 511.702C337.923 511.649 337.97 511.601 338.019 511.561L341.767 516.247ZM343.853 511.472C343.853 509.798 343.349 508.032 341.871 506.754C340.477 505.549 338.7 505.208 337.077 505.208V511.208C337.5 511.208 337.76 511.255 337.898 511.295C338.028 511.332 338.015 511.352 337.947 511.294C337.87 511.227 337.828 511.15 337.818 511.123C337.814 511.114 337.853 511.21 337.853 511.472H343.853ZM337.077 505.208H330.613V511.208H337.077V505.208ZM327.613 508.208V514.608H333.613V508.208H327.613ZM330.613 517.608H337.077V511.608H330.613V517.608ZM432.406 526V529H435.406V526H432.406ZM418.198 526L415.694 527.653L416.584 529H418.198V526ZM403.158 503.216L405.662 501.563L400.158 493.226V503.216H403.158ZM403.158 526V529H406.158V526H403.158ZM388.95 526H385.95V529H388.95V526ZM388.95 480.688V477.688H385.95V480.688H388.95ZM403.158 480.688L405.674 479.055L404.787 477.688H403.158V480.688ZM418.198 503.856L415.682 505.489L421.198 513.987V503.856H418.198ZM418.198 480.688V477.688H415.198V480.688H418.198ZM432.406 480.688H435.406V477.688H432.406V480.688ZM432.406 523H418.198V529H432.406V523ZM420.702 524.347L405.662 501.563L400.654 504.869L415.694 527.653L420.702 524.347ZM400.158 503.216V526H406.158V503.216H400.158ZM403.158 523H388.95V529H403.158V523ZM391.95 526V480.688H385.95V526H391.95ZM388.95 483.688H403.158V477.688H388.95V483.688ZM400.642 482.321L415.682 505.489L420.714 502.223L405.674 479.055L400.642 482.321ZM421.198 503.856V480.688H415.198V503.856H421.198ZM418.198 483.688H432.406V477.688H418.198V483.688ZM429.406 480.688V526H435.406V480.688H429.406ZM458.089 523.44L456.611 526.051L456.617 526.054L456.624 526.058L458.089 523.44ZM449.641 515.12L447.058 516.645L447.058 516.645L449.641 515.12ZM458.089 482.928L459.543 485.552L459.554 485.546L458.089 482.928ZM481.577 482.928L480.099 485.539L480.111 485.545L480.123 485.552L481.577 482.928ZM489.961 491.184L487.364 492.686L487.371 492.698L487.378 492.709L489.961 491.184ZM489.961 515.12L487.378 513.595L487.371 513.606L487.364 513.618L489.961 515.12ZM481.513 523.44L480.048 520.822L480.041 520.826L480.035 520.829L481.513 523.44ZM476.393 510.512L478.671 512.464L478.682 512.451L478.693 512.438L476.393 510.512ZM476.393 495.792L474.093 497.718L474.104 497.731L474.115 497.744L476.393 495.792ZM463.273 495.792L465.551 497.744L465.562 497.731L465.573 497.718L463.273 495.792ZM463.273 510.512L460.973 512.438L460.984 512.451L460.995 512.464L463.273 510.512ZM469.865 523.448C466.091 523.448 462.672 522.567 459.554 520.822L456.624 526.058C460.674 528.324 465.106 529.448 469.865 529.448V523.448ZM459.567 520.829C456.488 519.086 454.051 516.689 452.224 513.595L447.058 516.645C449.412 520.634 452.607 523.784 456.611 526.051L459.567 520.829ZM452.224 513.595C450.428 510.552 449.505 507.097 449.505 503.152H443.505C443.505 508.082 444.673 512.605 447.058 516.645L452.224 513.595ZM449.505 503.152C449.505 499.207 450.428 495.752 452.224 492.709L447.058 489.659C444.673 493.699 443.505 498.222 443.505 503.152H449.505ZM452.224 492.709C454.048 489.621 456.477 487.251 459.543 485.552L456.635 480.304C452.618 482.53 449.416 485.665 447.058 489.659L452.224 492.709ZM459.554 485.546C462.672 483.801 466.091 482.92 469.865 482.92V476.92C465.106 476.92 460.674 478.044 456.624 480.31L459.554 485.546ZM469.865 482.92C473.64 482.92 477.03 483.801 480.099 485.539L483.055 480.317C479.041 478.044 474.624 476.92 469.865 476.92V482.92ZM480.123 485.552C483.183 487.248 485.585 489.61 487.364 492.686L492.558 489.682C490.241 485.675 487.053 482.533 483.031 480.304L480.123 485.552ZM487.378 492.709C489.174 495.752 490.097 499.207 490.097 503.152H496.097C496.097 498.222 494.929 493.699 492.544 489.659L487.378 492.709ZM490.097 503.152C490.097 507.097 489.174 510.552 487.378 513.595L492.544 516.645C494.929 512.605 496.097 508.082 496.097 503.152H490.097ZM487.364 513.618C485.587 516.69 483.163 519.079 480.048 520.822L482.978 526.058C487.031 523.79 490.239 520.632 492.558 516.622L487.364 513.618ZM480.035 520.829C476.962 522.57 473.591 523.448 469.865 523.448V529.448C474.587 529.448 478.982 528.321 482.991 526.051L480.035 520.829ZM469.865 516.2C473.371 516.2 476.454 515.051 478.671 512.464L474.115 508.56C473.26 509.557 471.991 510.2 469.865 510.2V516.2ZM478.693 512.438C480.797 509.925 481.697 506.724 481.697 503.152H475.697C475.697 505.724 475.061 507.43 474.093 508.586L478.693 512.438ZM481.697 503.152C481.697 499.553 480.804 496.329 478.671 493.84L474.115 497.744C475.054 498.839 475.697 500.521 475.697 503.152H481.697ZM478.693 493.866C476.484 491.228 473.395 490.04 469.865 490.04V496.04C471.967 496.04 473.23 496.687 474.093 497.718L478.693 493.866ZM469.865 490.04C466.309 490.04 463.191 491.217 460.973 493.866L465.573 497.718C466.427 496.698 467.703 496.04 469.865 496.04V490.04ZM460.995 493.84C458.862 496.329 457.969 499.553 457.969 503.152H463.969C463.969 500.521 464.612 498.839 465.551 497.744L460.995 493.84ZM457.969 503.152C457.969 506.724 458.869 509.925 460.973 512.438L465.573 508.586C464.605 507.43 463.969 505.724 463.969 503.152H457.969ZM460.995 512.464C463.221 515.061 466.333 516.2 469.865 516.2V510.2C467.68 510.2 466.397 509.547 465.551 508.56L460.995 512.464ZM552.815 480.688L555.658 481.644L556.988 477.688H552.815V480.688ZM537.583 526V529H539.739L540.426 526.956L537.583 526ZM519.215 526L516.371 526.956L517.058 529H519.215V526ZM503.983 480.688V477.688H499.809L501.139 481.644L503.983 480.688ZM519.087 480.688L521.96 479.826L521.319 477.688H519.087V480.688ZM528.431 511.856L525.557 512.718L528.44 522.336L531.306 512.712L528.431 511.856ZM537.711 480.688V477.688H535.474L534.835 479.832L537.711 480.688ZM549.971 479.732L534.739 525.044L540.426 526.956L555.658 481.644L549.971 479.732ZM537.583 523H519.215V529H537.583V523ZM522.058 525.044L506.826 479.732L501.139 481.644L516.371 526.956L522.058 525.044ZM503.983 483.688H519.087V477.688H503.983V483.688ZM516.213 481.55L525.557 512.718L531.304 510.994L521.96 479.826L516.213 481.55ZM531.306 512.712L540.586 481.544L534.835 479.832L525.555 511L531.306 512.712ZM537.711 483.688H552.815V477.688H537.711V483.688ZM579.163 492.016V489.016H576.163V492.016H579.163ZM579.163 497.584H576.163V500.584H579.163V497.584ZM593.243 497.584H596.243V494.584H593.243V497.584ZM593.243 508.272V511.272H596.243V508.272H593.243ZM579.163 508.272V505.272H576.163V508.272H579.163ZM579.163 514.672H576.163V517.672H579.163V514.672ZM595.163 514.672H598.163V511.672H595.163V514.672ZM595.163 526V529H598.163V526H595.163ZM564.955 526H561.955V529H564.955V526ZM564.955 480.688V477.688H561.955V480.688H564.955ZM595.163 480.688H598.163V477.688H595.163V480.688ZM595.163 492.016V495.016H598.163V492.016H595.163ZM576.163 492.016V497.584H582.163V492.016H576.163ZM579.163 500.584H593.243V494.584H579.163V500.584ZM590.243 497.584V508.272H596.243V497.584H590.243ZM593.243 505.272H579.163V511.272H593.243V505.272ZM576.163 508.272V514.672H582.163V508.272H576.163ZM579.163 517.672H595.163V511.672H579.163V517.672ZM592.163 514.672V526H598.163V514.672H592.163ZM595.163 523H564.955V529H595.163V523ZM567.955 526V480.688H561.955V526H567.955ZM564.955 483.688H595.163V477.688H564.955V483.688ZM592.163 480.688V492.016H598.163V480.688H592.163ZM595.163 489.016H579.163V495.016H595.163V489.016ZM623.685 515.248H620.685V518.248H623.685V515.248ZM637.381 515.248H640.381V512.248H637.381V515.248ZM637.381 526V529H640.381V526H637.381ZM609.477 526H606.477V529H609.477V526ZM609.477 480.688V477.688H606.477V480.688H609.477ZM623.685 480.688H626.685V477.688H623.685V480.688ZM623.685 518.248H637.381V512.248H623.685V518.248ZM634.381 515.248V526H640.381V515.248H634.381ZM637.381 523H609.477V529H637.381V523ZM612.477 526V480.688H606.477V526H612.477ZM609.477 483.688H623.685V477.688H609.477V483.688ZM620.685 480.688V515.248H626.685V480.688H620.685Z" fill="black" mask="url(#path-6-outside-2_1010_367)"/>
<path d="M385.35 950.38V953.02H382.53V961H379.2V953.02H376.41V950.38H385.35ZM393.528 961.105C392.528 961.105 391.608 960.87 390.768 960.4C389.938 959.93 389.278 959.28 388.788 958.45C388.298 957.62 388.053 956.685 388.053 955.645C388.053 954.605 388.298 953.67 388.788 952.84C389.278 952.01 389.938 951.365 390.768 950.905C391.608 950.435 392.528 950.2 393.528 950.2C394.528 950.2 395.443 950.435 396.273 950.905C397.103 951.365 397.758 952.01 398.238 952.84C398.728 953.67 398.973 954.605 398.973 955.645C398.973 956.685 398.728 957.62 398.238 958.45C397.758 959.28 397.098 959.93 396.258 960.4C395.428 960.87 394.518 961.105 393.528 961.105ZM393.528 958C394.188 958 394.698 957.79 395.058 957.37C395.418 956.94 395.598 956.365 395.598 955.645C395.598 954.915 395.418 954.34 395.058 953.92C394.698 953.49 394.188 953.275 393.528 953.275C392.858 953.275 392.343 953.49 391.983 953.92C391.623 954.34 391.443 954.915 391.443 955.645C391.443 956.365 391.623 956.94 391.983 957.37C392.343 957.79 392.858 958 393.528 958ZM407.449 961.105C406.449 961.105 405.529 960.87 404.689 960.4C403.859 959.93 403.199 959.28 402.709 958.45C402.219 957.62 401.974 956.685 401.974 955.645C401.974 954.605 402.219 953.67 402.709 952.84C403.199 952.01 403.859 951.365 404.689 950.905C405.529 950.435 406.449 950.2 407.449 950.2C408.449 950.2 409.364 950.435 410.194 950.905C411.024 951.365 411.679 952.01 412.159 952.84C412.649 953.67 412.894 954.605 412.894 955.645C412.894 956.685 412.649 957.62 412.159 958.45C411.679 959.28 411.019 959.93 410.179 960.4C409.349 960.87 408.439 961.105 407.449 961.105ZM407.449 958C408.109 958 408.619 957.79 408.979 957.37C409.339 956.94 409.519 956.365 409.519 955.645C409.519 954.915 409.339 954.34 408.979 953.92C408.619 953.49 408.109 953.275 407.449 953.275C406.779 953.275 406.264 953.49 405.904 953.92C405.544 954.34 405.364 954.915 405.364 955.645C405.364 956.365 405.544 956.94 405.904 957.37C406.264 957.79 406.779 958 407.449 958ZM426.381 961H423.051L419.526 955.66V961H416.196V950.38H419.526L423.051 955.81V950.38H426.381V961ZM440.185 950.38L436.375 957.775V961H433.045V957.775L429.235 950.38H433.045L434.74 954.145L436.435 950.38H440.185ZM446.732 958.345H450.992V961H443.042V958.495L447.242 953.02H443.042V950.38H450.992V952.885L446.732 958.345Z" fill="black"/>
<path d="M599.598 273.952C599.598 268.416 600.766 264.064 603.102 260.896C605.47 257.728 609.102 256.144 613.998 256.144C618.862 256.144 622.478 257.744 624.846 260.944C627.214 264.112 628.398 268.448 628.398 273.952C628.398 279.488 627.214 283.856 624.846 287.056C622.478 290.224 618.862 291.808 613.998 291.808C609.102 291.808 605.47 290.224 603.102 287.056C600.766 283.856 599.598 279.488 599.598 273.952ZM617.886 273.952C617.886 271.392 617.63 269.472 617.118 268.192C616.606 266.88 615.566 266.224 613.998 266.224C612.398 266.224 611.342 266.88 610.83 268.192C610.318 269.472 610.062 271.392 610.062 273.952C610.062 276.544 610.318 278.496 610.83 279.808C611.342 281.088 612.398 281.728 613.998 281.728C615.566 281.728 616.606 281.088 617.118 279.808C617.63 278.496 617.886 276.544 617.886 273.952ZM654.083 267.568C653.891 266.608 653.603 265.904 653.219 265.456C652.867 265.008 652.307 264.784 651.539 264.784C650.323 264.784 649.507 265.408 649.091 266.656C648.707 267.872 648.515 269.776 648.515 272.368C649.091 271.472 649.923 270.768 651.011 270.256C652.099 269.744 653.331 269.488 654.707 269.488C657.779 269.488 660.227 270.432 662.051 272.32C663.907 274.208 664.835 276.944 664.835 280.528C664.835 282.928 664.323 285.024 663.299 286.816C662.307 288.576 660.883 289.936 659.027 290.896C657.171 291.856 654.979 292.336 652.451 292.336C647.427 292.336 643.939 290.8 641.987 287.728C640.035 284.624 639.059 280.288 639.059 274.72C639.059 270.368 639.507 266.848 640.403 264.16C641.299 261.472 642.707 259.488 644.627 258.208C646.579 256.928 649.107 256.288 652.211 256.288C656.019 256.288 658.883 257.376 660.803 259.552C662.755 261.728 663.827 264.4 664.019 267.568H654.083ZM652.067 277.648C651.203 277.648 650.515 277.888 650.003 278.368C649.491 278.848 649.235 279.52 649.235 280.384C649.235 281.344 649.475 282.064 649.955 282.544C650.467 282.992 651.171 283.216 652.067 283.216C652.963 283.216 653.651 282.992 654.131 282.544C654.643 282.064 654.899 281.344 654.899 280.384C654.899 279.52 654.643 278.848 654.131 278.368C653.619 277.888 652.931 277.648 652.067 277.648Z" fill="black"/>
</g>
</g>
</g>
<defs>
<filter id="filter0_d_1010_367" x="62.6" y="139.6" width="697.8" height="944.8" filterUnits="userSpaceOnUse" color-interpolation-filters="sRGB">
<feFlood flood-opacity="0" result="BackgroundImageFix"/>
<feColorMatrix in="SourceAlpha" type="matrix" values="0 0 0 0 0 0 0 0 0 0 0 0 0 0 0 0 0 0 127 0" result="hardAlpha"/>
<feOffset dx="13" dy="12"/>
<feGaussianBlur stdDeviation="25.7"/>
<feComposite in2="hardAlpha" operator="out"/>
<feColorMatrix type="matrix" values="0 0 0 0 0 0 0 0 0 0 0 0 0 0 0 0 0 0 0.25 0"/>
<feBlend mode="normal" in2="BackgroundImageFix" result="effect1_dropShadow_1010_367"/>
<feBlend mode="normal" in="SourceGraphic" in2="effect1_dropShadow_1010_367" result="shape"/>
</filter>
<filter id="filter1_f_1010_367" x="119" y="177" width="8.00006" height="846" filterUnits="userSpaceOnUse" color-interpolation-filters="sRGB">
<feFlood flood-opacity="0" result="BackgroundImageFix"/>
<feBlend mode="normal" in="SourceGraphic" in2="BackgroundImageFix" result="shape"/>
<feGaussianBlur stdDeviation="1" result="effect1_foregroundBlur_1010_367"/>
</filter>
<filter id="filter2_f_1010_367" x="123" y="177" width="8.00006" height="846" filterUnits="userSpaceOnUse" color-interpolation-filters="sRGB">
<feFlood flood-opacity="0" result="BackgroundImageFix"/>
<feBlend mode="normal" in="SourceGraphic" in2="BackgroundImageFix" result="shape"/>
<feGaussianBlur stdDeviation="1" result="effect1_foregroundBlur_1010_367"/>
</filter>
<clipPath id="clip0_1010_367">
<rect width="797" height="1200" fill="white"/>
</clipPath>
<clipPath id="clip1_1010_367">
<rect width="595" height="842" fill="white" transform="translate(101 179)"/>
</clipPath>
</defs>
</svg>
