<svg width="797" height="1200" viewBox="0 0 797 1200" fill="none" xmlns="http://www.w3.org/2000/svg">
<g clip-path="url(#clip0_1009_280)">
<rect width="797" height="1200" fill="#DCFCE6"/>
<g filter="url(#filter0_d_1009_280)">
<g clip-path="url(#clip1_1009_280)">
<rect width="595" height="842" transform="translate(101 179)" fill="#DCFCE6"/>
<g opacity="0.78" filter="url(#filter1_f_1009_280)">
<line x1="123" y1="179" x2="123" y2="1021" stroke="black" stroke-opacity="0.31" stroke-width="4"/>
</g>
<g opacity="0.78" filter="url(#filter2_f_1009_280)">
<line x1="127" y1="179" x2="127" y2="1021" stroke="white" stroke-opacity="0.62" stroke-width="4"/>
</g>
<mask id="path-3-outside-1_1009_280" maskUnits="userSpaceOnUse" x="146" y="545" width="529" height="127" fill="black">
<rect fill="white" x="146" y="545" width="529" height="127"/>
<path d="M348.193 548.688L332.961 594H314.593L299.361 548.688H314.465L323.809 579.856L333.089 548.688H348.193ZM374.542 548.688V594H360.334V548.688H374.542ZM435.551 548.688L420.319 594H401.951L386.719 548.688H401.823L411.167 579.856L420.447 548.688H435.551ZM461.899 548.688V594H447.691V548.688H461.899ZM496.156 548.688C500.892 548.688 505.031 549.648 508.572 551.568C512.156 553.488 514.908 556.155 516.828 559.568C518.748 562.981 519.708 566.864 519.708 571.216C519.708 575.525 518.748 579.408 516.828 582.864C514.908 586.32 512.156 589.051 508.572 591.056C505.031 593.019 500.892 594 496.156 594H477.276V548.688H496.156ZM494.876 581.328C498.076 581.328 500.615 580.453 502.492 578.704C504.37 576.955 505.308 574.459 505.308 571.216C505.308 567.973 504.37 565.477 502.492 563.728C500.615 561.979 498.076 561.104 494.876 561.104H491.484V581.328H494.876ZM149.881 645.28C149.881 640.8 150.777 636.811 152.569 633.312C154.404 629.813 157.007 627.104 160.377 625.184C163.748 623.221 167.716 622.24 172.281 622.24C176.207 622.24 179.705 622.987 182.777 624.48C185.892 625.931 188.409 628 190.329 630.688C192.292 633.376 193.593 636.512 194.233 640.096H179.257C178.575 638.603 177.593 637.451 176.313 636.64C175.076 635.787 173.647 635.36 172.025 635.36C169.636 635.36 167.737 636.256 166.329 638.048C164.964 639.84 164.281 642.251 164.281 645.28C164.281 648.309 164.964 650.72 166.329 652.512C167.737 654.304 169.636 655.2 172.025 655.2C173.647 655.2 175.076 654.795 176.313 653.984C177.593 653.131 178.575 651.957 179.257 650.464H194.233C193.593 654.048 192.292 657.184 190.329 659.872C188.409 662.56 185.892 664.651 182.777 666.144C179.705 667.595 176.207 668.32 172.281 668.32C167.716 668.32 163.748 667.36 160.377 665.44C157.007 663.477 154.404 660.747 152.569 657.248C150.777 653.749 149.881 649.76 149.881 645.28ZM250.229 622.688V668H236.021V650.336H222.517V668H208.309V622.688H222.517V639.008H236.021V622.688H250.229ZM294.637 661.152H279.533L277.293 668H262.381L278.957 622.688H295.341L311.853 668H296.877L294.637 661.152ZM291.181 650.464L287.085 637.856L282.989 650.464H291.181ZM346.825 668L338.313 651.744H338.249V668H324.041V622.688H345.161C348.831 622.688 351.967 623.349 354.569 624.672C357.172 625.952 359.113 627.723 360.393 629.984C361.716 632.203 362.377 634.72 362.377 637.536C362.377 640.565 361.524 643.253 359.817 645.6C358.153 647.947 355.743 649.632 352.585 650.656L362.441 668H346.825ZM338.249 642.272H343.881C345.247 642.272 346.271 641.973 346.953 641.376C347.636 640.736 347.977 639.755 347.977 638.432C347.977 637.237 347.615 636.299 346.889 635.616C346.207 634.933 345.204 634.592 343.881 634.592H338.249V642.272ZM404.932 661.152H389.828L387.588 668H372.676L389.252 622.688H405.636L422.148 668H407.172L404.932 661.152ZM401.476 650.464L397.38 637.856L393.284 650.464H401.476ZM433.056 645.28C433.056 640.8 433.952 636.811 435.744 633.312C437.579 629.813 440.182 627.104 443.552 625.184C446.923 623.221 450.891 622.24 455.456 622.24C459.382 622.24 462.88 622.987 465.952 624.48C469.067 625.931 471.584 628 473.504 630.688C475.467 633.376 476.768 636.512 477.408 640.096H462.432C461.75 638.603 460.768 637.451 459.488 636.64C458.251 635.787 456.822 635.36 455.2 635.36C452.811 635.36 450.912 636.256 449.504 638.048C448.139 639.84 447.456 642.251 447.456 645.28C447.456 648.309 448.139 650.72 449.504 652.512C450.912 654.304 452.811 655.2 455.2 655.2C456.822 655.2 458.251 654.795 459.488 653.984C460.768 653.131 461.75 651.957 462.432 650.464H477.408C476.768 654.048 475.467 657.184 473.504 659.872C471.584 662.56 469.067 664.651 465.952 666.144C462.88 667.595 459.382 668.32 455.456 668.32C450.891 668.32 446.923 667.36 443.552 665.44C440.182 663.477 437.579 660.747 435.744 657.248C433.952 653.749 433.056 649.76 433.056 645.28ZM527.068 622.688V633.952H515.036V668H500.828V633.952H488.924V622.688H527.068ZM554.089 634.016V639.584H568.169V650.272H554.089V656.672H570.089V668H539.881V622.688H570.089V634.016H554.089ZM607.188 668L598.676 651.744H598.612V668H584.404V622.688H605.524C609.193 622.688 612.329 623.349 614.932 624.672C617.534 625.952 619.476 627.723 620.756 629.984C622.078 632.203 622.74 634.72 622.74 637.536C622.74 640.565 621.886 643.253 620.18 645.6C618.516 647.947 616.105 649.632 612.948 650.656L622.804 668H607.188ZM598.612 642.272H604.244C605.609 642.272 606.633 641.973 607.316 641.376C607.998 640.736 608.34 639.755 608.34 638.432C608.34 637.237 607.977 636.299 607.252 635.616C606.569 634.933 605.566 634.592 604.244 634.592H598.612V642.272ZM653.967 668.448C648.548 668.448 644.068 667.189 640.527 664.672C637.028 662.112 635.129 658.379 634.831 653.472H649.935C650.148 656.075 651.3 657.376 653.391 657.376C654.159 657.376 654.799 657.205 655.311 656.864C655.865 656.48 656.143 655.904 656.143 655.136C656.143 654.069 655.567 653.216 654.415 652.576C653.263 651.893 651.471 651.125 649.039 650.272C646.137 649.248 643.727 648.245 641.807 647.264C639.929 646.283 638.308 644.853 636.943 642.976C635.577 641.099 634.916 638.688 634.959 635.744C634.959 632.8 635.705 630.304 637.199 628.256C638.735 626.165 640.804 624.587 643.407 623.52C646.052 622.453 649.017 621.92 652.303 621.92C657.849 621.92 662.244 623.2 665.487 625.76C668.772 628.32 670.5 631.925 670.671 636.576H655.375C655.332 635.296 655.012 634.379 654.415 633.824C653.817 633.269 653.092 632.992 652.239 632.992C651.641 632.992 651.151 633.205 650.767 633.632C650.383 634.016 650.191 634.571 650.191 635.296C650.191 636.32 650.745 637.173 651.855 637.856C653.007 638.496 654.82 639.285 657.295 640.224C660.153 641.291 662.5 642.315 664.335 643.296C666.212 644.277 667.833 645.643 669.199 647.392C670.564 649.141 671.247 651.339 671.247 653.984C671.247 656.757 670.564 659.253 669.199 661.472C667.833 663.648 665.849 665.355 663.247 666.592C660.644 667.829 657.551 668.448 653.967 668.448Z"/>
</mask>
<path d="M348.193 548.688L332.961 594H314.593L299.361 548.688H314.465L323.809 579.856L333.089 548.688H348.193ZM374.542 548.688V594H360.334V548.688H374.542ZM435.551 548.688L420.319 594H401.951L386.719 548.688H401.823L411.167 579.856L420.447 548.688H435.551ZM461.899 548.688V594H447.691V548.688H461.899ZM496.156 548.688C500.892 548.688 505.031 549.648 508.572 551.568C512.156 553.488 514.908 556.155 516.828 559.568C518.748 562.981 519.708 566.864 519.708 571.216C519.708 575.525 518.748 579.408 516.828 582.864C514.908 586.32 512.156 589.051 508.572 591.056C505.031 593.019 500.892 594 496.156 594H477.276V548.688H496.156ZM494.876 581.328C498.076 581.328 500.615 580.453 502.492 578.704C504.37 576.955 505.308 574.459 505.308 571.216C505.308 567.973 504.37 565.477 502.492 563.728C500.615 561.979 498.076 561.104 494.876 561.104H491.484V581.328H494.876ZM149.881 645.28C149.881 640.8 150.777 636.811 152.569 633.312C154.404 629.813 157.007 627.104 160.377 625.184C163.748 623.221 167.716 622.24 172.281 622.24C176.207 622.24 179.705 622.987 182.777 624.48C185.892 625.931 188.409 628 190.329 630.688C192.292 633.376 193.593 636.512 194.233 640.096H179.257C178.575 638.603 177.593 637.451 176.313 636.64C175.076 635.787 173.647 635.36 172.025 635.36C169.636 635.36 167.737 636.256 166.329 638.048C164.964 639.84 164.281 642.251 164.281 645.28C164.281 648.309 164.964 650.72 166.329 652.512C167.737 654.304 169.636 655.2 172.025 655.2C173.647 655.2 175.076 654.795 176.313 653.984C177.593 653.131 178.575 651.957 179.257 650.464H194.233C193.593 654.048 192.292 657.184 190.329 659.872C188.409 662.56 185.892 664.651 182.777 666.144C179.705 667.595 176.207 668.32 172.281 668.32C167.716 668.32 163.748 667.36 160.377 665.44C157.007 663.477 154.404 660.747 152.569 657.248C150.777 653.749 149.881 649.76 149.881 645.28ZM250.229 622.688V668H236.021V650.336H222.517V668H208.309V622.688H222.517V639.008H236.021V622.688H250.229ZM294.637 661.152H279.533L277.293 668H262.381L278.957 622.688H295.341L311.853 668H296.877L294.637 661.152ZM291.181 650.464L287.085 637.856L282.989 650.464H291.181ZM346.825 668L338.313 651.744H338.249V668H324.041V622.688H345.161C348.831 622.688 351.967 623.349 354.569 624.672C357.172 625.952 359.113 627.723 360.393 629.984C361.716 632.203 362.377 634.72 362.377 637.536C362.377 640.565 361.524 643.253 359.817 645.6C358.153 647.947 355.743 649.632 352.585 650.656L362.441 668H346.825ZM338.249 642.272H343.881C345.247 642.272 346.271 641.973 346.953 641.376C347.636 640.736 347.977 639.755 347.977 638.432C347.977 637.237 347.615 636.299 346.889 635.616C346.207 634.933 345.204 634.592 343.881 634.592H338.249V642.272ZM404.932 661.152H389.828L387.588 668H372.676L389.252 622.688H405.636L422.148 668H407.172L404.932 661.152ZM401.476 650.464L397.38 637.856L393.284 650.464H401.476ZM433.056 645.28C433.056 640.8 433.952 636.811 435.744 633.312C437.579 629.813 440.182 627.104 443.552 625.184C446.923 623.221 450.891 622.24 455.456 622.24C459.382 622.24 462.88 622.987 465.952 624.48C469.067 625.931 471.584 628 473.504 630.688C475.467 633.376 476.768 636.512 477.408 640.096H462.432C461.75 638.603 460.768 637.451 459.488 636.64C458.251 635.787 456.822 635.36 455.2 635.36C452.811 635.36 450.912 636.256 449.504 638.048C448.139 639.84 447.456 642.251 447.456 645.28C447.456 648.309 448.139 650.72 449.504 652.512C450.912 654.304 452.811 655.2 455.2 655.2C456.822 655.2 458.251 654.795 459.488 653.984C460.768 653.131 461.75 651.957 462.432 650.464H477.408C476.768 654.048 475.467 657.184 473.504 659.872C471.584 662.56 469.067 664.651 465.952 666.144C462.88 667.595 459.382 668.32 455.456 668.32C450.891 668.32 446.923 667.36 443.552 665.44C440.182 663.477 437.579 660.747 435.744 657.248C433.952 653.749 433.056 649.76 433.056 645.28ZM527.068 622.688V633.952H515.036V668H500.828V633.952H488.924V622.688H527.068ZM554.089 634.016V639.584H568.169V650.272H554.089V656.672H570.089V668H539.881V622.688H570.089V634.016H554.089ZM607.188 668L598.676 651.744H598.612V668H584.404V622.688H605.524C609.193 622.688 612.329 623.349 614.932 624.672C617.534 625.952 619.476 627.723 620.756 629.984C622.078 632.203 622.74 634.72 622.74 637.536C622.74 640.565 621.886 643.253 620.18 645.6C618.516 647.947 616.105 649.632 612.948 650.656L622.804 668H607.188ZM598.612 642.272H604.244C605.609 642.272 606.633 641.973 607.316 641.376C607.998 640.736 608.34 639.755 608.34 638.432C608.34 637.237 607.977 636.299 607.252 635.616C606.569 634.933 605.566 634.592 604.244 634.592H598.612V642.272ZM653.967 668.448C648.548 668.448 644.068 667.189 640.527 664.672C637.028 662.112 635.129 658.379 634.831 653.472H649.935C650.148 656.075 651.3 657.376 653.391 657.376C654.159 657.376 654.799 657.205 655.311 656.864C655.865 656.48 656.143 655.904 656.143 655.136C656.143 654.069 655.567 653.216 654.415 652.576C653.263 651.893 651.471 651.125 649.039 650.272C646.137 649.248 643.727 648.245 641.807 647.264C639.929 646.283 638.308 644.853 636.943 642.976C635.577 641.099 634.916 638.688 634.959 635.744C634.959 632.8 635.705 630.304 637.199 628.256C638.735 626.165 640.804 624.587 643.407 623.52C646.052 622.453 649.017 621.92 652.303 621.92C657.849 621.92 662.244 623.2 665.487 625.76C668.772 628.32 670.5 631.925 670.671 636.576H655.375C655.332 635.296 655.012 634.379 654.415 633.824C653.817 633.269 653.092 632.992 652.239 632.992C651.641 632.992 651.151 633.205 650.767 633.632C650.383 634.016 650.191 634.571 650.191 635.296C650.191 636.32 650.745 637.173 651.855 637.856C653.007 638.496 654.82 639.285 657.295 640.224C660.153 641.291 662.5 642.315 664.335 643.296C666.212 644.277 667.833 645.643 669.199 647.392C670.564 649.141 671.247 651.339 671.247 653.984C671.247 656.757 670.564 659.253 669.199 661.472C667.833 663.648 665.849 665.355 663.247 666.592C660.644 667.829 657.551 668.448 653.967 668.448Z" fill="white"/>
<path d="M348.193 548.688L351.037 549.644L352.367 545.688H348.193V548.688ZM332.961 594V597H335.118L335.805 594.956L332.961 594ZM314.593 594L311.75 594.956L312.437 597H314.593V594ZM299.361 548.688V545.688H295.188L296.518 549.644L299.361 548.688ZM314.465 548.688L317.339 547.826L316.698 545.688H314.465V548.688ZM323.809 579.856L320.936 580.718L323.819 590.336L326.685 580.712L323.809 579.856ZM333.089 548.688V545.688H330.852L330.214 547.832L333.089 548.688ZM345.35 547.732L330.118 593.044L335.805 594.956L351.037 549.644L345.35 547.732ZM332.961 591H314.593V597H332.961V591ZM317.437 593.044L302.205 547.732L296.518 549.644L311.75 594.956L317.437 593.044ZM299.361 551.688H314.465V545.688H299.361V551.688ZM311.592 549.55L320.936 580.718L326.683 578.994L317.339 547.826L311.592 549.55ZM326.685 580.712L335.965 549.544L330.214 547.832L320.934 579L326.685 580.712ZM333.089 551.688H348.193V545.688H333.089V551.688ZM374.542 548.688H377.542V545.688H374.542V548.688ZM374.542 594V597H377.542V594H374.542ZM360.334 594H357.334V597H360.334V594ZM360.334 548.688V545.688H357.334V548.688H360.334ZM371.542 548.688V594H377.542V548.688H371.542ZM374.542 591H360.334V597H374.542V591ZM363.334 594V548.688H357.334V594H363.334ZM360.334 551.688H374.542V545.688H360.334V551.688ZM435.551 548.688L438.394 549.644L439.724 545.688H435.551V548.688ZM420.319 594V597H422.475L423.162 594.956L420.319 594ZM401.951 594L399.107 594.956L399.794 597H401.951V594ZM386.719 548.688V545.688H382.545L383.875 549.644L386.719 548.688ZM401.823 548.688L404.696 547.826L404.055 545.688H401.823V548.688ZM411.167 579.856L408.293 580.718L411.177 590.336L414.042 580.712L411.167 579.856ZM420.447 548.688V545.688H418.21L417.571 547.832L420.447 548.688ZM432.707 547.732L417.475 593.044L423.162 594.956L438.394 549.644L432.707 547.732ZM420.319 591H401.951V597H420.319V591ZM404.794 593.044L389.562 547.732L383.875 549.644L399.107 594.956L404.794 593.044ZM386.719 551.688H401.823V545.688H386.719V551.688ZM398.949 549.55L408.293 580.718L414.04 578.994L404.696 547.826L398.949 549.55ZM414.042 580.712L423.322 549.544L417.571 547.832L408.291 579L414.042 580.712ZM420.447 551.688H435.551V545.688H420.447V551.688ZM461.899 548.688H464.899V545.688H461.899V548.688ZM461.899 594V597H464.899V594H461.899ZM447.691 594H444.691V597H447.691V594ZM447.691 548.688V545.688H444.691V548.688H447.691ZM458.899 548.688V594H464.899V548.688H458.899ZM461.899 591H447.691V597H461.899V591ZM450.691 594V548.688H444.691V594H450.691ZM447.691 551.688H461.899V545.688H447.691V551.688ZM508.572 551.568L507.142 554.205L507.149 554.209L507.156 554.212L508.572 551.568ZM516.828 559.568L519.443 558.097L519.443 558.097L516.828 559.568ZM516.828 582.864L519.451 584.321L519.451 584.321L516.828 582.864ZM508.572 591.056L510.026 593.68L510.037 593.674L508.572 591.056ZM477.276 594H474.276V597H477.276V594ZM477.276 548.688V545.688H474.276V548.688H477.276ZM502.492 578.704L504.537 580.899L504.537 580.899L502.492 578.704ZM502.492 563.728L504.537 561.533L504.537 561.533L502.492 563.728ZM491.484 561.104V558.104H488.484V561.104H491.484ZM491.484 581.328H488.484V584.328H491.484V581.328ZM496.156 551.688C500.481 551.688 504.111 552.562 507.142 554.205L510.002 548.931C505.95 546.734 501.304 545.688 496.156 545.688V551.688ZM507.156 554.212C510.257 555.874 512.584 558.142 514.214 561.039L519.443 558.097C517.232 554.167 514.055 551.102 509.989 548.924L507.156 554.212ZM514.214 561.039C515.854 563.955 516.708 567.321 516.708 571.216H522.708C522.708 566.407 521.643 562.008 519.443 558.097L514.214 561.039ZM516.708 571.216C516.708 575.063 515.856 578.436 514.206 581.407L519.451 584.321C521.64 580.38 522.708 575.988 522.708 571.216H516.708ZM514.206 581.407C512.567 584.357 510.225 586.694 507.107 588.438L510.037 593.674C514.087 591.408 517.249 588.283 519.451 584.321L514.206 581.407ZM507.118 588.432C504.092 590.109 500.47 591 496.156 591V597C501.314 597 505.97 595.928 510.026 593.68L507.118 588.432ZM496.156 591H477.276V597H496.156V591ZM480.276 594V548.688H474.276V594H480.276ZM477.276 551.688H496.156V545.688H477.276V551.688ZM494.876 584.328C498.639 584.328 501.976 583.285 504.537 580.899L500.447 576.509C499.254 577.621 497.513 578.328 494.876 578.328V584.328ZM504.537 580.899C507.176 578.44 508.308 575.057 508.308 571.216H502.308C502.308 573.86 501.563 575.469 500.447 576.509L504.537 580.899ZM508.308 571.216C508.308 567.375 507.176 563.992 504.537 561.533L500.447 565.923C501.563 566.963 502.308 568.572 502.308 571.216H508.308ZM504.537 561.533C501.976 559.147 498.639 558.104 494.876 558.104V564.104C497.513 564.104 499.254 564.811 500.447 565.923L504.537 561.533ZM494.876 558.104H491.484V564.104H494.876V558.104ZM488.484 561.104V581.328H494.484V561.104H488.484ZM491.484 584.328H494.876V578.328H491.484V584.328ZM152.569 633.312L149.912 631.919L149.906 631.932L149.899 631.944L152.569 633.312ZM160.377 625.184L161.862 627.791L161.874 627.784L161.887 627.777L160.377 625.184ZM182.777 624.48L181.466 627.178L181.488 627.189L181.511 627.2L182.777 624.48ZM190.329 630.688L187.888 632.432L187.897 632.444L187.906 632.457L190.329 630.688ZM194.233 640.096V643.096H197.816L197.187 639.569L194.233 640.096ZM179.257 640.096L176.529 641.343L177.33 643.096H179.257V640.096ZM176.313 636.64L174.61 639.11L174.658 639.143L174.708 639.174L176.313 636.64ZM166.329 638.048L163.97 636.195L163.956 636.212L163.943 636.23L166.329 638.048ZM166.329 652.512L163.943 654.33L163.956 654.348L163.97 654.365L166.329 652.512ZM176.313 653.984L177.957 656.493L177.967 656.487L177.977 656.48L176.313 653.984ZM179.257 650.464V647.464H177.33L176.529 649.217L179.257 650.464ZM194.233 650.464L197.187 650.991L197.816 647.464H194.233V650.464ZM190.329 659.872L187.906 658.103L187.897 658.116L187.888 658.128L190.329 659.872ZM182.777 666.144L184.058 668.857L184.066 668.853L184.074 668.849L182.777 666.144ZM160.377 665.44L158.868 668.033L158.88 668.04L158.892 668.047L160.377 665.44ZM152.569 657.248L149.899 658.616L149.906 658.628L149.912 658.641L152.569 657.248ZM152.881 645.28C152.881 641.209 153.693 637.699 155.239 634.68L149.899 631.944C147.862 635.922 146.881 640.391 146.881 645.28H152.881ZM155.226 634.705C156.799 631.705 159 629.421 161.862 627.791L158.892 622.577C155.013 624.787 152.008 627.922 149.912 631.919L155.226 634.705ZM161.887 627.777C164.726 626.123 168.155 625.24 172.281 625.24V619.24C167.277 619.24 162.77 620.319 158.868 622.591L161.887 627.777ZM172.281 625.24C175.82 625.24 178.859 625.911 181.466 627.178L184.089 621.782C180.551 620.062 176.593 619.24 172.281 619.24V625.24ZM181.511 627.2C184.176 628.441 186.281 630.182 187.888 632.432L192.77 628.944C190.537 625.818 187.608 623.421 184.044 621.76L181.511 627.2ZM187.906 632.457C189.576 634.743 190.712 637.445 191.28 640.623L197.187 639.569C196.474 635.579 195.008 632.009 192.752 628.919L187.906 632.457ZM194.233 637.096H179.257V643.096H194.233V637.096ZM181.986 638.849C181.082 636.873 179.731 635.253 177.918 634.106L174.708 639.174C175.456 639.648 176.067 640.333 176.529 641.343L181.986 638.849ZM178.016 634.17C176.238 632.944 174.205 632.36 172.025 632.36V638.36C173.089 638.36 173.913 638.629 174.61 639.11L178.016 634.17ZM172.025 632.36C168.767 632.36 165.978 633.639 163.97 636.195L168.688 639.901C169.496 638.873 170.505 638.36 172.025 638.36V632.36ZM163.943 636.23C162.062 638.699 161.281 641.818 161.281 645.28H167.281C167.281 642.683 167.866 640.981 168.716 639.866L163.943 636.23ZM161.281 645.28C161.281 648.742 162.062 651.861 163.943 654.33L168.716 650.694C167.866 649.579 167.281 647.877 167.281 645.28H161.281ZM163.97 654.365C165.978 656.921 168.767 658.2 172.025 658.2V652.2C170.505 652.2 169.496 651.687 168.688 650.659L163.97 654.365ZM172.025 658.2C174.172 658.2 176.185 657.655 177.957 656.493L174.669 651.475C173.967 651.935 173.121 652.2 172.025 652.2V658.2ZM177.977 656.48C179.753 655.297 181.087 653.676 181.986 651.711L176.529 649.217C176.062 650.239 175.434 650.965 174.649 651.488L177.977 656.48ZM179.257 653.464H194.233V647.464H179.257V653.464ZM191.28 649.937C190.712 653.115 189.576 655.817 187.906 658.103L192.752 661.641C195.008 658.551 196.474 654.981 197.187 650.991L191.28 649.937ZM187.888 658.128C186.276 660.385 184.16 662.154 181.48 663.439L184.074 668.849C187.624 667.147 190.543 664.735 192.77 661.616L187.888 658.128ZM181.496 663.431C178.883 664.665 175.832 665.32 172.281 665.32V671.32C176.581 671.32 180.528 670.524 184.058 668.857L181.496 663.431ZM172.281 665.32C168.144 665.32 164.706 664.453 161.862 662.833L158.892 668.047C162.79 670.267 167.288 671.32 172.281 671.32V665.32ZM161.887 662.847C159.01 661.173 156.802 658.861 155.226 655.855L149.912 658.641C152.006 662.633 155.003 665.782 158.868 668.033L161.887 662.847ZM155.239 655.88C153.693 652.861 152.881 649.351 152.881 645.28H146.881C146.881 650.169 147.862 654.638 149.899 658.616L155.239 655.88ZM250.229 622.688H253.229V619.688H250.229V622.688ZM250.229 668V671H253.229V668H250.229ZM236.021 668H233.021V671H236.021V668ZM236.021 650.336H239.021V647.336H236.021V650.336ZM222.517 650.336V647.336H219.517V650.336H222.517ZM222.517 668V671H225.517V668H222.517ZM208.309 668H205.309V671H208.309V668ZM208.309 622.688V619.688H205.309V622.688H208.309ZM222.517 622.688H225.517V619.688H222.517V622.688ZM222.517 639.008H219.517V642.008H222.517V639.008ZM236.021 639.008V642.008H239.021V639.008H236.021ZM236.021 622.688V619.688H233.021V622.688H236.021ZM247.229 622.688V668H253.229V622.688H247.229ZM250.229 665H236.021V671H250.229V665ZM239.021 668V650.336H233.021V668H239.021ZM236.021 647.336H222.517V653.336H236.021V647.336ZM219.517 650.336V668H225.517V650.336H219.517ZM222.517 665H208.309V671H222.517V665ZM211.309 668V622.688H205.309V668H211.309ZM208.309 625.688H222.517V619.688H208.309V625.688ZM219.517 622.688V639.008H225.517V622.688H219.517ZM222.517 642.008H236.021V636.008H222.517V642.008ZM239.021 639.008V622.688H233.021V639.008H239.021ZM236.021 625.688H250.229V619.688H236.021V625.688ZM294.637 661.152L297.489 660.219L296.812 658.152H294.637V661.152ZM279.533 661.152V658.152H277.358L276.682 660.219L279.533 661.152ZM277.293 668V671H279.468L280.145 668.933L277.293 668ZM262.381 668L259.564 666.969L258.089 671H262.381V668ZM278.957 622.688V619.688H276.86L276.14 621.657L278.957 622.688ZM295.341 622.688L298.16 621.661L297.441 619.688H295.341V622.688ZM311.853 668V671H316.139L314.672 666.973L311.853 668ZM296.877 668L294.026 668.933L294.702 671H296.877V668ZM291.181 650.464V653.464H295.31L294.034 649.537L291.181 650.464ZM287.085 637.856L289.938 636.929L287.085 628.147L284.232 636.929L287.085 637.856ZM282.989 650.464L280.136 649.537L278.86 653.464H282.989V650.464ZM294.637 658.152H279.533V664.152H294.637V658.152ZM276.682 660.219L274.442 667.067L280.145 668.933L282.385 662.085L276.682 660.219ZM277.293 665H262.381V671H277.293V665ZM265.199 669.031L281.775 623.719L276.14 621.657L259.564 666.969L265.199 669.031ZM278.957 625.688H295.341V619.688H278.957V625.688ZM292.523 623.715L309.035 669.027L314.672 666.973L298.16 621.661L292.523 623.715ZM311.853 665H296.877V671H311.853V665ZM299.729 667.067L297.489 660.219L291.786 662.085L294.026 668.933L299.729 667.067ZM294.034 649.537L289.938 636.929L284.232 638.783L288.328 651.391L294.034 649.537ZM284.232 636.929L280.136 649.537L285.842 651.391L289.938 638.783L284.232 636.929ZM282.989 653.464H291.181V647.464H282.989V653.464ZM346.825 668L344.168 669.392L345.01 671H346.825V668ZM338.313 651.744L340.971 650.352L340.129 648.744H338.313V651.744ZM338.249 651.744V648.744H335.249V651.744H338.249ZM338.249 668V671H341.249V668H338.249ZM324.041 668H321.041V671H324.041V668ZM324.041 622.688V619.688H321.041V622.688H324.041ZM354.569 624.672L353.21 627.346L353.228 627.355L353.245 627.364L354.569 624.672ZM360.393 629.984L357.782 631.462L357.799 631.491L357.816 631.52L360.393 629.984ZM359.817 645.6L357.391 643.835L357.38 643.85L357.37 643.865L359.817 645.6ZM352.585 650.656L351.66 647.802L348.158 648.938L349.977 652.138L352.585 650.656ZM362.441 668V671H367.597L365.05 666.518L362.441 668ZM338.249 642.272H335.249V645.272H338.249V642.272ZM346.953 641.376L348.929 643.634L348.968 643.6L349.005 643.565L346.953 641.376ZM346.889 635.616L344.768 637.737L344.8 637.769L344.833 637.801L346.889 635.616ZM338.249 634.592V631.592H335.249V634.592H338.249ZM349.483 666.608L340.971 650.352L335.656 653.136L344.168 669.392L349.483 666.608ZM338.313 648.744H338.249V654.744H338.313V648.744ZM335.249 651.744V668H341.249V651.744H335.249ZM338.249 665H324.041V671H338.249V665ZM327.041 668V622.688H321.041V668H327.041ZM324.041 625.688H345.161V619.688H324.041V625.688ZM345.161 625.688C348.477 625.688 351.123 626.286 353.21 627.346L355.928 621.998C352.81 620.413 349.184 619.688 345.161 619.688V625.688ZM353.245 627.364C355.372 628.41 356.834 629.785 357.782 631.462L363.004 628.506C361.393 625.66 358.972 623.494 355.893 621.98L353.245 627.364ZM357.816 631.52C358.837 633.233 359.377 635.21 359.377 637.536H365.377C365.377 634.23 364.594 631.172 362.97 628.448L357.816 631.52ZM359.377 637.536C359.377 639.961 358.708 642.025 357.391 643.835L362.243 647.365C364.34 644.482 365.377 641.17 365.377 637.536H359.377ZM357.37 643.865C356.135 645.606 354.301 646.946 351.66 647.802L353.511 653.51C357.184 652.318 360.171 650.287 362.264 647.335L357.37 643.865ZM349.977 652.138L359.833 669.482L365.05 666.518L355.194 649.174L349.977 652.138ZM362.441 665H346.825V671H362.441V665ZM338.249 645.272H343.881V639.272H338.249V645.272ZM343.881 645.272C345.618 645.272 347.481 644.901 348.929 643.634L344.978 639.118C345.06 639.046 344.875 639.272 343.881 639.272V645.272ZM349.005 643.565C350.508 642.156 350.977 640.234 350.977 638.432H344.977C344.977 638.845 344.923 639.074 344.888 639.174C344.859 639.258 344.851 639.235 344.901 639.187L349.005 643.565ZM350.977 638.432C350.977 636.588 350.392 634.793 348.945 633.431L344.833 637.801C344.865 637.831 344.886 637.858 344.907 637.913C344.933 637.98 344.977 638.137 344.977 638.432H350.977ZM349.011 633.495C347.583 632.067 345.698 631.592 343.881 631.592V637.592C344.292 637.592 344.535 637.646 344.658 637.688C344.768 637.725 344.782 637.751 344.768 637.737L349.011 633.495ZM343.881 631.592H338.249V637.592H343.881V631.592ZM335.249 634.592V642.272H341.249V634.592H335.249ZM404.932 661.152L407.784 660.219L407.107 658.152H404.932V661.152ZM389.828 661.152V658.152H387.653L386.977 660.219L389.828 661.152ZM387.588 668V671H389.763L390.44 668.933L387.588 668ZM372.676 668L369.859 666.969L368.384 671H372.676V668ZM389.252 622.688V619.688H387.155L386.435 621.657L389.252 622.688ZM405.636 622.688L408.455 621.661L407.736 619.688H405.636V622.688ZM422.148 668V671H426.434L424.967 666.973L422.148 668ZM407.172 668L404.321 668.933L404.997 671H407.172V668ZM401.476 650.464V653.464H405.605L404.329 649.537L401.476 650.464ZM397.38 637.856L400.233 636.929L397.38 628.147L394.527 636.929L397.38 637.856ZM393.284 650.464L390.431 649.537L389.155 653.464H393.284V650.464ZM404.932 658.152H389.828V664.152H404.932V658.152ZM386.977 660.219L384.737 667.067L390.44 668.933L392.68 662.085L386.977 660.219ZM387.588 665H372.676V671H387.588V665ZM375.494 669.031L392.07 623.719L386.435 621.657L369.859 666.969L375.494 669.031ZM389.252 625.688H405.636V619.688H389.252V625.688ZM402.818 623.715L419.33 669.027L424.967 666.973L408.455 621.661L402.818 623.715ZM422.148 665H407.172V671H422.148V665ZM410.024 667.067L407.784 660.219L402.081 662.085L404.321 668.933L410.024 667.067ZM404.329 649.537L400.233 636.929L394.527 638.783L398.623 651.391L404.329 649.537ZM394.527 636.929L390.431 649.537L396.137 651.391L400.233 638.783L394.527 636.929ZM393.284 653.464H401.476V647.464H393.284V653.464ZM435.744 633.312L433.087 631.919L433.081 631.932L433.074 631.944L435.744 633.312ZM443.552 625.184L445.037 627.791L445.049 627.784L445.062 627.777L443.552 625.184ZM465.952 624.48L464.641 627.178L464.663 627.189L464.686 627.2L465.952 624.48ZM473.504 630.688L471.063 632.432L471.072 632.444L471.081 632.457L473.504 630.688ZM477.408 640.096V643.096H480.991L480.362 639.569L477.408 640.096ZM462.432 640.096L459.704 641.343L460.505 643.096H462.432V640.096ZM459.488 636.64L457.785 639.11L457.833 639.143L457.883 639.174L459.488 636.64ZM449.504 638.048L447.145 636.195L447.131 636.212L447.118 636.23L449.504 638.048ZM449.504 652.512L447.118 654.33L447.131 654.348L447.145 654.365L449.504 652.512ZM459.488 653.984L461.132 656.493L461.142 656.487L461.152 656.48L459.488 653.984ZM462.432 650.464V647.464H460.505L459.704 649.217L462.432 650.464ZM477.408 650.464L480.362 650.991L480.991 647.464H477.408V650.464ZM473.504 659.872L471.081 658.103L471.072 658.116L471.063 658.128L473.504 659.872ZM465.952 666.144L467.233 668.857L467.241 668.853L467.249 668.849L465.952 666.144ZM443.552 665.44L442.043 668.033L442.055 668.04L442.067 668.047L443.552 665.44ZM435.744 657.248L433.074 658.616L433.081 658.628L433.087 658.641L435.744 657.248ZM436.056 645.28C436.056 641.209 436.868 637.699 438.414 634.68L433.074 631.944C431.037 635.922 430.056 640.391 430.056 645.28H436.056ZM438.401 634.705C439.974 631.705 442.175 629.421 445.037 627.791L442.067 622.577C438.188 624.787 435.183 627.922 433.087 631.919L438.401 634.705ZM445.062 627.777C447.901 626.123 451.33 625.24 455.456 625.24V619.24C450.452 619.24 445.945 620.319 442.043 622.591L445.062 627.777ZM455.456 625.24C458.995 625.24 462.034 625.911 464.641 627.178L467.264 621.782C463.726 620.062 459.768 619.24 455.456 619.24V625.24ZM464.686 627.2C467.351 628.441 469.456 630.182 471.063 632.432L475.945 628.944C473.712 625.818 470.783 623.421 467.219 621.76L464.686 627.2ZM471.081 632.457C472.751 634.743 473.887 637.445 474.455 640.623L480.362 639.569C479.649 635.579 478.183 632.009 475.927 628.919L471.081 632.457ZM477.408 637.096H462.432V643.096H477.408V637.096ZM465.161 638.849C464.257 636.873 462.906 635.253 461.093 634.106L457.883 639.174C458.631 639.648 459.242 640.333 459.704 641.343L465.161 638.849ZM461.191 634.17C459.413 632.944 457.38 632.36 455.2 632.36V638.36C456.264 638.36 457.088 638.629 457.785 639.11L461.191 634.17ZM455.2 632.36C451.942 632.36 449.153 633.639 447.145 636.195L451.863 639.901C452.671 638.873 453.68 638.36 455.2 638.36V632.36ZM447.118 636.23C445.237 638.699 444.456 641.818 444.456 645.28H450.456C450.456 642.683 451.041 640.981 451.891 639.866L447.118 636.23ZM444.456 645.28C444.456 648.742 445.237 651.861 447.118 654.33L451.891 650.694C451.041 649.579 450.456 647.877 450.456 645.28H444.456ZM447.145 654.365C449.153 656.921 451.942 658.2 455.2 658.2V652.2C453.68 652.2 452.671 651.687 451.863 650.659L447.145 654.365ZM455.2 658.2C457.347 658.2 459.36 657.655 461.132 656.493L457.844 651.475C457.142 651.935 456.296 652.2 455.2 652.2V658.2ZM461.152 656.48C462.928 655.297 464.262 653.676 465.161 651.711L459.704 649.217C459.237 650.239 458.609 650.965 457.824 651.488L461.152 656.48ZM462.432 653.464H477.408V647.464H462.432V653.464ZM474.455 649.937C473.887 653.115 472.751 655.817 471.081 658.103L475.927 661.641C478.183 658.551 479.649 654.981 480.362 650.991L474.455 649.937ZM471.063 658.128C469.451 660.385 467.335 662.154 464.655 663.439L467.249 668.849C470.799 667.147 473.718 664.735 475.945 661.616L471.063 658.128ZM464.671 663.431C462.058 664.665 459.007 665.32 455.456 665.32V671.32C459.756 671.32 463.703 670.524 467.233 668.857L464.671 663.431ZM455.456 665.32C451.319 665.32 447.881 664.453 445.037 662.833L442.067 668.047C445.965 670.267 450.463 671.32 455.456 671.32V665.32ZM445.062 662.847C442.185 661.173 439.977 658.861 438.401 655.855L433.087 658.641C435.181 662.633 438.178 665.782 442.043 668.033L445.062 662.847ZM438.414 655.88C436.868 652.861 436.056 649.351 436.056 645.28H430.056C430.056 650.169 431.037 654.638 433.074 658.616L438.414 655.88ZM527.068 622.688H530.068V619.688H527.068V622.688ZM527.068 633.952V636.952H530.068V633.952H527.068ZM515.036 633.952V630.952H512.036V633.952H515.036ZM515.036 668V671H518.036V668H515.036ZM500.828 668H497.828V671H500.828V668ZM500.828 633.952H503.828V630.952H500.828V633.952ZM488.924 633.952H485.924V636.952H488.924V633.952ZM488.924 622.688V619.688H485.924V622.688H488.924ZM524.068 622.688V633.952H530.068V622.688H524.068ZM527.068 630.952H515.036V636.952H527.068V630.952ZM512.036 633.952V668H518.036V633.952H512.036ZM515.036 665H500.828V671H515.036V665ZM503.828 668V633.952H497.828V668H503.828ZM500.828 630.952H488.924V636.952H500.828V630.952ZM491.924 633.952V622.688H485.924V633.952H491.924ZM488.924 625.688H527.068V619.688H488.924V625.688ZM554.089 634.016V631.016H551.089V634.016H554.089ZM554.089 639.584H551.089V642.584H554.089V639.584ZM568.169 639.584H571.169V636.584H568.169V639.584ZM568.169 650.272V653.272H571.169V650.272H568.169ZM554.089 650.272V647.272H551.089V650.272H554.089ZM554.089 656.672H551.089V659.672H554.089V656.672ZM570.089 656.672H573.089V653.672H570.089V656.672ZM570.089 668V671H573.089V668H570.089ZM539.881 668H536.881V671H539.881V668ZM539.881 622.688V619.688H536.881V622.688H539.881ZM570.089 622.688H573.089V619.688H570.089V622.688ZM570.089 634.016V637.016H573.089V634.016H570.089ZM551.089 634.016V639.584H557.089V634.016H551.089ZM554.089 642.584H568.169V636.584H554.089V642.584ZM565.169 639.584V650.272H571.169V639.584H565.169ZM568.169 647.272H554.089V653.272H568.169V647.272ZM551.089 650.272V656.672H557.089V650.272H551.089ZM554.089 659.672H570.089V653.672H554.089V659.672ZM567.089 656.672V668H573.089V656.672H567.089ZM570.089 665H539.881V671H570.089V665ZM542.881 668V622.688H536.881V668H542.881ZM539.881 625.688H570.089V619.688H539.881V625.688ZM567.089 622.688V634.016H573.089V622.688H567.089ZM570.089 631.016H554.089V637.016H570.089V631.016ZM607.188 668L604.53 669.392L605.372 671H607.188V668ZM598.676 651.744L601.333 650.352L600.491 648.744H598.676V651.744ZM598.612 651.744V648.744H595.612V651.744H598.612ZM598.612 668V671H601.612V668H598.612ZM584.404 668H581.404V671H584.404V668ZM584.404 622.688V619.688H581.404V622.688H584.404ZM614.932 624.672L613.573 627.346L613.59 627.355L613.608 627.364L614.932 624.672ZM620.756 629.984L618.145 631.462L618.162 631.491L618.179 631.52L620.756 629.984ZM620.18 645.6L617.754 643.835L617.743 643.85L617.733 643.865L620.18 645.6ZM612.948 650.656L612.022 647.802L608.521 648.938L610.339 652.138L612.948 650.656ZM622.804 668V671H627.959L625.412 666.518L622.804 668ZM598.612 642.272H595.612V645.272H598.612V642.272ZM607.316 641.376L609.291 643.634L609.33 643.6L609.368 643.565L607.316 641.376ZM607.252 635.616L605.13 637.737L605.163 637.769L605.196 637.801L607.252 635.616ZM598.612 634.592V631.592H595.612V634.592H598.612ZM609.845 666.608L601.333 650.352L596.018 653.136L604.53 669.392L609.845 666.608ZM598.676 648.744H598.612V654.744H598.676V648.744ZM595.612 651.744V668H601.612V651.744H595.612ZM598.612 665H584.404V671H598.612V665ZM587.404 668V622.688H581.404V668H587.404ZM584.404 625.688H605.524V619.688H584.404V625.688ZM605.524 625.688C608.839 625.688 611.485 626.286 613.573 627.346L616.291 621.998C613.173 620.413 609.547 619.688 605.524 619.688V625.688ZM613.608 627.364C615.735 628.41 617.196 629.785 618.145 631.462L623.367 628.506C621.755 625.66 619.334 623.494 616.256 621.98L613.608 627.364ZM618.179 631.52C619.2 633.233 619.74 635.21 619.74 637.536H625.74C625.74 634.23 624.957 631.172 623.333 628.448L618.179 631.52ZM619.74 637.536C619.74 639.961 619.07 642.025 617.754 643.835L622.606 647.365C624.703 644.482 625.74 641.17 625.74 637.536H619.74ZM617.733 643.865C616.498 645.606 614.663 646.946 612.022 647.802L613.873 653.51C617.547 652.318 620.534 650.287 622.627 647.335L617.733 643.865ZM610.339 652.138L620.195 669.482L625.412 666.518L615.556 649.174L610.339 652.138ZM622.804 665H607.188V671H622.804V665ZM598.612 645.272H604.244V639.272H598.612V645.272ZM604.244 645.272C605.98 645.272 607.843 644.901 609.291 643.634L605.34 639.118C605.423 639.046 605.238 639.272 604.244 639.272V645.272ZM609.368 643.565C610.87 642.156 611.34 640.234 611.34 638.432H605.34C605.34 638.845 605.285 639.074 605.25 639.174C605.221 639.258 605.214 639.235 605.264 639.187L609.368 643.565ZM611.34 638.432C611.34 636.588 610.754 634.793 609.308 633.431L605.196 637.801C605.228 637.831 605.248 637.858 605.269 637.913C605.295 637.98 605.34 638.137 605.34 638.432H611.34ZM609.373 633.495C607.946 632.067 606.061 631.592 604.244 631.592V637.592C604.655 637.592 604.897 637.646 605.021 637.688C605.13 637.725 605.144 637.751 605.13 637.737L609.373 633.495ZM604.244 631.592H598.612V637.592H604.244V631.592ZM595.612 634.592V642.272H601.612V634.592H595.612ZM640.527 664.672L638.755 667.093L638.772 667.105L638.789 667.117L640.527 664.672ZM634.831 653.472V650.472H631.643L631.836 653.654L634.831 653.472ZM649.935 653.472L652.925 653.227L652.699 650.472H649.935V653.472ZM655.311 656.864L656.975 659.36L656.997 659.346L657.018 659.331L655.311 656.864ZM654.415 652.576L652.885 655.157L652.921 655.178L652.958 655.198L654.415 652.576ZM649.039 650.272L648.04 653.101L648.045 653.103L649.039 650.272ZM641.807 647.264L640.417 649.923L640.429 649.929L640.441 649.935L641.807 647.264ZM636.943 642.976L639.369 641.211L639.369 641.211L636.943 642.976ZM634.959 635.744L637.958 635.787L637.959 635.766V635.744H634.959ZM637.199 628.256L634.781 626.48L634.775 626.488L637.199 628.256ZM643.407 623.52L642.285 620.738L642.277 620.741L642.269 620.744L643.407 623.52ZM665.487 625.76L663.628 628.115L663.635 628.121L663.643 628.126L665.487 625.76ZM670.671 636.576V639.576H673.783L673.669 636.466L670.671 636.576ZM655.375 636.576L652.376 636.676L652.473 639.576H655.375V636.576ZM650.767 633.632L652.888 635.753L652.944 635.698L652.997 635.639L650.767 633.632ZM651.855 637.856L650.282 640.411L650.339 640.446L650.398 640.478L651.855 637.856ZM657.295 640.224L656.231 643.029L656.238 643.032L656.246 643.035L657.295 640.224ZM664.335 643.296L662.92 645.941L662.932 645.948L662.945 645.955L664.335 643.296ZM669.199 647.392L666.834 649.238L666.834 649.238L669.199 647.392ZM669.199 661.472L671.74 663.066L671.747 663.055L671.754 663.044L669.199 661.472ZM663.247 666.592L661.959 663.883L663.247 666.592ZM653.967 665.448C649.016 665.448 645.185 664.303 642.265 662.227L638.789 667.117C642.951 670.076 648.081 671.448 653.967 671.448V665.448ZM642.298 662.251C639.622 660.293 638.078 657.439 637.825 653.29L631.836 653.654C632.181 659.318 634.434 663.931 638.755 667.093L642.298 662.251ZM634.831 656.472H649.935V650.472H634.831V656.472ZM646.945 653.717C647.079 655.356 647.539 657.063 648.712 658.389C649.973 659.812 651.677 660.376 653.391 660.376V654.376C653.177 654.376 653.104 654.343 653.116 654.348C653.141 654.358 653.182 654.386 653.205 654.411C653.227 654.436 653.004 654.19 652.925 653.227L646.945 653.717ZM653.391 660.376C654.604 660.376 655.86 660.103 656.975 659.36L653.647 654.368C653.684 654.343 653.701 654.342 653.674 654.349C653.642 654.358 653.554 654.376 653.391 654.376V660.376ZM657.018 659.331C658.504 658.302 659.143 656.73 659.143 655.136H653.143C653.143 655.159 653.139 655.034 653.232 654.843C653.331 654.636 653.478 654.484 653.603 654.397L657.018 659.331ZM659.143 655.136C659.143 652.708 657.712 650.976 655.872 649.954L652.958 655.198C653.233 655.351 653.264 655.433 653.224 655.374C653.203 655.344 653.179 655.296 653.161 655.238C653.144 655.181 653.143 655.143 653.143 655.136H659.143ZM655.944 649.995C654.531 649.158 652.513 648.312 650.032 647.441L648.045 653.103C650.429 653.939 651.995 654.629 652.885 655.157L655.944 649.995ZM650.037 647.443C647.213 646.446 644.935 645.494 643.172 644.593L640.441 649.935C642.518 650.997 645.062 652.05 648.04 653.101L650.037 647.443ZM643.197 644.605C641.767 643.858 640.489 642.751 639.369 641.211L634.517 644.741C636.127 646.955 638.092 648.707 640.417 649.923L643.197 644.605ZM639.369 641.211C638.477 639.985 637.923 638.259 637.958 635.787L631.959 635.701C631.91 639.117 632.678 642.212 634.517 644.741L639.369 641.211ZM637.959 635.744C637.959 633.329 638.562 631.479 639.623 630.024L634.775 626.488C632.849 629.129 631.959 632.271 631.959 635.744H637.959ZM639.616 630.032C640.798 628.423 642.408 627.172 644.544 626.296L642.269 620.744C639.201 622.002 636.671 623.907 634.781 626.48L639.616 630.032ZM644.529 626.302C646.768 625.4 649.344 624.92 652.303 624.92V618.92C648.691 618.92 645.337 619.507 642.285 620.738L644.529 626.302ZM652.303 624.92C657.405 624.92 661.071 626.096 663.628 628.115L667.346 623.405C663.417 620.304 658.294 618.92 652.303 618.92V624.92ZM663.643 628.126C666.142 630.074 667.53 632.804 667.673 636.686L673.669 636.466C673.47 631.047 671.403 626.566 667.331 623.394L663.643 628.126ZM670.671 633.576H655.375V639.576H670.671V633.576ZM658.373 636.476C658.319 634.84 657.899 632.966 656.456 631.626L652.373 636.022C652.251 635.909 652.24 635.831 652.27 635.916C652.304 636.014 652.362 636.248 652.376 636.676L658.373 636.476ZM656.456 631.626C655.276 630.53 653.81 629.992 652.239 629.992V635.992C652.289 635.992 652.32 635.996 652.336 635.999C652.35 636.001 652.354 636.003 652.351 636.002C652.348 636.001 652.345 635.999 652.345 635.999C652.346 636 652.355 636.005 652.373 636.022L656.456 631.626ZM652.239 629.992C650.83 629.992 649.516 630.538 648.537 631.625L652.997 635.639C652.923 635.721 652.796 635.826 652.619 635.903C652.445 635.979 652.304 635.992 652.239 635.992V629.992ZM648.645 631.511C647.53 632.626 647.191 634.051 647.191 635.296H653.191C653.191 635.192 653.205 635.215 653.17 635.317C653.129 635.434 653.043 635.599 652.888 635.753L648.645 631.511ZM647.191 635.296C647.191 637.649 648.562 639.352 650.282 640.411L653.427 635.301C653.149 635.13 653.099 635.034 653.122 635.069C653.135 635.089 653.156 635.128 653.172 635.182C653.188 635.236 653.191 635.278 653.191 635.296H647.191ZM650.398 640.478C651.747 641.228 653.727 642.079 656.231 643.029L658.359 637.419C655.913 636.491 654.266 635.764 653.312 635.234L650.398 640.478ZM656.246 643.035C659.031 644.074 661.244 645.045 662.92 645.941L665.75 640.651C663.756 639.584 661.276 638.507 658.344 637.413L656.246 643.035ZM662.945 645.955C664.425 646.728 665.719 647.809 666.834 649.238L671.564 645.546C669.948 643.476 667.999 641.826 665.725 640.637L662.945 645.955ZM666.834 649.238C667.713 650.364 668.247 651.874 668.247 653.984H674.247C674.247 650.803 673.416 647.919 671.564 645.546L666.834 649.238ZM668.247 653.984C668.247 656.24 667.699 658.185 666.644 659.9L671.754 663.044C673.429 660.322 674.247 657.275 674.247 653.984H668.247ZM666.658 659.878C665.631 661.513 664.111 662.859 661.959 663.883L664.535 669.301C667.588 667.85 670.035 665.783 671.74 663.066L666.658 659.878ZM661.959 663.883C659.844 664.888 657.211 665.448 653.967 665.448V671.448C657.89 671.448 661.444 670.771 664.535 669.301L661.959 663.883Z" fill="black" mask="url(#path-3-outside-1_1009_280)"/>
<rect x="570" y="250" width="126" height="48" fill="#F5F5F5"/>
<mask id="path-6-outside-2_1009_280" maskUnits="userSpaceOnUse" x="261" y="477" width="299" height="53" fill="black">
<rect fill="white" x="261" y="477" width="299" height="53"/>
<path d="M264.458 503.28C264.458 498.8 265.354 494.811 267.146 491.312C268.98 487.813 271.583 485.104 274.954 483.184C278.324 481.221 282.292 480.24 286.858 480.24C290.783 480.24 294.282 480.987 297.354 482.48C300.468 483.931 302.986 486 304.906 488.688C306.868 491.376 308.17 494.512 308.81 498.096H293.834C293.151 496.603 292.17 495.451 290.89 494.64C289.652 493.787 288.223 493.36 286.602 493.36C284.212 493.36 282.314 494.256 280.906 496.048C279.54 497.84 278.858 500.251 278.858 503.28C278.858 506.309 279.54 508.72 280.906 510.512C282.314 512.304 284.212 513.2 286.602 513.2C288.223 513.2 289.652 512.795 290.89 511.984C292.17 511.131 293.151 509.957 293.834 508.464H308.81C308.17 512.048 306.868 515.184 304.906 517.872C302.986 520.56 300.468 522.651 297.354 524.144C294.282 525.595 290.783 526.32 286.858 526.32C282.292 526.32 278.324 525.36 274.954 523.44C271.583 521.477 268.98 518.747 267.146 515.248C265.354 511.749 264.458 507.76 264.458 503.28ZM345.669 526L337.157 509.744H337.093V526H322.885V480.688H344.005C347.674 480.688 350.81 481.349 353.413 482.672C356.016 483.952 357.957 485.723 359.237 487.984C360.56 490.203 361.221 492.72 361.221 495.536C361.221 498.565 360.368 501.253 358.661 503.6C356.997 505.947 354.586 507.632 351.429 508.656L361.285 526H345.669ZM337.093 500.272H342.725C344.09 500.272 345.114 499.973 345.797 499.376C346.48 498.736 346.821 497.755 346.821 496.432C346.821 495.237 346.458 494.299 345.733 493.616C345.05 492.933 344.048 492.592 342.725 492.592H337.093V500.272ZM388.928 492.016V497.584H403.008V508.272H388.928V514.672H404.928V526H374.72V480.688H404.928V492.016H388.928ZM448.299 519.152H433.195L430.955 526H416.043L432.619 480.688H449.003L465.515 526H450.539L448.299 519.152ZM444.843 508.464L440.747 495.856L436.651 508.464H444.843ZM513.287 480.688V491.952H501.255V526H487.047V491.952H475.143V480.688H513.287ZM540.308 492.016V497.584H554.388V508.272H540.308V514.672H556.308V526H526.1V480.688H556.308V492.016H540.308Z"/>
</mask>
<path d="M264.458 503.28C264.458 498.8 265.354 494.811 267.146 491.312C268.98 487.813 271.583 485.104 274.954 483.184C278.324 481.221 282.292 480.24 286.858 480.24C290.783 480.24 294.282 480.987 297.354 482.48C300.468 483.931 302.986 486 304.906 488.688C306.868 491.376 308.17 494.512 308.81 498.096H293.834C293.151 496.603 292.17 495.451 290.89 494.64C289.652 493.787 288.223 493.36 286.602 493.36C284.212 493.36 282.314 494.256 280.906 496.048C279.54 497.84 278.858 500.251 278.858 503.28C278.858 506.309 279.54 508.72 280.906 510.512C282.314 512.304 284.212 513.2 286.602 513.2C288.223 513.2 289.652 512.795 290.89 511.984C292.17 511.131 293.151 509.957 293.834 508.464H308.81C308.17 512.048 306.868 515.184 304.906 517.872C302.986 520.56 300.468 522.651 297.354 524.144C294.282 525.595 290.783 526.32 286.858 526.32C282.292 526.32 278.324 525.36 274.954 523.44C271.583 521.477 268.98 518.747 267.146 515.248C265.354 511.749 264.458 507.76 264.458 503.28ZM345.669 526L337.157 509.744H337.093V526H322.885V480.688H344.005C347.674 480.688 350.81 481.349 353.413 482.672C356.016 483.952 357.957 485.723 359.237 487.984C360.56 490.203 361.221 492.72 361.221 495.536C361.221 498.565 360.368 501.253 358.661 503.6C356.997 505.947 354.586 507.632 351.429 508.656L361.285 526H345.669ZM337.093 500.272H342.725C344.09 500.272 345.114 499.973 345.797 499.376C346.48 498.736 346.821 497.755 346.821 496.432C346.821 495.237 346.458 494.299 345.733 493.616C345.05 492.933 344.048 492.592 342.725 492.592H337.093V500.272ZM388.928 492.016V497.584H403.008V508.272H388.928V514.672H404.928V526H374.72V480.688H404.928V492.016H388.928ZM448.299 519.152H433.195L430.955 526H416.043L432.619 480.688H449.003L465.515 526H450.539L448.299 519.152ZM444.843 508.464L440.747 495.856L436.651 508.464H444.843ZM513.287 480.688V491.952H501.255V526H487.047V491.952H475.143V480.688H513.287ZM540.308 492.016V497.584H554.388V508.272H540.308V514.672H556.308V526H526.1V480.688H556.308V492.016H540.308Z" fill="white"/>
<path d="M267.146 491.312L264.489 489.919L264.482 489.932L264.475 489.944L267.146 491.312ZM274.954 483.184L276.438 485.791L276.451 485.784L276.463 485.777L274.954 483.184ZM297.354 482.48L296.042 485.178L296.064 485.189L296.087 485.2L297.354 482.48ZM304.906 488.688L302.464 490.432L302.473 490.444L302.483 490.457L304.906 488.688ZM308.81 498.096V501.096H312.393L311.763 497.569L308.81 498.096ZM293.834 498.096L291.105 499.343L291.906 501.096H293.834V498.096ZM290.89 494.64L289.186 497.11L289.235 497.143L289.284 497.174L290.89 494.64ZM280.906 496.048L278.547 494.195L278.533 494.212L278.519 494.23L280.906 496.048ZM280.906 510.512L278.519 512.33L278.533 512.348L278.547 512.365L280.906 510.512ZM290.89 511.984L292.534 514.493L292.544 514.487L292.554 514.48L290.89 511.984ZM293.834 508.464V505.464H291.906L291.105 507.217L293.834 508.464ZM308.81 508.464L311.763 508.991L312.393 505.464H308.81V508.464ZM304.906 517.872L302.483 516.103L302.473 516.116L302.464 516.128L304.906 517.872ZM297.354 524.144L298.635 526.857L298.643 526.853L298.65 526.849L297.354 524.144ZM274.954 523.44L273.444 526.033L273.456 526.04L273.469 526.047L274.954 523.44ZM267.146 515.248L264.475 516.616L264.482 516.628L264.489 516.641L267.146 515.248ZM267.458 503.28C267.458 499.209 268.269 495.699 269.816 492.68L264.475 489.944C262.438 493.922 261.458 498.391 261.458 503.28H267.458ZM269.802 492.705C271.376 489.705 273.576 487.421 276.438 485.791L273.469 480.577C269.59 482.787 266.585 485.922 264.489 489.919L269.802 492.705ZM276.463 485.777C279.303 484.123 282.731 483.24 286.858 483.24V477.24C281.853 477.24 277.346 478.319 273.444 480.591L276.463 485.777ZM286.858 483.24C290.396 483.24 293.436 483.911 296.042 485.178L298.665 479.782C295.127 478.062 291.169 477.24 286.858 477.24V483.24ZM296.087 485.2C298.752 486.441 300.857 488.182 302.464 490.432L307.347 486.944C305.114 483.818 302.184 481.421 298.62 479.76L296.087 485.2ZM302.483 490.457C304.152 492.743 305.289 495.445 305.856 498.623L311.763 497.569C311.05 493.579 309.584 490.009 307.328 486.919L302.483 490.457ZM308.81 495.096H293.834V501.096H308.81V495.096ZM296.562 496.849C295.659 494.873 294.307 493.253 292.495 492.106L289.284 497.174C290.032 497.648 290.643 498.333 291.105 499.343L296.562 496.849ZM292.593 492.17C290.815 490.944 288.781 490.36 286.602 490.36V496.36C287.665 496.36 288.49 496.629 289.186 497.11L292.593 492.17ZM286.602 490.36C283.343 490.36 280.555 491.639 278.547 494.195L283.264 497.901C284.073 496.873 285.081 496.36 286.602 496.36V490.36ZM278.519 494.23C276.638 496.699 275.858 499.818 275.858 503.28H281.858C281.858 500.683 282.442 498.981 283.292 497.866L278.519 494.23ZM275.858 503.28C275.858 506.742 276.638 509.861 278.519 512.33L283.292 508.694C282.442 507.579 281.858 505.877 281.858 503.28H275.858ZM278.547 512.365C280.555 514.921 283.343 516.2 286.602 516.2V510.2C285.081 510.2 284.073 509.687 283.264 508.659L278.547 512.365ZM286.602 516.2C288.749 516.2 290.761 515.655 292.534 514.493L289.245 509.475C288.543 509.935 287.697 510.2 286.602 510.2V516.2ZM292.554 514.48C294.329 513.297 295.664 511.676 296.562 509.711L291.105 507.217C290.638 508.239 290.01 508.965 289.225 509.488L292.554 514.48ZM293.834 511.464H308.81V505.464H293.834V511.464ZM305.856 507.937C305.289 511.115 304.152 513.817 302.483 516.103L307.328 519.641C309.584 516.551 311.05 512.981 311.763 508.991L305.856 507.937ZM302.464 516.128C300.852 518.385 298.736 520.154 296.057 521.439L298.65 526.849C302.2 525.147 305.119 522.735 307.347 519.616L302.464 516.128ZM296.072 521.431C293.459 522.665 290.409 523.32 286.858 523.32V529.32C291.157 529.32 295.104 528.524 298.635 526.857L296.072 521.431ZM286.858 523.32C282.72 523.32 279.282 522.453 276.438 520.833L273.469 526.047C277.366 528.267 281.864 529.32 286.858 529.32V523.32ZM276.463 520.847C273.587 519.173 271.379 516.861 269.802 513.855L264.489 516.641C266.582 520.633 269.579 523.782 273.444 526.033L276.463 520.847ZM269.816 513.88C268.269 510.861 267.458 507.351 267.458 503.28H261.458C261.458 508.169 262.438 512.638 264.475 516.616L269.816 513.88ZM345.669 526L343.011 527.392L343.853 529H345.669V526ZM337.157 509.744L339.815 508.352L338.973 506.744H337.157V509.744ZM337.093 509.744V506.744H334.093V509.744H337.093ZM337.093 526V529H340.093V526H337.093ZM322.885 526H319.885V529H322.885V526ZM322.885 480.688V477.688H319.885V480.688H322.885ZM353.413 482.672L352.054 485.346L352.071 485.355L352.089 485.364L353.413 482.672ZM359.237 487.984L356.626 489.462L356.643 489.491L356.66 489.52L359.237 487.984ZM358.661 503.6L356.235 501.835L356.224 501.85L356.214 501.865L358.661 503.6ZM351.429 508.656L350.503 505.802L347.002 506.938L348.821 510.138L351.429 508.656ZM361.285 526V529H366.44L363.893 524.518L361.285 526ZM337.093 500.272H334.093V503.272H337.093V500.272ZM345.797 499.376L347.773 501.634L347.811 501.6L347.849 501.565L345.797 499.376ZM345.733 493.616L343.612 495.737L343.644 495.769L343.677 495.801L345.733 493.616ZM337.093 492.592V489.592H334.093V492.592H337.093ZM348.327 524.608L339.815 508.352L334.499 511.136L343.011 527.392L348.327 524.608ZM337.157 506.744H337.093V512.744H337.157V506.744ZM334.093 509.744V526H340.093V509.744H334.093ZM337.093 523H322.885V529H337.093V523ZM325.885 526V480.688H319.885V526H325.885ZM322.885 483.688H344.005V477.688H322.885V483.688ZM344.005 483.688C347.32 483.688 349.967 484.286 352.054 485.346L354.772 479.998C351.654 478.413 348.028 477.688 344.005 477.688V483.688ZM352.089 485.364C354.216 486.41 355.677 487.785 356.626 489.462L361.848 486.506C360.237 483.66 357.815 481.494 354.737 479.98L352.089 485.364ZM356.66 489.52C357.681 491.233 358.221 493.21 358.221 495.536H364.221C364.221 492.23 363.438 489.172 361.814 486.448L356.66 489.52ZM358.221 495.536C358.221 497.961 357.551 500.025 356.235 501.835L361.087 505.365C363.184 502.482 364.221 499.17 364.221 495.536H358.221ZM356.214 501.865C354.979 503.606 353.145 504.946 350.503 505.802L352.355 511.51C356.028 510.318 359.015 508.287 361.108 505.335L356.214 501.865ZM348.821 510.138L358.677 527.482L363.893 524.518L354.037 507.174L348.821 510.138ZM361.285 523H345.669V529H361.285V523ZM337.093 503.272H342.725V497.272H337.093V503.272ZM342.725 503.272C344.462 503.272 346.324 502.901 347.773 501.634L343.821 497.118C343.904 497.046 343.719 497.272 342.725 497.272V503.272ZM347.849 501.565C349.352 500.156 349.821 498.234 349.821 496.432H343.821C343.821 496.845 343.767 497.074 343.732 497.174C343.702 497.258 343.695 497.235 343.745 497.187L347.849 501.565ZM349.821 496.432C349.821 494.588 349.235 492.793 347.789 491.431L343.677 495.801C343.709 495.831 343.729 495.858 343.751 495.913C343.776 495.98 343.821 496.137 343.821 496.432H349.821ZM347.854 491.495C346.427 490.067 344.542 489.592 342.725 489.592V495.592C343.136 495.592 343.379 495.646 343.502 495.688C343.612 495.725 343.626 495.751 343.612 495.737L347.854 491.495ZM342.725 489.592H337.093V495.592H342.725V489.592ZM334.093 492.592V500.272H340.093V492.592H334.093ZM388.928 492.016V489.016H385.928V492.016H388.928ZM388.928 497.584H385.928V500.584H388.928V497.584ZM403.008 497.584H406.008V494.584H403.008V497.584ZM403.008 508.272V511.272H406.008V508.272H403.008ZM388.928 508.272V505.272H385.928V508.272H388.928ZM388.928 514.672H385.928V517.672H388.928V514.672ZM404.928 514.672H407.928V511.672H404.928V514.672ZM404.928 526V529H407.928V526H404.928ZM374.72 526H371.72V529H374.72V526ZM374.72 480.688V477.688H371.72V480.688H374.72ZM404.928 480.688H407.928V477.688H404.928V480.688ZM404.928 492.016V495.016H407.928V492.016H404.928ZM385.928 492.016V497.584H391.928V492.016H385.928ZM388.928 500.584H403.008V494.584H388.928V500.584ZM400.008 497.584V508.272H406.008V497.584H400.008ZM403.008 505.272H388.928V511.272H403.008V505.272ZM385.928 508.272V514.672H391.928V508.272H385.928ZM388.928 517.672H404.928V511.672H388.928V517.672ZM401.928 514.672V526H407.928V514.672H401.928ZM404.928 523H374.72V529H404.928V523ZM377.72 526V480.688H371.72V526H377.72ZM374.72 483.688H404.928V477.688H374.72V483.688ZM401.928 480.688V492.016H407.928V480.688H401.928ZM404.928 489.016H388.928V495.016H404.928V489.016ZM448.299 519.152L451.15 518.219L450.474 516.152H448.299V519.152ZM433.195 519.152V516.152H431.019L430.343 518.219L433.195 519.152ZM430.955 526V529H433.13L433.806 526.933L430.955 526ZM416.043 526L413.225 524.969L411.751 529H416.043V526ZM432.619 480.688V477.688H430.522L429.801 479.657L432.619 480.688ZM449.003 480.688L451.821 479.661L451.102 477.688H449.003V480.688ZM465.515 526V529H469.801L468.333 524.973L465.515 526ZM450.539 526L447.687 526.933L448.363 529H450.539V526ZM444.843 508.464V511.464H448.971L447.696 507.537L444.843 508.464ZM440.747 495.856L443.6 494.929L440.747 486.147L437.893 494.929L440.747 495.856ZM436.651 508.464L433.797 507.537L432.522 511.464H436.651V508.464ZM448.299 516.152H433.195V522.152H448.299V516.152ZM430.343 518.219L428.103 525.067L433.806 526.933L436.046 520.085L430.343 518.219ZM430.955 523H416.043V529H430.955V523ZM418.86 527.031L435.436 481.719L429.801 479.657L413.225 524.969L418.86 527.031ZM432.619 483.688H449.003V477.688H432.619V483.688ZM446.184 481.715L462.696 527.027L468.333 524.973L451.821 479.661L446.184 481.715ZM465.515 523H450.539V529H465.515V523ZM453.39 525.067L451.15 518.219L445.447 520.085L447.687 526.933L453.39 525.067ZM447.696 507.537L443.6 494.929L437.893 496.783L441.989 509.391L447.696 507.537ZM437.893 494.929L433.797 507.537L439.504 509.391L443.6 496.783L437.893 494.929ZM436.651 511.464H444.843V505.464H436.651V511.464ZM513.287 480.688H516.287V477.688H513.287V480.688ZM513.287 491.952V494.952H516.287V491.952H513.287ZM501.255 491.952V488.952H498.255V491.952H501.255ZM501.255 526V529H504.255V526H501.255ZM487.047 526H484.047V529H487.047V526ZM487.047 491.952H490.047V488.952H487.047V491.952ZM475.143 491.952H472.143V494.952H475.143V491.952ZM475.143 480.688V477.688H472.143V480.688H475.143ZM510.287 480.688V491.952H516.287V480.688H510.287ZM513.287 488.952H501.255V494.952H513.287V488.952ZM498.255 491.952V526H504.255V491.952H498.255ZM501.255 523H487.047V529H501.255V523ZM490.047 526V491.952H484.047V526H490.047ZM487.047 488.952H475.143V494.952H487.047V488.952ZM478.143 491.952V480.688H472.143V491.952H478.143ZM475.143 483.688H513.287V477.688H475.143V483.688ZM540.308 492.016V489.016H537.308V492.016H540.308ZM540.308 497.584H537.308V500.584H540.308V497.584ZM554.388 497.584H557.388V494.584H554.388V497.584ZM554.388 508.272V511.272H557.388V508.272H554.388ZM540.308 508.272V505.272H537.308V508.272H540.308ZM540.308 514.672H537.308V517.672H540.308V514.672ZM556.308 514.672H559.308V511.672H556.308V514.672ZM556.308 526V529H559.308V526H556.308ZM526.1 526H523.1V529H526.1V526ZM526.1 480.688V477.688H523.1V480.688H526.1ZM556.308 480.688H559.308V477.688H556.308V480.688ZM556.308 492.016V495.016H559.308V492.016H556.308ZM537.308 492.016V497.584H543.308V492.016H537.308ZM540.308 500.584H554.388V494.584H540.308V500.584ZM551.388 497.584V508.272H557.388V497.584H551.388ZM554.388 505.272H540.308V511.272H554.388V505.272ZM537.308 508.272V514.672H543.308V508.272H537.308ZM540.308 517.672H556.308V511.672H540.308V517.672ZM553.308 514.672V526H559.308V514.672H553.308ZM556.308 523H526.1V529H556.308V523ZM529.1 526V480.688H523.1V526H529.1ZM526.1 483.688H556.308V477.688H526.1V483.688ZM553.308 480.688V492.016H559.308V480.688H553.308ZM556.308 489.016H540.308V495.016H556.308V489.016Z" fill="black" mask="url(#path-6-outside-2_1009_280)"/>
<path d="M385.35 950.38V953.02H382.53V961H379.2V953.02H376.41V950.38H385.35ZM393.528 961.105C392.528 961.105 391.608 960.87 390.768 960.4C389.938 959.93 389.278 959.28 388.788 958.45C388.298 957.62 388.053 956.685 388.053 955.645C388.053 954.605 388.298 953.67 388.788 952.84C389.278 952.01 389.938 951.365 390.768 950.905C391.608 950.435 392.528 950.2 393.528 950.2C394.528 950.2 395.443 950.435 396.273 950.905C397.103 951.365 397.758 952.01 398.238 952.84C398.728 953.67 398.973 954.605 398.973 955.645C398.973 956.685 398.728 957.62 398.238 958.45C397.758 959.28 397.098 959.93 396.258 960.4C395.428 960.87 394.518 961.105 393.528 961.105ZM393.528 958C394.188 958 394.698 957.79 395.058 957.37C395.418 956.94 395.598 956.365 395.598 955.645C395.598 954.915 395.418 954.34 395.058 953.92C394.698 953.49 394.188 953.275 393.528 953.275C392.858 953.275 392.343 953.49 391.983 953.92C391.623 954.34 391.443 954.915 391.443 955.645C391.443 956.365 391.623 956.94 391.983 957.37C392.343 957.79 392.858 958 393.528 958ZM407.449 961.105C406.449 961.105 405.529 960.87 404.689 960.4C403.859 959.93 403.199 959.28 402.709 958.45C402.219 957.62 401.974 956.685 401.974 955.645C401.974 954.605 402.219 953.67 402.709 952.84C403.199 952.01 403.859 951.365 404.689 950.905C405.529 950.435 406.449 950.2 407.449 950.2C408.449 950.2 409.364 950.435 410.194 950.905C411.024 951.365 411.679 952.01 412.159 952.84C412.649 953.67 412.894 954.605 412.894 955.645C412.894 956.685 412.649 957.62 412.159 958.45C411.679 959.28 411.019 959.93 410.179 960.4C409.349 960.87 408.439 961.105 407.449 961.105ZM407.449 958C408.109 958 408.619 957.79 408.979 957.37C409.339 956.94 409.519 956.365 409.519 955.645C409.519 954.915 409.339 954.34 408.979 953.92C408.619 953.49 408.109 953.275 407.449 953.275C406.779 953.275 406.264 953.49 405.904 953.92C405.544 954.34 405.364 954.915 405.364 955.645C405.364 956.365 405.544 956.94 405.904 957.37C406.264 957.79 406.779 958 407.449 958ZM426.381 961H423.051L419.526 955.66V961H416.196V950.38H419.526L423.051 955.81V950.38H426.381V961ZM440.185 950.38L436.375 957.775V961H433.045V957.775L429.235 950.38H433.045L434.74 954.145L436.435 950.38H440.185ZM446.732 958.345H450.992V961H443.042V958.495L447.242 953.02H443.042V950.38H450.992V952.885L446.732 958.345Z" fill="black"/>
<path d="M597.887 273.952C597.887 268.416 599.055 264.064 601.391 260.896C603.759 257.728 607.391 256.144 612.287 256.144C617.151 256.144 620.767 257.744 623.135 260.944C625.503 264.112 626.687 268.448 626.687 273.952C626.687 279.488 625.503 283.856 623.135 287.056C620.767 290.224 617.151 291.808 612.287 291.808C607.391 291.808 603.759 290.224 601.391 287.056C599.055 283.856 597.887 279.488 597.887 273.952ZM616.175 273.952C616.175 271.392 615.919 269.472 615.407 268.192C614.895 266.88 613.855 266.224 612.287 266.224C610.687 266.224 609.631 266.88 609.119 268.192C608.607 269.472 608.351 271.392 608.351 273.952C608.351 276.544 608.607 278.496 609.119 279.808C609.631 281.088 610.687 281.728 612.287 281.728C613.855 281.728 614.895 281.088 615.407 279.808C615.919 278.496 616.175 276.544 616.175 273.952ZM637.348 286.72V277.84L651.652 257.44H663.124V277.504H666.58V286.72H663.124V292H652.372V286.72H637.348ZM653.236 269.584L648.052 277.504H653.236V269.584Z" fill="black"/>
</g>
</g>
</g>
<defs>
<filter id="filter0_d_1009_280" x="62.6" y="139.6" width="697.8" height="944.8" filterUnits="userSpaceOnUse" color-interpolation-filters="sRGB">
<feFlood flood-opacity="0" result="BackgroundImageFix"/>
<feColorMatrix in="SourceAlpha" type="matrix" values="0 0 0 0 0 0 0 0 0 0 0 0 0 0 0 0 0 0 127 0" result="hardAlpha"/>
<feOffset dx="13" dy="12"/>
<feGaussianBlur stdDeviation="25.7"/>
<feComposite in2="hardAlpha" operator="out"/>
<feColorMatrix type="matrix" values="0 0 0 0 0 0 0 0 0 0 0 0 0 0 0 0 0 0 0.25 0"/>
<feBlend mode="normal" in2="BackgroundImageFix" result="effect1_dropShadow_1009_280"/>
<feBlend mode="normal" in="SourceGraphic" in2="effect1_dropShadow_1009_280" result="shape"/>
</filter>
<filter id="filter1_f_1009_280" x="119" y="177" width="8.00006" height="846" filterUnits="userSpaceOnUse" color-interpolation-filters="sRGB">
<feFlood flood-opacity="0" result="BackgroundImageFix"/>
<feBlend mode="normal" in="SourceGraphic" in2="BackgroundImageFix" result="shape"/>
<feGaussianBlur stdDeviation="1" result="effect1_foregroundBlur_1009_280"/>
</filter>
<filter id="filter2_f_1009_280" x="123" y="177" width="8.00006" height="846" filterUnits="userSpaceOnUse" color-interpolation-filters="sRGB">
<feFlood flood-opacity="0" result="BackgroundImageFix"/>
<feBlend mode="normal" in="SourceGraphic" in2="BackgroundImageFix" result="shape"/>
<feGaussianBlur stdDeviation="1" result="effect1_foregroundBlur_1009_280"/>
</filter>
<clipPath id="clip0_1009_280">
<rect width="797" height="1200" fill="white"/>
</clipPath>
<clipPath id="clip1_1009_280">
<rect width="595" height="842" fill="white" transform="translate(101 179)"/>
</clipPath>
</defs>
</svg>
