<svg width="797" height="1200" viewBox="0 0 797 1200" fill="none" xmlns="http://www.w3.org/2000/svg">
<g clip-path="url(#clip0_1009_251)">
<rect width="797" height="1200" fill="#E9D4FF"/>
<g filter="url(#filter0_d_1009_251)">
<g clip-path="url(#clip1_1009_251)">
<rect width="595" height="842" transform="translate(101 179)" fill="#E9D4FF"/>
<g opacity="0.78" filter="url(#filter1_f_1009_251)">
<line x1="123" y1="179" x2="123" y2="1021" stroke="black" stroke-opacity="0.31" stroke-width="4"/>
</g>
<g opacity="0.78" filter="url(#filter2_f_1009_251)">
<line x1="127" y1="179" x2="127" y2="1021" stroke="white" stroke-opacity="0.62" stroke-width="4"/>
</g>
<mask id="path-3-outside-1_1009_251" maskUnits="userSpaceOnUse" x="241" y="545" width="350" height="127" fill="black">
<rect fill="white" x="241" y="545" width="350" height="127"/>
<path d="M311.714 548.688L301.346 594H283.682L278.434 568.272L273.186 594H255.522L245.154 548.688H260.45L264.546 577.232L270.69 548.688H286.178L292.322 577.232L296.418 548.688H311.714ZM348.553 594L340.041 577.744H339.977V594H325.769V548.688H346.889C350.558 548.688 353.694 549.349 356.297 550.672C358.899 551.952 360.841 553.723 362.121 555.984C363.443 558.203 364.105 560.72 364.105 563.536C364.105 566.565 363.251 569.253 361.545 571.6C359.881 573.947 357.47 575.632 354.313 576.656L364.169 594H348.553ZM339.977 568.272H345.609C346.974 568.272 347.998 567.973 348.681 567.376C349.363 566.736 349.705 565.755 349.705 564.432C349.705 563.237 349.342 562.299 348.617 561.616C347.934 560.933 346.931 560.592 345.609 560.592H339.977V568.272ZM391.812 548.688V594H377.604V548.688H391.812ZM442.773 548.688V559.952H430.741V594H416.533V559.952H404.629V548.688H442.773ZM469.794 548.688V594H455.586V548.688H469.794ZM528.627 594H514.419L499.379 571.216V594H485.171V548.688H499.379L514.419 571.856V548.688H528.627V594ZM571.782 564.176C571.228 563.28 570.438 562.597 569.414 562.128C568.39 561.616 567.153 561.36 565.702 561.36C562.972 561.36 560.86 562.256 559.366 564.048C557.873 565.797 557.126 568.208 557.126 571.28C557.126 574.821 557.958 577.467 559.622 579.216C561.286 580.965 563.846 581.84 567.302 581.84C570.588 581.84 573.233 580.517 575.238 577.872H563.91V567.824H587.014V582.032C585.052 585.403 582.342 588.304 578.886 590.736C575.43 593.125 571.057 594.32 565.766 594.32C561.073 594.32 556.977 593.36 553.478 591.44C550.022 589.477 547.356 586.747 545.478 583.248C543.644 579.749 542.726 575.76 542.726 571.28C542.726 566.8 543.644 562.811 545.478 559.312C547.356 555.813 550.022 553.104 553.478 551.184C556.934 549.221 560.988 548.24 565.638 548.24C571.569 548.24 576.39 549.669 580.102 552.528C583.857 555.387 586.076 559.269 586.758 564.176H571.782ZM380.531 622.688V633.952H368.499V668H354.291V633.952H342.387V622.688H380.531ZM407.553 622.688V668H393.345V622.688H407.553ZM459.986 638.24C459.986 641.099 459.325 643.701 458.002 646.048C456.679 648.352 454.717 650.187 452.114 651.552C449.554 652.917 446.439 653.6 442.77 653.6H437.138V668H422.93V622.688H442.77C448.317 622.688 452.562 624.096 455.506 626.912C458.493 629.728 459.986 633.504 459.986 638.24ZM441.17 642.4C444.114 642.4 445.586 641.013 445.586 638.24C445.586 635.467 444.114 634.08 441.17 634.08H437.138V642.4H441.17ZM491.181 668.448C485.762 668.448 481.282 667.189 477.741 664.672C474.242 662.112 472.343 658.379 472.045 653.472H487.149C487.362 656.075 488.514 657.376 490.605 657.376C491.373 657.376 492.013 657.205 492.525 656.864C493.079 656.48 493.357 655.904 493.357 655.136C493.357 654.069 492.781 653.216 491.629 652.576C490.477 651.893 488.685 651.125 486.253 650.272C483.351 649.248 480.941 648.245 479.021 647.264C477.143 646.283 475.522 644.853 474.157 642.976C472.791 641.099 472.13 638.688 472.173 635.744C472.173 632.8 472.919 630.304 474.413 628.256C475.949 626.165 478.018 624.587 480.621 623.52C483.266 622.453 486.231 621.92 489.517 621.92C495.063 621.92 499.458 623.2 502.701 625.76C505.986 628.32 507.714 631.925 507.885 636.576H492.589C492.546 635.296 492.226 634.379 491.629 633.824C491.031 633.269 490.306 632.992 489.453 632.992C488.855 632.992 488.365 633.205 487.981 633.632C487.597 634.016 487.405 634.571 487.405 635.296C487.405 636.32 487.959 637.173 489.069 637.856C490.221 638.496 492.034 639.285 494.509 640.224C497.367 641.291 499.714 642.315 501.549 643.296C503.426 644.277 505.047 645.643 506.413 647.392C507.778 649.141 508.461 651.339 508.461 653.984C508.461 656.757 507.778 659.253 506.413 661.472C505.047 663.648 503.063 665.355 500.461 666.592C497.858 667.829 494.765 668.448 491.181 668.448Z"/>
</mask>
<path d="M311.714 548.688L301.346 594H283.682L278.434 568.272L273.186 594H255.522L245.154 548.688H260.45L264.546 577.232L270.69 548.688H286.178L292.322 577.232L296.418 548.688H311.714ZM348.553 594L340.041 577.744H339.977V594H325.769V548.688H346.889C350.558 548.688 353.694 549.349 356.297 550.672C358.899 551.952 360.841 553.723 362.121 555.984C363.443 558.203 364.105 560.72 364.105 563.536C364.105 566.565 363.251 569.253 361.545 571.6C359.881 573.947 357.47 575.632 354.313 576.656L364.169 594H348.553ZM339.977 568.272H345.609C346.974 568.272 347.998 567.973 348.681 567.376C349.363 566.736 349.705 565.755 349.705 564.432C349.705 563.237 349.342 562.299 348.617 561.616C347.934 560.933 346.931 560.592 345.609 560.592H339.977V568.272ZM391.812 548.688V594H377.604V548.688H391.812ZM442.773 548.688V559.952H430.741V594H416.533V559.952H404.629V548.688H442.773ZM469.794 548.688V594H455.586V548.688H469.794ZM528.627 594H514.419L499.379 571.216V594H485.171V548.688H499.379L514.419 571.856V548.688H528.627V594ZM571.782 564.176C571.228 563.28 570.438 562.597 569.414 562.128C568.39 561.616 567.153 561.36 565.702 561.36C562.972 561.36 560.86 562.256 559.366 564.048C557.873 565.797 557.126 568.208 557.126 571.28C557.126 574.821 557.958 577.467 559.622 579.216C561.286 580.965 563.846 581.84 567.302 581.84C570.588 581.84 573.233 580.517 575.238 577.872H563.91V567.824H587.014V582.032C585.052 585.403 582.342 588.304 578.886 590.736C575.43 593.125 571.057 594.32 565.766 594.32C561.073 594.32 556.977 593.36 553.478 591.44C550.022 589.477 547.356 586.747 545.478 583.248C543.644 579.749 542.726 575.76 542.726 571.28C542.726 566.8 543.644 562.811 545.478 559.312C547.356 555.813 550.022 553.104 553.478 551.184C556.934 549.221 560.988 548.24 565.638 548.24C571.569 548.24 576.39 549.669 580.102 552.528C583.857 555.387 586.076 559.269 586.758 564.176H571.782ZM380.531 622.688V633.952H368.499V668H354.291V633.952H342.387V622.688H380.531ZM407.553 622.688V668H393.345V622.688H407.553ZM459.986 638.24C459.986 641.099 459.325 643.701 458.002 646.048C456.679 648.352 454.717 650.187 452.114 651.552C449.554 652.917 446.439 653.6 442.77 653.6H437.138V668H422.93V622.688H442.77C448.317 622.688 452.562 624.096 455.506 626.912C458.493 629.728 459.986 633.504 459.986 638.24ZM441.17 642.4C444.114 642.4 445.586 641.013 445.586 638.24C445.586 635.467 444.114 634.08 441.17 634.08H437.138V642.4H441.17ZM491.181 668.448C485.762 668.448 481.282 667.189 477.741 664.672C474.242 662.112 472.343 658.379 472.045 653.472H487.149C487.362 656.075 488.514 657.376 490.605 657.376C491.373 657.376 492.013 657.205 492.525 656.864C493.079 656.48 493.357 655.904 493.357 655.136C493.357 654.069 492.781 653.216 491.629 652.576C490.477 651.893 488.685 651.125 486.253 650.272C483.351 649.248 480.941 648.245 479.021 647.264C477.143 646.283 475.522 644.853 474.157 642.976C472.791 641.099 472.13 638.688 472.173 635.744C472.173 632.8 472.919 630.304 474.413 628.256C475.949 626.165 478.018 624.587 480.621 623.52C483.266 622.453 486.231 621.92 489.517 621.92C495.063 621.92 499.458 623.2 502.701 625.76C505.986 628.32 507.714 631.925 507.885 636.576H492.589C492.546 635.296 492.226 634.379 491.629 633.824C491.031 633.269 490.306 632.992 489.453 632.992C488.855 632.992 488.365 633.205 487.981 633.632C487.597 634.016 487.405 634.571 487.405 635.296C487.405 636.32 487.959 637.173 489.069 637.856C490.221 638.496 492.034 639.285 494.509 640.224C497.367 641.291 499.714 642.315 501.549 643.296C503.426 644.277 505.047 645.643 506.413 647.392C507.778 649.141 508.461 651.339 508.461 653.984C508.461 656.757 507.778 659.253 506.413 661.472C505.047 663.648 503.063 665.355 500.461 666.592C497.858 667.829 494.765 668.448 491.181 668.448Z" fill="white"/>
<path d="M311.714 548.688L314.638 549.357L315.478 545.688H311.714V548.688ZM301.346 594V597H303.737L304.27 594.669L301.346 594ZM283.682 594L280.742 594.6L281.232 597H283.682V594ZM278.434 568.272L281.373 567.672L275.494 567.672L278.434 568.272ZM273.186 594V597H275.636L276.125 594.6L273.186 594ZM255.522 594L252.597 594.669L253.131 597H255.522V594ZM245.154 548.688V545.688H241.39L242.229 549.357L245.154 548.688ZM260.45 548.688L263.419 548.262L263.05 545.688H260.45V548.688ZM264.546 577.232L261.576 577.658L267.479 577.863L264.546 577.232ZM270.69 548.688V545.688H268.267L267.757 548.057L270.69 548.688ZM286.178 548.688L289.111 548.057L288.601 545.688H286.178V548.688ZM292.322 577.232L289.389 577.863L295.291 577.658L292.322 577.232ZM296.418 548.688V545.688H293.818L293.448 548.262L296.418 548.688ZM308.789 548.019L298.421 593.331L304.27 594.669L314.638 549.357L308.789 548.019ZM301.346 591H283.682V597H301.346V591ZM286.621 593.4L281.373 567.672L275.494 568.872L280.742 594.6L286.621 593.4ZM275.494 567.672L270.246 593.4L276.125 594.6L281.373 568.872L275.494 567.672ZM273.186 591H255.522V597H273.186V591ZM258.446 593.331L248.078 548.019L242.229 549.357L252.597 594.669L258.446 593.331ZM245.154 551.688H260.45V545.688H245.154V551.688ZM257.48 549.114L261.576 577.658L267.515 576.806L263.419 548.262L257.48 549.114ZM267.479 577.863L273.623 549.319L267.757 548.057L261.613 576.601L267.479 577.863ZM270.69 551.688H286.178V545.688H270.69V551.688ZM283.245 549.319L289.389 577.863L295.255 576.601L289.111 548.057L283.245 549.319ZM295.291 577.658L299.387 549.114L293.448 548.262L289.352 576.806L295.291 577.658ZM296.418 551.688H311.714V545.688H296.418V551.688ZM348.553 594L345.895 595.392L346.737 597H348.553V594ZM340.041 577.744L342.698 576.352L341.856 574.744H340.041V577.744ZM339.977 577.744V574.744H336.977V577.744H339.977ZM339.977 594V597H342.977V594H339.977ZM325.769 594H322.769V597H325.769V594ZM325.769 548.688V545.688H322.769V548.688H325.769ZM356.297 550.672L354.938 553.346L354.955 553.355L354.973 553.364L356.297 550.672ZM362.121 555.984L359.51 557.462L359.527 557.491L359.544 557.52L362.121 555.984ZM361.545 571.6L359.119 569.835L359.108 569.85L359.098 569.865L361.545 571.6ZM354.313 576.656L353.387 573.802L349.886 574.938L351.704 578.138L354.313 576.656ZM364.169 594V597H369.324L366.777 592.518L364.169 594ZM339.977 568.272H336.977V571.272H339.977V568.272ZM348.681 567.376L350.656 569.634L350.695 569.6L350.733 569.565L348.681 567.376ZM348.617 561.616L346.495 563.737L346.528 563.769L346.561 563.801L348.617 561.616ZM339.977 560.592V557.592H336.977V560.592H339.977ZM351.21 592.608L342.698 576.352L337.383 579.136L345.895 595.392L351.21 592.608ZM340.041 574.744H339.977V580.744H340.041V574.744ZM336.977 577.744V594H342.977V577.744H336.977ZM339.977 591H325.769V597H339.977V591ZM328.769 594V548.688H322.769V594H328.769ZM325.769 551.688H346.889V545.688H325.769V551.688ZM346.889 551.688C350.204 551.688 352.85 552.286 354.938 553.346L357.656 547.998C354.538 546.413 350.912 545.688 346.889 545.688V551.688ZM354.973 553.364C357.1 554.41 358.561 555.785 359.51 557.462L364.732 554.506C363.12 551.66 360.699 549.494 357.621 547.98L354.973 553.364ZM359.544 557.52C360.565 559.233 361.105 561.21 361.105 563.536H367.105C367.105 560.23 366.322 557.172 364.698 554.448L359.544 557.52ZM361.105 563.536C361.105 565.961 360.435 568.025 359.119 569.835L363.971 573.365C366.068 570.482 367.105 567.17 367.105 563.536H361.105ZM359.098 569.865C357.863 571.606 356.028 572.946 353.387 573.802L355.238 579.51C358.912 578.318 361.899 576.287 363.992 573.335L359.098 569.865ZM351.704 578.138L361.56 595.482L366.777 592.518L356.921 575.174L351.704 578.138ZM364.169 591H348.553V597H364.169V591ZM339.977 571.272H345.609V565.272H339.977V571.272ZM345.609 571.272C347.345 571.272 349.208 570.901 350.656 569.634L346.705 565.118C346.788 565.046 346.603 565.272 345.609 565.272V571.272ZM350.733 569.565C352.235 568.156 352.705 566.234 352.705 564.432H346.705C346.705 564.845 346.65 565.074 346.615 565.174C346.586 565.258 346.579 565.235 346.629 565.187L350.733 569.565ZM352.705 564.432C352.705 562.588 352.119 560.793 350.673 559.431L346.561 563.801C346.593 563.831 346.613 563.858 346.634 563.913C346.66 563.98 346.705 564.137 346.705 564.432H352.705ZM350.738 559.495C349.311 558.067 347.426 557.592 345.609 557.592V563.592C346.02 563.592 346.262 563.646 346.386 563.688C346.495 563.725 346.509 563.751 346.495 563.737L350.738 559.495ZM345.609 557.592H339.977V563.592H345.609V557.592ZM336.977 560.592V568.272H342.977V560.592H336.977ZM391.812 548.688H394.812V545.688H391.812V548.688ZM391.812 594V597H394.812V594H391.812ZM377.604 594H374.604V597H377.604V594ZM377.604 548.688V545.688H374.604V548.688H377.604ZM388.812 548.688V594H394.812V548.688H388.812ZM391.812 591H377.604V597H391.812V591ZM380.604 594V548.688H374.604V594H380.604ZM377.604 551.688H391.812V545.688H377.604V551.688ZM442.773 548.688H445.773V545.688H442.773V548.688ZM442.773 559.952V562.952H445.773V559.952H442.773ZM430.741 559.952V556.952H427.741V559.952H430.741ZM430.741 594V597H433.741V594H430.741ZM416.533 594H413.533V597H416.533V594ZM416.533 559.952H419.533V556.952H416.533V559.952ZM404.629 559.952H401.629V562.952H404.629V559.952ZM404.629 548.688V545.688H401.629V548.688H404.629ZM439.773 548.688V559.952H445.773V548.688H439.773ZM442.773 556.952H430.741V562.952H442.773V556.952ZM427.741 559.952V594H433.741V559.952H427.741ZM430.741 591H416.533V597H430.741V591ZM419.533 594V559.952H413.533V594H419.533ZM416.533 556.952H404.629V562.952H416.533V556.952ZM407.629 559.952V548.688H401.629V559.952H407.629ZM404.629 551.688H442.773V545.688H404.629V551.688ZM469.794 548.688H472.794V545.688H469.794V548.688ZM469.794 594V597H472.794V594H469.794ZM455.586 594H452.586V597H455.586V594ZM455.586 548.688V545.688H452.586V548.688H455.586ZM466.794 548.688V594H472.794V548.688H466.794ZM469.794 591H455.586V597H469.794V591ZM458.586 594V548.688H452.586V594H458.586ZM455.586 551.688H469.794V545.688H455.586V551.688ZM528.627 594V597H531.627V594H528.627ZM514.419 594L511.916 595.653L512.805 597H514.419V594ZM499.379 571.216L501.883 569.563L496.379 561.226V571.216H499.379ZM499.379 594V597H502.379V594H499.379ZM485.171 594H482.171V597H485.171V594ZM485.171 548.688V545.688H482.171V548.688H485.171ZM499.379 548.688L501.896 547.055L501.008 545.688H499.379V548.688ZM514.419 571.856L511.903 573.489L517.419 581.987V571.856H514.419ZM514.419 548.688V545.688H511.419V548.688H514.419ZM528.627 548.688H531.627V545.688H528.627V548.688ZM528.627 591H514.419V597H528.627V591ZM516.923 592.347L501.883 569.563L496.876 572.869L511.916 595.653L516.923 592.347ZM496.379 571.216V594H502.379V571.216H496.379ZM499.379 591H485.171V597H499.379V591ZM488.171 594V548.688H482.171V594H488.171ZM485.171 551.688H499.379V545.688H485.171V551.688ZM496.863 550.321L511.903 573.489L516.936 570.223L501.896 547.055L496.863 550.321ZM517.419 571.856V548.688H511.419V571.856H517.419ZM514.419 551.688H528.627V545.688H514.419V551.688ZM525.627 548.688V594H531.627V548.688H525.627ZM571.782 564.176L569.231 565.755L570.111 567.176H571.782V564.176ZM569.414 562.128L568.073 564.811L568.118 564.834L568.164 564.855L569.414 562.128ZM559.366 564.048L561.648 565.996L561.66 565.982L561.671 565.969L559.366 564.048ZM559.622 579.216L557.449 581.284L557.449 581.284L559.622 579.216ZM575.238 577.872L577.629 579.684L581.277 574.872H575.238V577.872ZM563.91 577.872H560.91V580.872H563.91V577.872ZM563.91 567.824V564.824H560.91V567.824H563.91ZM587.014 567.824H590.014V564.824H587.014V567.824ZM587.014 582.032L589.607 583.542L590.014 582.842V582.032H587.014ZM578.886 590.736L580.592 593.204L580.603 593.197L580.613 593.189L578.886 590.736ZM553.478 591.44L551.997 594.049L552.016 594.059L552.035 594.07L553.478 591.44ZM545.478 583.248L542.821 584.641L542.828 584.654L542.835 584.666L545.478 583.248ZM545.478 559.312L542.835 557.894L542.828 557.906L542.821 557.919L545.478 559.312ZM553.478 551.184L554.935 553.806L554.948 553.8L554.96 553.793L553.478 551.184ZM580.102 552.528L578.272 554.905L578.278 554.91L578.285 554.915L580.102 552.528ZM586.758 564.176V567.176H590.205L589.73 563.763L586.758 564.176ZM574.333 562.597C573.446 561.163 572.187 560.099 570.664 559.401L568.164 564.855C568.69 565.096 569.01 565.397 569.231 565.755L574.333 562.597ZM570.756 559.445C569.219 558.676 567.498 558.36 565.702 558.36V564.36C566.808 564.36 567.561 564.556 568.073 564.811L570.756 559.445ZM565.702 558.36C562.25 558.36 559.225 559.532 557.062 562.127L561.671 565.969C562.494 564.98 563.693 564.36 565.702 564.36V558.36ZM557.085 562.1C554.992 564.552 554.126 567.736 554.126 571.28H560.126C560.126 568.68 560.754 567.043 561.648 565.996L557.085 562.1ZM554.126 571.28C554.126 575.236 555.051 578.763 557.449 581.284L561.796 577.148C560.865 576.17 560.126 574.407 560.126 571.28H554.126ZM557.449 581.284C559.886 583.846 563.384 584.84 567.302 584.84V578.84C564.308 578.84 562.686 578.084 561.796 577.148L557.449 581.284ZM567.302 584.84C571.538 584.84 575.063 583.069 577.629 579.684L572.848 576.06C571.402 577.966 569.637 578.84 567.302 578.84V584.84ZM575.238 574.872H563.91V580.872H575.238V574.872ZM566.91 577.872V567.824H560.91V577.872H566.91ZM563.91 570.824H587.014V564.824H563.91V570.824ZM584.014 567.824V582.032H590.014V567.824H584.014ZM584.422 580.522C582.694 583.489 580.292 586.078 577.16 588.283L580.613 593.189C584.392 590.53 587.409 587.316 589.607 583.542L584.422 580.522ZM577.18 588.268C574.342 590.231 570.606 591.32 565.766 591.32V597.32C571.508 597.32 576.519 596.02 580.592 593.204L577.18 588.268ZM565.766 591.32C561.488 591.32 557.906 590.448 554.922 588.81L552.035 594.07C556.048 596.272 560.657 597.32 565.766 597.32V591.32ZM554.96 588.831C551.995 587.148 549.731 584.829 548.122 581.83L542.835 584.666C544.98 588.664 548.05 591.807 551.997 594.049L554.96 588.831ZM548.135 581.855C546.555 578.841 545.726 575.34 545.726 571.28H539.726C539.726 576.18 540.733 580.658 542.821 584.641L548.135 581.855ZM545.726 571.28C545.726 567.22 546.555 563.719 548.135 560.705L542.821 557.919C540.733 561.902 539.726 566.38 539.726 571.28H545.726ZM548.122 560.73C549.728 557.736 551.984 555.446 554.935 553.806L552.021 548.562C548.06 550.762 544.983 553.89 542.835 557.894L548.122 560.73ZM554.96 553.793C557.893 552.127 561.418 551.24 565.638 551.24V545.24C560.557 545.24 555.976 546.316 551.997 548.575L554.96 553.793ZM565.638 551.24C571.085 551.24 575.21 552.547 578.272 554.905L581.933 550.151C577.57 546.792 572.053 545.24 565.638 545.24V551.24ZM578.285 554.915C581.376 557.268 583.207 560.424 583.787 564.589L589.73 563.763C588.944 558.115 586.338 553.505 581.92 550.141L578.285 554.915ZM586.758 561.176H571.782V567.176H586.758V561.176ZM380.531 622.688H383.531V619.688H380.531V622.688ZM380.531 633.952V636.952H383.531V633.952H380.531ZM368.499 633.952V630.952H365.499V633.952H368.499ZM368.499 668V671H371.499V668H368.499ZM354.291 668H351.291V671H354.291V668ZM354.291 633.952H357.291V630.952H354.291V633.952ZM342.387 633.952H339.387V636.952H342.387V633.952ZM342.387 622.688V619.688H339.387V622.688H342.387ZM377.531 622.688V633.952H383.531V622.688H377.531ZM380.531 630.952H368.499V636.952H380.531V630.952ZM365.499 633.952V668H371.499V633.952H365.499ZM368.499 665H354.291V671H368.499V665ZM357.291 668V633.952H351.291V668H357.291ZM354.291 630.952H342.387V636.952H354.291V630.952ZM345.387 633.952V622.688H339.387V633.952H345.387ZM342.387 625.688H380.531V619.688H342.387V625.688ZM407.553 622.688H410.553V619.688H407.553V622.688ZM407.553 668V671H410.553V668H407.553ZM393.345 668H390.345V671H393.345V668ZM393.345 622.688V619.688H390.345V622.688H393.345ZM404.553 622.688V668H410.553V622.688H404.553ZM407.553 665H393.345V671H407.553V665ZM396.345 668V622.688H390.345V668H396.345ZM393.345 625.688H407.553V619.688H393.345V625.688ZM458.002 646.048L460.604 647.542L460.61 647.531L460.615 647.521L458.002 646.048ZM452.114 651.552L450.72 648.895L450.711 648.9L450.702 648.905L452.114 651.552ZM437.138 653.6V650.6H434.138V653.6H437.138ZM437.138 668V671H440.138V668H437.138ZM422.93 668H419.93V671H422.93V668ZM422.93 622.688V619.688H419.93V622.688H422.93ZM455.506 626.912L453.432 629.08L453.44 629.087L453.448 629.095L455.506 626.912ZM437.138 634.08V631.08H434.138V634.08H437.138ZM437.138 642.4H434.138V645.4H437.138V642.4ZM456.986 638.24C456.986 640.615 456.442 642.706 455.389 644.575L460.615 647.521C462.207 644.697 462.986 641.582 462.986 638.24H456.986ZM455.4 644.554C454.391 646.312 452.873 647.766 450.72 648.895L453.508 654.209C456.56 652.607 458.967 650.392 460.604 647.542L455.4 644.554ZM450.702 648.905C448.677 649.985 446.074 650.6 442.77 650.6V656.6C446.804 656.6 450.431 655.849 453.526 654.199L450.702 648.905ZM442.77 650.6H437.138V656.6H442.77V650.6ZM434.138 653.6V668H440.138V653.6H434.138ZM437.138 665H422.93V671H437.138V665ZM425.93 668V622.688H419.93V668H425.93ZM422.93 625.688H442.77V619.688H422.93V625.688ZM442.77 625.688C447.829 625.688 451.223 626.967 453.432 629.08L457.58 624.744C453.901 621.225 448.805 619.688 442.77 619.688V625.688ZM453.448 629.095C455.739 631.255 456.986 634.191 456.986 638.24H462.986C462.986 632.817 461.246 628.201 457.564 624.729L453.448 629.095ZM441.17 645.4C443.061 645.4 445.038 644.958 446.539 643.544C448.074 642.098 448.586 640.136 448.586 638.24H442.586C442.586 638.676 442.527 638.931 442.482 639.059C442.46 639.121 442.442 639.152 442.435 639.163C442.428 639.174 442.425 639.176 442.425 639.176C442.424 639.177 442.414 639.187 442.385 639.203C442.354 639.221 442.297 639.248 442.203 639.278C442.009 639.339 441.68 639.4 441.17 639.4V645.4ZM448.586 638.24C448.586 636.344 448.074 634.382 446.539 632.936C445.038 631.522 443.061 631.08 441.17 631.08V637.08C441.68 637.08 442.009 637.141 442.203 637.202C442.297 637.232 442.354 637.259 442.385 637.277C442.414 637.293 442.424 637.303 442.425 637.304C442.425 637.304 442.428 637.306 442.435 637.317C442.442 637.328 442.46 637.359 442.482 637.421C442.527 637.549 442.586 637.804 442.586 638.24H448.586ZM441.17 631.08H437.138V637.08H441.17V631.08ZM434.138 634.08V642.4H440.138V634.08H434.138ZM437.138 645.4H441.17V639.4H437.138V645.4ZM477.741 664.672L475.969 667.093L475.986 667.105L476.002 667.117L477.741 664.672ZM472.045 653.472V650.472H468.856L469.05 653.654L472.045 653.472ZM487.149 653.472L490.138 653.227L489.913 650.472H487.149V653.472ZM492.525 656.864L494.189 659.36L494.21 659.346L494.232 659.331L492.525 656.864ZM491.629 652.576L490.099 655.157L490.135 655.178L490.172 655.198L491.629 652.576ZM486.253 650.272L485.254 653.101L485.259 653.103L486.253 650.272ZM479.021 647.264L477.631 649.923L477.643 649.929L477.655 649.935L479.021 647.264ZM474.157 642.976L476.583 641.211L476.583 641.211L474.157 642.976ZM472.173 635.744L475.172 635.787L475.173 635.766V635.744H472.173ZM474.413 628.256L471.995 626.48L471.988 626.488L474.413 628.256ZM480.621 623.52L479.499 620.738L479.491 620.741L479.483 620.744L480.621 623.52ZM502.701 625.76L500.842 628.115L500.849 628.121L500.857 628.126L502.701 625.76ZM507.885 636.576V639.576H510.997L510.882 636.466L507.885 636.576ZM492.589 636.576L489.59 636.676L489.687 639.576H492.589V636.576ZM487.981 633.632L490.102 635.753L490.158 635.698L490.21 635.639L487.981 633.632ZM489.069 637.856L487.496 640.411L487.553 640.446L487.612 640.478L489.069 637.856ZM494.509 640.224L493.445 643.029L493.452 643.032L493.46 643.035L494.509 640.224ZM501.549 643.296L500.134 645.941L500.146 645.948L500.159 645.955L501.549 643.296ZM506.413 647.392L504.048 649.238L504.048 649.238L506.413 647.392ZM506.413 661.472L508.954 663.066L508.961 663.055L508.967 663.044L506.413 661.472ZM500.461 666.592L499.172 663.883L500.461 666.592ZM491.181 665.448C486.229 665.448 482.399 664.303 479.479 662.227L476.002 667.117C480.165 670.076 485.294 671.448 491.181 671.448V665.448ZM479.512 662.251C476.836 660.293 475.292 657.439 475.039 653.29L469.05 653.654C469.395 659.318 471.648 663.931 475.969 667.093L479.512 662.251ZM472.045 656.472H487.149V650.472H472.045V656.472ZM484.159 653.717C484.293 655.356 484.753 657.063 485.926 658.389C487.187 659.812 488.89 660.376 490.605 660.376V654.376C490.391 654.376 490.317 654.343 490.33 654.348C490.355 654.358 490.396 654.386 490.419 654.411C490.44 654.436 490.217 654.19 490.138 653.227L484.159 653.717ZM490.605 660.376C491.818 660.376 493.074 660.103 494.189 659.36L490.86 654.368C490.898 654.343 490.915 654.342 490.888 654.349C490.856 654.358 490.768 654.376 490.605 654.376V660.376ZM494.232 659.331C495.718 658.302 496.357 656.73 496.357 655.136H490.357C490.357 655.159 490.353 655.034 490.445 654.843C490.545 654.636 490.692 654.484 490.817 654.397L494.232 659.331ZM496.357 655.136C496.357 652.708 494.926 650.976 493.085 649.954L490.172 655.198C490.447 655.351 490.478 655.433 490.438 655.374C490.417 655.344 490.392 655.296 490.375 655.238C490.358 655.181 490.357 655.143 490.357 655.136H496.357ZM493.158 649.995C491.745 649.158 489.727 648.312 487.246 647.441L485.259 653.103C487.642 653.939 489.208 654.629 490.099 655.157L493.158 649.995ZM487.251 647.443C484.427 646.446 482.149 645.494 480.386 644.593L477.655 649.935C479.732 650.997 482.275 652.05 485.254 653.101L487.251 647.443ZM480.41 644.605C478.981 643.858 477.703 642.751 476.583 641.211L471.73 644.741C473.341 646.955 475.306 648.707 477.631 649.923L480.41 644.605ZM476.583 641.211C475.691 639.985 475.136 638.259 475.172 635.787L469.173 635.701C469.123 639.117 469.891 642.212 471.73 644.741L476.583 641.211ZM475.173 635.744C475.173 633.329 475.776 631.479 476.837 630.024L471.988 626.488C470.063 629.129 469.173 632.271 469.173 635.744H475.173ZM476.83 630.032C478.012 628.423 479.621 627.172 481.758 626.296L479.483 620.744C476.414 622.002 473.885 623.907 471.995 626.48L476.83 630.032ZM481.742 626.302C483.981 625.4 486.558 624.92 489.517 624.92V618.92C485.904 618.92 482.55 619.507 479.499 620.738L481.742 626.302ZM489.517 624.92C494.619 624.92 498.285 626.096 500.842 628.115L504.559 623.405C500.631 620.304 495.507 618.92 489.517 618.92V624.92ZM500.857 628.126C503.355 630.074 504.744 632.804 504.887 636.686L510.882 636.466C510.684 631.047 508.616 626.566 504.544 623.394L500.857 628.126ZM507.885 633.576H492.589V639.576H507.885V633.576ZM495.587 636.476C495.532 634.84 495.113 632.966 493.67 631.626L489.587 636.022C489.465 635.909 489.454 635.831 489.484 635.916C489.518 636.014 489.576 636.248 489.59 636.676L495.587 636.476ZM493.67 631.626C492.49 630.53 491.024 629.992 489.453 629.992V635.992C489.503 635.992 489.534 635.996 489.549 635.999C489.564 636.001 489.568 636.003 489.565 636.002C489.562 636.001 489.559 635.999 489.559 635.999C489.559 636 489.569 636.005 489.587 636.022L493.67 631.626ZM489.453 629.992C488.044 629.992 486.729 630.538 485.751 631.625L490.21 635.639C490.136 635.721 490.009 635.826 489.833 635.903C489.659 635.979 489.517 635.992 489.453 635.992V629.992ZM485.859 631.511C484.744 632.626 484.405 634.051 484.405 635.296H490.405C490.405 635.192 490.419 635.215 490.383 635.317C490.343 635.434 490.256 635.599 490.102 635.753L485.859 631.511ZM484.405 635.296C484.405 637.649 485.776 639.352 487.496 640.411L490.641 635.301C490.362 635.13 490.313 635.034 490.336 635.069C490.349 635.089 490.37 635.128 490.386 635.182C490.401 635.236 490.405 635.278 490.405 635.296H484.405ZM487.612 640.478C488.961 641.228 490.941 642.079 493.445 643.029L495.572 637.419C493.127 636.491 491.48 635.764 490.525 635.234L487.612 640.478ZM493.46 643.035C496.245 644.074 498.458 645.045 500.134 645.941L502.963 640.651C500.97 639.584 498.489 638.507 495.557 637.413L493.46 643.035ZM500.159 645.955C501.639 646.728 502.933 647.809 504.048 649.238L508.777 645.546C507.162 643.476 505.213 641.826 502.938 640.637L500.159 645.955ZM504.048 649.238C504.926 650.364 505.461 651.874 505.461 653.984H511.461C511.461 650.803 510.629 647.919 508.777 645.546L504.048 649.238ZM505.461 653.984C505.461 656.24 504.913 658.185 503.858 659.9L508.967 663.044C510.643 660.322 511.461 657.275 511.461 653.984H505.461ZM503.871 659.878C502.845 661.513 501.325 662.859 499.172 663.883L501.749 669.301C504.802 667.85 507.249 665.783 508.954 663.066L503.871 659.878ZM499.172 663.883C497.058 664.888 494.425 665.448 491.181 665.448V671.448C495.104 671.448 498.658 670.771 501.749 669.301L499.172 663.883Z" fill="black" mask="url(#path-3-outside-1_1009_251)"/>
<rect x="570" y="250" width="126" height="48" fill="#F5F5F5"/>
<mask id="path-6-outside-2_1009_251" maskUnits="userSpaceOnUse" x="333" y="476" width="189" height="54" fill="black">
<rect fill="white" x="333" y="476" width="189" height="54"/>
<path d="M367.221 502.768C369.952 503.408 372.064 504.731 373.557 506.736C375.093 508.699 375.861 510.981 375.861 513.584C375.861 517.552 374.538 520.624 371.893 522.8C369.29 524.933 365.536 526 360.629 526H336.885V480.688H359.989C364.597 480.688 368.224 481.691 370.869 483.696C373.514 485.701 374.837 488.624 374.837 492.464C374.837 495.109 374.133 497.349 372.725 499.184C371.36 500.976 369.525 502.171 367.221 502.768ZM351.093 498.352H356.597C357.877 498.352 358.816 498.096 359.413 497.584C360.053 497.072 360.373 496.283 360.373 495.216C360.373 494.107 360.053 493.296 359.413 492.784C358.816 492.229 357.877 491.952 356.597 491.952H351.093V498.352ZM357.557 514.608C358.837 514.608 359.776 514.373 360.373 513.904C361.013 513.392 361.333 512.581 361.333 511.472C361.333 509.296 360.074 508.208 357.557 508.208H351.093V514.608H357.557ZM403.803 492.016V497.584H417.883V508.272H403.803V514.672H419.803V526H389.595V480.688H419.803V492.016H403.803ZM451.845 526.448C446.427 526.448 441.947 525.189 438.405 522.672C434.907 520.112 433.008 516.379 432.709 511.472H447.813C448.027 514.075 449.179 515.376 451.269 515.376C452.037 515.376 452.677 515.205 453.189 514.864C453.744 514.48 454.021 513.904 454.021 513.136C454.021 512.069 453.445 511.216 452.293 510.576C451.141 509.893 449.349 509.125 446.917 508.272C444.016 507.248 441.605 506.245 439.685 505.264C437.808 504.283 436.187 502.853 434.821 500.976C433.456 499.099 432.795 496.688 432.837 493.744C432.837 490.8 433.584 488.304 435.077 486.256C436.613 484.165 438.683 482.587 441.285 481.52C443.931 480.453 446.896 479.92 450.181 479.92C455.728 479.92 460.123 481.2 463.365 483.76C466.651 486.32 468.379 489.925 468.549 494.576H453.253C453.211 493.296 452.891 492.379 452.293 491.824C451.696 491.269 450.971 490.992 450.117 490.992C449.52 490.992 449.029 491.205 448.645 491.632C448.261 492.016 448.069 492.571 448.069 493.296C448.069 494.32 448.624 495.173 449.733 495.856C450.885 496.496 452.699 497.285 455.173 498.224C458.032 499.291 460.379 500.315 462.213 501.296C464.091 502.277 465.712 503.643 467.077 505.392C468.443 507.141 469.125 509.339 469.125 511.984C469.125 514.757 468.443 517.253 467.077 519.472C465.712 521.648 463.728 523.355 461.125 524.592C458.523 525.829 455.429 526.448 451.845 526.448ZM518.662 480.688V491.952H506.63V526H492.422V491.952H480.518V480.688H518.662Z"/>
</mask>
<path d="M367.221 502.768C369.952 503.408 372.064 504.731 373.557 506.736C375.093 508.699 375.861 510.981 375.861 513.584C375.861 517.552 374.538 520.624 371.893 522.8C369.29 524.933 365.536 526 360.629 526H336.885V480.688H359.989C364.597 480.688 368.224 481.691 370.869 483.696C373.514 485.701 374.837 488.624 374.837 492.464C374.837 495.109 374.133 497.349 372.725 499.184C371.36 500.976 369.525 502.171 367.221 502.768ZM351.093 498.352H356.597C357.877 498.352 358.816 498.096 359.413 497.584C360.053 497.072 360.373 496.283 360.373 495.216C360.373 494.107 360.053 493.296 359.413 492.784C358.816 492.229 357.877 491.952 356.597 491.952H351.093V498.352ZM357.557 514.608C358.837 514.608 359.776 514.373 360.373 513.904C361.013 513.392 361.333 512.581 361.333 511.472C361.333 509.296 360.074 508.208 357.557 508.208H351.093V514.608H357.557ZM403.803 492.016V497.584H417.883V508.272H403.803V514.672H419.803V526H389.595V480.688H419.803V492.016H403.803ZM451.845 526.448C446.427 526.448 441.947 525.189 438.405 522.672C434.907 520.112 433.008 516.379 432.709 511.472H447.813C448.027 514.075 449.179 515.376 451.269 515.376C452.037 515.376 452.677 515.205 453.189 514.864C453.744 514.48 454.021 513.904 454.021 513.136C454.021 512.069 453.445 511.216 452.293 510.576C451.141 509.893 449.349 509.125 446.917 508.272C444.016 507.248 441.605 506.245 439.685 505.264C437.808 504.283 436.187 502.853 434.821 500.976C433.456 499.099 432.795 496.688 432.837 493.744C432.837 490.8 433.584 488.304 435.077 486.256C436.613 484.165 438.683 482.587 441.285 481.52C443.931 480.453 446.896 479.92 450.181 479.92C455.728 479.92 460.123 481.2 463.365 483.76C466.651 486.32 468.379 489.925 468.549 494.576H453.253C453.211 493.296 452.891 492.379 452.293 491.824C451.696 491.269 450.971 490.992 450.117 490.992C449.52 490.992 449.029 491.205 448.645 491.632C448.261 492.016 448.069 492.571 448.069 493.296C448.069 494.32 448.624 495.173 449.733 495.856C450.885 496.496 452.699 497.285 455.173 498.224C458.032 499.291 460.379 500.315 462.213 501.296C464.091 502.277 465.712 503.643 467.077 505.392C468.443 507.141 469.125 509.339 469.125 511.984C469.125 514.757 468.443 517.253 467.077 519.472C465.712 521.648 463.728 523.355 461.125 524.592C458.523 525.829 455.429 526.448 451.845 526.448ZM518.662 480.688V491.952H506.63V526H492.422V491.952H480.518V480.688H518.662Z" fill="white"/>
<path d="M367.221 502.768L366.468 499.864L366.536 505.689L367.221 502.768ZM373.557 506.736L371.151 508.528L371.172 508.557L371.194 508.585L373.557 506.736ZM371.893 522.8L373.795 525.12L373.799 525.117L371.893 522.8ZM336.885 526H333.885V529H336.885V526ZM336.885 480.688V477.688H333.885V480.688H336.885ZM372.725 499.184L370.345 497.358L370.339 497.366L372.725 499.184ZM351.093 498.352H348.093V501.352H351.093V498.352ZM359.413 497.584L357.539 495.241L357.499 495.273L357.461 495.306L359.413 497.584ZM359.413 492.784L357.372 494.982L357.453 495.058L357.539 495.127L359.413 492.784ZM351.093 491.952V488.952H348.093V491.952H351.093ZM360.373 513.904L362.226 516.263L362.237 516.255L362.247 516.247L360.373 513.904ZM351.093 508.208V505.208H348.093V508.208H351.093ZM351.093 514.608H348.093V517.608H351.093V514.608ZM366.536 505.689C368.667 506.188 370.132 507.16 371.151 508.528L375.963 504.944C373.995 502.302 371.236 500.628 367.906 499.847L366.536 505.689ZM371.194 508.585C372.298 509.995 372.861 511.62 372.861 513.584H378.861C378.861 510.343 377.888 507.402 375.92 504.887L371.194 508.585ZM372.861 513.584C372.861 516.814 371.826 518.971 369.987 520.483L373.799 525.117C377.251 522.277 378.861 518.29 378.861 513.584H372.861ZM369.991 520.48C368.123 522.011 365.151 523 360.629 523V529C365.921 529 370.458 527.855 373.795 525.12L369.991 520.48ZM360.629 523H336.885V529H360.629V523ZM339.885 526V480.688H333.885V526H339.885ZM336.885 483.688H359.989V477.688H336.885V483.688ZM359.989 483.688C364.192 483.688 367.101 484.604 369.057 486.087L372.681 481.305C369.346 478.777 365.002 477.688 359.989 477.688V483.688ZM369.057 486.087C370.83 487.431 371.837 489.396 371.837 492.464H377.837C377.837 487.852 376.199 483.972 372.681 481.305L369.057 486.087ZM371.837 492.464C371.837 494.548 371.294 496.121 370.345 497.358L375.105 501.01C376.972 498.578 377.837 495.67 377.837 492.464H371.837ZM370.339 497.366C369.405 498.592 368.161 499.425 366.468 499.864L367.974 505.672C370.889 504.916 373.314 503.36 375.111 501.002L370.339 497.366ZM351.093 501.352H356.597V495.352H351.093V501.352ZM356.597 501.352C358.173 501.352 359.973 501.055 361.365 499.862L357.461 495.306C357.569 495.213 357.612 495.228 357.472 495.266C357.326 495.305 357.049 495.352 356.597 495.352V501.352ZM361.287 499.927C362.842 498.682 363.373 496.897 363.373 495.216H357.373C357.373 495.457 357.336 495.522 357.353 495.481C357.362 495.458 357.382 495.417 357.419 495.367C357.456 495.317 357.498 495.274 357.539 495.241L361.287 499.927ZM363.373 495.216C363.373 493.539 362.87 491.707 361.287 490.441L357.539 495.127C357.49 495.087 357.443 495.039 357.405 494.986C357.367 494.934 357.349 494.894 357.343 494.877C357.332 494.851 357.373 494.94 357.373 495.216H363.373ZM361.454 490.586C360.059 489.29 358.22 488.952 356.597 488.952V494.952C357.032 494.952 357.287 495.001 357.411 495.037C357.524 495.071 357.474 495.077 357.372 494.982L361.454 490.586ZM356.597 488.952H351.093V494.952H356.597V488.952ZM348.093 491.952V498.352H354.093V491.952H348.093ZM357.557 517.608C359.09 517.608 360.845 517.348 362.226 516.263L358.52 511.545C358.631 511.458 358.661 511.48 358.493 511.522C358.324 511.564 358.025 511.608 357.557 511.608V517.608ZM362.247 516.247C363.83 514.981 364.333 513.149 364.333 511.472H358.333C358.333 511.748 358.292 511.837 358.303 511.811C358.309 511.794 358.327 511.754 358.365 511.702C358.403 511.649 358.45 511.601 358.499 511.561L362.247 516.247ZM364.333 511.472C364.333 509.798 363.829 508.032 362.351 506.754C360.957 505.549 359.18 505.208 357.557 505.208V511.208C357.98 511.208 358.24 511.255 358.378 511.295C358.508 511.332 358.495 511.352 358.427 511.294C358.35 511.227 358.308 511.15 358.298 511.123C358.294 511.114 358.333 511.21 358.333 511.472H364.333ZM357.557 505.208H351.093V511.208H357.557V505.208ZM348.093 508.208V514.608H354.093V508.208H348.093ZM351.093 517.608H357.557V511.608H351.093V517.608ZM403.803 492.016V489.016H400.803V492.016H403.803ZM403.803 497.584H400.803V500.584H403.803V497.584ZM417.883 497.584H420.883V494.584H417.883V497.584ZM417.883 508.272V511.272H420.883V508.272H417.883ZM403.803 508.272V505.272H400.803V508.272H403.803ZM403.803 514.672H400.803V517.672H403.803V514.672ZM419.803 514.672H422.803V511.672H419.803V514.672ZM419.803 526V529H422.803V526H419.803ZM389.595 526H386.595V529H389.595V526ZM389.595 480.688V477.688H386.595V480.688H389.595ZM419.803 480.688H422.803V477.688H419.803V480.688ZM419.803 492.016V495.016H422.803V492.016H419.803ZM400.803 492.016V497.584H406.803V492.016H400.803ZM403.803 500.584H417.883V494.584H403.803V500.584ZM414.883 497.584V508.272H420.883V497.584H414.883ZM417.883 505.272H403.803V511.272H417.883V505.272ZM400.803 508.272V514.672H406.803V508.272H400.803ZM403.803 517.672H419.803V511.672H403.803V517.672ZM416.803 514.672V526H422.803V514.672H416.803ZM419.803 523H389.595V529H419.803V523ZM392.595 526V480.688H386.595V526H392.595ZM389.595 483.688H419.803V477.688H389.595V483.688ZM416.803 480.688V492.016H422.803V480.688H416.803ZM419.803 489.016H403.803V495.016H419.803V489.016ZM438.405 522.672L436.634 525.093L436.651 525.105L436.667 525.117L438.405 522.672ZM432.709 511.472V508.472H429.521L429.715 511.654L432.709 511.472ZM447.813 511.472L450.803 511.227L450.578 508.472H447.813V511.472ZM453.189 514.864L454.854 517.36L454.875 517.346L454.897 517.331L453.189 514.864ZM452.293 510.576L450.764 513.157L450.8 513.178L450.837 513.198L452.293 510.576ZM446.917 508.272L445.919 511.101L445.924 511.103L446.917 508.272ZM439.685 505.264L438.296 507.923L438.308 507.929L438.32 507.935L439.685 505.264ZM434.821 500.976L437.248 499.211L437.248 499.211L434.821 500.976ZM432.837 493.744L435.837 493.787L435.837 493.766V493.744H432.837ZM435.077 486.256L432.66 484.48L432.653 484.488L435.077 486.256ZM441.285 481.52L440.164 478.738L440.156 478.741L440.148 478.744L441.285 481.52ZM463.365 483.76L461.507 486.115L461.514 486.121L461.522 486.126L463.365 483.76ZM468.549 494.576V497.576H471.662L471.547 494.466L468.549 494.576ZM453.253 494.576L450.255 494.676L450.352 497.576H453.253V494.576ZM448.645 491.632L450.767 493.753L450.823 493.698L450.875 493.639L448.645 491.632ZM449.733 495.856L448.161 498.411L448.218 498.446L448.277 498.478L449.733 495.856ZM455.173 498.224L454.11 501.029L454.117 501.032L454.125 501.035L455.173 498.224ZM462.213 501.296L460.799 503.941L460.811 503.948L460.824 503.955L462.213 501.296ZM467.077 505.392L464.713 507.238L464.713 507.238L467.077 505.392ZM467.077 519.472L469.619 521.066L469.626 521.055L469.632 521.044L467.077 519.472ZM461.125 524.592L459.837 521.883L461.125 524.592ZM451.845 523.448C446.894 523.448 443.064 522.303 440.144 520.227L436.667 525.117C440.83 528.076 445.959 529.448 451.845 529.448V523.448ZM440.177 520.251C437.501 518.293 435.957 515.439 435.704 511.29L429.715 511.654C430.06 517.318 432.313 521.931 436.634 525.093L440.177 520.251ZM432.709 514.472H447.813V508.472H432.709V514.472ZM444.824 511.717C444.958 513.356 445.418 515.063 446.591 516.389C447.852 517.812 449.555 518.376 451.269 518.376V512.376C451.056 512.376 450.982 512.343 450.995 512.348C451.02 512.358 451.061 512.386 451.084 512.411C451.105 512.436 450.882 512.19 450.803 511.227L444.824 511.717ZM451.269 518.376C452.483 518.376 453.739 518.103 454.854 517.36L451.525 512.368C451.563 512.343 451.58 512.342 451.553 512.349C451.521 512.358 451.433 512.376 451.269 512.376V518.376ZM454.897 517.331C456.383 516.302 457.021 514.73 457.021 513.136H451.021C451.021 513.159 451.018 513.034 451.11 512.843C451.21 512.636 451.357 512.484 451.482 512.397L454.897 517.331ZM457.021 513.136C457.021 510.708 455.591 508.976 453.75 507.954L450.837 513.198C451.112 513.351 451.143 513.433 451.103 513.374C451.082 513.344 451.057 513.296 451.04 513.238C451.023 513.181 451.021 513.143 451.021 513.136H457.021ZM453.823 507.995C452.41 507.158 450.392 506.312 447.911 505.441L445.924 511.103C448.307 511.939 449.873 512.629 450.764 513.157L453.823 507.995ZM447.916 505.443C445.092 504.446 442.814 503.494 441.051 502.593L438.32 507.935C440.397 508.997 442.94 510.05 445.919 511.101L447.916 505.443ZM441.075 502.605C439.646 501.858 438.368 500.751 437.248 499.211L432.395 502.741C434.006 504.955 435.971 506.707 438.296 507.923L441.075 502.605ZM437.248 499.211C436.356 497.985 435.801 496.259 435.837 493.787L429.838 493.701C429.788 497.117 430.556 500.212 432.395 502.741L437.248 499.211ZM435.837 493.744C435.837 491.329 436.441 489.479 437.502 488.024L432.653 484.488C430.728 487.129 429.837 490.271 429.837 493.744H435.837ZM437.495 488.032C438.677 486.423 440.286 485.172 442.423 484.296L440.148 478.744C437.079 480.002 434.55 481.907 432.66 484.48L437.495 488.032ZM442.407 484.302C444.646 483.4 447.223 482.92 450.181 482.92V476.92C446.569 476.92 443.215 477.507 440.164 478.738L442.407 484.302ZM450.181 482.92C455.284 482.92 458.95 484.096 461.507 486.115L465.224 481.405C461.296 478.304 456.172 476.92 450.181 476.92V482.92ZM461.522 486.126C464.02 488.074 465.409 490.804 465.552 494.686L471.547 494.466C471.349 489.047 469.281 484.566 465.209 481.394L461.522 486.126ZM468.549 491.576H453.253V497.576H468.549V491.576ZM456.252 494.476C456.197 492.84 455.778 490.966 454.335 489.626L450.252 494.022C450.13 493.909 450.119 493.831 450.149 493.916C450.183 494.014 450.241 494.248 450.255 494.676L456.252 494.476ZM454.335 489.626C453.155 488.53 451.689 487.992 450.117 487.992V493.992C450.168 493.992 450.199 493.996 450.214 493.999C450.229 494.001 450.233 494.003 450.23 494.002C450.227 494.001 450.224 493.999 450.224 493.999C450.224 494 450.234 494.005 450.252 494.022L454.335 489.626ZM450.117 487.992C448.709 487.992 447.394 488.538 446.416 489.625L450.875 493.639C450.801 493.721 450.674 493.826 450.498 493.903C450.324 493.979 450.182 493.992 450.117 493.992V487.992ZM446.524 489.511C445.409 490.626 445.069 492.051 445.069 493.296H451.069C451.069 493.192 451.084 493.215 451.048 493.317C451.008 493.434 450.921 493.599 450.767 493.753L446.524 489.511ZM445.069 493.296C445.069 495.649 446.441 497.352 448.161 498.411L451.306 493.301C451.027 493.13 450.978 493.034 451.001 493.069C451.014 493.089 451.035 493.128 451.051 493.182C451.066 493.236 451.069 493.278 451.069 493.296H445.069ZM448.277 498.478C449.626 499.228 451.606 500.079 454.11 501.029L456.237 495.419C453.792 494.491 452.145 493.764 451.19 493.234L448.277 498.478ZM454.125 501.035C456.91 502.074 459.123 503.045 460.799 503.941L463.628 498.651C461.635 497.584 459.154 496.507 456.222 495.413L454.125 501.035ZM460.824 503.955C462.304 504.728 463.598 505.809 464.713 507.238L469.442 503.546C467.827 501.476 465.878 499.826 463.603 498.637L460.824 503.955ZM464.713 507.238C465.591 508.364 466.125 509.874 466.125 511.984H472.125C472.125 508.803 471.294 505.919 469.442 503.546L464.713 507.238ZM466.125 511.984C466.125 514.24 465.578 516.185 464.523 517.9L469.632 521.044C471.308 518.322 472.125 515.275 472.125 511.984H466.125ZM464.536 517.878C463.51 519.513 461.99 520.859 459.837 521.883L462.414 527.301C465.467 525.85 467.914 523.783 469.619 521.066L464.536 517.878ZM459.837 521.883C457.723 522.888 455.09 523.448 451.845 523.448V529.448C455.769 529.448 459.323 528.771 462.414 527.301L459.837 521.883ZM518.662 480.688H521.662V477.688H518.662V480.688ZM518.662 491.952V494.952H521.662V491.952H518.662ZM506.63 491.952V488.952H503.63V491.952H506.63ZM506.63 526V529H509.63V526H506.63ZM492.422 526H489.422V529H492.422V526ZM492.422 491.952H495.422V488.952H492.422V491.952ZM480.518 491.952H477.518V494.952H480.518V491.952ZM480.518 480.688V477.688H477.518V480.688H480.518ZM515.662 480.688V491.952H521.662V480.688H515.662ZM518.662 488.952H506.63V494.952H518.662V488.952ZM503.63 491.952V526H509.63V491.952H503.63ZM506.63 523H492.422V529H506.63V523ZM495.422 526V491.952H489.422V526H495.422ZM492.422 488.952H480.518V494.952H492.422V488.952ZM483.518 491.952V480.688H477.518V491.952H483.518ZM480.518 483.688H518.662V477.688H480.518V483.688Z" fill="black" mask="url(#path-6-outside-2_1009_251)"/>
<path d="M385.35 950.38V953.02H382.53V961H379.2V953.02H376.41V950.38H385.35ZM393.528 961.105C392.528 961.105 391.608 960.87 390.768 960.4C389.938 959.93 389.278 959.28 388.788 958.45C388.298 957.62 388.053 956.685 388.053 955.645C388.053 954.605 388.298 953.67 388.788 952.84C389.278 952.01 389.938 951.365 390.768 950.905C391.608 950.435 392.528 950.2 393.528 950.2C394.528 950.2 395.443 950.435 396.273 950.905C397.103 951.365 397.758 952.01 398.238 952.84C398.728 953.67 398.973 954.605 398.973 955.645C398.973 956.685 398.728 957.62 398.238 958.45C397.758 959.28 397.098 959.93 396.258 960.4C395.428 960.87 394.518 961.105 393.528 961.105ZM393.528 958C394.188 958 394.698 957.79 395.058 957.37C395.418 956.94 395.598 956.365 395.598 955.645C395.598 954.915 395.418 954.34 395.058 953.92C394.698 953.49 394.188 953.275 393.528 953.275C392.858 953.275 392.343 953.49 391.983 953.92C391.623 954.34 391.443 954.915 391.443 955.645C391.443 956.365 391.623 956.94 391.983 957.37C392.343 957.79 392.858 958 393.528 958ZM407.449 961.105C406.449 961.105 405.529 960.87 404.689 960.4C403.859 959.93 403.199 959.28 402.709 958.45C402.219 957.62 401.974 956.685 401.974 955.645C401.974 954.605 402.219 953.67 402.709 952.84C403.199 952.01 403.859 951.365 404.689 950.905C405.529 950.435 406.449 950.2 407.449 950.2C408.449 950.2 409.364 950.435 410.194 950.905C411.024 951.365 411.679 952.01 412.159 952.84C412.649 953.67 412.894 954.605 412.894 955.645C412.894 956.685 412.649 957.62 412.159 958.45C411.679 959.28 411.019 959.93 410.179 960.4C409.349 960.87 408.439 961.105 407.449 961.105ZM407.449 958C408.109 958 408.619 957.79 408.979 957.37C409.339 956.94 409.519 956.365 409.519 955.645C409.519 954.915 409.339 954.34 408.979 953.92C408.619 953.49 408.109 953.275 407.449 953.275C406.779 953.275 406.264 953.49 405.904 953.92C405.544 954.34 405.364 954.915 405.364 955.645C405.364 956.365 405.544 956.94 405.904 957.37C406.264 957.79 406.779 958 407.449 958ZM426.381 961H423.051L419.526 955.66V961H416.196V950.38H419.526L423.051 955.81V950.38H426.381V961ZM440.185 950.38L436.375 957.775V961H433.045V957.775L429.235 950.38H433.045L434.74 954.145L436.435 950.38H440.185ZM446.732 958.345H450.992V961H443.042V958.495L447.242 953.02H443.042V950.38H450.992V952.885L446.732 958.345Z" fill="black"/>
<path d="M600.02 273.952C600.02 268.416 601.188 264.064 603.524 260.896C605.892 257.728 609.524 256.144 614.42 256.144C619.284 256.144 622.9 257.744 625.268 260.944C627.636 264.112 628.82 268.448 628.82 273.952C628.82 279.488 627.636 283.856 625.268 287.056C622.9 290.224 619.284 291.808 614.42 291.808C609.524 291.808 605.892 290.224 603.524 287.056C601.188 283.856 600.02 279.488 600.02 273.952ZM618.308 273.952C618.308 271.392 618.052 269.472 617.54 268.192C617.028 266.88 615.988 266.224 614.42 266.224C612.82 266.224 611.764 266.88 611.252 268.192C610.74 269.472 610.484 271.392 610.484 273.952C610.484 276.544 610.74 278.496 611.252 279.808C611.764 281.088 612.82 281.728 614.42 281.728C615.988 281.728 617.028 281.088 617.54 279.808C618.052 278.496 618.308 276.544 618.308 273.952ZM639.145 267.904C639.241 264.096 640.345 261.184 642.457 259.168C644.601 257.152 647.625 256.144 651.529 256.144C654.057 256.144 656.217 256.576 658.009 257.44C659.801 258.304 661.145 259.472 662.041 260.944C662.969 262.416 663.433 264.08 663.433 265.936C663.433 268.176 662.905 269.936 661.849 271.216C660.793 272.464 659.609 273.312 658.297 273.76V273.952C662.137 275.392 664.057 278.064 664.057 281.968C664.057 284.016 663.577 285.824 662.617 287.392C661.657 288.96 660.281 290.176 658.489 291.04C656.729 291.904 654.633 292.336 652.201 292.336C648.041 292.336 644.777 291.344 642.409 289.36C640.041 287.376 638.825 284.272 638.761 280.048H649.129C649.065 281.2 649.225 282.08 649.609 282.688C650.025 283.264 650.729 283.552 651.721 283.552C652.297 283.552 652.777 283.344 653.161 282.928C653.545 282.48 653.737 281.904 653.737 281.2C653.737 280.304 653.433 279.632 652.825 279.184C652.249 278.704 651.257 278.464 649.849 278.464H648.073V269.872H649.801C651.977 270 653.065 269.136 653.065 267.28C653.065 266.48 652.889 265.888 652.537 265.504C652.217 265.12 651.801 264.928 651.289 264.928C650.105 264.928 649.513 265.92 649.513 267.904H639.145Z" fill="black"/>
</g>
</g>
</g>
<defs>
<filter id="filter0_d_1009_251" x="62.6" y="139.6" width="697.8" height="944.8" filterUnits="userSpaceOnUse" color-interpolation-filters="sRGB">
<feFlood flood-opacity="0" result="BackgroundImageFix"/>
<feColorMatrix in="SourceAlpha" type="matrix" values="0 0 0 0 0 0 0 0 0 0 0 0 0 0 0 0 0 0 127 0" result="hardAlpha"/>
<feOffset dx="13" dy="12"/>
<feGaussianBlur stdDeviation="25.7"/>
<feComposite in2="hardAlpha" operator="out"/>
<feColorMatrix type="matrix" values="0 0 0 0 0 0 0 0 0 0 0 0 0 0 0 0 0 0 0.25 0"/>
<feBlend mode="normal" in2="BackgroundImageFix" result="effect1_dropShadow_1009_251"/>
<feBlend mode="normal" in="SourceGraphic" in2="effect1_dropShadow_1009_251" result="shape"/>
</filter>
<filter id="filter1_f_1009_251" x="119" y="177" width="8.00006" height="846" filterUnits="userSpaceOnUse" color-interpolation-filters="sRGB">
<feFlood flood-opacity="0" result="BackgroundImageFix"/>
<feBlend mode="normal" in="SourceGraphic" in2="BackgroundImageFix" result="shape"/>
<feGaussianBlur stdDeviation="1" result="effect1_foregroundBlur_1009_251"/>
</filter>
<filter id="filter2_f_1009_251" x="123" y="177" width="8.00006" height="846" filterUnits="userSpaceOnUse" color-interpolation-filters="sRGB">
<feFlood flood-opacity="0" result="BackgroundImageFix"/>
<feBlend mode="normal" in="SourceGraphic" in2="BackgroundImageFix" result="shape"/>
<feGaussianBlur stdDeviation="1" result="effect1_foregroundBlur_1009_251"/>
</filter>
<clipPath id="clip0_1009_251">
<rect width="797" height="1200" fill="white"/>
</clipPath>
<clipPath id="clip1_1009_251">
<rect width="595" height="842" fill="white" transform="translate(101 179)"/>
</clipPath>
</defs>
</svg>
