<svg width="797" height="1200" viewBox="0 0 797 1200" fill="none" xmlns="http://www.w3.org/2000/svg">
<g clip-path="url(#clip0_1008_222)">
<rect width="797" height="1200" fill="#FFE020"/>
<g filter="url(#filter0_d_1008_222)">
<g clip-path="url(#clip1_1008_222)">
<rect width="595" height="842" transform="translate(101 179)" fill="#FFE020"/>
<g opacity="0.78" filter="url(#filter1_f_1008_222)">
<line x1="123" y1="179" x2="123" y2="1021" stroke="black" stroke-opacity="0.31" stroke-width="4"/>
</g>
<g opacity="0.78" filter="url(#filter2_f_1008_222)">
<line x1="127" y1="179" x2="127" y2="1021" stroke="white" stroke-opacity="0.62" stroke-width="4"/>
</g>
<mask id="path-3-outside-1_1008_222" maskUnits="userSpaceOnUse" x="251" y="545" width="350" height="127" fill="black">
<rect fill="white" x="251" y="545" width="350" height="127"/>
<path d="M321.631 548.688L311.263 594H293.599L288.351 568.272L283.103 594H265.439L255.071 548.688H270.367L274.463 577.232L280.607 548.688H296.095L302.239 577.232L306.335 548.688H321.631ZM358.47 594L349.958 577.744H349.894V594H335.686V548.688H356.806C360.476 548.688 363.612 549.349 366.214 550.672C368.817 551.952 370.758 553.723 372.038 555.984C373.361 558.203 374.022 560.72 374.022 563.536C374.022 566.565 373.169 569.253 371.462 571.6C369.798 573.947 367.388 575.632 364.23 576.656L374.086 594H358.47ZM349.894 568.272H355.526C356.892 568.272 357.916 567.973 358.598 567.376C359.281 566.736 359.622 565.755 359.622 564.432C359.622 563.237 359.26 562.299 358.534 561.616C357.852 560.933 356.849 560.592 355.526 560.592H349.894V568.272ZM401.729 548.688V594H387.521V548.688H401.729ZM452.69 548.688V559.952H440.658V594H426.45V559.952H414.546V548.688H452.69ZM479.712 548.688V594H465.504V548.688H479.712ZM538.545 594H524.337L509.297 571.216V594H495.089V548.688H509.297L524.337 571.856V548.688H538.545V594ZM581.7 564.176C581.145 563.28 580.356 562.597 579.332 562.128C578.308 561.616 577.07 561.36 575.62 561.36C572.889 561.36 570.777 562.256 569.284 564.048C567.79 565.797 567.044 568.208 567.044 571.28C567.044 574.821 567.876 577.467 569.54 579.216C571.204 580.965 573.764 581.84 577.22 581.84C580.505 581.84 583.15 580.517 585.156 577.872H573.828V567.824H596.932V582.032C594.969 585.403 592.26 588.304 588.804 590.736C585.348 593.125 580.974 594.32 575.684 594.32C570.99 594.32 566.894 593.36 563.396 591.44C559.94 589.477 557.273 586.747 555.396 583.248C553.561 579.749 552.644 575.76 552.644 571.28C552.644 566.8 553.561 562.811 555.396 559.312C557.273 555.813 559.94 553.104 563.396 551.184C566.852 549.221 570.905 548.24 575.556 548.24C581.486 548.24 586.308 549.669 590.02 552.528C593.774 555.387 595.993 559.269 596.676 564.176H581.7ZM317.684 668.448C312.266 668.448 307.786 667.189 304.244 664.672C300.746 662.112 298.847 658.379 298.548 653.472H313.652C313.866 656.075 315.018 657.376 317.108 657.376C317.876 657.376 318.516 657.205 319.028 656.864C319.583 656.48 319.86 655.904 319.86 655.136C319.86 654.069 319.284 653.216 318.132 652.576C316.98 651.893 315.188 651.125 312.756 650.272C309.855 649.248 307.444 648.245 305.524 647.264C303.647 646.283 302.026 644.853 300.66 642.976C299.295 641.099 298.634 638.688 298.676 635.744C298.676 632.8 299.423 630.304 300.916 628.256C302.452 626.165 304.522 624.587 307.124 623.52C309.77 622.453 312.735 621.92 316.02 621.92C321.567 621.92 325.962 623.2 329.204 625.76C332.49 628.32 334.218 631.925 334.388 636.576H319.092C319.05 635.296 318.73 634.379 318.132 633.824C317.535 633.269 316.81 632.992 315.956 632.992C315.359 632.992 314.868 633.205 314.484 633.632C314.1 634.016 313.908 634.571 313.908 635.296C313.908 636.32 314.463 637.173 315.572 637.856C316.724 638.496 318.538 639.285 321.012 640.224C323.871 641.291 326.218 642.315 328.052 643.296C329.93 644.277 331.551 645.643 332.916 647.392C334.282 649.141 334.964 651.339 334.964 653.984C334.964 656.757 334.282 659.253 332.916 661.472C331.551 663.648 329.567 665.355 326.964 666.592C324.362 667.829 321.268 668.448 317.684 668.448ZM376.308 668L363.124 648.352V668H348.916V622.688H363.124V641.76L376.116 622.688H392.18L376.564 644.384L393.204 668H376.308ZM420.397 622.688V668H406.189V622.688H420.397ZM449.982 657.248H463.678V668H435.774V622.688H449.982V657.248ZM491.317 657.248H505.013V668H477.109V622.688H491.317V657.248ZM536.172 668.448C530.753 668.448 526.273 667.189 522.732 664.672C519.233 662.112 517.334 658.379 517.036 653.472H532.14C532.353 656.075 533.505 657.376 535.596 657.376C536.364 657.376 537.004 657.205 537.516 656.864C538.07 656.48 538.348 655.904 538.348 655.136C538.348 654.069 537.772 653.216 536.62 652.576C535.468 651.893 533.676 651.125 531.244 650.272C528.342 649.248 525.932 648.245 524.012 647.264C522.134 646.283 520.513 644.853 519.148 642.976C517.782 641.099 517.121 638.688 517.164 635.744C517.164 632.8 517.91 630.304 519.404 628.256C520.94 626.165 523.009 624.587 525.612 623.52C528.257 622.453 531.222 621.92 534.508 621.92C540.054 621.92 544.449 623.2 547.692 625.76C550.977 628.32 552.705 631.925 552.876 636.576H537.58C537.537 635.296 537.217 634.379 536.62 633.824C536.022 633.269 535.297 632.992 534.444 632.992C533.846 632.992 533.356 633.205 532.972 633.632C532.588 634.016 532.396 634.571 532.396 635.296C532.396 636.32 532.95 637.173 534.06 637.856C535.212 638.496 537.025 639.285 539.5 640.224C542.358 641.291 544.705 642.315 546.54 643.296C548.417 644.277 550.038 645.643 551.404 647.392C552.769 649.141 553.452 651.339 553.452 653.984C553.452 656.757 552.769 659.253 551.404 661.472C550.038 663.648 548.054 665.355 545.452 666.592C542.849 667.829 539.756 668.448 536.172 668.448Z"/>
</mask>
<path d="M321.631 548.688L311.263 594H293.599L288.351 568.272L283.103 594H265.439L255.071 548.688H270.367L274.463 577.232L280.607 548.688H296.095L302.239 577.232L306.335 548.688H321.631ZM358.47 594L349.958 577.744H349.894V594H335.686V548.688H356.806C360.476 548.688 363.612 549.349 366.214 550.672C368.817 551.952 370.758 553.723 372.038 555.984C373.361 558.203 374.022 560.72 374.022 563.536C374.022 566.565 373.169 569.253 371.462 571.6C369.798 573.947 367.388 575.632 364.23 576.656L374.086 594H358.47ZM349.894 568.272H355.526C356.892 568.272 357.916 567.973 358.598 567.376C359.281 566.736 359.622 565.755 359.622 564.432C359.622 563.237 359.26 562.299 358.534 561.616C357.852 560.933 356.849 560.592 355.526 560.592H349.894V568.272ZM401.729 548.688V594H387.521V548.688H401.729ZM452.69 548.688V559.952H440.658V594H426.45V559.952H414.546V548.688H452.69ZM479.712 548.688V594H465.504V548.688H479.712ZM538.545 594H524.337L509.297 571.216V594H495.089V548.688H509.297L524.337 571.856V548.688H538.545V594ZM581.7 564.176C581.145 563.28 580.356 562.597 579.332 562.128C578.308 561.616 577.07 561.36 575.62 561.36C572.889 561.36 570.777 562.256 569.284 564.048C567.79 565.797 567.044 568.208 567.044 571.28C567.044 574.821 567.876 577.467 569.54 579.216C571.204 580.965 573.764 581.84 577.22 581.84C580.505 581.84 583.15 580.517 585.156 577.872H573.828V567.824H596.932V582.032C594.969 585.403 592.26 588.304 588.804 590.736C585.348 593.125 580.974 594.32 575.684 594.32C570.99 594.32 566.894 593.36 563.396 591.44C559.94 589.477 557.273 586.747 555.396 583.248C553.561 579.749 552.644 575.76 552.644 571.28C552.644 566.8 553.561 562.811 555.396 559.312C557.273 555.813 559.94 553.104 563.396 551.184C566.852 549.221 570.905 548.24 575.556 548.24C581.486 548.24 586.308 549.669 590.02 552.528C593.774 555.387 595.993 559.269 596.676 564.176H581.7ZM317.684 668.448C312.266 668.448 307.786 667.189 304.244 664.672C300.746 662.112 298.847 658.379 298.548 653.472H313.652C313.866 656.075 315.018 657.376 317.108 657.376C317.876 657.376 318.516 657.205 319.028 656.864C319.583 656.48 319.86 655.904 319.86 655.136C319.86 654.069 319.284 653.216 318.132 652.576C316.98 651.893 315.188 651.125 312.756 650.272C309.855 649.248 307.444 648.245 305.524 647.264C303.647 646.283 302.026 644.853 300.66 642.976C299.295 641.099 298.634 638.688 298.676 635.744C298.676 632.8 299.423 630.304 300.916 628.256C302.452 626.165 304.522 624.587 307.124 623.52C309.77 622.453 312.735 621.92 316.02 621.92C321.567 621.92 325.962 623.2 329.204 625.76C332.49 628.32 334.218 631.925 334.388 636.576H319.092C319.05 635.296 318.73 634.379 318.132 633.824C317.535 633.269 316.81 632.992 315.956 632.992C315.359 632.992 314.868 633.205 314.484 633.632C314.1 634.016 313.908 634.571 313.908 635.296C313.908 636.32 314.463 637.173 315.572 637.856C316.724 638.496 318.538 639.285 321.012 640.224C323.871 641.291 326.218 642.315 328.052 643.296C329.93 644.277 331.551 645.643 332.916 647.392C334.282 649.141 334.964 651.339 334.964 653.984C334.964 656.757 334.282 659.253 332.916 661.472C331.551 663.648 329.567 665.355 326.964 666.592C324.362 667.829 321.268 668.448 317.684 668.448ZM376.308 668L363.124 648.352V668H348.916V622.688H363.124V641.76L376.116 622.688H392.18L376.564 644.384L393.204 668H376.308ZM420.397 622.688V668H406.189V622.688H420.397ZM449.982 657.248H463.678V668H435.774V622.688H449.982V657.248ZM491.317 657.248H505.013V668H477.109V622.688H491.317V657.248ZM536.172 668.448C530.753 668.448 526.273 667.189 522.732 664.672C519.233 662.112 517.334 658.379 517.036 653.472H532.14C532.353 656.075 533.505 657.376 535.596 657.376C536.364 657.376 537.004 657.205 537.516 656.864C538.07 656.48 538.348 655.904 538.348 655.136C538.348 654.069 537.772 653.216 536.62 652.576C535.468 651.893 533.676 651.125 531.244 650.272C528.342 649.248 525.932 648.245 524.012 647.264C522.134 646.283 520.513 644.853 519.148 642.976C517.782 641.099 517.121 638.688 517.164 635.744C517.164 632.8 517.91 630.304 519.404 628.256C520.94 626.165 523.009 624.587 525.612 623.52C528.257 622.453 531.222 621.92 534.508 621.92C540.054 621.92 544.449 623.2 547.692 625.76C550.977 628.32 552.705 631.925 552.876 636.576H537.58C537.537 635.296 537.217 634.379 536.62 633.824C536.022 633.269 535.297 632.992 534.444 632.992C533.846 632.992 533.356 633.205 532.972 633.632C532.588 634.016 532.396 634.571 532.396 635.296C532.396 636.32 532.95 637.173 534.06 637.856C535.212 638.496 537.025 639.285 539.5 640.224C542.358 641.291 544.705 642.315 546.54 643.296C548.417 644.277 550.038 645.643 551.404 647.392C552.769 649.141 553.452 651.339 553.452 653.984C553.452 656.757 552.769 659.253 551.404 661.472C550.038 663.648 548.054 665.355 545.452 666.592C542.849 667.829 539.756 668.448 536.172 668.448Z" fill="white"/>
<path d="M321.631 548.688L324.556 549.357L325.395 545.688H321.631V548.688ZM311.263 594V597H313.654L314.188 594.669L311.263 594ZM293.599 594L290.66 594.6L291.149 597H293.599V594ZM288.351 568.272L291.291 567.672L285.412 567.672L288.351 568.272ZM283.103 594V597H285.553L286.043 594.6L283.103 594ZM265.439 594L262.515 594.669L263.048 597H265.439V594ZM255.071 548.688V545.688H251.307L252.147 549.357L255.071 548.688ZM270.367 548.688L273.337 548.262L272.967 545.688H270.367V548.688ZM274.463 577.232L271.494 577.658L277.396 577.863L274.463 577.232ZM280.607 548.688V545.688H278.184L277.674 548.057L280.607 548.688ZM296.095 548.688L299.028 548.057L298.518 545.688H296.095V548.688ZM302.239 577.232L299.306 577.863L305.209 577.658L302.239 577.232ZM306.335 548.688V545.688H303.735L303.366 548.262L306.335 548.688ZM318.707 548.019L308.339 593.331L314.188 594.669L324.556 549.357L318.707 548.019ZM311.263 591H293.599V597H311.263V591ZM296.539 593.4L291.291 567.672L285.412 568.872L290.66 594.6L296.539 593.4ZM285.412 567.672L280.164 593.4L286.043 594.6L291.291 568.872L285.412 567.672ZM283.103 591H265.439V597H283.103V591ZM268.364 593.331L257.996 548.019L252.147 549.357L262.515 594.669L268.364 593.331ZM255.071 551.688H270.367V545.688H255.071V551.688ZM267.398 549.114L271.494 577.658L277.433 576.806L273.337 548.262L267.398 549.114ZM277.396 577.863L283.54 549.319L277.674 548.057L271.53 576.601L277.396 577.863ZM280.607 551.688H296.095V545.688H280.607V551.688ZM293.162 549.319L299.306 577.863L305.172 576.601L299.028 548.057L293.162 549.319ZM305.209 577.658L309.305 549.114L303.366 548.262L299.27 576.806L305.209 577.658ZM306.335 551.688H321.631V545.688H306.335V551.688ZM358.47 594L355.813 595.392L356.655 597H358.47V594ZM349.958 577.744L352.616 576.352L351.774 574.744H349.958V577.744ZM349.894 577.744V574.744H346.894V577.744H349.894ZM349.894 594V597H352.894V594H349.894ZM335.686 594H332.686V597H335.686V594ZM335.686 548.688V545.688H332.686V548.688H335.686ZM366.214 550.672L364.855 553.346L364.873 553.355L364.89 553.364L366.214 550.672ZM372.038 555.984L369.427 557.462L369.444 557.491L369.461 557.52L372.038 555.984ZM371.462 571.6L369.036 569.835L369.025 569.85L369.015 569.865L371.462 571.6ZM364.23 576.656L363.305 573.802L359.803 574.938L361.622 578.138L364.23 576.656ZM374.086 594V597H379.242L376.695 592.518L374.086 594ZM349.894 568.272H346.894V571.272H349.894V568.272ZM358.598 567.376L360.574 569.634L360.613 569.6L360.65 569.565L358.598 567.376ZM358.534 561.616L356.413 563.737L356.445 563.769L356.478 563.801L358.534 561.616ZM349.894 560.592V557.592H346.894V560.592H349.894ZM361.128 592.608L352.616 576.352L347.301 579.136L355.813 595.392L361.128 592.608ZM349.958 574.744H349.894V580.744H349.958V574.744ZM346.894 577.744V594H352.894V577.744H346.894ZM349.894 591H335.686V597H349.894V591ZM338.686 594V548.688H332.686V594H338.686ZM335.686 551.688H356.806V545.688H335.686V551.688ZM356.806 551.688C360.122 551.688 362.768 552.286 364.855 553.346L367.573 547.998C364.455 546.413 360.829 545.688 356.806 545.688V551.688ZM364.89 553.364C367.017 554.41 368.479 555.785 369.427 557.462L374.649 554.506C373.038 551.66 370.617 549.494 367.538 547.98L364.89 553.364ZM369.461 557.52C370.482 559.233 371.022 561.21 371.022 563.536H377.022C377.022 560.23 376.239 557.172 374.615 554.448L369.461 557.52ZM371.022 563.536C371.022 565.961 370.353 568.025 369.036 569.835L373.888 573.365C375.985 570.482 377.022 567.17 377.022 563.536H371.022ZM369.015 569.865C367.78 571.606 365.946 572.946 363.305 573.802L365.156 579.51C368.829 578.318 371.816 576.287 373.909 573.335L369.015 569.865ZM361.622 578.138L371.478 595.482L376.695 592.518L366.839 575.174L361.622 578.138ZM374.086 591H358.47V597H374.086V591ZM349.894 571.272H355.526V565.272H349.894V571.272ZM355.526 571.272C357.263 571.272 359.126 570.901 360.574 569.634L356.623 565.118C356.705 565.046 356.52 565.272 355.526 565.272V571.272ZM360.65 569.565C362.153 568.156 362.622 566.234 362.622 564.432H356.622C356.622 564.845 356.568 565.074 356.533 565.174C356.504 565.258 356.496 565.235 356.546 565.187L360.65 569.565ZM362.622 564.432C362.622 562.588 362.037 560.793 360.59 559.431L356.478 563.801C356.51 563.831 356.531 563.858 356.552 563.913C356.578 563.98 356.622 564.137 356.622 564.432H362.622ZM360.656 559.495C359.228 558.067 357.343 557.592 355.526 557.592V563.592C355.937 563.592 356.18 563.646 356.303 563.688C356.413 563.725 356.427 563.751 356.413 563.737L360.656 559.495ZM355.526 557.592H349.894V563.592H355.526V557.592ZM346.894 560.592V568.272H352.894V560.592H346.894ZM401.729 548.688H404.729V545.688H401.729V548.688ZM401.729 594V597H404.729V594H401.729ZM387.521 594H384.521V597H387.521V594ZM387.521 548.688V545.688H384.521V548.688H387.521ZM398.729 548.688V594H404.729V548.688H398.729ZM401.729 591H387.521V597H401.729V591ZM390.521 594V548.688H384.521V594H390.521ZM387.521 551.688H401.729V545.688H387.521V551.688ZM452.69 548.688H455.69V545.688H452.69V548.688ZM452.69 559.952V562.952H455.69V559.952H452.69ZM440.658 559.952V556.952H437.658V559.952H440.658ZM440.658 594V597H443.658V594H440.658ZM426.45 594H423.45V597H426.45V594ZM426.45 559.952H429.45V556.952H426.45V559.952ZM414.546 559.952H411.546V562.952H414.546V559.952ZM414.546 548.688V545.688H411.546V548.688H414.546ZM449.69 548.688V559.952H455.69V548.688H449.69ZM452.69 556.952H440.658V562.952H452.69V556.952ZM437.658 559.952V594H443.658V559.952H437.658ZM440.658 591H426.45V597H440.658V591ZM429.45 594V559.952H423.45V594H429.45ZM426.45 556.952H414.546V562.952H426.45V556.952ZM417.546 559.952V548.688H411.546V559.952H417.546ZM414.546 551.688H452.69V545.688H414.546V551.688ZM479.712 548.688H482.712V545.688H479.712V548.688ZM479.712 594V597H482.712V594H479.712ZM465.504 594H462.504V597H465.504V594ZM465.504 548.688V545.688H462.504V548.688H465.504ZM476.712 548.688V594H482.712V548.688H476.712ZM479.712 591H465.504V597H479.712V591ZM468.504 594V548.688H462.504V594H468.504ZM465.504 551.688H479.712V545.688H465.504V551.688ZM538.545 594V597H541.545V594H538.545ZM524.337 594L521.833 595.653L522.722 597H524.337V594ZM509.297 571.216L511.8 569.563L506.297 561.226V571.216H509.297ZM509.297 594V597H512.297V594H509.297ZM495.089 594H492.089V597H495.089V594ZM495.089 548.688V545.688H492.089V548.688H495.089ZM509.297 548.688L511.813 547.055L510.926 545.688H509.297V548.688ZM524.337 571.856L521.82 573.489L527.337 581.987V571.856H524.337ZM524.337 548.688V545.688H521.337V548.688H524.337ZM538.545 548.688H541.545V545.688H538.545V548.688ZM538.545 591H524.337V597H538.545V591ZM526.84 592.347L511.8 569.563L506.793 572.869L521.833 595.653L526.84 592.347ZM506.297 571.216V594H512.297V571.216H506.297ZM509.297 591H495.089V597H509.297V591ZM498.089 594V548.688H492.089V594H498.089ZM495.089 551.688H509.297V545.688H495.089V551.688ZM506.78 550.321L521.82 573.489L526.853 570.223L511.813 547.055L506.78 550.321ZM527.337 571.856V548.688H521.337V571.856H527.337ZM524.337 551.688H538.545V545.688H524.337V551.688ZM535.545 548.688V594H541.545V548.688H535.545ZM581.7 564.176L579.149 565.755L580.029 567.176H581.7V564.176ZM579.332 562.128L577.99 564.811L578.036 564.834L578.082 564.855L579.332 562.128ZM569.284 564.048L571.565 565.996L571.577 565.982L571.588 565.969L569.284 564.048ZM569.54 579.216L567.366 581.284L567.366 581.284L569.54 579.216ZM585.156 577.872L587.546 579.684L591.195 574.872H585.156V577.872ZM573.828 577.872H570.828V580.872H573.828V577.872ZM573.828 567.824V564.824H570.828V567.824H573.828ZM596.932 567.824H599.932V564.824H596.932V567.824ZM596.932 582.032L599.524 583.542L599.932 582.842V582.032H596.932ZM588.804 590.736L590.51 593.204L590.52 593.197L590.53 593.189L588.804 590.736ZM563.396 591.44L561.914 594.049L561.933 594.059L561.952 594.07L563.396 591.44ZM555.396 583.248L552.739 584.641L552.746 584.654L552.752 584.666L555.396 583.248ZM555.396 559.312L552.752 557.894L552.746 557.906L552.739 557.919L555.396 559.312ZM563.396 551.184L564.853 553.806L564.865 553.8L564.877 553.793L563.396 551.184ZM590.02 552.528L588.189 554.905L588.196 554.91L588.202 554.915L590.02 552.528ZM596.676 564.176V567.176H600.122L599.647 563.763L596.676 564.176ZM584.251 562.597C583.363 561.163 582.104 560.099 580.582 559.401L578.082 564.855C578.607 565.096 578.927 565.397 579.149 565.755L584.251 562.597ZM580.673 559.445C579.137 558.676 577.415 558.36 575.62 558.36V564.36C576.726 564.36 577.479 564.556 577.99 564.811L580.673 559.445ZM575.62 558.36C572.168 558.36 569.142 559.532 566.979 562.127L571.588 565.969C572.412 564.98 573.611 564.36 575.62 564.36V558.36ZM567.002 562.1C564.909 564.552 564.044 567.736 564.044 571.28H570.044C570.044 568.68 570.672 567.043 571.565 565.996L567.002 562.1ZM564.044 571.28C564.044 575.236 564.969 578.763 567.366 581.284L571.713 577.148C570.783 576.17 570.044 574.407 570.044 571.28H564.044ZM567.366 581.284C569.804 583.846 573.302 584.84 577.22 584.84V578.84C574.226 578.84 572.604 578.084 571.713 577.148L567.366 581.284ZM577.22 584.84C581.455 584.84 584.981 583.069 587.546 579.684L582.765 576.06C581.32 577.966 579.555 578.84 577.22 578.84V584.84ZM585.156 574.872H573.828V580.872H585.156V574.872ZM576.828 577.872V567.824H570.828V577.872H576.828ZM573.828 570.824H596.932V564.824H573.828V570.824ZM593.932 567.824V582.032H599.932V567.824H593.932ZM594.339 580.522C592.612 583.489 590.21 586.078 587.077 588.283L590.53 593.189C594.31 590.53 597.327 587.316 599.524 583.542L594.339 580.522ZM587.098 588.268C584.259 590.231 580.523 591.32 575.684 591.32V597.32C581.425 597.32 586.436 596.02 590.51 593.204L587.098 588.268ZM575.684 591.32C571.406 591.32 567.823 590.448 564.839 588.81L561.952 594.07C565.965 596.272 570.575 597.32 575.684 597.32V591.32ZM564.877 588.831C561.912 587.148 559.649 584.829 558.039 581.83L552.752 584.666C554.897 588.664 557.967 591.807 561.914 594.049L564.877 588.831ZM558.053 581.855C556.472 578.841 555.644 575.34 555.644 571.28H549.644C549.644 576.18 550.65 580.658 552.739 584.641L558.053 581.855ZM555.644 571.28C555.644 567.22 556.472 563.719 558.053 560.705L552.739 557.919C550.65 561.902 549.644 566.38 549.644 571.28H555.644ZM558.039 560.73C559.646 557.736 561.902 555.446 564.853 553.806L561.939 548.562C557.978 550.762 554.9 553.89 552.752 557.894L558.039 560.73ZM564.877 553.793C567.81 552.127 571.335 551.24 575.556 551.24V545.24C570.475 545.24 565.893 546.316 561.914 548.575L564.877 553.793ZM575.556 551.24C581.003 551.24 585.128 552.547 588.189 554.905L591.85 550.151C587.488 546.792 581.97 545.24 575.556 545.24V551.24ZM588.202 554.915C591.293 557.268 593.125 560.424 593.704 564.589L599.647 563.763C598.861 558.115 596.256 553.505 591.837 550.141L588.202 554.915ZM596.676 561.176H581.7V567.176H596.676V561.176ZM304.244 664.672L302.473 667.093L302.489 667.105L302.506 667.117L304.244 664.672ZM298.548 653.472V650.472H295.36L295.554 653.654L298.548 653.472ZM313.652 653.472L316.642 653.227L316.416 650.472H313.652V653.472ZM319.028 656.864L320.692 659.36L320.714 659.346L320.736 659.331L319.028 656.864ZM318.132 652.576L316.603 655.157L316.639 655.178L316.675 655.198L318.132 652.576ZM312.756 650.272L311.758 653.101L311.763 653.103L312.756 650.272ZM305.524 647.264L304.134 649.923L304.147 649.929L304.159 649.935L305.524 647.264ZM300.66 642.976L303.086 641.211L303.086 641.211L300.66 642.976ZM298.676 635.744L301.676 635.787L301.676 635.766V635.744H298.676ZM300.916 628.256L298.499 626.48L298.492 626.488L300.916 628.256ZM307.124 623.52L306.002 620.738L305.994 620.741L305.987 620.744L307.124 623.52ZM329.204 625.76L327.345 628.115L327.353 628.121L327.36 628.126L329.204 625.76ZM334.388 636.576V639.576H337.5L337.386 636.466L334.388 636.576ZM319.092 636.576L316.094 636.676L316.191 639.576H319.092V636.576ZM314.484 633.632L316.606 635.753L316.661 635.698L316.714 635.639L314.484 633.632ZM315.572 637.856L314 640.411L314.057 640.446L314.115 640.478L315.572 637.856ZM321.012 640.224L319.948 643.029L319.956 643.032L319.963 643.035L321.012 640.224ZM328.052 643.296L326.637 645.941L326.65 645.948L326.662 645.955L328.052 643.296ZM332.916 647.392L330.551 649.238L330.551 649.238L332.916 647.392ZM332.916 661.472L335.457 663.066L335.464 663.055L335.471 663.044L332.916 661.472ZM326.964 666.592L325.676 663.883L326.964 666.592ZM317.684 665.448C312.733 665.448 308.903 664.303 305.982 662.227L302.506 667.117C306.669 670.076 311.798 671.448 317.684 671.448V665.448ZM306.016 662.251C303.339 660.293 301.795 657.439 301.543 653.29L295.554 653.654C295.899 659.318 298.152 663.931 302.473 667.093L306.016 662.251ZM298.548 656.472H313.652V650.472H298.548V656.472ZM310.662 653.717C310.797 655.356 311.256 657.063 312.43 658.389C313.69 659.812 315.394 660.376 317.108 660.376V654.376C316.895 654.376 316.821 654.343 316.834 654.348C316.859 654.358 316.9 654.386 316.923 654.411C316.944 654.436 316.721 654.19 316.642 653.227L310.662 653.717ZM317.108 660.376C318.321 660.376 319.578 660.103 320.692 659.36L317.364 654.368C317.401 654.343 317.418 654.342 317.391 654.349C317.36 654.358 317.272 654.376 317.108 654.376V660.376ZM320.736 659.331C322.222 658.302 322.86 656.73 322.86 655.136H316.86C316.86 655.159 316.857 655.034 316.949 654.843C317.048 654.636 317.195 654.484 317.321 654.397L320.736 659.331ZM322.86 655.136C322.86 652.708 321.429 650.976 319.589 649.954L316.675 655.198C316.951 655.351 316.981 655.433 316.942 655.374C316.921 655.344 316.896 655.296 316.879 655.238C316.862 655.181 316.86 655.143 316.86 655.136H322.86ZM319.662 649.995C318.248 649.158 316.231 648.312 313.75 647.441L311.763 653.103C314.146 653.939 315.712 654.629 316.603 655.157L319.662 649.995ZM313.755 647.443C310.931 646.446 308.653 645.494 306.89 644.593L304.159 649.935C306.236 650.997 308.779 652.05 311.758 653.101L313.755 647.443ZM306.914 644.605C305.485 643.858 304.206 642.751 303.086 641.211L298.234 644.741C299.845 646.955 301.809 648.707 304.134 649.923L306.914 644.605ZM303.086 641.211C302.195 639.985 301.64 638.259 301.676 635.787L295.677 635.701C295.627 639.117 296.395 642.212 298.234 644.741L303.086 641.211ZM301.676 635.744C301.676 633.329 302.279 631.479 303.34 630.024L298.492 626.488C296.567 629.129 295.676 632.271 295.676 635.744H301.676ZM303.334 630.032C304.516 628.423 306.125 627.172 308.262 626.296L305.987 620.744C302.918 622.002 300.389 623.907 298.499 626.48L303.334 630.032ZM308.246 626.302C310.485 625.4 313.062 624.92 316.02 624.92V618.92C312.408 618.92 309.054 619.507 306.002 620.738L308.246 626.302ZM316.02 624.92C321.123 624.92 324.788 626.096 327.345 628.115L331.063 623.405C327.135 620.304 322.011 618.92 316.02 618.92V624.92ZM327.36 628.126C329.859 630.074 331.248 632.804 331.39 636.686L337.386 636.466C337.187 631.047 335.12 626.566 331.048 623.394L327.36 628.126ZM334.388 633.576H319.092V639.576H334.388V633.576ZM322.091 636.476C322.036 634.84 321.617 632.966 320.174 631.626L316.091 636.022C315.968 635.909 315.958 635.831 315.988 635.916C316.022 636.014 316.08 636.248 316.094 636.676L322.091 636.476ZM320.174 631.626C318.993 630.53 317.528 629.992 315.956 629.992V635.992C316.007 635.992 316.038 635.996 316.053 635.999C316.068 636.001 316.072 636.003 316.069 636.002C316.066 636.001 316.063 635.999 316.063 635.999C316.063 636 316.073 636.005 316.091 636.022L320.174 631.626ZM315.956 629.992C314.548 629.992 313.233 630.538 312.254 631.625L316.714 635.639C316.64 635.721 316.513 635.826 316.336 635.903C316.163 635.979 316.021 635.992 315.956 635.992V629.992ZM312.363 631.511C311.247 632.626 310.908 634.051 310.908 635.296H316.908C316.908 635.192 316.923 635.215 316.887 635.317C316.847 635.434 316.76 635.599 316.606 635.753L312.363 631.511ZM310.908 635.296C310.908 637.649 312.279 639.352 314 640.411L317.145 635.301C316.866 635.13 316.817 635.034 316.84 635.069C316.852 635.089 316.873 635.128 316.889 635.182C316.905 635.236 316.908 635.278 316.908 635.296H310.908ZM314.115 640.478C315.465 641.228 317.445 642.079 319.948 643.029L322.076 637.419C319.631 636.491 317.984 635.764 317.029 635.234L314.115 640.478ZM319.963 643.035C322.749 644.074 324.961 645.045 326.637 645.941L329.467 640.651C327.474 639.584 324.993 638.507 322.061 637.413L319.963 643.035ZM326.662 645.955C328.142 646.728 329.437 647.809 330.551 649.238L335.281 645.546C333.665 643.476 331.717 641.826 329.442 640.637L326.662 645.955ZM330.551 649.238C331.43 650.364 331.964 651.874 331.964 653.984H337.964C337.964 650.803 337.133 647.919 335.281 645.546L330.551 649.238ZM331.964 653.984C331.964 656.24 331.417 658.185 330.361 659.9L335.471 663.044C337.147 660.322 337.964 657.275 337.964 653.984H331.964ZM330.375 659.878C329.349 661.513 327.828 662.859 325.676 663.883L328.252 669.301C331.306 667.85 333.753 665.783 335.457 663.066L330.375 659.878ZM325.676 663.883C323.562 664.888 320.929 665.448 317.684 665.448V671.448C321.608 671.448 325.161 670.771 328.252 669.301L325.676 663.883ZM376.308 668L373.817 669.672L374.708 671H376.308V668ZM363.124 648.352L365.615 646.68L360.124 638.497V648.352H363.124ZM363.124 668V671H366.124V668H363.124ZM348.916 668H345.916V671H348.916V668ZM348.916 622.688V619.688H345.916V622.688H348.916ZM363.124 622.688H366.124V619.688H363.124V622.688ZM363.124 641.76H360.124V651.493L365.604 643.449L363.124 641.76ZM376.116 622.688V619.688H374.53L373.637 620.999L376.116 622.688ZM392.18 622.688L394.615 624.441L398.036 619.688H392.18V622.688ZM376.564 644.384L374.129 642.631L372.881 644.365L374.112 646.112L376.564 644.384ZM393.204 668V671H398.988L395.657 666.272L393.204 668ZM378.799 666.328L365.615 646.68L360.633 650.024L373.817 669.672L378.799 666.328ZM360.124 648.352V668H366.124V648.352H360.124ZM363.124 665H348.916V671H363.124V665ZM351.916 668V622.688H345.916V668H351.916ZM348.916 625.688H363.124V619.688H348.916V625.688ZM360.124 622.688V641.76H366.124V622.688H360.124ZM365.604 643.449L378.596 624.377L373.637 620.999L360.645 640.071L365.604 643.449ZM376.116 625.688H392.18V619.688H376.116V625.688ZM389.745 620.935L374.129 642.631L378.999 646.137L394.615 624.441L389.745 620.935ZM374.112 646.112L390.752 669.728L395.657 666.272L379.017 642.656L374.112 646.112ZM393.204 665H376.308V671H393.204V665ZM420.397 622.688H423.397V619.688H420.397V622.688ZM420.397 668V671H423.397V668H420.397ZM406.189 668H403.189V671H406.189V668ZM406.189 622.688V619.688H403.189V622.688H406.189ZM417.397 622.688V668H423.397V622.688H417.397ZM420.397 665H406.189V671H420.397V665ZM409.189 668V622.688H403.189V668H409.189ZM406.189 625.688H420.397V619.688H406.189V625.688ZM449.982 657.248H446.982V660.248H449.982V657.248ZM463.678 657.248H466.678V654.248H463.678V657.248ZM463.678 668V671H466.678V668H463.678ZM435.774 668H432.774V671H435.774V668ZM435.774 622.688V619.688H432.774V622.688H435.774ZM449.982 622.688H452.982V619.688H449.982V622.688ZM449.982 660.248H463.678V654.248H449.982V660.248ZM460.678 657.248V668H466.678V657.248H460.678ZM463.678 665H435.774V671H463.678V665ZM438.774 668V622.688H432.774V668H438.774ZM435.774 625.688H449.982V619.688H435.774V625.688ZM446.982 622.688V657.248H452.982V622.688H446.982ZM491.317 657.248H488.317V660.248H491.317V657.248ZM505.013 657.248H508.013V654.248H505.013V657.248ZM505.013 668V671H508.013V668H505.013ZM477.109 668H474.109V671H477.109V668ZM477.109 622.688V619.688H474.109V622.688H477.109ZM491.317 622.688H494.317V619.688H491.317V622.688ZM491.317 660.248H505.013V654.248H491.317V660.248ZM502.013 657.248V668H508.013V657.248H502.013ZM505.013 665H477.109V671H505.013V665ZM480.109 668V622.688H474.109V668H480.109ZM477.109 625.688H491.317V619.688H477.109V625.688ZM488.317 622.688V657.248H494.317V622.688H488.317ZM522.732 664.672L520.96 667.093L520.977 667.105L520.994 667.117L522.732 664.672ZM517.036 653.472V650.472H513.848L514.041 653.654L517.036 653.472ZM532.14 653.472L535.13 653.227L534.904 650.472H532.14V653.472ZM537.516 656.864L539.18 659.36L539.202 659.346L539.223 659.331L537.516 656.864ZM536.62 652.576L535.09 655.157L535.126 655.178L535.163 655.198L536.62 652.576ZM531.244 650.272L530.245 653.101L530.251 653.103L531.244 650.272ZM524.012 647.264L522.622 649.923L522.634 649.929L522.646 649.935L524.012 647.264ZM519.148 642.976L521.574 641.211L521.574 641.211L519.148 642.976ZM517.164 635.744L520.163 635.787L520.164 635.766V635.744H517.164ZM519.404 628.256L516.986 626.48L516.98 626.488L519.404 628.256ZM525.612 623.52L524.49 620.738L524.482 620.741L524.474 620.744L525.612 623.52ZM547.692 625.76L545.833 628.115L545.84 628.121L545.848 628.126L547.692 625.76ZM552.876 636.576V639.576H555.988L555.874 636.466L552.876 636.576ZM537.58 636.576L534.581 636.676L534.678 639.576H537.58V636.576ZM532.972 633.632L535.093 635.753L535.149 635.698L535.202 635.639L532.972 633.632ZM534.06 637.856L532.487 640.411L532.544 640.446L532.603 640.478L534.06 637.856ZM539.5 640.224L538.436 643.029L538.443 643.032L538.451 643.035L539.5 640.224ZM546.54 643.296L545.125 645.941L545.137 645.948L545.15 645.955L546.54 643.296ZM551.404 647.392L549.039 649.238L549.039 649.238L551.404 647.392ZM551.404 661.472L553.945 663.066L553.952 663.055L553.959 663.044L551.404 661.472ZM545.452 666.592L544.164 663.883L545.452 666.592ZM536.172 665.448C531.221 665.448 527.39 664.303 524.47 662.227L520.994 667.117C525.156 670.076 530.286 671.448 536.172 671.448V665.448ZM524.503 662.251C521.827 660.293 520.283 657.439 520.03 653.29L514.041 653.654C514.386 659.318 516.639 663.931 520.96 667.093L524.503 662.251ZM517.036 656.472H532.14V650.472H517.036V656.472ZM529.15 653.717C529.284 655.356 529.744 657.063 530.917 658.389C532.178 659.812 533.882 660.376 535.596 660.376V654.376C535.382 654.376 535.309 654.343 535.321 654.348C535.347 654.358 535.387 654.386 535.41 654.411C535.432 654.436 535.209 654.19 535.13 653.227L529.15 653.717ZM535.596 660.376C536.809 660.376 538.065 660.103 539.18 659.36L535.852 654.368C535.889 654.343 535.906 654.342 535.879 654.349C535.847 654.358 535.759 654.376 535.596 654.376V660.376ZM539.223 659.331C540.709 658.302 541.348 656.73 541.348 655.136H535.348C535.348 655.159 535.345 655.034 535.437 654.843C535.536 654.636 535.683 654.484 535.808 654.397L539.223 659.331ZM541.348 655.136C541.348 652.708 539.917 650.976 538.077 649.954L535.163 655.198C535.438 655.351 535.469 655.433 535.429 655.374C535.408 655.344 535.384 655.296 535.366 655.238C535.349 655.181 535.348 655.143 535.348 655.136H541.348ZM538.149 649.995C536.736 649.158 534.718 648.312 532.237 647.441L530.251 653.103C532.634 653.939 534.2 654.629 535.09 655.157L538.149 649.995ZM532.242 647.443C529.418 646.446 527.14 645.494 525.377 644.593L522.646 649.935C524.723 650.997 527.267 652.05 530.245 653.101L532.242 647.443ZM525.402 644.605C523.972 643.858 522.694 642.751 521.574 641.211L516.722 644.741C518.332 646.955 520.297 648.707 522.622 649.923L525.402 644.605ZM521.574 641.211C520.682 639.985 520.128 638.259 520.163 635.787L514.164 635.701C514.115 639.117 514.883 642.212 516.722 644.741L521.574 641.211ZM520.164 635.744C520.164 633.329 520.767 631.479 521.828 630.024L516.98 626.488C515.054 629.129 514.164 632.271 514.164 635.744H520.164ZM521.821 630.032C523.003 628.423 524.613 627.172 526.749 626.296L524.474 620.744C521.406 622.002 518.876 623.907 516.986 626.48L521.821 630.032ZM526.734 626.302C528.973 625.4 531.549 624.92 534.508 624.92V618.92C530.896 618.92 527.542 619.507 524.49 620.738L526.734 626.302ZM534.508 624.92C539.61 624.92 543.276 626.096 545.833 628.115L549.551 623.405C545.622 620.304 540.499 618.92 534.508 618.92V624.92ZM545.848 628.126C548.347 630.074 549.735 632.804 549.878 636.686L555.874 636.466C555.675 631.047 553.608 626.566 549.536 623.394L545.848 628.126ZM552.876 633.576H537.58V639.576H552.876V633.576ZM540.578 636.476C540.524 634.84 540.104 632.966 538.661 631.626L534.578 636.022C534.456 635.909 534.446 635.831 534.475 635.916C534.509 636.014 534.567 636.248 534.581 636.676L540.578 636.476ZM538.661 631.626C537.481 630.53 536.015 629.992 534.444 629.992V635.992C534.494 635.992 534.525 635.996 534.541 635.999C534.556 636.001 534.559 636.003 534.556 636.002C534.553 636.001 534.55 635.999 534.55 635.999C534.551 636 534.56 636.005 534.578 636.022L538.661 631.626ZM534.444 629.992C533.035 629.992 531.721 630.538 530.742 631.625L535.202 635.639C535.128 635.721 535.001 635.826 534.824 635.903C534.65 635.979 534.509 635.992 534.444 635.992V629.992ZM530.85 631.511C529.735 632.626 529.396 634.051 529.396 635.296H535.396C535.396 635.192 535.41 635.215 535.375 635.317C535.334 635.434 535.248 635.599 535.093 635.753L530.85 631.511ZM529.396 635.296C529.396 637.649 530.767 639.352 532.487 640.411L535.632 635.301C535.354 635.13 535.304 635.034 535.327 635.069C535.34 635.089 535.361 635.128 535.377 635.182C535.393 635.236 535.396 635.278 535.396 635.296H529.396ZM532.603 640.478C533.952 641.228 535.932 642.079 538.436 643.029L540.564 637.419C538.118 636.491 536.471 635.764 535.517 635.234L532.603 640.478ZM538.451 643.035C541.236 644.074 543.449 645.045 545.125 645.941L547.955 640.651C545.961 639.584 543.481 638.507 540.549 637.413L538.451 643.035ZM545.15 645.955C546.63 646.728 547.924 647.809 549.039 649.238L553.769 645.546C552.153 643.476 550.204 641.826 547.93 640.637L545.15 645.955ZM549.039 649.238C549.918 650.364 550.452 651.874 550.452 653.984H556.452C556.452 650.803 555.621 647.919 553.769 645.546L549.039 649.238ZM550.452 653.984C550.452 656.24 549.904 658.185 548.849 659.9L553.959 663.044C555.634 660.322 556.452 657.275 556.452 653.984H550.452ZM548.863 659.878C547.836 661.513 546.316 662.859 544.164 663.883L546.74 669.301C549.793 667.85 552.24 665.783 553.945 663.066L548.863 659.878ZM544.164 663.883C542.049 664.888 539.416 665.448 536.172 665.448V671.448C540.095 671.448 543.649 670.771 546.74 669.301L544.164 663.883Z" fill="black" mask="url(#path-3-outside-1_1008_222)"/>
<rect x="570" y="250" width="126" height="48" fill="#F5F5F5"/>
<mask id="path-6-outside-2_1008_222" maskUnits="userSpaceOnUse" x="253" y="477" width="349" height="53" fill="black">
<rect fill="white" x="253" y="477" width="349" height="53"/>
<path d="M270.986 515.248H284.682V526H256.777V480.688H270.986V515.248ZM312.32 492.016V497.584H326.4V508.272H312.32V514.672H328.32V526H298.112V480.688H328.32V492.016H312.32ZM388.267 480.688L373.035 526H354.667L339.435 480.688H354.539L363.883 511.856L373.163 480.688H388.267ZM414.616 492.016V497.584H428.696V508.272H414.616V514.672H430.616V526H400.408V480.688H430.616V492.016H414.616ZM459.138 515.248H472.834V526H444.93V480.688H459.138V515.248ZM519.988 480.688V506.224C519.988 508.315 520.436 509.979 521.332 511.216C522.271 512.411 523.764 513.008 525.812 513.008C527.86 513.008 529.375 512.411 530.356 511.216C531.337 509.979 531.828 508.315 531.828 506.224V480.688H545.972V506.224C545.972 510.533 545.076 514.224 543.284 517.296C541.492 520.325 539.039 522.608 535.924 524.144C532.809 525.68 529.332 526.448 525.492 526.448C521.652 526.448 518.239 525.68 515.252 524.144C512.308 522.608 510.004 520.325 508.34 517.296C506.676 514.267 505.844 510.576 505.844 506.224V480.688H519.988ZM598.116 496.24C598.116 499.099 597.455 501.701 596.132 504.048C594.809 506.352 592.847 508.187 590.244 509.552C587.684 510.917 584.569 511.6 580.9 511.6H575.268V526H561.06V480.688H580.9C586.447 480.688 590.692 482.096 593.636 484.912C596.623 487.728 598.116 491.504 598.116 496.24ZM579.3 500.4C582.244 500.4 583.716 499.013 583.716 496.24C583.716 493.467 582.244 492.08 579.3 492.08H575.268V500.4H579.3Z"/>
</mask>
<path d="M270.986 515.248H284.682V526H256.777V480.688H270.986V515.248ZM312.32 492.016V497.584H326.4V508.272H312.32V514.672H328.32V526H298.112V480.688H328.32V492.016H312.32ZM388.267 480.688L373.035 526H354.667L339.435 480.688H354.539L363.883 511.856L373.163 480.688H388.267ZM414.616 492.016V497.584H428.696V508.272H414.616V514.672H430.616V526H400.408V480.688H430.616V492.016H414.616ZM459.138 515.248H472.834V526H444.93V480.688H459.138V515.248ZM519.988 480.688V506.224C519.988 508.315 520.436 509.979 521.332 511.216C522.271 512.411 523.764 513.008 525.812 513.008C527.86 513.008 529.375 512.411 530.356 511.216C531.337 509.979 531.828 508.315 531.828 506.224V480.688H545.972V506.224C545.972 510.533 545.076 514.224 543.284 517.296C541.492 520.325 539.039 522.608 535.924 524.144C532.809 525.68 529.332 526.448 525.492 526.448C521.652 526.448 518.239 525.68 515.252 524.144C512.308 522.608 510.004 520.325 508.34 517.296C506.676 514.267 505.844 510.576 505.844 506.224V480.688H519.988ZM598.116 496.24C598.116 499.099 597.455 501.701 596.132 504.048C594.809 506.352 592.847 508.187 590.244 509.552C587.684 510.917 584.569 511.6 580.9 511.6H575.268V526H561.06V480.688H580.9C586.447 480.688 590.692 482.096 593.636 484.912C596.623 487.728 598.116 491.504 598.116 496.24ZM579.3 500.4C582.244 500.4 583.716 499.013 583.716 496.24C583.716 493.467 582.244 492.08 579.3 492.08H575.268V500.4H579.3Z" fill="white"/>
<path d="M270.986 515.248H267.986V518.248H270.986V515.248ZM284.682 515.248H287.682V512.248H284.682V515.248ZM284.682 526V529H287.682V526H284.682ZM256.777 526H253.777V529H256.777V526ZM256.777 480.688V477.688H253.777V480.688H256.777ZM270.986 480.688H273.986V477.688H270.986V480.688ZM270.986 518.248H284.682V512.248H270.986V518.248ZM281.682 515.248V526H287.682V515.248H281.682ZM284.682 523H256.777V529H284.682V523ZM259.777 526V480.688H253.777V526H259.777ZM256.777 483.688H270.986V477.688H256.777V483.688ZM267.986 480.688V515.248H273.986V480.688H267.986ZM312.32 492.016V489.016H309.32V492.016H312.32ZM312.32 497.584H309.32V500.584H312.32V497.584ZM326.4 497.584H329.4V494.584H326.4V497.584ZM326.4 508.272V511.272H329.4V508.272H326.4ZM312.32 508.272V505.272H309.32V508.272H312.32ZM312.32 514.672H309.32V517.672H312.32V514.672ZM328.32 514.672H331.32V511.672H328.32V514.672ZM328.32 526V529H331.32V526H328.32ZM298.112 526H295.112V529H298.112V526ZM298.112 480.688V477.688H295.112V480.688H298.112ZM328.32 480.688H331.32V477.688H328.32V480.688ZM328.32 492.016V495.016H331.32V492.016H328.32ZM309.32 492.016V497.584H315.32V492.016H309.32ZM312.32 500.584H326.4V494.584H312.32V500.584ZM323.4 497.584V508.272H329.4V497.584H323.4ZM326.4 505.272H312.32V511.272H326.4V505.272ZM309.32 508.272V514.672H315.32V508.272H309.32ZM312.32 517.672H328.32V511.672H312.32V517.672ZM325.32 514.672V526H331.32V514.672H325.32ZM328.32 523H298.112V529H328.32V523ZM301.112 526V480.688H295.112V526H301.112ZM298.112 483.688H328.32V477.688H298.112V483.688ZM325.32 480.688V492.016H331.32V480.688H325.32ZM328.32 489.016H312.32V495.016H328.32V489.016ZM388.267 480.688L391.111 481.644L392.44 477.688H388.267V480.688ZM373.035 526V529H375.191L375.879 526.956L373.035 526ZM354.667 526L351.823 526.956L352.511 529H354.667V526ZM339.435 480.688V477.688H335.262L336.591 481.644L339.435 480.688ZM354.539 480.688L357.413 479.826L356.772 477.688H354.539V480.688ZM363.883 511.856L361.009 512.718L363.893 522.336L366.758 512.712L363.883 511.856ZM373.163 480.688V477.688H370.926L370.288 479.832L373.163 480.688ZM385.423 479.732L370.191 525.044L375.879 526.956L391.111 481.644L385.423 479.732ZM373.035 523H354.667V529H373.035V523ZM357.511 525.044L342.279 479.732L336.591 481.644L351.823 526.956L357.511 525.044ZM339.435 483.688H354.539V477.688H339.435V483.688ZM351.665 481.55L361.009 512.718L366.757 510.994L357.413 479.826L351.665 481.55ZM366.758 512.712L376.038 481.544L370.288 479.832L361.008 511L366.758 512.712ZM373.163 483.688H388.267V477.688H373.163V483.688ZM414.616 492.016V489.016H411.616V492.016H414.616ZM414.616 497.584H411.616V500.584H414.616V497.584ZM428.696 497.584H431.696V494.584H428.696V497.584ZM428.696 508.272V511.272H431.696V508.272H428.696ZM414.616 508.272V505.272H411.616V508.272H414.616ZM414.616 514.672H411.616V517.672H414.616V514.672ZM430.616 514.672H433.616V511.672H430.616V514.672ZM430.616 526V529H433.616V526H430.616ZM400.408 526H397.408V529H400.408V526ZM400.408 480.688V477.688H397.408V480.688H400.408ZM430.616 480.688H433.616V477.688H430.616V480.688ZM430.616 492.016V495.016H433.616V492.016H430.616ZM411.616 492.016V497.584H417.616V492.016H411.616ZM414.616 500.584H428.696V494.584H414.616V500.584ZM425.696 497.584V508.272H431.696V497.584H425.696ZM428.696 505.272H414.616V511.272H428.696V505.272ZM411.616 508.272V514.672H417.616V508.272H411.616ZM414.616 517.672H430.616V511.672H414.616V517.672ZM427.616 514.672V526H433.616V514.672H427.616ZM430.616 523H400.408V529H430.616V523ZM403.408 526V480.688H397.408V526H403.408ZM400.408 483.688H430.616V477.688H400.408V483.688ZM427.616 480.688V492.016H433.616V480.688H427.616ZM430.616 489.016H414.616V495.016H430.616V489.016ZM459.138 515.248H456.138V518.248H459.138V515.248ZM472.834 515.248H475.834V512.248H472.834V515.248ZM472.834 526V529H475.834V526H472.834ZM444.93 526H441.93V529H444.93V526ZM444.93 480.688V477.688H441.93V480.688H444.93ZM459.138 480.688H462.138V477.688H459.138V480.688ZM459.138 518.248H472.834V512.248H459.138V518.248ZM469.834 515.248V526H475.834V515.248H469.834ZM472.834 523H444.93V529H472.834V523ZM447.93 526V480.688H441.93V526H447.93ZM444.93 483.688H459.138V477.688H444.93V483.688ZM456.138 480.688V515.248H462.138V480.688H456.138ZM519.988 480.688H522.988V477.688H519.988V480.688ZM521.332 511.216L518.902 512.976L518.937 513.023L518.973 513.069L521.332 511.216ZM530.356 511.216L532.674 513.12L532.691 513.1L532.706 513.08L530.356 511.216ZM531.828 480.688V477.688H528.828V480.688H531.828ZM545.972 480.688H548.972V477.688H545.972V480.688ZM543.284 517.296L545.866 518.823L545.871 518.816L545.875 518.808L543.284 517.296ZM535.924 524.144L537.251 526.835L537.251 526.835L535.924 524.144ZM515.252 524.144L513.864 526.804L513.872 526.808L513.88 526.812L515.252 524.144ZM508.34 517.296L505.711 518.74L505.711 518.74L508.34 517.296ZM505.844 480.688V477.688H502.844V480.688H505.844ZM516.988 480.688V506.224H522.988V480.688H516.988ZM516.988 506.224C516.988 508.718 517.521 511.068 518.902 512.976L523.762 509.456C523.351 508.889 522.988 507.911 522.988 506.224H516.988ZM518.973 513.069C520.663 515.221 523.187 516.008 525.812 516.008V510.008C524.341 510.008 523.878 509.601 523.691 509.363L518.973 513.069ZM525.812 516.008C528.446 516.008 530.951 515.218 532.674 513.12L528.038 509.312C527.798 509.603 527.274 510.008 525.812 510.008V516.008ZM532.706 513.08C534.227 511.163 534.828 508.772 534.828 506.224H528.828C528.828 507.858 528.447 508.795 528.006 509.352L532.706 513.08ZM534.828 506.224V480.688H528.828V506.224H534.828ZM531.828 483.688H545.972V477.688H531.828V483.688ZM542.972 480.688V506.224H548.972V480.688H542.972ZM542.972 506.224C542.972 510.114 542.166 513.259 540.693 515.784L545.875 518.808C547.986 515.189 548.972 510.952 548.972 506.224H542.972ZM540.702 515.769C539.202 518.304 537.182 520.179 534.597 521.453L537.251 526.835C540.895 525.037 543.782 522.347 545.866 518.823L540.702 515.769ZM534.597 521.453C531.937 522.765 528.921 523.448 525.492 523.448V529.448C529.743 529.448 533.681 528.595 537.251 526.835L534.597 521.453ZM525.492 523.448C522.06 523.448 519.129 522.764 516.624 521.476L513.88 526.812C517.348 528.596 521.244 529.448 525.492 529.448V523.448ZM516.64 521.484C514.243 520.234 512.361 518.385 510.969 515.852L505.711 518.74C507.647 522.266 510.373 524.982 513.864 526.804L516.64 521.484ZM510.969 515.852C509.604 513.365 508.844 510.199 508.844 506.224H502.844C502.844 510.953 503.748 515.168 505.711 518.74L510.969 515.852ZM508.844 506.224V480.688H502.844V506.224H508.844ZM505.844 483.688H519.988V477.688H505.844V483.688ZM596.132 504.048L598.734 505.542L598.74 505.531L598.745 505.521L596.132 504.048ZM590.244 509.552L588.85 506.895L588.841 506.9L588.832 506.905L590.244 509.552ZM575.268 511.6V508.6H572.268V511.6H575.268ZM575.268 526V529H578.268V526H575.268ZM561.06 526H558.06V529H561.06V526ZM561.06 480.688V477.688H558.06V480.688H561.06ZM593.636 484.912L591.562 487.08L591.57 487.087L591.578 487.095L593.636 484.912ZM575.268 492.08V489.08H572.268V492.08H575.268ZM575.268 500.4H572.268V503.4H575.268V500.4ZM595.116 496.24C595.116 498.615 594.572 500.706 593.519 502.575L598.745 505.521C600.337 502.697 601.116 499.582 601.116 496.24H595.116ZM593.53 502.554C592.521 504.312 591.003 505.766 588.85 506.895L591.638 512.209C594.69 510.607 597.097 508.392 598.734 505.542L593.53 502.554ZM588.832 506.905C586.807 507.985 584.204 508.6 580.9 508.6V514.6C584.934 514.6 588.561 513.849 591.656 512.199L588.832 506.905ZM580.9 508.6H575.268V514.6H580.9V508.6ZM572.268 511.6V526H578.268V511.6H572.268ZM575.268 523H561.06V529H575.268V523ZM564.06 526V480.688H558.06V526H564.06ZM561.06 483.688H580.9V477.688H561.06V483.688ZM580.9 483.688C585.959 483.688 589.353 484.967 591.562 487.08L595.71 482.744C592.031 479.225 586.935 477.688 580.9 477.688V483.688ZM591.578 487.095C593.869 489.255 595.116 492.191 595.116 496.24H601.116C601.116 490.817 599.376 486.201 595.694 482.729L591.578 487.095ZM579.3 503.4C581.191 503.4 583.168 502.958 584.669 501.544C586.204 500.098 586.716 498.136 586.716 496.24H580.716C580.716 496.676 580.657 496.931 580.612 497.059C580.59 497.121 580.572 497.152 580.565 497.163C580.558 497.174 580.555 497.176 580.555 497.176C580.554 497.177 580.544 497.187 580.515 497.203C580.484 497.221 580.427 497.248 580.333 497.278C580.139 497.339 579.81 497.4 579.3 497.4V503.4ZM586.716 496.24C586.716 494.344 586.204 492.382 584.669 490.936C583.168 489.522 581.191 489.08 579.3 489.08V495.08C579.81 495.08 580.139 495.141 580.333 495.202C580.427 495.232 580.484 495.259 580.515 495.277C580.544 495.293 580.554 495.303 580.555 495.304C580.555 495.304 580.558 495.306 580.565 495.317C580.572 495.328 580.59 495.359 580.612 495.421C580.657 495.549 580.716 495.804 580.716 496.24H586.716ZM579.3 489.08H575.268V495.08H579.3V489.08ZM572.268 492.08V500.4H578.268V492.08H572.268ZM575.268 503.4H579.3V497.4H575.268V503.4Z" fill="black" mask="url(#path-6-outside-2_1008_222)"/>
<path d="M385.35 950.38V953.02H382.53V961H379.2V953.02H376.41V950.38H385.35ZM393.528 961.105C392.528 961.105 391.608 960.87 390.768 960.4C389.938 959.93 389.278 959.28 388.788 958.45C388.298 957.62 388.053 956.685 388.053 955.645C388.053 954.605 388.298 953.67 388.788 952.84C389.278 952.01 389.938 951.365 390.768 950.905C391.608 950.435 392.528 950.2 393.528 950.2C394.528 950.2 395.443 950.435 396.273 950.905C397.103 951.365 397.758 952.01 398.238 952.84C398.728 953.67 398.973 954.605 398.973 955.645C398.973 956.685 398.728 957.62 398.238 958.45C397.758 959.28 397.098 959.93 396.258 960.4C395.428 960.87 394.518 961.105 393.528 961.105ZM393.528 958C394.188 958 394.698 957.79 395.058 957.37C395.418 956.94 395.598 956.365 395.598 955.645C395.598 954.915 395.418 954.34 395.058 953.92C394.698 953.49 394.188 953.275 393.528 953.275C392.858 953.275 392.343 953.49 391.983 953.92C391.623 954.34 391.443 954.915 391.443 955.645C391.443 956.365 391.623 956.94 391.983 957.37C392.343 957.79 392.858 958 393.528 958ZM407.449 961.105C406.449 961.105 405.529 960.87 404.689 960.4C403.859 959.93 403.199 959.28 402.709 958.45C402.219 957.62 401.974 956.685 401.974 955.645C401.974 954.605 402.219 953.67 402.709 952.84C403.199 952.01 403.859 951.365 404.689 950.905C405.529 950.435 406.449 950.2 407.449 950.2C408.449 950.2 409.364 950.435 410.194 950.905C411.024 951.365 411.679 952.01 412.159 952.84C412.649 953.67 412.894 954.605 412.894 955.645C412.894 956.685 412.649 957.62 412.159 958.45C411.679 959.28 411.019 959.93 410.179 960.4C409.349 960.87 408.439 961.105 407.449 961.105ZM407.449 958C408.109 958 408.619 957.79 408.979 957.37C409.339 956.94 409.519 956.365 409.519 955.645C409.519 954.915 409.339 954.34 408.979 953.92C408.619 953.49 408.109 953.275 407.449 953.275C406.779 953.275 406.264 953.49 405.904 953.92C405.544 954.34 405.364 954.915 405.364 955.645C405.364 956.365 405.544 956.94 405.904 957.37C406.264 957.79 406.779 958 407.449 958ZM426.381 961H423.051L419.526 955.66V961H416.196V950.38H419.526L423.051 955.81V950.38H426.381V961ZM440.185 950.38L436.375 957.775V961H433.045V957.775L429.235 950.38H433.045L434.74 954.145L436.435 950.38H440.185ZM446.732 958.345H450.992V961H443.042V958.495L447.242 953.02H443.042V950.38H450.992V952.885L446.732 958.345Z" fill="black"/>
<path d="M600.692 273.952C600.692 268.416 601.86 264.064 604.196 260.896C606.564 257.728 610.196 256.144 615.092 256.144C619.956 256.144 623.572 257.744 625.94 260.944C628.308 264.112 629.492 268.448 629.492 273.952C629.492 279.488 628.308 283.856 625.94 287.056C623.572 290.224 619.956 291.808 615.092 291.808C610.196 291.808 606.564 290.224 604.196 287.056C601.86 283.856 600.692 279.488 600.692 273.952ZM618.98 273.952C618.98 271.392 618.724 269.472 618.212 268.192C617.7 266.88 616.66 266.224 615.092 266.224C613.492 266.224 612.436 266.88 611.924 268.192C611.412 269.472 611.156 271.392 611.156 273.952C611.156 276.544 611.412 278.496 611.924 279.808C612.436 281.088 613.492 281.728 615.092 281.728C616.66 281.728 617.7 281.088 618.212 279.808C618.724 278.496 618.98 276.544 618.98 273.952ZM639.001 283.504C643.289 280.304 646.681 277.408 649.177 274.816C651.673 272.192 652.921 269.744 652.921 267.472C652.921 266.704 652.745 266.112 652.393 265.696C652.073 265.28 651.641 265.072 651.097 265.072C650.457 265.072 649.945 265.408 649.561 266.08C649.209 266.72 649.081 267.712 649.177 269.056H638.857C638.953 266.08 639.593 263.632 640.777 261.712C641.993 259.792 643.561 258.384 645.481 257.488C647.401 256.592 649.513 256.144 651.817 256.144C655.913 256.144 658.905 257.136 660.793 259.12C662.713 261.072 663.673 263.584 663.673 266.656C663.673 269.888 662.633 272.928 660.553 275.776C658.505 278.592 655.929 280.976 652.825 282.928H663.817V291.52H639.001V283.504Z" fill="black"/>
</g>
</g>
</g>
<defs>
<filter id="filter0_d_1008_222" x="62.6" y="139.6" width="697.8" height="944.8" filterUnits="userSpaceOnUse" color-interpolation-filters="sRGB">
<feFlood flood-opacity="0" result="BackgroundImageFix"/>
<feColorMatrix in="SourceAlpha" type="matrix" values="0 0 0 0 0 0 0 0 0 0 0 0 0 0 0 0 0 0 127 0" result="hardAlpha"/>
<feOffset dx="13" dy="12"/>
<feGaussianBlur stdDeviation="25.7"/>
<feComposite in2="hardAlpha" operator="out"/>
<feColorMatrix type="matrix" values="0 0 0 0 0 0 0 0 0 0 0 0 0 0 0 0 0 0 0.25 0"/>
<feBlend mode="normal" in2="BackgroundImageFix" result="effect1_dropShadow_1008_222"/>
<feBlend mode="normal" in="SourceGraphic" in2="effect1_dropShadow_1008_222" result="shape"/>
</filter>
<filter id="filter1_f_1008_222" x="119" y="177" width="8.00004" height="846" filterUnits="userSpaceOnUse" color-interpolation-filters="sRGB">
<feFlood flood-opacity="0" result="BackgroundImageFix"/>
<feBlend mode="normal" in="SourceGraphic" in2="BackgroundImageFix" result="shape"/>
<feGaussianBlur stdDeviation="1" result="effect1_foregroundBlur_1008_222"/>
</filter>
<filter id="filter2_f_1008_222" x="123" y="177" width="8.00004" height="846" filterUnits="userSpaceOnUse" color-interpolation-filters="sRGB">
<feFlood flood-opacity="0" result="BackgroundImageFix"/>
<feBlend mode="normal" in="SourceGraphic" in2="BackgroundImageFix" result="shape"/>
<feGaussianBlur stdDeviation="1" result="effect1_foregroundBlur_1008_222"/>
</filter>
<clipPath id="clip0_1008_222">
<rect width="797" height="1200" fill="white"/>
</clipPath>
<clipPath id="clip1_1008_222">
<rect width="595" height="842" fill="white" transform="translate(101 179)"/>
</clipPath>
</defs>
</svg>
