<svg width="797" height="1200" viewBox="0 0 797 1200" fill="none" xmlns="http://www.w3.org/2000/svg">
<g clip-path="url(#clip0_1027_2)">
<rect width="797" height="1200" fill="#8EC5FF"/>
<g filter="url(#filter0_d_1027_2)">
<g clip-path="url(#clip1_1027_2)">
<rect width="595" height="842" transform="translate(101 179)" fill="#8EC5FF"/>
<g opacity="0.78" filter="url(#filter1_f_1027_2)">
<line x1="123" y1="179" x2="123" y2="1021" stroke="black" stroke-opacity="0.31" stroke-width="4"/>
</g>
<g opacity="0.78" filter="url(#filter2_f_1027_2)">
<line x1="127" y1="179" x2="127" y2="1021" stroke="white" stroke-opacity="0.62" stroke-width="4"/>
</g>
<mask id="path-3-outside-1_1027_2" maskUnits="userSpaceOnUse" x="174" y="545" width="474" height="127" fill="black">
<rect fill="white" x="174" y="545" width="474" height="127"/>
<path d="M360.327 587.152H345.223L342.983 594H328.071L344.647 548.688H361.031L377.543 594H362.567L360.327 587.152ZM356.871 576.464L352.775 563.856L348.679 576.464H356.871ZM433.187 594H418.979L403.939 571.216V594H389.731V548.688H403.939L418.979 571.856V548.688H433.187V594ZM467.446 548.688C472.182 548.688 476.321 549.648 479.862 551.568C483.446 553.488 486.198 556.155 488.118 559.568C490.038 562.981 490.998 566.864 490.998 571.216C490.998 575.525 490.038 579.408 488.118 582.864C486.198 586.32 483.446 589.051 479.862 591.056C476.321 593.019 472.182 594 467.446 594H448.566V548.688H467.446ZM466.166 581.328C469.366 581.328 471.905 580.453 473.782 578.704C475.66 576.955 476.598 574.459 476.598 571.216C476.598 567.973 475.66 565.477 473.782 563.728C471.905 561.979 469.366 561.104 466.166 561.104H462.774V581.328H466.166ZM214.811 638.24C214.811 641.099 214.15 643.701 212.827 646.048C211.504 648.352 209.542 650.187 206.939 651.552C204.379 652.917 201.264 653.6 197.595 653.6H191.963V668H177.755V622.688H197.595C203.142 622.688 207.387 624.096 210.331 626.912C213.318 629.728 214.811 633.504 214.811 638.24ZM195.995 642.4C198.939 642.4 200.411 641.013 200.411 638.24C200.411 635.467 198.939 634.08 195.995 634.08H191.963V642.4H195.995ZM242.165 622.688V648.224C242.165 650.315 242.613 651.979 243.509 653.216C244.448 654.411 245.941 655.008 247.989 655.008C250.037 655.008 251.552 654.411 252.533 653.216C253.515 651.979 254.005 650.315 254.005 648.224V622.688H268.149V648.224C268.149 652.533 267.253 656.224 265.461 659.296C263.669 662.325 261.216 664.608 258.101 666.144C254.987 667.68 251.509 668.448 247.669 668.448C243.829 668.448 240.416 667.68 237.429 666.144C234.485 664.608 232.181 662.325 230.517 659.296C228.853 656.267 228.021 652.576 228.021 648.224V622.688H242.165ZM313.573 644.768C316.304 645.408 318.416 646.731 319.909 648.736C321.445 650.699 322.213 652.981 322.213 655.584C322.213 659.552 320.891 662.624 318.245 664.8C315.643 666.933 311.888 668 306.981 668H283.237V622.688H306.341C310.949 622.688 314.576 623.691 317.221 625.696C319.867 627.701 321.189 630.624 321.189 634.464C321.189 637.109 320.485 639.349 319.077 641.184C317.712 642.976 315.877 644.171 313.573 644.768ZM297.445 640.352H302.949C304.229 640.352 305.168 640.096 305.765 639.584C306.405 639.072 306.725 638.283 306.725 637.216C306.725 636.107 306.405 635.296 305.765 634.784C305.168 634.229 304.229 633.952 302.949 633.952H297.445V640.352ZM303.909 656.608C305.189 656.608 306.128 656.373 306.725 655.904C307.365 655.392 307.685 654.581 307.685 653.472C307.685 651.296 306.427 650.208 303.909 650.208H297.445V656.608H303.909ZM350.155 657.248H363.851V668H335.947V622.688H350.155V657.248ZM391.49 622.688V668H377.282V622.688H391.49ZM424.595 668.448C419.177 668.448 414.697 667.189 411.155 664.672C407.657 662.112 405.758 658.379 405.459 653.472H420.563C420.777 656.075 421.929 657.376 424.019 657.376C424.787 657.376 425.427 657.205 425.939 656.864C426.494 656.48 426.771 655.904 426.771 655.136C426.771 654.069 426.195 653.216 425.043 652.576C423.891 651.893 422.099 651.125 419.667 650.272C416.766 649.248 414.355 648.245 412.435 647.264C410.558 646.283 408.937 644.853 407.571 642.976C406.206 641.099 405.545 638.688 405.587 635.744C405.587 632.8 406.334 630.304 407.827 628.256C409.363 626.165 411.433 624.587 414.035 623.52C416.681 622.453 419.646 621.92 422.931 621.92C428.478 621.92 432.873 623.2 436.115 625.76C439.401 628.32 441.129 631.925 441.299 636.576H426.003C425.961 635.296 425.641 634.379 425.043 633.824C424.446 633.269 423.721 632.992 422.867 632.992C422.27 632.992 421.779 633.205 421.395 633.632C421.011 634.016 420.819 634.571 420.819 635.296C420.819 636.32 421.374 637.173 422.483 637.856C423.635 638.496 425.449 639.285 427.923 640.224C430.782 641.291 433.129 642.315 434.963 643.296C436.841 644.277 438.462 645.643 439.827 647.392C441.193 649.141 441.875 651.339 441.875 653.984C441.875 656.757 441.193 659.253 439.827 661.472C438.462 663.648 436.478 665.355 433.875 666.592C431.273 667.829 428.179 668.448 424.595 668.448ZM497.748 622.688V668H483.54V650.336H470.036V668H455.828V622.688H470.036V639.008H483.54V622.688H497.748ZM527.308 622.688V668H513.1V622.688H527.308ZM586.141 668H571.933L556.893 645.216V668H542.685V622.688H556.893L571.933 645.856V622.688H586.141V668ZM629.296 638.176C628.741 637.28 627.952 636.597 626.928 636.128C625.904 635.616 624.667 635.36 623.216 635.36C620.485 635.36 618.373 636.256 616.88 638.048C615.387 639.797 614.64 642.208 614.64 645.28C614.64 648.821 615.472 651.467 617.136 653.216C618.8 654.965 621.36 655.84 624.816 655.84C628.101 655.84 630.747 654.517 632.752 651.872H621.424V641.824H644.528V656.032C642.565 659.403 639.856 662.304 636.4 664.736C632.944 667.125 628.571 668.32 623.28 668.32C618.587 668.32 614.491 667.36 610.992 665.44C607.536 663.477 604.869 660.747 602.992 657.248C601.157 653.749 600.24 649.76 600.24 645.28C600.24 640.8 601.157 636.811 602.992 633.312C604.869 629.813 607.536 627.104 610.992 625.184C614.448 623.221 618.501 622.24 623.152 622.24C629.083 622.24 633.904 623.669 637.616 626.528C641.371 629.387 643.589 633.269 644.272 638.176H629.296Z"/>
</mask>
<path d="M360.327 587.152H345.223L342.983 594H328.071L344.647 548.688H361.031L377.543 594H362.567L360.327 587.152ZM356.871 576.464L352.775 563.856L348.679 576.464H356.871ZM433.187 594H418.979L403.939 571.216V594H389.731V548.688H403.939L418.979 571.856V548.688H433.187V594ZM467.446 548.688C472.182 548.688 476.321 549.648 479.862 551.568C483.446 553.488 486.198 556.155 488.118 559.568C490.038 562.981 490.998 566.864 490.998 571.216C490.998 575.525 490.038 579.408 488.118 582.864C486.198 586.32 483.446 589.051 479.862 591.056C476.321 593.019 472.182 594 467.446 594H448.566V548.688H467.446ZM466.166 581.328C469.366 581.328 471.905 580.453 473.782 578.704C475.66 576.955 476.598 574.459 476.598 571.216C476.598 567.973 475.66 565.477 473.782 563.728C471.905 561.979 469.366 561.104 466.166 561.104H462.774V581.328H466.166ZM214.811 638.24C214.811 641.099 214.15 643.701 212.827 646.048C211.504 648.352 209.542 650.187 206.939 651.552C204.379 652.917 201.264 653.6 197.595 653.6H191.963V668H177.755V622.688H197.595C203.142 622.688 207.387 624.096 210.331 626.912C213.318 629.728 214.811 633.504 214.811 638.24ZM195.995 642.4C198.939 642.4 200.411 641.013 200.411 638.24C200.411 635.467 198.939 634.08 195.995 634.08H191.963V642.4H195.995ZM242.165 622.688V648.224C242.165 650.315 242.613 651.979 243.509 653.216C244.448 654.411 245.941 655.008 247.989 655.008C250.037 655.008 251.552 654.411 252.533 653.216C253.515 651.979 254.005 650.315 254.005 648.224V622.688H268.149V648.224C268.149 652.533 267.253 656.224 265.461 659.296C263.669 662.325 261.216 664.608 258.101 666.144C254.987 667.68 251.509 668.448 247.669 668.448C243.829 668.448 240.416 667.68 237.429 666.144C234.485 664.608 232.181 662.325 230.517 659.296C228.853 656.267 228.021 652.576 228.021 648.224V622.688H242.165ZM313.573 644.768C316.304 645.408 318.416 646.731 319.909 648.736C321.445 650.699 322.213 652.981 322.213 655.584C322.213 659.552 320.891 662.624 318.245 664.8C315.643 666.933 311.888 668 306.981 668H283.237V622.688H306.341C310.949 622.688 314.576 623.691 317.221 625.696C319.867 627.701 321.189 630.624 321.189 634.464C321.189 637.109 320.485 639.349 319.077 641.184C317.712 642.976 315.877 644.171 313.573 644.768ZM297.445 640.352H302.949C304.229 640.352 305.168 640.096 305.765 639.584C306.405 639.072 306.725 638.283 306.725 637.216C306.725 636.107 306.405 635.296 305.765 634.784C305.168 634.229 304.229 633.952 302.949 633.952H297.445V640.352ZM303.909 656.608C305.189 656.608 306.128 656.373 306.725 655.904C307.365 655.392 307.685 654.581 307.685 653.472C307.685 651.296 306.427 650.208 303.909 650.208H297.445V656.608H303.909ZM350.155 657.248H363.851V668H335.947V622.688H350.155V657.248ZM391.49 622.688V668H377.282V622.688H391.49ZM424.595 668.448C419.177 668.448 414.697 667.189 411.155 664.672C407.657 662.112 405.758 658.379 405.459 653.472H420.563C420.777 656.075 421.929 657.376 424.019 657.376C424.787 657.376 425.427 657.205 425.939 656.864C426.494 656.48 426.771 655.904 426.771 655.136C426.771 654.069 426.195 653.216 425.043 652.576C423.891 651.893 422.099 651.125 419.667 650.272C416.766 649.248 414.355 648.245 412.435 647.264C410.558 646.283 408.937 644.853 407.571 642.976C406.206 641.099 405.545 638.688 405.587 635.744C405.587 632.8 406.334 630.304 407.827 628.256C409.363 626.165 411.433 624.587 414.035 623.52C416.681 622.453 419.646 621.92 422.931 621.92C428.478 621.92 432.873 623.2 436.115 625.76C439.401 628.32 441.129 631.925 441.299 636.576H426.003C425.961 635.296 425.641 634.379 425.043 633.824C424.446 633.269 423.721 632.992 422.867 632.992C422.27 632.992 421.779 633.205 421.395 633.632C421.011 634.016 420.819 634.571 420.819 635.296C420.819 636.32 421.374 637.173 422.483 637.856C423.635 638.496 425.449 639.285 427.923 640.224C430.782 641.291 433.129 642.315 434.963 643.296C436.841 644.277 438.462 645.643 439.827 647.392C441.193 649.141 441.875 651.339 441.875 653.984C441.875 656.757 441.193 659.253 439.827 661.472C438.462 663.648 436.478 665.355 433.875 666.592C431.273 667.829 428.179 668.448 424.595 668.448ZM497.748 622.688V668H483.54V650.336H470.036V668H455.828V622.688H470.036V639.008H483.54V622.688H497.748ZM527.308 622.688V668H513.1V622.688H527.308ZM586.141 668H571.933L556.893 645.216V668H542.685V622.688H556.893L571.933 645.856V622.688H586.141V668ZM629.296 638.176C628.741 637.28 627.952 636.597 626.928 636.128C625.904 635.616 624.667 635.36 623.216 635.36C620.485 635.36 618.373 636.256 616.88 638.048C615.387 639.797 614.64 642.208 614.64 645.28C614.64 648.821 615.472 651.467 617.136 653.216C618.8 654.965 621.36 655.84 624.816 655.84C628.101 655.84 630.747 654.517 632.752 651.872H621.424V641.824H644.528V656.032C642.565 659.403 639.856 662.304 636.4 664.736C632.944 667.125 628.571 668.32 623.28 668.32C618.587 668.32 614.491 667.36 610.992 665.44C607.536 663.477 604.869 660.747 602.992 657.248C601.157 653.749 600.24 649.76 600.24 645.28C600.24 640.8 601.157 636.811 602.992 633.312C604.869 629.813 607.536 627.104 610.992 625.184C614.448 623.221 618.501 622.24 623.152 622.24C629.083 622.24 633.904 623.669 637.616 626.528C641.371 629.387 643.589 633.269 644.272 638.176H629.296Z" fill="white"/>
<path d="M360.327 587.152L363.179 586.219L362.502 584.152H360.327V587.152ZM345.223 587.152V584.152H343.048L342.372 586.219L345.223 587.152ZM342.983 594V597H345.158L345.835 594.933L342.983 594ZM328.071 594L325.254 592.969L323.779 597H328.071V594ZM344.647 548.688V545.688H342.55L341.83 547.657L344.647 548.688ZM361.031 548.688L363.85 547.661L363.131 545.688H361.031V548.688ZM377.543 594V597H381.829L380.362 592.973L377.543 594ZM362.567 594L359.716 594.933L360.392 597H362.567V594ZM356.871 576.464V579.464H361L359.724 575.537L356.871 576.464ZM352.775 563.856L355.628 562.929L352.775 554.147L349.922 562.929L352.775 563.856ZM348.679 576.464L345.826 575.537L344.55 579.464H348.679V576.464ZM360.327 587.152V584.152H345.223V587.152V590.152H360.327V587.152ZM345.223 587.152L342.372 586.219L340.132 593.067L342.983 594L345.835 594.933L348.075 588.085L345.223 587.152ZM342.983 594V591H328.071V594V597H342.983V594ZM328.071 594L330.889 595.031L347.465 549.719L344.647 548.688L341.83 547.657L325.254 592.969L328.071 594ZM344.647 548.688V551.688H361.031V548.688V545.688H344.647V548.688ZM361.031 548.688L358.213 549.715L374.725 595.027L377.543 594L380.362 592.973L363.85 547.661L361.031 548.688ZM377.543 594V591H362.567V594V597H377.543V594ZM362.567 594L365.419 593.067L363.179 586.219L360.327 587.152L357.476 588.085L359.716 594.933L362.567 594ZM356.871 576.464L359.724 575.537L355.628 562.929L352.775 563.856L349.922 564.783L354.018 577.391L356.871 576.464ZM352.775 563.856L349.922 562.929L345.826 575.537L348.679 576.464L351.532 577.391L355.628 564.783L352.775 563.856ZM348.679 576.464V579.464H356.871V576.464V573.464H348.679V576.464ZM433.187 594V597H436.187V594H433.187ZM418.979 594L416.476 595.653L417.365 597H418.979V594ZM403.939 571.216L406.443 569.563L400.939 561.226V571.216H403.939ZM403.939 594V597H406.939V594H403.939ZM389.731 594H386.731V597H389.731V594ZM389.731 548.688V545.688H386.731V548.688H389.731ZM403.939 548.688L406.456 547.055L405.568 545.688H403.939V548.688ZM418.979 571.856L416.463 573.489L421.979 581.987V571.856H418.979ZM418.979 548.688V545.688H415.979V548.688H418.979ZM433.187 548.688H436.187V545.688H433.187V548.688ZM433.187 594V591H418.979V594V597H433.187V594ZM418.979 594L421.483 592.347L406.443 569.563L403.939 571.216L401.436 572.869L416.476 595.653L418.979 594ZM403.939 571.216H400.939V594H403.939H406.939V571.216H403.939ZM403.939 594V591H389.731V594V597H403.939V594ZM389.731 594H392.731V548.688H389.731H386.731V594H389.731ZM389.731 548.688V551.688H403.939V548.688V545.688H389.731V548.688ZM403.939 548.688L401.423 550.321L416.463 573.489L418.979 571.856L421.496 570.223L406.456 547.055L403.939 548.688ZM418.979 571.856H421.979V548.688H418.979H415.979V571.856H418.979ZM418.979 548.688V551.688H433.187V548.688V545.688H418.979V548.688ZM433.187 548.688H430.187V594H433.187H436.187V548.688H433.187ZM479.862 551.568L478.432 554.205L478.439 554.209L478.446 554.212L479.862 551.568ZM488.118 559.568L490.733 558.097L490.733 558.097L488.118 559.568ZM488.118 582.864L490.741 584.321L490.741 584.321L488.118 582.864ZM479.862 591.056L481.317 593.68L481.327 593.674L479.862 591.056ZM448.566 594H445.566V597H448.566V594ZM448.566 548.688V545.688H445.566V548.688H448.566ZM473.782 578.704L475.827 580.899L475.827 580.899L473.782 578.704ZM473.782 563.728L475.827 561.533L475.827 561.533L473.782 563.728ZM462.774 561.104V558.104H459.774V561.104H462.774ZM462.774 581.328H459.774V584.328H462.774V581.328ZM467.446 548.688V551.688C471.771 551.688 475.401 552.562 478.432 554.205L479.862 551.568L481.292 548.931C477.241 546.734 472.594 545.688 467.446 545.688V548.688ZM479.862 551.568L478.446 554.212C481.547 555.874 483.874 558.142 485.504 561.039L488.118 559.568L490.733 558.097C488.522 554.167 485.346 551.102 481.279 548.924L479.862 551.568ZM488.118 559.568L485.504 561.039C487.144 563.955 487.998 567.321 487.998 571.216H490.998H493.998C493.998 566.407 492.933 562.008 490.733 558.097L488.118 559.568ZM490.998 571.216H487.998C487.998 575.063 487.146 578.436 485.496 581.407L488.118 582.864L490.741 584.321C492.93 580.38 493.998 575.988 493.998 571.216H490.998ZM488.118 582.864L485.496 581.407C483.857 584.357 481.515 586.694 478.397 588.438L479.862 591.056L481.327 593.674C485.378 591.408 488.539 588.283 490.741 584.321L488.118 582.864ZM479.862 591.056L478.408 588.432C475.382 590.109 471.76 591 467.446 591V594V597C472.604 597 477.26 595.928 481.317 593.68L479.862 591.056ZM467.446 594V591H448.566V594V597H467.446V594ZM448.566 594H451.566V548.688H448.566H445.566V594H448.566ZM448.566 548.688V551.688H467.446V548.688V545.688H448.566V548.688ZM466.166 581.328V584.328C469.929 584.328 473.266 583.285 475.827 580.899L473.782 578.704L471.737 576.509C470.544 577.621 468.803 578.328 466.166 578.328V581.328ZM473.782 578.704L475.827 580.899C478.466 578.44 479.598 575.057 479.598 571.216H476.598H473.598C473.598 573.86 472.853 575.469 471.737 576.509L473.782 578.704ZM476.598 571.216H479.598C479.598 567.375 478.466 563.992 475.827 561.533L473.782 563.728L471.737 565.923C472.853 566.963 473.598 568.572 473.598 571.216H476.598ZM473.782 563.728L475.827 561.533C473.266 559.147 469.929 558.104 466.166 558.104V561.104V564.104C468.803 564.104 470.544 564.811 471.737 565.923L473.782 563.728ZM466.166 561.104V558.104H462.774V561.104V564.104H466.166V561.104ZM462.774 561.104H459.774V581.328H462.774H465.774V561.104H462.774ZM462.774 581.328V584.328H466.166V581.328V578.328H462.774V581.328ZM212.827 646.048L215.429 647.542L215.435 647.531L215.44 647.521L212.827 646.048ZM206.939 651.552L205.545 648.895L205.536 648.9L205.527 648.905L206.939 651.552ZM191.963 653.6V650.6H188.963V653.6H191.963ZM191.963 668V671H194.963V668H191.963ZM177.755 668H174.755V671H177.755V668ZM177.755 622.688V619.688H174.755V622.688H177.755ZM210.331 626.912L208.257 629.08L208.265 629.087L208.273 629.095L210.331 626.912ZM191.963 634.08V631.08H188.963V634.08H191.963ZM191.963 642.4H188.963V645.4H191.963V642.4ZM214.811 638.24H211.811C211.811 640.615 211.267 642.706 210.214 644.575L212.827 646.048L215.44 647.521C217.032 644.697 217.811 641.582 217.811 638.24H214.811ZM212.827 646.048L210.225 644.554C209.216 646.312 207.698 647.766 205.545 648.895L206.939 651.552L208.333 654.209C211.385 652.607 213.792 650.392 215.429 647.542L212.827 646.048ZM206.939 651.552L205.527 648.905C203.502 649.985 200.899 650.6 197.595 650.6V653.6V656.6C201.629 656.6 205.256 655.849 208.351 654.199L206.939 651.552ZM197.595 653.6V650.6H191.963V653.6V656.6H197.595V653.6ZM191.963 653.6H188.963V668H191.963H194.963V653.6H191.963ZM191.963 668V665H177.755V668V671H191.963V668ZM177.755 668H180.755V622.688H177.755H174.755V668H177.755ZM177.755 622.688V625.688H197.595V622.688V619.688H177.755V622.688ZM197.595 622.688V625.688C202.654 625.688 206.048 626.967 208.257 629.08L210.331 626.912L212.405 624.744C208.726 621.225 203.63 619.688 197.595 619.688V622.688ZM210.331 626.912L208.273 629.095C210.564 631.255 211.811 634.191 211.811 638.24H214.811H217.811C217.811 632.817 216.071 628.201 212.389 624.729L210.331 626.912ZM195.995 642.4V645.4C197.886 645.4 199.863 644.958 201.364 643.544C202.899 642.098 203.411 640.136 203.411 638.24H200.411H197.411C197.411 638.676 197.352 638.931 197.307 639.059C197.285 639.121 197.267 639.152 197.26 639.163C197.253 639.174 197.25 639.176 197.25 639.176C197.249 639.177 197.239 639.187 197.21 639.203C197.179 639.221 197.122 639.248 197.028 639.278C196.834 639.339 196.505 639.4 195.995 639.4V642.4ZM200.411 638.24H203.411C203.411 636.344 202.899 634.382 201.364 632.936C199.863 631.522 197.886 631.08 195.995 631.08V634.08V637.08C196.505 637.08 196.834 637.141 197.028 637.202C197.122 637.232 197.179 637.259 197.21 637.277C197.239 637.293 197.249 637.303 197.25 637.304C197.25 637.304 197.253 637.306 197.26 637.317C197.267 637.328 197.285 637.359 197.307 637.421C197.352 637.549 197.411 637.804 197.411 638.24H200.411ZM195.995 634.08V631.08H191.963V634.08V637.08H195.995V634.08ZM191.963 634.08H188.963V642.4H191.963H194.963V634.08H191.963ZM191.963 642.4V645.4H195.995V642.4V639.4H191.963V642.4ZM242.165 622.688H245.165V619.688H242.165V622.688ZM243.509 653.216L241.08 654.976L241.114 655.023L241.151 655.069L243.509 653.216ZM252.533 653.216L254.852 655.12L254.868 655.1L254.884 655.08L252.533 653.216ZM254.005 622.688V619.688H251.005V622.688H254.005ZM268.149 622.688H271.149V619.688H268.149V622.688ZM265.461 659.296L268.044 660.823L268.048 660.816L268.053 660.808L265.461 659.296ZM258.101 666.144L259.428 668.835L259.428 668.835L258.101 666.144ZM237.429 666.144L236.042 668.804L236.05 668.808L236.057 668.812L237.429 666.144ZM230.517 659.296L227.888 660.74L227.888 660.74L230.517 659.296ZM228.021 622.688V619.688H225.021V622.688H228.021ZM242.165 622.688H239.165V648.224H242.165H245.165V622.688H242.165ZM242.165 648.224H239.165C239.165 650.718 239.699 653.068 241.08 654.976L243.509 653.216L245.939 651.456C245.528 650.889 245.165 649.911 245.165 648.224H242.165ZM243.509 653.216L241.151 655.069C242.841 657.221 245.364 658.008 247.989 658.008V655.008V652.008C246.519 652.008 246.056 651.601 245.868 651.363L243.509 653.216ZM247.989 655.008V658.008C250.623 658.008 253.128 657.218 254.852 655.12L252.533 653.216L250.215 651.312C249.976 651.603 249.452 652.008 247.989 652.008V655.008ZM252.533 653.216L254.884 655.08C256.405 653.163 257.005 650.772 257.005 648.224H254.005H251.005C251.005 649.858 250.625 650.795 250.183 651.352L252.533 653.216ZM254.005 648.224H257.005V622.688H254.005H251.005V648.224H254.005ZM254.005 622.688V625.688H268.149V622.688V619.688H254.005V622.688ZM268.149 622.688H265.149V648.224H268.149H271.149V622.688H268.149ZM268.149 648.224H265.149C265.149 652.114 264.343 655.259 262.87 657.784L265.461 659.296L268.053 660.808C270.164 657.189 271.149 652.952 271.149 648.224H268.149ZM265.461 659.296L262.879 657.769C261.38 660.304 259.359 662.179 256.775 663.453L258.101 666.144L259.428 668.835C263.073 667.037 265.959 664.347 268.044 660.823L265.461 659.296ZM258.101 666.144L256.775 663.453C254.115 664.765 251.099 665.448 247.669 665.448V668.448V671.448C251.92 671.448 255.859 670.595 259.428 668.835L258.101 666.144ZM247.669 668.448V665.448C244.238 665.448 241.307 664.764 238.802 663.476L237.429 666.144L236.057 668.812C239.526 670.596 243.421 671.448 247.669 671.448V668.448ZM237.429 666.144L238.817 663.484C236.42 662.234 234.538 660.385 233.147 657.852L230.517 659.296L227.888 660.74C229.825 664.266 232.551 666.982 236.042 668.804L237.429 666.144ZM230.517 659.296L233.147 657.852C231.781 655.365 231.021 652.199 231.021 648.224H228.021H225.021C225.021 652.953 225.926 657.168 227.888 660.74L230.517 659.296ZM228.021 648.224H231.021V622.688H228.021H225.021V648.224H228.021ZM228.021 622.688V625.688H242.165V622.688V619.688H228.021V622.688ZM313.573 644.768L312.821 641.864L312.889 647.689L313.573 644.768ZM319.909 648.736L317.503 650.528L317.525 650.557L317.547 650.585L319.909 648.736ZM318.245 664.8L320.147 667.12L320.151 667.117L318.245 664.8ZM283.237 668H280.237V671H283.237V668ZM283.237 622.688V619.688H280.237V622.688H283.237ZM319.077 641.184L316.698 639.358L316.691 639.366L319.077 641.184ZM297.445 640.352H294.445V643.352H297.445V640.352ZM305.765 639.584L303.891 637.241L303.852 637.273L303.813 637.306L305.765 639.584ZM305.765 634.784L303.724 636.982L303.805 637.058L303.891 637.127L305.765 634.784ZM297.445 633.952V630.952H294.445V633.952H297.445ZM306.725 655.904L308.579 658.263L308.589 658.255L308.6 658.247L306.725 655.904ZM297.445 650.208V647.208H294.445V650.208H297.445ZM297.445 656.608H294.445V659.608H297.445V656.608ZM313.573 644.768L312.889 647.689C315.02 648.188 316.485 649.16 317.503 650.528L319.909 648.736L322.316 646.944C320.348 644.302 317.588 642.628 314.258 641.847L313.573 644.768ZM319.909 648.736L317.547 650.585C318.651 651.995 319.213 653.62 319.213 655.584H322.213H325.213C325.213 652.343 324.24 649.402 322.272 646.887L319.909 648.736ZM322.213 655.584H319.213C319.213 658.814 318.178 660.971 316.34 662.483L318.245 664.8L320.151 667.117C323.603 664.277 325.213 660.29 325.213 655.584H322.213ZM318.245 664.8L316.344 662.48C314.475 664.011 311.503 665 306.981 665V668V671C312.273 671 316.81 669.855 320.147 667.12L318.245 664.8ZM306.981 668V665H283.237V668V671H306.981V668ZM283.237 668H286.237V622.688H283.237H280.237V668H283.237ZM283.237 622.688V625.688H306.341V622.688V619.688H283.237V622.688ZM306.341 622.688V625.688C310.544 625.688 313.454 626.604 315.409 628.087L317.221 625.696L319.034 623.305C315.698 620.777 311.355 619.688 306.341 619.688V622.688ZM317.221 625.696L315.409 628.087C317.183 629.431 318.189 631.396 318.189 634.464H321.189H324.189C324.189 629.852 322.551 625.972 319.034 623.305L317.221 625.696ZM321.189 634.464H318.189C318.189 636.548 317.647 638.121 316.698 639.358L319.077 641.184L321.457 643.01C323.324 640.578 324.189 637.67 324.189 634.464H321.189ZM319.077 641.184L316.691 639.366C315.757 640.592 314.513 641.425 312.821 641.864L313.573 644.768L314.326 647.672C317.242 646.916 319.667 645.36 321.464 643.002L319.077 641.184ZM297.445 640.352V643.352H302.949V640.352V637.352H297.445V640.352ZM302.949 640.352V643.352C304.526 643.352 306.326 643.055 307.718 641.862L305.765 639.584L303.813 637.306C303.922 637.213 303.964 637.228 303.824 637.266C303.678 637.305 303.402 637.352 302.949 637.352V640.352ZM305.765 639.584L307.64 641.927C309.195 640.682 309.725 638.897 309.725 637.216H306.725H303.725C303.725 637.457 303.689 637.522 303.705 637.481C303.714 637.458 303.735 637.417 303.771 637.367C303.808 637.317 303.851 637.274 303.891 637.241L305.765 639.584ZM306.725 637.216H309.725C309.725 635.539 309.222 633.707 307.64 632.441L305.765 634.784L303.891 637.127C303.842 637.087 303.796 637.039 303.758 636.986C303.72 636.934 303.701 636.894 303.695 636.877C303.684 636.851 303.725 636.94 303.725 637.216H306.725ZM305.765 634.784L307.807 632.586C306.412 631.29 304.572 630.952 302.949 630.952V633.952V636.952C303.385 636.952 303.64 637.001 303.763 637.037C303.877 637.071 303.826 637.077 303.724 636.982L305.765 634.784ZM302.949 633.952V630.952H297.445V633.952V636.952H302.949V633.952ZM297.445 633.952H294.445V640.352H297.445H300.445V633.952H297.445ZM303.909 656.608V659.608C305.442 659.608 307.198 659.348 308.579 658.263L306.725 655.904L304.872 653.545C304.983 653.458 305.013 653.48 304.846 653.522C304.677 653.564 304.378 653.608 303.909 653.608V656.608ZM306.725 655.904L308.6 658.247C310.182 656.981 310.685 655.149 310.685 653.472H307.685H304.685C304.685 653.748 304.644 653.837 304.655 653.811C304.661 653.794 304.68 653.754 304.718 653.702C304.756 653.649 304.802 653.601 304.851 653.561L306.725 655.904ZM307.685 653.472H310.685C310.685 651.798 310.181 650.032 308.703 648.754C307.309 647.549 305.532 647.208 303.909 647.208V650.208V653.208C304.332 653.208 304.592 653.255 304.731 653.295C304.861 653.332 304.847 653.352 304.78 653.294C304.702 653.227 304.661 653.15 304.65 653.123C304.647 653.114 304.685 653.21 304.685 653.472H307.685ZM303.909 650.208V647.208H297.445V650.208V653.208H303.909V650.208ZM297.445 650.208H294.445V656.608H297.445H300.445V650.208H297.445ZM297.445 656.608V659.608H303.909V656.608V653.608H297.445V656.608ZM350.155 657.248H347.155V660.248H350.155V657.248ZM363.851 657.248H366.851V654.248H363.851V657.248ZM363.851 668V671H366.851V668H363.851ZM335.947 668H332.947V671H335.947V668ZM335.947 622.688V619.688H332.947V622.688H335.947ZM350.155 622.688H353.155V619.688H350.155V622.688ZM350.155 657.248V660.248H363.851V657.248V654.248H350.155V657.248ZM363.851 657.248H360.851V668H363.851H366.851V657.248H363.851ZM363.851 668V665H335.947V668V671H363.851V668ZM335.947 668H338.947V622.688H335.947H332.947V668H335.947ZM335.947 622.688V625.688H350.155V622.688V619.688H335.947V622.688ZM350.155 622.688H347.155V657.248H350.155H353.155V622.688H350.155ZM391.49 622.688H394.49V619.688H391.49V622.688ZM391.49 668V671H394.49V668H391.49ZM377.282 668H374.282V671H377.282V668ZM377.282 622.688V619.688H374.282V622.688H377.282ZM391.49 622.688H388.49V668H391.49H394.49V622.688H391.49ZM391.49 668V665H377.282V668V671H391.49V668ZM377.282 668H380.282V622.688H377.282H374.282V668H377.282ZM377.282 622.688V625.688H391.49V622.688V619.688H377.282V622.688ZM411.155 664.672L409.384 667.093L409.401 667.105L409.417 667.117L411.155 664.672ZM405.459 653.472V650.472H402.271L402.465 653.654L405.459 653.472ZM420.563 653.472L423.553 653.227L423.328 650.472H420.563V653.472ZM425.939 656.864L427.604 659.36L427.625 659.346L427.647 659.331L425.939 656.864ZM425.043 652.576L423.514 655.157L423.55 655.178L423.587 655.198L425.043 652.576ZM419.667 650.272L418.669 653.101L418.674 653.103L419.667 650.272ZM412.435 647.264L411.046 649.923L411.058 649.929L411.07 649.935L412.435 647.264ZM407.571 642.976L409.998 641.211L409.998 641.211L407.571 642.976ZM405.587 635.744L408.587 635.787L408.587 635.766V635.744H405.587ZM407.827 628.256L405.41 626.48L405.403 626.488L407.827 628.256ZM414.035 623.52L412.914 620.738L412.906 620.741L412.898 620.744L414.035 623.52ZM436.115 625.76L434.257 628.115L434.264 628.121L434.272 628.126L436.115 625.76ZM441.299 636.576V639.576H444.412L444.297 636.466L441.299 636.576ZM426.003 636.576L423.005 636.676L423.102 639.576H426.003V636.576ZM421.395 633.632L423.517 635.753L423.573 635.698L423.625 635.639L421.395 633.632ZM422.483 637.856L420.911 640.411L420.968 640.446L421.027 640.478L422.483 637.856ZM427.923 640.224L426.86 643.029L426.867 643.032L426.875 643.035L427.923 640.224ZM434.963 643.296L433.549 645.941L433.561 645.948L433.574 645.955L434.963 643.296ZM439.827 647.392L437.463 649.238L437.463 649.238L439.827 647.392ZM439.827 661.472L442.369 663.066L442.376 663.055L442.382 663.044L439.827 661.472ZM433.875 666.592L432.587 663.883L433.875 666.592ZM424.595 668.448V665.448C419.644 665.448 415.814 664.303 412.894 662.227L411.155 664.672L409.417 667.117C413.58 670.076 418.709 671.448 424.595 671.448V668.448ZM411.155 664.672L412.927 662.251C410.251 660.293 408.707 657.439 408.454 653.29L405.459 653.472L402.465 653.654C402.81 659.318 405.063 663.931 409.384 667.093L411.155 664.672ZM405.459 653.472V656.472H420.563V653.472V650.472H405.459V653.472ZM420.563 653.472L417.574 653.717C417.708 655.356 418.168 657.063 419.341 658.389C420.602 659.812 422.305 660.376 424.019 660.376V657.376V654.376C423.806 654.376 423.732 654.343 423.745 654.348C423.77 654.358 423.811 654.386 423.834 654.411C423.855 654.436 423.632 654.19 423.553 653.227L420.563 653.472ZM424.019 657.376V660.376C425.232 660.376 426.489 660.103 427.604 659.36L425.939 656.864L424.275 654.368C424.313 654.343 424.33 654.342 424.302 654.349C424.271 654.358 424.183 654.376 424.019 654.376V657.376ZM425.939 656.864L427.647 659.331C429.133 658.302 429.771 656.73 429.771 655.136H426.771H423.771C423.771 655.159 423.768 655.034 423.86 654.843C423.96 654.636 424.107 654.484 424.232 654.397L425.939 656.864ZM426.771 655.136H429.771C429.771 652.708 428.341 650.976 426.5 649.954L425.043 652.576L423.587 655.198C423.862 655.351 423.893 655.433 423.853 655.374C423.832 655.344 423.807 655.296 423.79 655.238C423.773 655.181 423.771 655.143 423.771 655.136H426.771ZM425.043 652.576L426.573 649.995C425.16 649.158 423.142 648.312 420.661 647.441L419.667 650.272L418.674 653.103C421.057 653.939 422.623 654.629 423.514 655.157L425.043 652.576ZM419.667 650.272L420.666 647.443C417.842 646.446 415.564 645.494 413.801 644.593L412.435 647.264L411.07 649.935C413.147 650.997 415.69 652.05 418.669 653.101L419.667 650.272ZM412.435 647.264L413.825 644.605C412.396 643.858 411.118 642.751 409.998 641.211L407.571 642.976L405.145 644.741C406.756 646.955 408.721 648.707 411.046 649.923L412.435 647.264ZM407.571 642.976L409.998 641.211C409.106 639.985 408.551 638.259 408.587 635.787L405.587 635.744L402.588 635.701C402.538 639.117 403.306 642.212 405.145 644.741L407.571 642.976ZM405.587 635.744H408.587C408.587 633.329 409.191 631.479 410.252 630.024L407.827 628.256L405.403 626.488C403.478 629.129 402.587 632.271 402.587 635.744H405.587ZM407.827 628.256L410.245 630.032C411.427 628.423 413.036 627.172 415.173 626.296L414.035 623.52L412.898 620.744C409.829 622.002 407.3 623.907 405.41 626.48L407.827 628.256ZM414.035 623.52L415.157 626.302C417.396 625.4 419.973 624.92 422.931 624.92V621.92V618.92C419.319 618.92 415.965 619.507 412.914 620.738L414.035 623.52ZM422.931 621.92V624.92C428.034 624.92 431.7 626.096 434.257 628.115L436.115 625.76L437.974 623.405C434.046 620.304 428.922 618.92 422.931 618.92V621.92ZM436.115 625.76L434.272 628.126C436.77 630.074 438.159 632.804 438.301 636.686L441.299 636.576L444.297 636.466C444.099 631.047 442.031 626.566 437.959 623.394L436.115 625.76ZM441.299 636.576V633.576H426.003V636.576V639.576H441.299V636.576ZM426.003 636.576L429.002 636.476C428.947 634.84 428.528 632.966 427.085 631.626L425.043 633.824L423.002 636.022C422.88 635.909 422.869 635.831 422.899 635.916C422.933 636.014 422.991 636.248 423.005 636.676L426.003 636.576ZM425.043 633.824L427.085 631.626C425.905 630.53 424.439 629.992 422.867 629.992V632.992V635.992C422.918 635.992 422.949 635.996 422.964 635.999C422.979 636.001 422.983 636.003 422.98 636.002C422.977 636.001 422.974 635.999 422.974 635.999C422.974 636 422.984 636.005 423.002 636.022L425.043 633.824ZM422.867 632.992V629.992C421.459 629.992 420.144 630.538 419.166 631.625L421.395 633.632L423.625 635.639C423.551 635.721 423.424 635.826 423.248 635.903C423.074 635.979 422.932 635.992 422.867 635.992V632.992ZM421.395 633.632L419.274 631.511C418.159 632.626 417.819 634.051 417.819 635.296H420.819H423.819C423.819 635.192 423.834 635.215 423.798 635.317C423.758 635.434 423.671 635.599 423.517 635.753L421.395 633.632ZM420.819 635.296H417.819C417.819 637.649 419.191 639.352 420.911 640.411L422.483 637.856L424.056 635.301C423.777 635.13 423.728 635.034 423.751 635.069C423.764 635.089 423.785 635.128 423.801 635.182C423.816 635.236 423.819 635.278 423.819 635.296H420.819ZM422.483 637.856L421.027 640.478C422.376 641.228 424.356 642.079 426.86 643.029L427.923 640.224L428.987 637.419C426.542 636.491 424.895 635.764 423.94 635.234L422.483 637.856ZM427.923 640.224L426.875 643.035C429.66 644.074 431.873 645.045 433.549 645.941L434.963 643.296L436.378 640.651C434.385 639.584 431.904 638.507 428.972 637.413L427.923 640.224ZM434.963 643.296L433.574 645.955C435.054 646.728 436.348 647.809 437.463 649.238L439.827 647.392L442.192 645.546C440.577 643.476 438.628 641.826 436.353 640.637L434.963 643.296ZM439.827 647.392L437.463 649.238C438.341 650.364 438.875 651.874 438.875 653.984H441.875H444.875C444.875 650.803 444.044 647.919 442.192 645.546L439.827 647.392ZM441.875 653.984H438.875C438.875 656.24 438.328 658.185 437.273 659.9L439.827 661.472L442.382 663.044C444.058 660.322 444.875 657.275 444.875 653.984H441.875ZM439.827 661.472L437.286 659.878C436.26 661.513 434.74 662.859 432.587 663.883L433.875 666.592L435.164 669.301C438.217 667.85 440.664 665.783 442.369 663.066L439.827 661.472ZM433.875 666.592L432.587 663.883C430.473 664.888 427.84 665.448 424.595 665.448V668.448V671.448C428.519 671.448 432.073 670.771 435.164 669.301L433.875 666.592ZM497.748 622.688H500.748V619.688H497.748V622.688ZM497.748 668V671H500.748V668H497.748ZM483.54 668H480.54V671H483.54V668ZM483.54 650.336H486.54V647.336H483.54V650.336ZM470.036 650.336V647.336H467.036V650.336H470.036ZM470.036 668V671H473.036V668H470.036ZM455.828 668H452.828V671H455.828V668ZM455.828 622.688V619.688H452.828V622.688H455.828ZM470.036 622.688H473.036V619.688H470.036V622.688ZM470.036 639.008H467.036V642.008H470.036V639.008ZM483.54 639.008V642.008H486.54V639.008H483.54ZM483.54 622.688V619.688H480.54V622.688H483.54ZM497.748 622.688H494.748V668H497.748H500.748V622.688H497.748ZM497.748 668V665H483.54V668V671H497.748V668ZM483.54 668H486.54V650.336H483.54H480.54V668H483.54ZM483.54 650.336V647.336H470.036V650.336V653.336H483.54V650.336ZM470.036 650.336H467.036V668H470.036H473.036V650.336H470.036ZM470.036 668V665H455.828V668V671H470.036V668ZM455.828 668H458.828V622.688H455.828H452.828V668H455.828ZM455.828 622.688V625.688H470.036V622.688V619.688H455.828V622.688ZM470.036 622.688H467.036V639.008H470.036H473.036V622.688H470.036ZM470.036 639.008V642.008H483.54V639.008V636.008H470.036V639.008ZM483.54 639.008H486.54V622.688H483.54H480.54V639.008H483.54ZM483.54 622.688V625.688H497.748V622.688V619.688H483.54V622.688ZM527.308 622.688H530.308V619.688H527.308V622.688ZM527.308 668V671H530.308V668H527.308ZM513.1 668H510.1V671H513.1V668ZM513.1 622.688V619.688H510.1V622.688H513.1ZM527.308 622.688H524.308V668H527.308H530.308V622.688H527.308ZM527.308 668V665H513.1V668V671H527.308V668ZM513.1 668H516.1V622.688H513.1H510.1V668H513.1ZM513.1 622.688V625.688H527.308V622.688V619.688H513.1V622.688ZM586.141 668V671H589.141V668H586.141ZM571.933 668L569.429 669.653L570.319 671H571.933V668ZM556.893 645.216L559.397 643.563L553.893 635.226V645.216H556.893ZM556.893 668V671H559.893V668H556.893ZM542.685 668H539.685V671H542.685V668ZM542.685 622.688V619.688H539.685V622.688H542.685ZM556.893 622.688L559.409 621.055L558.522 619.688H556.893V622.688ZM571.933 645.856L569.417 647.489L574.933 655.987V645.856H571.933ZM571.933 622.688V619.688H568.933V622.688H571.933ZM586.141 622.688H589.141V619.688H586.141V622.688ZM586.141 668V665H571.933V668V671H586.141V668ZM571.933 668L574.437 666.347L559.397 643.563L556.893 645.216L554.389 646.869L569.429 669.653L571.933 668ZM556.893 645.216H553.893V668H556.893H559.893V645.216H556.893ZM556.893 668V665H542.685V668V671H556.893V668ZM542.685 668H545.685V622.688H542.685H539.685V668H542.685ZM542.685 622.688V625.688H556.893V622.688V619.688H542.685V622.688ZM556.893 622.688L554.377 624.321L569.417 647.489L571.933 645.856L574.449 644.223L559.409 621.055L556.893 622.688ZM571.933 645.856H574.933V622.688H571.933H568.933V645.856H571.933ZM571.933 622.688V625.688H586.141V622.688V619.688H571.933V622.688ZM586.141 622.688H583.141V668H586.141H589.141V622.688H586.141ZM629.296 638.176L626.745 639.755L627.625 641.176H629.296V638.176ZM626.928 636.128L625.586 638.811L625.632 638.834L625.678 638.855L626.928 636.128ZM616.88 638.048L619.162 639.996L619.173 639.982L619.185 639.969L616.88 638.048ZM617.136 653.216L614.962 655.284L614.962 655.284L617.136 653.216ZM632.752 651.872L635.143 653.684L638.791 648.872H632.752V651.872ZM621.424 651.872H618.424V654.872H621.424V651.872ZM621.424 641.824V638.824H618.424V641.824H621.424ZM644.528 641.824H647.528V638.824H644.528V641.824ZM644.528 656.032L647.121 657.542L647.528 656.842V656.032H644.528ZM636.4 664.736L638.106 667.204L638.116 667.197L638.126 667.189L636.4 664.736ZM610.992 665.44L609.511 668.049L609.53 668.059L609.549 668.07L610.992 665.44ZM602.992 657.248L600.335 658.641L600.342 658.654L600.349 658.666L602.992 657.248ZM602.992 633.312L600.349 631.894L600.342 631.906L600.335 631.919L602.992 633.312ZM610.992 625.184L612.449 627.806L612.461 627.8L612.473 627.793L610.992 625.184ZM637.616 626.528L635.786 628.905L635.792 628.91L635.799 628.915L637.616 626.528ZM644.272 638.176V641.176H647.718L647.243 637.763L644.272 638.176ZM629.296 638.176L631.847 636.597C630.959 635.163 629.7 634.099 628.178 633.401L626.928 636.128L625.678 638.855C626.204 639.096 626.523 639.397 626.745 639.755L629.296 638.176ZM626.928 636.128L628.27 633.445C626.733 632.676 625.011 632.36 623.216 632.36V635.36V638.36C624.322 638.36 625.075 638.556 625.586 638.811L626.928 636.128ZM623.216 635.36V632.36C619.764 632.36 616.739 633.532 614.575 636.127L616.88 638.048L619.185 639.969C620.008 638.98 621.207 638.36 623.216 638.36V635.36ZM616.88 638.048L614.598 636.1C612.505 638.552 611.64 641.736 611.64 645.28H614.64H617.64C617.64 642.68 618.268 641.043 619.162 639.996L616.88 638.048ZM614.64 645.28H611.64C611.64 649.236 612.565 652.763 614.962 655.284L617.136 653.216L619.31 651.148C618.379 650.17 617.64 648.407 617.64 645.28H614.64ZM617.136 653.216L614.962 655.284C617.4 657.846 620.898 658.84 624.816 658.84V655.84V652.84C621.822 652.84 620.2 652.084 619.31 651.148L617.136 653.216ZM624.816 655.84V658.84C629.052 658.84 632.577 657.069 635.143 653.684L632.752 651.872L630.361 650.06C628.916 651.966 627.151 652.84 624.816 652.84V655.84ZM632.752 651.872V648.872H621.424V651.872V654.872H632.752V651.872ZM621.424 651.872H624.424V641.824H621.424H618.424V651.872H621.424ZM621.424 641.824V644.824H644.528V641.824V638.824H621.424V641.824ZM644.528 641.824H641.528V656.032H644.528H647.528V641.824H644.528ZM644.528 656.032L641.935 654.522C640.208 657.489 637.806 660.078 634.674 662.283L636.4 664.736L638.126 667.189C641.906 664.53 644.923 661.316 647.121 657.542L644.528 656.032ZM636.4 664.736L634.694 662.268C631.856 664.231 628.12 665.32 623.28 665.32V668.32V671.32C629.022 671.32 634.032 670.02 638.106 667.204L636.4 664.736ZM623.28 668.32V665.32C619.002 665.32 615.42 664.448 612.435 662.81L610.992 665.44L609.549 668.07C613.562 670.272 618.171 671.32 623.28 671.32V668.32ZM610.992 665.44L612.473 662.831C609.509 661.148 607.245 658.829 605.635 655.83L602.992 657.248L600.349 658.666C602.494 662.664 605.563 665.807 609.511 668.049L610.992 665.44ZM602.992 657.248L605.649 655.855C604.068 652.841 603.24 649.34 603.24 645.28H600.24H597.24C597.24 650.18 598.246 654.658 600.335 658.641L602.992 657.248ZM600.24 645.28H603.24C603.24 641.22 604.068 637.719 605.649 634.705L602.992 633.312L600.335 631.919C598.246 635.902 597.24 640.38 597.24 645.28H600.24ZM602.992 633.312L605.635 634.73C607.242 631.736 609.498 629.446 612.449 627.806L610.992 625.184L609.535 622.562C605.574 624.762 602.497 627.89 600.349 631.894L602.992 633.312ZM610.992 625.184L612.473 627.793C615.406 626.127 618.932 625.24 623.152 625.24V622.24V619.24C618.071 619.24 613.49 620.316 609.511 622.575L610.992 625.184ZM623.152 622.24V625.24C628.599 625.24 632.724 626.547 635.786 628.905L637.616 626.528L639.446 624.151C635.084 620.792 629.566 619.24 623.152 619.24V622.24ZM637.616 626.528L635.799 628.915C638.889 631.268 640.721 634.424 641.301 638.589L644.272 638.176L647.243 637.763C646.458 632.115 643.852 627.505 639.433 624.141L637.616 626.528ZM644.272 638.176V635.176H629.296V638.176V641.176H644.272V638.176Z" fill="black" mask="url(#path-3-outside-1_1027_2)"/>
<rect x="570" y="250" width="126" height="48" fill="#F5F5F5"/>
<mask id="path-6-outside-2_1027_2" maskUnits="userSpaceOnUse" x="177" y="477" width="469" height="53" fill="black">
<rect fill="white" x="177" y="477" width="469" height="53"/>
<path d="M234.73 480.688V526H220.586V503.408L213.61 526H201.45L194.474 503.408V526H180.266V480.688H197.674L207.658 507.888L217.386 480.688H234.73ZM279.157 519.152H264.053L261.813 526H246.901L263.477 480.688H279.861L296.373 526H281.397L279.157 519.152ZM275.701 508.464L271.605 495.856L267.509 508.464H275.701ZM331.345 526L322.833 509.744H322.769V526H308.561V480.688H329.681C333.351 480.688 336.487 481.349 339.089 482.672C341.692 483.952 343.633 485.723 344.913 487.984C346.236 490.203 346.897 492.72 346.897 495.536C346.897 498.565 346.044 501.253 344.337 503.6C342.673 505.947 340.263 507.632 337.105 508.656L346.961 526H331.345ZM322.769 500.272H328.401C329.767 500.272 330.791 499.973 331.473 499.376C332.156 498.736 332.497 497.755 332.497 496.432C332.497 495.237 332.135 494.299 331.409 493.616C330.727 492.933 329.724 492.592 328.401 492.592H322.769V500.272ZM387.788 526L374.604 506.352V526H360.396V480.688H374.604V499.76L387.596 480.688H403.66L388.044 502.384L404.684 526H387.788ZM431.877 492.016V497.584H445.957V508.272H431.877V514.672H447.877V526H417.669V480.688H447.877V492.016H431.877ZM497.775 480.688V491.952H485.743V526H471.535V491.952H459.631V480.688H497.775ZM524.797 480.688V526H510.589V480.688H524.797ZM583.63 526H569.422L554.382 503.216V526H540.174V480.688H554.382L569.422 503.856V480.688H583.63V526ZM626.785 496.176C626.23 495.28 625.441 494.597 624.417 494.128C623.393 493.616 622.155 493.36 620.705 493.36C617.974 493.36 615.862 494.256 614.369 496.048C612.875 497.797 612.129 500.208 612.129 503.28C612.129 506.821 612.961 509.467 614.625 511.216C616.289 512.965 618.849 513.84 622.305 513.84C625.59 513.84 628.235 512.517 630.241 509.872H618.913V499.824H642.017V514.032C640.054 517.403 637.345 520.304 633.889 522.736C630.433 525.125 626.059 526.32 620.769 526.32C616.075 526.32 611.979 525.36 608.481 523.44C605.025 521.477 602.358 518.747 600.481 515.248C598.646 511.749 597.729 507.76 597.729 503.28C597.729 498.8 598.646 494.811 600.481 491.312C602.358 487.813 605.025 485.104 608.481 483.184C611.937 481.221 615.99 480.24 620.641 480.24C626.571 480.24 631.393 481.669 635.105 484.528C638.859 487.387 641.078 491.269 641.761 496.176H626.785Z"/>
</mask>
<path d="M234.73 480.688V526H220.586V503.408L213.61 526H201.45L194.474 503.408V526H180.266V480.688H197.674L207.658 507.888L217.386 480.688H234.73ZM279.157 519.152H264.053L261.813 526H246.901L263.477 480.688H279.861L296.373 526H281.397L279.157 519.152ZM275.701 508.464L271.605 495.856L267.509 508.464H275.701ZM331.345 526L322.833 509.744H322.769V526H308.561V480.688H329.681C333.351 480.688 336.487 481.349 339.089 482.672C341.692 483.952 343.633 485.723 344.913 487.984C346.236 490.203 346.897 492.72 346.897 495.536C346.897 498.565 346.044 501.253 344.337 503.6C342.673 505.947 340.263 507.632 337.105 508.656L346.961 526H331.345ZM322.769 500.272H328.401C329.767 500.272 330.791 499.973 331.473 499.376C332.156 498.736 332.497 497.755 332.497 496.432C332.497 495.237 332.135 494.299 331.409 493.616C330.727 492.933 329.724 492.592 328.401 492.592H322.769V500.272ZM387.788 526L374.604 506.352V526H360.396V480.688H374.604V499.76L387.596 480.688H403.66L388.044 502.384L404.684 526H387.788ZM431.877 492.016V497.584H445.957V508.272H431.877V514.672H447.877V526H417.669V480.688H447.877V492.016H431.877ZM497.775 480.688V491.952H485.743V526H471.535V491.952H459.631V480.688H497.775ZM524.797 480.688V526H510.589V480.688H524.797ZM583.63 526H569.422L554.382 503.216V526H540.174V480.688H554.382L569.422 503.856V480.688H583.63V526ZM626.785 496.176C626.23 495.28 625.441 494.597 624.417 494.128C623.393 493.616 622.155 493.36 620.705 493.36C617.974 493.36 615.862 494.256 614.369 496.048C612.875 497.797 612.129 500.208 612.129 503.28C612.129 506.821 612.961 509.467 614.625 511.216C616.289 512.965 618.849 513.84 622.305 513.84C625.59 513.84 628.235 512.517 630.241 509.872H618.913V499.824H642.017V514.032C640.054 517.403 637.345 520.304 633.889 522.736C630.433 525.125 626.059 526.32 620.769 526.32C616.075 526.32 611.979 525.36 608.481 523.44C605.025 521.477 602.358 518.747 600.481 515.248C598.646 511.749 597.729 507.76 597.729 503.28C597.729 498.8 598.646 494.811 600.481 491.312C602.358 487.813 605.025 485.104 608.481 483.184C611.937 481.221 615.99 480.24 620.641 480.24C626.571 480.24 631.393 481.669 635.105 484.528C638.859 487.387 641.078 491.269 641.761 496.176H626.785Z" fill="white"/>
<path d="M234.73 480.688H237.73V477.688H234.73V480.688ZM234.73 526V529H237.73V526H234.73ZM220.586 526H217.586V529H220.586V526ZM220.586 503.408H223.586L217.72 502.523L220.586 503.408ZM213.61 526V529H215.824L216.477 526.885L213.61 526ZM201.45 526L198.584 526.885L199.237 529H201.45V526ZM194.474 503.408L197.341 502.523L191.474 503.408H194.474ZM194.474 526V529H197.474V526H194.474ZM180.266 526H177.266V529H180.266V526ZM180.266 480.688V477.688H177.266V480.688H180.266ZM197.674 480.688L200.491 479.654L199.769 477.688H197.674V480.688ZM207.658 507.888L204.842 508.922L207.695 516.694L210.483 508.898L207.658 507.888ZM217.386 480.688V477.688H215.273L214.561 479.678L217.386 480.688ZM234.73 480.688H231.73V526H234.73H237.73V480.688H234.73ZM234.73 526V523H220.586V526V529H234.73V526ZM220.586 526H223.586V503.408H220.586H217.586V526H220.586ZM220.586 503.408L217.72 502.523L210.744 525.115L213.61 526L216.477 526.885L223.453 504.293L220.586 503.408ZM213.61 526V523H201.45V526V529H213.61V526ZM201.45 526L204.317 525.115L197.341 502.523L194.474 503.408L191.608 504.293L198.584 526.885L201.45 526ZM194.474 503.408H191.474V526H194.474H197.474V503.408H194.474ZM194.474 526V523H180.266V526V529H194.474V526ZM180.266 526H183.266V480.688H180.266H177.266V526H180.266ZM180.266 480.688V483.688H197.674V480.688V477.688H180.266V480.688ZM197.674 480.688L194.858 481.722L204.842 508.922L207.658 507.888L210.475 506.854L200.491 479.654L197.674 480.688ZM207.658 507.888L210.483 508.898L220.211 481.698L217.386 480.688L214.561 479.678L204.833 506.878L207.658 507.888ZM217.386 480.688V483.688H234.73V480.688V477.688H217.386V480.688ZM279.157 519.152L282.009 518.219L281.332 516.152H279.157V519.152ZM264.053 519.152V516.152H261.878L261.202 518.219L264.053 519.152ZM261.813 526V529H263.988L264.665 526.933L261.813 526ZM246.901 526L244.084 524.969L242.609 529H246.901V526ZM263.477 480.688V477.688H261.38L260.66 479.657L263.477 480.688ZM279.861 480.688L282.68 479.661L281.961 477.688H279.861V480.688ZM296.373 526V529H300.659L299.192 524.973L296.373 526ZM281.397 526L278.546 526.933L279.222 529H281.397V526ZM275.701 508.464V511.464H279.83L278.554 507.537L275.701 508.464ZM271.605 495.856L274.458 494.929L271.605 486.147L268.752 494.929L271.605 495.856ZM267.509 508.464L264.656 507.537L263.38 511.464H267.509V508.464ZM279.157 519.152V516.152H264.053V519.152V522.152H279.157V519.152ZM264.053 519.152L261.202 518.219L258.962 525.067L261.813 526L264.665 526.933L266.905 520.085L264.053 519.152ZM261.813 526V523H246.901V526V529H261.813V526ZM246.901 526L249.719 527.031L266.295 481.719L263.477 480.688L260.66 479.657L244.084 524.969L246.901 526ZM263.477 480.688V483.688H279.861V480.688V477.688H263.477V480.688ZM279.861 480.688L277.043 481.715L293.555 527.027L296.373 526L299.192 524.973L282.68 479.661L279.861 480.688ZM296.373 526V523H281.397V526V529H296.373V526ZM281.397 526L284.249 525.067L282.009 518.219L279.157 519.152L276.306 520.085L278.546 526.933L281.397 526ZM275.701 508.464L278.554 507.537L274.458 494.929L271.605 495.856L268.752 496.783L272.848 509.391L275.701 508.464ZM271.605 495.856L268.752 494.929L264.656 507.537L267.509 508.464L270.362 509.391L274.458 496.783L271.605 495.856ZM267.509 508.464V511.464H275.701V508.464V505.464H267.509V508.464ZM331.345 526L328.688 527.392L329.53 529H331.345V526ZM322.833 509.744L325.491 508.352L324.649 506.744H322.833V509.744ZM322.769 509.744V506.744H319.769V509.744H322.769ZM322.769 526V529H325.769V526H322.769ZM308.561 526H305.561V529H308.561V526ZM308.561 480.688V477.688H305.561V480.688H308.561ZM339.089 482.672L337.73 485.346L337.748 485.355L337.765 485.364L339.089 482.672ZM344.913 487.984L342.302 489.462L342.319 489.491L342.336 489.52L344.913 487.984ZM344.337 503.6L341.911 501.835L341.9 501.85L341.89 501.865L344.337 503.6ZM337.105 508.656L336.18 505.802L332.678 506.938L334.497 510.138L337.105 508.656ZM346.961 526V529H352.117L349.57 524.518L346.961 526ZM322.769 500.272H319.769V503.272H322.769V500.272ZM331.473 499.376L333.449 501.634L333.488 501.6L333.525 501.565L331.473 499.376ZM331.409 493.616L329.288 495.737L329.32 495.769L329.353 495.801L331.409 493.616ZM322.769 492.592V489.592H319.769V492.592H322.769ZM331.345 526L334.003 524.608L325.491 508.352L322.833 509.744L320.176 511.136L328.688 527.392L331.345 526ZM322.833 509.744V506.744H322.769V509.744V512.744H322.833V509.744ZM322.769 509.744H319.769V526H322.769H325.769V509.744H322.769ZM322.769 526V523H308.561V526V529H322.769V526ZM308.561 526H311.561V480.688H308.561H305.561V526H308.561ZM308.561 480.688V483.688H329.681V480.688V477.688H308.561V480.688ZM329.681 480.688V483.688C332.997 483.688 335.643 484.286 337.73 485.346L339.089 482.672L340.448 479.998C337.33 478.413 333.704 477.688 329.681 477.688V480.688ZM339.089 482.672L337.765 485.364C339.892 486.41 341.354 487.785 342.302 489.462L344.913 487.984L347.524 486.506C345.913 483.66 343.492 481.494 340.413 479.98L339.089 482.672ZM344.913 487.984L342.336 489.52C343.357 491.233 343.897 493.21 343.897 495.536H346.897H349.897C349.897 492.23 349.114 489.172 347.49 486.448L344.913 487.984ZM346.897 495.536H343.897C343.897 497.961 343.228 500.025 341.911 501.835L344.337 503.6L346.763 505.365C348.86 502.482 349.897 499.17 349.897 495.536H346.897ZM344.337 503.6L341.89 501.865C340.655 503.606 338.821 504.946 336.18 505.802L337.105 508.656L338.031 511.51C341.704 510.318 344.691 508.287 346.784 505.335L344.337 503.6ZM337.105 508.656L334.497 510.138L344.353 527.482L346.961 526L349.57 524.518L339.714 507.174L337.105 508.656ZM346.961 526V523H331.345V526V529H346.961V526ZM322.769 500.272V503.272H328.401V500.272V497.272H322.769V500.272ZM328.401 500.272V503.272C330.138 503.272 332.001 502.901 333.449 501.634L331.473 499.376L329.498 497.118C329.58 497.046 329.395 497.272 328.401 497.272V500.272ZM331.473 499.376L333.525 501.565C335.028 500.156 335.497 498.234 335.497 496.432H332.497H329.497C329.497 496.845 329.443 497.074 329.408 497.174C329.379 497.258 329.371 497.235 329.421 497.187L331.473 499.376ZM332.497 496.432H335.497C335.497 494.588 334.912 492.793 333.465 491.431L331.409 493.616L329.353 495.801C329.386 495.831 329.406 495.858 329.427 495.913C329.453 495.98 329.497 496.137 329.497 496.432H332.497ZM331.409 493.616L333.531 491.495C332.103 490.067 330.218 489.592 328.401 489.592V492.592V495.592C328.812 495.592 329.055 495.646 329.178 495.688C329.288 495.725 329.302 495.751 329.288 495.737L331.409 493.616ZM328.401 492.592V489.592H322.769V492.592V495.592H328.401V492.592ZM322.769 492.592H319.769V500.272H322.769H325.769V492.592H322.769ZM387.788 526L385.297 527.672L386.188 529H387.788V526ZM374.604 506.352L377.095 504.68L371.604 496.497V506.352H374.604ZM374.604 526V529H377.604V526H374.604ZM360.396 526H357.396V529H360.396V526ZM360.396 480.688V477.688H357.396V480.688H360.396ZM374.604 480.688H377.604V477.688H374.604V480.688ZM374.604 499.76H371.604V509.493L377.084 501.449L374.604 499.76ZM387.596 480.688V477.688H386.01L385.117 478.999L387.596 480.688ZM403.66 480.688L406.095 482.441L409.516 477.688H403.66V480.688ZM388.044 502.384L385.609 500.631L384.361 502.365L385.592 504.112L388.044 502.384ZM404.684 526V529H410.468L407.137 524.272L404.684 526ZM387.788 526L390.279 524.328L377.095 504.68L374.604 506.352L372.113 508.024L385.297 527.672L387.788 526ZM374.604 506.352H371.604V526H374.604H377.604V506.352H374.604ZM374.604 526V523H360.396V526V529H374.604V526ZM360.396 526H363.396V480.688H360.396H357.396V526H360.396ZM360.396 480.688V483.688H374.604V480.688V477.688H360.396V480.688ZM374.604 480.688H371.604V499.76H374.604H377.604V480.688H374.604ZM374.604 499.76L377.084 501.449L390.076 482.377L387.596 480.688L385.117 478.999L372.125 498.071L374.604 499.76ZM387.596 480.688V483.688H403.66V480.688V477.688H387.596V480.688ZM403.66 480.688L401.225 478.935L385.609 500.631L388.044 502.384L390.479 504.137L406.095 482.441L403.66 480.688ZM388.044 502.384L385.592 504.112L402.232 527.728L404.684 526L407.137 524.272L390.497 500.656L388.044 502.384ZM404.684 526V523H387.788V526V529H404.684V526ZM431.877 492.016V489.016H428.877V492.016H431.877ZM431.877 497.584H428.877V500.584H431.877V497.584ZM445.957 497.584H448.957V494.584H445.957V497.584ZM445.957 508.272V511.272H448.957V508.272H445.957ZM431.877 508.272V505.272H428.877V508.272H431.877ZM431.877 514.672H428.877V517.672H431.877V514.672ZM447.877 514.672H450.877V511.672H447.877V514.672ZM447.877 526V529H450.877V526H447.877ZM417.669 526H414.669V529H417.669V526ZM417.669 480.688V477.688H414.669V480.688H417.669ZM447.877 480.688H450.877V477.688H447.877V480.688ZM447.877 492.016V495.016H450.877V492.016H447.877ZM431.877 492.016H428.877V497.584H431.877H434.877V492.016H431.877ZM431.877 497.584V500.584H445.957V497.584V494.584H431.877V497.584ZM445.957 497.584H442.957V508.272H445.957H448.957V497.584H445.957ZM445.957 508.272V505.272H431.877V508.272V511.272H445.957V508.272ZM431.877 508.272H428.877V514.672H431.877H434.877V508.272H431.877ZM431.877 514.672V517.672H447.877V514.672V511.672H431.877V514.672ZM447.877 514.672H444.877V526H447.877H450.877V514.672H447.877ZM447.877 526V523H417.669V526V529H447.877V526ZM417.669 526H420.669V480.688H417.669H414.669V526H417.669ZM417.669 480.688V483.688H447.877V480.688V477.688H417.669V480.688ZM447.877 480.688H444.877V492.016H447.877H450.877V480.688H447.877ZM447.877 492.016V489.016H431.877V492.016V495.016H447.877V492.016ZM497.775 480.688H500.775V477.688H497.775V480.688ZM497.775 491.952V494.952H500.775V491.952H497.775ZM485.743 491.952V488.952H482.743V491.952H485.743ZM485.743 526V529H488.743V526H485.743ZM471.535 526H468.535V529H471.535V526ZM471.535 491.952H474.535V488.952H471.535V491.952ZM459.631 491.952H456.631V494.952H459.631V491.952ZM459.631 480.688V477.688H456.631V480.688H459.631ZM497.775 480.688H494.775V491.952H497.775H500.775V480.688H497.775ZM497.775 491.952V488.952H485.743V491.952V494.952H497.775V491.952ZM485.743 491.952H482.743V526H485.743H488.743V491.952H485.743ZM485.743 526V523H471.535V526V529H485.743V526ZM471.535 526H474.535V491.952H471.535H468.535V526H471.535ZM471.535 491.952V488.952H459.631V491.952V494.952H471.535V491.952ZM459.631 491.952H462.631V480.688H459.631H456.631V491.952H459.631ZM459.631 480.688V483.688H497.775V480.688V477.688H459.631V480.688ZM524.797 480.688H527.797V477.688H524.797V480.688ZM524.797 526V529H527.797V526H524.797ZM510.589 526H507.589V529H510.589V526ZM510.589 480.688V477.688H507.589V480.688H510.589ZM524.797 480.688H521.797V526H524.797H527.797V480.688H524.797ZM524.797 526V523H510.589V526V529H524.797V526ZM510.589 526H513.589V480.688H510.589H507.589V526H510.589ZM510.589 480.688V483.688H524.797V480.688V477.688H510.589V480.688ZM583.63 526V529H586.63V526H583.63ZM569.422 526L566.918 527.653L567.807 529H569.422V526ZM554.382 503.216L556.885 501.563L551.382 493.226V503.216H554.382ZM554.382 526V529H557.382V526H554.382ZM540.174 526H537.174V529H540.174V526ZM540.174 480.688V477.688H537.174V480.688H540.174ZM554.382 480.688L556.898 479.055L556.011 477.688H554.382V480.688ZM569.422 503.856L566.905 505.489L572.422 513.987V503.856H569.422ZM569.422 480.688V477.688H566.422V480.688H569.422ZM583.63 480.688H586.63V477.688H583.63V480.688ZM583.63 526V523H569.422V526V529H583.63V526ZM569.422 526L571.925 524.347L556.885 501.563L554.382 503.216L551.878 504.869L566.918 527.653L569.422 526ZM554.382 503.216H551.382V526H554.382H557.382V503.216H554.382ZM554.382 526V523H540.174V526V529H554.382V526ZM540.174 526H543.174V480.688H540.174H537.174V526H540.174ZM540.174 480.688V483.688H554.382V480.688V477.688H540.174V480.688ZM554.382 480.688L551.865 482.321L566.905 505.489L569.422 503.856L571.938 502.223L556.898 479.055L554.382 480.688ZM569.422 503.856H572.422V480.688H569.422H566.422V503.856H569.422ZM569.422 480.688V483.688H583.63V480.688V477.688H569.422V480.688ZM583.63 480.688H580.63V526H583.63H586.63V480.688H583.63ZM626.785 496.176L624.234 497.755L625.114 499.176H626.785V496.176ZM624.417 494.128L623.075 496.811L623.121 496.834L623.167 496.855L624.417 494.128ZM614.369 496.048L616.65 497.996L616.662 497.982L616.673 497.969L614.369 496.048ZM614.625 511.216L612.451 513.284L612.451 513.284L614.625 511.216ZM630.241 509.872L632.631 511.684L636.28 506.872H630.241V509.872ZM618.913 509.872H615.913V512.872H618.913V509.872ZM618.913 499.824V496.824H615.913V499.824H618.913ZM642.017 499.824H645.017V496.824H642.017V499.824ZM642.017 514.032L644.609 515.542L645.017 514.842V514.032H642.017ZM633.889 522.736L635.595 525.204L635.605 525.197L635.615 525.189L633.889 522.736ZM608.481 523.44L606.999 526.049L607.018 526.059L607.037 526.07L608.481 523.44ZM600.481 515.248L597.824 516.641L597.831 516.654L597.837 516.666L600.481 515.248ZM600.481 491.312L597.837 489.894L597.831 489.906L597.824 489.919L600.481 491.312ZM608.481 483.184L609.938 485.806L609.95 485.8L609.962 485.793L608.481 483.184ZM635.105 484.528L633.274 486.905L633.281 486.91L633.287 486.915L635.105 484.528ZM641.761 496.176V499.176H645.207L644.732 495.763L641.761 496.176ZM626.785 496.176L629.336 494.597C628.448 493.163 627.189 492.099 625.667 491.401L624.417 494.128L623.167 496.855C623.692 497.096 624.012 497.397 624.234 497.755L626.785 496.176ZM624.417 494.128L625.758 491.445C624.222 490.676 622.5 490.36 620.705 490.36V493.36V496.36C621.811 496.36 622.564 496.556 623.075 496.811L624.417 494.128ZM620.705 493.36V490.36C617.253 490.36 614.227 491.532 612.064 494.127L614.369 496.048L616.673 497.969C617.497 496.98 618.696 496.36 620.705 496.36V493.36ZM614.369 496.048L612.087 494.1C609.994 496.552 609.129 499.736 609.129 503.28H612.129H615.129C615.129 500.68 615.757 499.043 616.65 497.996L614.369 496.048ZM612.129 503.28H609.129C609.129 507.236 610.054 510.763 612.451 513.284L614.625 511.216L616.798 509.148C615.868 508.17 615.129 506.407 615.129 503.28H612.129ZM614.625 511.216L612.451 513.284C614.889 515.846 618.387 516.84 622.305 516.84V513.84V510.84C619.311 510.84 617.689 510.084 616.798 509.148L614.625 511.216ZM622.305 513.84V516.84C626.54 516.84 630.066 515.069 632.631 511.684L630.241 509.872L627.85 508.06C626.405 509.966 624.64 510.84 622.305 510.84V513.84ZM630.241 509.872V506.872H618.913V509.872V512.872H630.241V509.872ZM618.913 509.872H621.913V499.824H618.913H615.913V509.872H618.913ZM618.913 499.824V502.824H642.017V499.824V496.824H618.913V499.824ZM642.017 499.824H639.017V514.032H642.017H645.017V499.824H642.017ZM642.017 514.032L639.424 512.522C637.697 515.489 635.295 518.078 632.162 520.283L633.889 522.736L635.615 525.189C639.395 522.53 642.412 519.316 644.609 515.542L642.017 514.032ZM633.889 522.736L632.183 520.268C629.344 522.231 625.608 523.32 620.769 523.32V526.32V529.32C626.51 529.32 631.521 528.02 635.595 525.204L633.889 522.736ZM620.769 526.32V523.32C616.491 523.32 612.908 522.448 609.924 520.81L608.481 523.44L607.037 526.07C611.05 528.272 615.66 529.32 620.769 529.32V526.32ZM608.481 523.44L609.962 520.831C606.997 519.148 604.734 516.829 603.124 513.83L600.481 515.248L597.837 516.666C599.982 520.664 603.052 523.807 606.999 526.049L608.481 523.44ZM600.481 515.248L603.138 513.855C601.557 510.841 600.729 507.34 600.729 503.28H597.729H594.729C594.729 508.18 595.735 512.658 597.824 516.641L600.481 515.248ZM597.729 503.28H600.729C600.729 499.22 601.557 495.719 603.138 492.705L600.481 491.312L597.824 489.919C595.735 493.902 594.729 498.38 594.729 503.28H597.729ZM600.481 491.312L603.124 492.73C604.731 489.736 606.987 487.446 609.938 485.806L608.481 483.184L607.024 480.562C603.063 482.762 599.985 485.89 597.837 489.894L600.481 491.312ZM608.481 483.184L609.962 485.793C612.895 484.127 616.42 483.24 620.641 483.24V480.24V477.24C615.56 477.24 610.978 478.316 606.999 480.575L608.481 483.184ZM620.641 480.24V483.24C626.088 483.24 630.213 484.547 633.274 486.905L635.105 484.528L636.935 482.151C632.573 478.792 627.055 477.24 620.641 477.24V480.24ZM635.105 484.528L633.287 486.915C636.378 489.268 638.21 492.424 638.789 496.589L641.761 496.176L644.732 495.763C643.946 490.115 641.341 485.505 636.922 482.141L635.105 484.528ZM641.761 496.176V493.176H626.785V496.176V499.176H641.761V496.176Z" fill="black" mask="url(#path-6-outside-2_1027_2)"/>
<path d="M385.35 950.38V953.02H382.53V961H379.2V953.02H376.41V950.38H385.35ZM393.528 961.105C392.528 961.105 391.608 960.87 390.768 960.4C389.938 959.93 389.278 959.28 388.788 958.45C388.298 957.62 388.053 956.685 388.053 955.645C388.053 954.605 388.298 953.67 388.788 952.84C389.278 952.01 389.938 951.365 390.768 950.905C391.608 950.435 392.528 950.2 393.528 950.2C394.528 950.2 395.443 950.435 396.273 950.905C397.103 951.365 397.758 952.01 398.238 952.84C398.728 953.67 398.973 954.605 398.973 955.645C398.973 956.685 398.728 957.62 398.238 958.45C397.758 959.28 397.098 959.93 396.258 960.4C395.428 960.87 394.518 961.105 393.528 961.105ZM393.528 958C394.188 958 394.698 957.79 395.058 957.37C395.418 956.94 395.598 956.365 395.598 955.645C395.598 954.915 395.418 954.34 395.058 953.92C394.698 953.49 394.188 953.275 393.528 953.275C392.858 953.275 392.343 953.49 391.983 953.92C391.623 954.34 391.443 954.915 391.443 955.645C391.443 956.365 391.623 956.94 391.983 957.37C392.343 957.79 392.858 958 393.528 958ZM407.449 961.105C406.449 961.105 405.529 960.87 404.689 960.4C403.859 959.93 403.199 959.28 402.709 958.45C402.219 957.62 401.974 956.685 401.974 955.645C401.974 954.605 402.219 953.67 402.709 952.84C403.199 952.01 403.859 951.365 404.689 950.905C405.529 950.435 406.449 950.2 407.449 950.2C408.449 950.2 409.364 950.435 410.194 950.905C411.024 951.365 411.679 952.01 412.159 952.84C412.649 953.67 412.894 954.605 412.894 955.645C412.894 956.685 412.649 957.62 412.159 958.45C411.679 959.28 411.019 959.93 410.179 960.4C409.349 960.87 408.439 961.105 407.449 961.105ZM407.449 958C408.109 958 408.619 957.79 408.979 957.37C409.339 956.94 409.519 956.365 409.519 955.645C409.519 954.915 409.339 954.34 408.979 953.92C408.619 953.49 408.109 953.275 407.449 953.275C406.779 953.275 406.264 953.49 405.904 953.92C405.544 954.34 405.364 954.915 405.364 955.645C405.364 956.365 405.544 956.94 405.904 957.37C406.264 957.79 406.779 958 407.449 958ZM426.381 961H423.051L419.526 955.66V961H416.196V950.38H419.526L423.051 955.81V950.38H426.381V961ZM440.185 950.38L436.375 957.775V961H433.045V957.775L429.235 950.38H433.045L434.74 954.145L436.435 950.38H440.185ZM446.732 958.345H450.992V961H443.042V958.495L447.242 953.02H443.042V950.38H450.992V952.885L446.732 958.345Z" fill="black"/>
<path d="M602.004 273.952C602.004 268.416 603.172 264.064 605.508 260.896C607.876 257.728 611.508 256.144 616.404 256.144C621.268 256.144 624.884 257.744 627.252 260.944C629.62 264.112 630.804 268.448 630.804 273.952C630.804 279.488 629.62 283.856 627.252 287.056C624.884 290.224 621.268 291.808 616.404 291.808C611.508 291.808 607.876 290.224 605.508 287.056C603.172 283.856 602.004 279.488 602.004 273.952ZM620.292 273.952C620.292 271.392 620.036 269.472 619.524 268.192C619.012 266.88 617.972 266.224 616.404 266.224C614.804 266.224 613.748 266.88 613.236 268.192C612.724 269.472 612.468 271.392 612.468 273.952C612.468 276.544 612.724 278.496 613.236 279.808C613.748 281.088 614.804 281.728 616.404 281.728C617.972 281.728 619.012 281.088 619.524 279.808C620.036 278.496 620.292 276.544 620.292 273.952ZM663.065 264.736L652.121 292H641.177L652.217 266.032H639.833V256.912H663.065V264.736Z" fill="black"/>
</g>
</g>
</g>
<defs>
<filter id="filter0_d_1027_2" x="62.6" y="139.6" width="697.8" height="944.8" filterUnits="userSpaceOnUse" color-interpolation-filters="sRGB">
<feFlood flood-opacity="0" result="BackgroundImageFix"/>
<feColorMatrix in="SourceAlpha" type="matrix" values="0 0 0 0 0 0 0 0 0 0 0 0 0 0 0 0 0 0 127 0" result="hardAlpha"/>
<feOffset dx="13" dy="12"/>
<feGaussianBlur stdDeviation="25.7"/>
<feComposite in2="hardAlpha" operator="out"/>
<feColorMatrix type="matrix" values="0 0 0 0 0 0 0 0 0 0 0 0 0 0 0 0 0 0 0.25 0"/>
<feBlend mode="normal" in2="BackgroundImageFix" result="effect1_dropShadow_1027_2"/>
<feBlend mode="normal" in="SourceGraphic" in2="effect1_dropShadow_1027_2" result="shape"/>
</filter>
<filter id="filter1_f_1027_2" x="119" y="177" width="8.00006" height="846" filterUnits="userSpaceOnUse" color-interpolation-filters="sRGB">
<feFlood flood-opacity="0" result="BackgroundImageFix"/>
<feBlend mode="normal" in="SourceGraphic" in2="BackgroundImageFix" result="shape"/>
<feGaussianBlur stdDeviation="1" result="effect1_foregroundBlur_1027_2"/>
</filter>
<filter id="filter2_f_1027_2" x="123" y="177" width="8.00006" height="846" filterUnits="userSpaceOnUse" color-interpolation-filters="sRGB">
<feFlood flood-opacity="0" result="BackgroundImageFix"/>
<feBlend mode="normal" in="SourceGraphic" in2="BackgroundImageFix" result="shape"/>
<feGaussianBlur stdDeviation="1" result="effect1_foregroundBlur_1027_2"/>
</filter>
<clipPath id="clip0_1027_2">
<rect width="797" height="1200" fill="white"/>
</clipPath>
<clipPath id="clip1_1027_2">
<rect width="595" height="842" fill="white" transform="translate(101 179)"/>
</clipPath>
</defs>
</svg>
