<svg width="797" height="1200" viewBox="0 0 797 1200" fill="none" xmlns="http://www.w3.org/2000/svg">
<g clip-path="url(#clip0_1048_2)">
<rect width="797" height="1200" fill="#C8E126"/>
<g filter="url(#filter0_d_1048_2)">
<g clip-path="url(#clip1_1048_2)">
<rect width="595" height="842" transform="translate(101 179)" fill="#C8E126"/>
<g opacity="0.78" filter="url(#filter1_f_1048_2)">
<line x1="123" y1="179" x2="123" y2="1021" stroke="black" stroke-opacity="0.31" stroke-width="4"/>
</g>
<g opacity="0.78" filter="url(#filter2_f_1048_2)">
<line x1="127" y1="179" x2="127" y2="1021" stroke="white" stroke-opacity="0.62" stroke-width="4"/>
</g>
<mask id="path-3-outside-1_1048_2" maskUnits="userSpaceOnUse" x="206" y="544" width="412" height="128" fill="black">
<rect fill="white" x="206" y="544" width="412" height="128"/>
<path d="M319.204 594.448C314.937 594.448 311.012 593.445 307.428 591.44C303.886 589.435 301.07 586.661 298.98 583.12C296.889 579.579 295.844 575.589 295.844 571.152C295.844 566.715 296.889 562.725 298.98 559.184C301.07 555.643 303.886 552.891 307.428 550.928C311.012 548.923 314.937 547.92 319.204 547.92C323.47 547.92 327.374 548.923 330.916 550.928C334.457 552.891 337.252 555.643 339.3 559.184C341.39 562.725 342.436 566.715 342.436 571.152C342.436 575.589 341.39 579.579 339.3 583.12C337.252 586.661 334.436 589.435 330.852 591.44C327.31 593.445 323.428 594.448 319.204 594.448ZM319.204 581.2C322.02 581.2 324.196 580.304 325.732 578.512C327.268 576.677 328.036 574.224 328.036 571.152C328.036 568.037 327.268 565.584 325.732 563.792C324.196 561.957 322.02 561.04 319.204 561.04C316.345 561.04 314.148 561.957 312.612 563.792C311.076 565.584 310.308 568.037 310.308 571.152C310.308 574.224 311.076 576.677 312.612 578.512C314.148 580.304 316.345 581.2 319.204 581.2ZM374.249 594.448C368.831 594.448 364.351 593.189 360.809 590.672C357.311 588.112 355.412 584.379 355.113 579.472H370.217C370.431 582.075 371.583 583.376 373.673 583.376C374.441 583.376 375.081 583.205 375.593 582.864C376.148 582.48 376.425 581.904 376.425 581.136C376.425 580.069 375.849 579.216 374.697 578.576C373.545 577.893 371.753 577.125 369.321 576.272C366.42 575.248 364.009 574.245 362.089 573.264C360.212 572.283 358.591 570.853 357.225 568.976C355.86 567.099 355.199 564.688 355.241 561.744C355.241 558.8 355.988 556.304 357.481 554.256C359.017 552.165 361.087 550.587 363.689 549.52C366.335 548.453 369.3 547.92 372.585 547.92C378.132 547.92 382.527 549.2 385.769 551.76C389.055 554.32 390.783 557.925 390.953 562.576H375.657C375.615 561.296 375.295 560.379 374.697 559.824C374.1 559.269 373.375 558.992 372.521 558.992C371.924 558.992 371.433 559.205 371.049 559.632C370.665 560.016 370.473 560.571 370.473 561.296C370.473 562.32 371.028 563.173 372.137 563.856C373.289 564.496 375.103 565.285 377.577 566.224C380.436 567.291 382.783 568.315 384.617 569.296C386.495 570.277 388.116 571.643 389.481 573.392C390.847 575.141 391.529 577.339 391.529 579.984C391.529 582.757 390.847 585.253 389.481 587.472C388.116 589.648 386.132 591.355 383.529 592.592C380.927 593.829 377.833 594.448 374.249 594.448ZM459.945 548.688V594H445.801V571.408L438.825 594H426.665L419.689 571.408V594H405.481V548.688H422.889L432.873 575.888L442.601 548.688H459.945ZM489.204 548.688V574.224C489.204 576.315 489.652 577.979 490.548 579.216C491.487 580.411 492.98 581.008 495.028 581.008C497.076 581.008 498.591 580.411 499.572 579.216C500.554 577.979 501.044 576.315 501.044 574.224V548.688H515.188V574.224C515.188 578.533 514.292 582.224 512.5 585.296C510.708 588.325 508.255 590.608 505.14 592.144C502.026 593.68 498.548 594.448 494.708 594.448C490.868 594.448 487.455 593.68 484.468 592.144C481.524 590.608 479.22 588.325 477.556 585.296C475.892 582.267 475.06 578.576 475.06 574.224V548.688H489.204ZM229.224 668.448C223.806 668.448 219.326 667.189 215.784 664.672C212.286 662.112 210.387 658.379 210.088 653.472H225.192C225.406 656.075 226.558 657.376 228.648 657.376C229.416 657.376 230.056 657.205 230.568 656.864C231.123 656.48 231.4 655.904 231.4 655.136C231.4 654.069 230.824 653.216 229.672 652.576C228.52 651.893 226.728 651.125 224.296 650.272C221.395 649.248 218.984 648.245 217.064 647.264C215.187 646.283 213.566 644.853 212.2 642.976C210.835 641.099 210.174 638.688 210.216 635.744C210.216 632.8 210.963 630.304 212.456 628.256C213.992 626.165 216.062 624.587 218.664 623.52C221.31 622.453 224.275 621.92 227.56 621.92C233.107 621.92 237.502 623.2 240.744 625.76C244.03 628.32 245.758 631.925 245.928 636.576H230.632C230.59 635.296 230.27 634.379 229.672 633.824C229.075 633.269 228.35 632.992 227.496 632.992C226.899 632.992 226.408 633.205 226.024 633.632C225.64 634.016 225.448 634.571 225.448 635.296C225.448 636.32 226.003 637.173 227.112 637.856C228.264 638.496 230.078 639.285 232.552 640.224C235.411 641.291 237.758 642.315 239.592 643.296C241.47 644.277 243.091 645.643 244.456 647.392C245.822 649.141 246.504 651.339 246.504 653.984C246.504 656.757 245.822 659.253 244.456 661.472C243.091 663.648 241.107 665.355 238.504 666.592C235.902 667.829 232.808 668.448 229.224 668.448ZM296.04 622.688V633.952H284.008V668H269.8V633.952H257.896V622.688H296.04ZM331.638 668L323.126 651.744H323.062V668H308.854V622.688H329.974C333.643 622.688 336.779 623.349 339.382 624.672C341.984 625.952 343.926 627.723 345.206 629.984C346.528 632.203 347.19 634.72 347.19 637.536C347.19 640.565 346.336 643.253 344.63 645.6C342.966 647.947 340.555 649.632 337.398 650.656L347.254 668H331.638ZM323.062 642.272H328.694C330.059 642.272 331.083 641.973 331.766 641.376C332.448 640.736 332.79 639.755 332.79 638.432C332.79 637.237 332.427 636.299 331.702 635.616C331.019 634.933 330.016 634.592 328.694 634.592H323.062V642.272ZM389.745 661.152H374.641L372.401 668H357.489L374.065 622.688H390.449L406.961 668H391.985L389.745 661.152ZM386.289 650.464L382.193 637.856L378.097 650.464H386.289ZM454.733 622.688V633.952H442.701V668H428.493V633.952H416.589V622.688H454.733ZM481.754 634.016V639.584H495.834V650.272H481.754V656.672H497.754V668H467.546V622.688H497.754V634.016H481.754ZM539.845 638.176C539.29 637.28 538.501 636.597 537.477 636.128C536.453 635.616 535.215 635.36 533.765 635.36C531.034 635.36 528.922 636.256 527.429 638.048C525.935 639.797 525.189 642.208 525.189 645.28C525.189 648.821 526.021 651.467 527.685 653.216C529.349 654.965 531.909 655.84 535.365 655.84C538.65 655.84 541.295 654.517 543.301 651.872H531.973V641.824H555.077V656.032C553.114 659.403 550.405 662.304 546.949 664.736C543.493 667.125 539.119 668.32 533.829 668.32C529.135 668.32 525.039 667.36 521.541 665.44C518.085 663.477 515.418 660.747 513.541 657.248C511.706 653.749 510.789 649.76 510.789 645.28C510.789 640.8 511.706 636.811 513.541 633.312C515.418 629.813 518.085 627.104 521.541 625.184C524.997 623.221 529.05 622.24 533.701 622.24C539.631 622.24 544.453 623.669 548.165 626.528C551.919 629.387 554.138 633.269 554.821 638.176H539.845ZM612.674 622.688L596.418 654.24V668H582.21V654.24L565.954 622.688H582.21L589.442 638.752L596.674 622.688H612.674Z"/>
</mask>
<path d="M319.204 594.448C314.937 594.448 311.012 593.445 307.428 591.44C303.886 589.435 301.07 586.661 298.98 583.12C296.889 579.579 295.844 575.589 295.844 571.152C295.844 566.715 296.889 562.725 298.98 559.184C301.07 555.643 303.886 552.891 307.428 550.928C311.012 548.923 314.937 547.92 319.204 547.92C323.47 547.92 327.374 548.923 330.916 550.928C334.457 552.891 337.252 555.643 339.3 559.184C341.39 562.725 342.436 566.715 342.436 571.152C342.436 575.589 341.39 579.579 339.3 583.12C337.252 586.661 334.436 589.435 330.852 591.44C327.31 593.445 323.428 594.448 319.204 594.448ZM319.204 581.2C322.02 581.2 324.196 580.304 325.732 578.512C327.268 576.677 328.036 574.224 328.036 571.152C328.036 568.037 327.268 565.584 325.732 563.792C324.196 561.957 322.02 561.04 319.204 561.04C316.345 561.04 314.148 561.957 312.612 563.792C311.076 565.584 310.308 568.037 310.308 571.152C310.308 574.224 311.076 576.677 312.612 578.512C314.148 580.304 316.345 581.2 319.204 581.2ZM374.249 594.448C368.831 594.448 364.351 593.189 360.809 590.672C357.311 588.112 355.412 584.379 355.113 579.472H370.217C370.431 582.075 371.583 583.376 373.673 583.376C374.441 583.376 375.081 583.205 375.593 582.864C376.148 582.48 376.425 581.904 376.425 581.136C376.425 580.069 375.849 579.216 374.697 578.576C373.545 577.893 371.753 577.125 369.321 576.272C366.42 575.248 364.009 574.245 362.089 573.264C360.212 572.283 358.591 570.853 357.225 568.976C355.86 567.099 355.199 564.688 355.241 561.744C355.241 558.8 355.988 556.304 357.481 554.256C359.017 552.165 361.087 550.587 363.689 549.52C366.335 548.453 369.3 547.92 372.585 547.92C378.132 547.92 382.527 549.2 385.769 551.76C389.055 554.32 390.783 557.925 390.953 562.576H375.657C375.615 561.296 375.295 560.379 374.697 559.824C374.1 559.269 373.375 558.992 372.521 558.992C371.924 558.992 371.433 559.205 371.049 559.632C370.665 560.016 370.473 560.571 370.473 561.296C370.473 562.32 371.028 563.173 372.137 563.856C373.289 564.496 375.103 565.285 377.577 566.224C380.436 567.291 382.783 568.315 384.617 569.296C386.495 570.277 388.116 571.643 389.481 573.392C390.847 575.141 391.529 577.339 391.529 579.984C391.529 582.757 390.847 585.253 389.481 587.472C388.116 589.648 386.132 591.355 383.529 592.592C380.927 593.829 377.833 594.448 374.249 594.448ZM459.945 548.688V594H445.801V571.408L438.825 594H426.665L419.689 571.408V594H405.481V548.688H422.889L432.873 575.888L442.601 548.688H459.945ZM489.204 548.688V574.224C489.204 576.315 489.652 577.979 490.548 579.216C491.487 580.411 492.98 581.008 495.028 581.008C497.076 581.008 498.591 580.411 499.572 579.216C500.554 577.979 501.044 576.315 501.044 574.224V548.688H515.188V574.224C515.188 578.533 514.292 582.224 512.5 585.296C510.708 588.325 508.255 590.608 505.14 592.144C502.026 593.68 498.548 594.448 494.708 594.448C490.868 594.448 487.455 593.68 484.468 592.144C481.524 590.608 479.22 588.325 477.556 585.296C475.892 582.267 475.06 578.576 475.06 574.224V548.688H489.204ZM229.224 668.448C223.806 668.448 219.326 667.189 215.784 664.672C212.286 662.112 210.387 658.379 210.088 653.472H225.192C225.406 656.075 226.558 657.376 228.648 657.376C229.416 657.376 230.056 657.205 230.568 656.864C231.123 656.48 231.4 655.904 231.4 655.136C231.4 654.069 230.824 653.216 229.672 652.576C228.52 651.893 226.728 651.125 224.296 650.272C221.395 649.248 218.984 648.245 217.064 647.264C215.187 646.283 213.566 644.853 212.2 642.976C210.835 641.099 210.174 638.688 210.216 635.744C210.216 632.8 210.963 630.304 212.456 628.256C213.992 626.165 216.062 624.587 218.664 623.52C221.31 622.453 224.275 621.92 227.56 621.92C233.107 621.92 237.502 623.2 240.744 625.76C244.03 628.32 245.758 631.925 245.928 636.576H230.632C230.59 635.296 230.27 634.379 229.672 633.824C229.075 633.269 228.35 632.992 227.496 632.992C226.899 632.992 226.408 633.205 226.024 633.632C225.64 634.016 225.448 634.571 225.448 635.296C225.448 636.32 226.003 637.173 227.112 637.856C228.264 638.496 230.078 639.285 232.552 640.224C235.411 641.291 237.758 642.315 239.592 643.296C241.47 644.277 243.091 645.643 244.456 647.392C245.822 649.141 246.504 651.339 246.504 653.984C246.504 656.757 245.822 659.253 244.456 661.472C243.091 663.648 241.107 665.355 238.504 666.592C235.902 667.829 232.808 668.448 229.224 668.448ZM296.04 622.688V633.952H284.008V668H269.8V633.952H257.896V622.688H296.04ZM331.638 668L323.126 651.744H323.062V668H308.854V622.688H329.974C333.643 622.688 336.779 623.349 339.382 624.672C341.984 625.952 343.926 627.723 345.206 629.984C346.528 632.203 347.19 634.72 347.19 637.536C347.19 640.565 346.336 643.253 344.63 645.6C342.966 647.947 340.555 649.632 337.398 650.656L347.254 668H331.638ZM323.062 642.272H328.694C330.059 642.272 331.083 641.973 331.766 641.376C332.448 640.736 332.79 639.755 332.79 638.432C332.79 637.237 332.427 636.299 331.702 635.616C331.019 634.933 330.016 634.592 328.694 634.592H323.062V642.272ZM389.745 661.152H374.641L372.401 668H357.489L374.065 622.688H390.449L406.961 668H391.985L389.745 661.152ZM386.289 650.464L382.193 637.856L378.097 650.464H386.289ZM454.733 622.688V633.952H442.701V668H428.493V633.952H416.589V622.688H454.733ZM481.754 634.016V639.584H495.834V650.272H481.754V656.672H497.754V668H467.546V622.688H497.754V634.016H481.754ZM539.845 638.176C539.29 637.28 538.501 636.597 537.477 636.128C536.453 635.616 535.215 635.36 533.765 635.36C531.034 635.36 528.922 636.256 527.429 638.048C525.935 639.797 525.189 642.208 525.189 645.28C525.189 648.821 526.021 651.467 527.685 653.216C529.349 654.965 531.909 655.84 535.365 655.84C538.65 655.84 541.295 654.517 543.301 651.872H531.973V641.824H555.077V656.032C553.114 659.403 550.405 662.304 546.949 664.736C543.493 667.125 539.119 668.32 533.829 668.32C529.135 668.32 525.039 667.36 521.541 665.44C518.085 663.477 515.418 660.747 513.541 657.248C511.706 653.749 510.789 649.76 510.789 645.28C510.789 640.8 511.706 636.811 513.541 633.312C515.418 629.813 518.085 627.104 521.541 625.184C524.997 623.221 529.05 622.24 533.701 622.24C539.631 622.24 544.453 623.669 548.165 626.528C551.919 629.387 554.138 633.269 554.821 638.176H539.845ZM612.674 622.688L596.418 654.24V668H582.21V654.24L565.954 622.688H582.21L589.442 638.752L596.674 622.688H612.674Z" fill="white"/>
<path d="M307.428 591.44L305.95 594.051L305.956 594.054L305.963 594.058L307.428 591.44ZM298.98 583.12L296.396 584.645L296.396 584.645L298.98 583.12ZM307.428 550.928L308.882 553.552L308.893 553.546L307.428 550.928ZM330.916 550.928L329.438 553.539L329.449 553.545L329.462 553.552L330.916 550.928ZM339.3 559.184L336.703 560.686L336.71 560.698L336.716 560.709L339.3 559.184ZM339.3 583.12L336.716 581.595L336.71 581.606L336.703 581.618L339.3 583.12ZM330.852 591.44L329.387 588.822L329.38 588.826L329.374 588.829L330.852 591.44ZM325.732 578.512L328.01 580.464L328.021 580.451L328.032 580.438L325.732 578.512ZM325.732 563.792L323.431 565.718L323.443 565.731L323.454 565.744L325.732 563.792ZM312.612 563.792L314.89 565.744L314.901 565.731L314.912 565.718L312.612 563.792ZM312.612 578.512L310.311 580.438L310.323 580.451L310.334 580.464L312.612 578.512ZM319.204 594.448V591.448C315.429 591.448 312.011 590.567 308.893 588.822L307.428 591.44L305.963 594.058C310.012 596.324 314.445 597.448 319.204 597.448V594.448ZM307.428 591.44L308.906 588.829C305.827 587.086 303.39 584.689 301.563 581.595L298.98 583.12L296.396 584.645C298.751 588.634 301.946 591.784 305.95 594.051L307.428 591.44ZM298.98 583.12L301.563 581.595C299.767 578.552 298.844 575.097 298.844 571.152H295.844H292.844C292.844 576.082 294.011 580.605 296.396 584.645L298.98 583.12ZM295.844 571.152H298.844C298.844 567.207 299.767 563.752 301.563 560.709L298.98 559.184L296.396 557.659C294.011 561.699 292.844 566.222 292.844 571.152H295.844ZM298.98 559.184L301.563 560.709C303.387 557.621 305.816 555.251 308.882 553.552L307.428 550.928L305.974 548.304C301.957 550.53 298.754 553.665 296.396 557.659L298.98 559.184ZM307.428 550.928L308.893 553.546C312.011 551.801 315.429 550.92 319.204 550.92V547.92V544.92C314.445 544.92 310.012 546.044 305.963 548.31L307.428 550.928ZM319.204 547.92V550.92C322.978 550.92 326.369 551.801 329.438 553.539L330.916 550.928L332.394 548.317C328.38 546.044 323.962 544.92 319.204 544.92V547.92ZM330.916 550.928L329.462 553.552C332.522 555.248 334.924 557.61 336.703 560.686L339.3 559.184L341.897 557.682C339.58 553.675 336.392 550.533 332.37 548.304L330.916 550.928ZM339.3 559.184L336.716 560.709C338.513 563.752 339.436 567.207 339.436 571.152H342.436H345.436C345.436 566.222 344.268 561.699 341.883 557.659L339.3 559.184ZM342.436 571.152H339.436C339.436 575.097 338.513 578.552 336.716 581.595L339.3 583.12L341.883 584.645C344.268 580.605 345.436 576.082 345.436 571.152H342.436ZM339.3 583.12L336.703 581.618C334.926 584.69 332.502 587.079 329.387 588.822L330.852 591.44L332.317 594.058C336.37 591.79 339.578 588.632 341.897 584.622L339.3 583.12ZM330.852 591.44L329.374 588.829C326.301 590.57 322.93 591.448 319.204 591.448V594.448V597.448C323.925 597.448 328.32 596.321 332.33 594.051L330.852 591.44ZM319.204 581.2V584.2C322.71 584.2 325.793 583.051 328.01 580.464L325.732 578.512L323.454 576.56C322.599 577.557 321.33 578.2 319.204 578.2V581.2ZM325.732 578.512L328.032 580.438C330.136 577.925 331.036 574.724 331.036 571.152H328.036H325.036C325.036 573.724 324.4 575.43 323.431 576.586L325.732 578.512ZM328.036 571.152H331.036C331.036 567.553 330.143 564.329 328.01 561.84L325.732 563.792L323.454 565.744C324.392 566.839 325.036 568.521 325.036 571.152H328.036ZM325.732 563.792L328.032 561.866C325.823 559.228 322.734 558.04 319.204 558.04V561.04V564.04C321.306 564.04 322.569 564.687 323.431 565.718L325.732 563.792ZM319.204 561.04V558.04C315.648 558.04 312.53 559.217 310.311 561.866L312.612 563.792L314.912 565.718C315.766 564.698 317.042 564.04 319.204 564.04V561.04ZM312.612 563.792L310.334 561.84C308.2 564.329 307.308 567.553 307.308 571.152H310.308H313.308C313.308 568.521 313.951 566.839 314.89 565.744L312.612 563.792ZM310.308 571.152H307.308C307.308 574.724 308.208 577.925 310.311 580.438L312.612 578.512L314.912 576.586C313.944 575.43 313.308 573.724 313.308 571.152H310.308ZM312.612 578.512L310.334 580.464C312.56 583.061 315.672 584.2 319.204 584.2V581.2V578.2C317.018 578.2 315.736 577.547 314.89 576.56L312.612 578.512ZM360.809 590.672L359.038 593.093L359.054 593.105L359.071 593.117L360.809 590.672ZM355.113 579.472V576.472H351.925L352.119 579.654L355.113 579.472ZM370.217 579.472L373.207 579.227L372.981 576.472H370.217V579.472ZM375.593 582.864L377.257 585.36L377.279 585.346L377.301 585.331L375.593 582.864ZM374.697 578.576L373.168 581.157L373.204 581.178L373.24 581.198L374.697 578.576ZM369.321 576.272L368.323 579.101L368.328 579.103L369.321 576.272ZM362.089 573.264L360.699 575.923L360.712 575.929L360.724 575.935L362.089 573.264ZM357.225 568.976L359.651 567.211L359.651 567.211L357.225 568.976ZM355.241 561.744L358.241 561.787L358.241 561.766V561.744H355.241ZM357.481 554.256L355.064 552.48L355.057 552.488L357.481 554.256ZM363.689 549.52L362.567 546.738L362.559 546.741L362.552 546.744L363.689 549.52ZM385.769 551.76L383.91 554.115L383.918 554.121L383.925 554.126L385.769 551.76ZM390.953 562.576V565.576H394.065L393.951 562.466L390.953 562.576ZM375.657 562.576L372.659 562.676L372.756 565.576H375.657V562.576ZM371.049 559.632L373.171 561.753L373.226 561.698L373.279 561.639L371.049 559.632ZM372.137 563.856L370.565 566.411L370.622 566.446L370.68 566.478L372.137 563.856ZM377.577 566.224L376.513 569.029L376.521 569.032L376.528 569.035L377.577 566.224ZM384.617 569.296L383.202 571.941L383.215 571.948L383.227 571.955L384.617 569.296ZM389.481 573.392L387.116 575.238L387.116 575.238L389.481 573.392ZM389.481 587.472L392.022 589.066L392.029 589.055L392.036 589.044L389.481 587.472ZM383.529 592.592L382.241 589.883L383.529 592.592ZM374.249 594.448V591.448C369.298 591.448 365.468 590.303 362.547 588.227L360.809 590.672L359.071 593.117C363.234 596.076 368.363 597.448 374.249 597.448V594.448ZM360.809 590.672L362.581 588.251C359.904 586.293 358.36 583.439 358.108 579.29L355.113 579.472L352.119 579.654C352.464 585.318 354.717 589.931 359.038 593.093L360.809 590.672ZM355.113 579.472V582.472H370.217V579.472V576.472H355.113V579.472ZM370.217 579.472L367.227 579.717C367.362 581.356 367.821 583.063 368.995 584.389C370.255 585.812 371.959 586.376 373.673 586.376V583.376V580.376C373.46 580.376 373.386 580.343 373.399 580.348C373.424 580.358 373.465 580.386 373.488 580.411C373.509 580.436 373.286 580.19 373.207 579.227L370.217 579.472ZM373.673 583.376V586.376C374.886 586.376 376.143 586.103 377.257 585.36L375.593 582.864L373.929 580.368C373.966 580.343 373.983 580.342 373.956 580.349C373.925 580.358 373.837 580.376 373.673 580.376V583.376ZM375.593 582.864L377.301 585.331C378.787 584.302 379.425 582.73 379.425 581.136H376.425H373.425C373.425 581.159 373.422 581.034 373.514 580.843C373.613 580.636 373.76 580.484 373.886 580.397L375.593 582.864ZM376.425 581.136H379.425C379.425 578.708 377.994 576.976 376.154 575.954L374.697 578.576L373.24 581.198C373.516 581.351 373.546 581.433 373.507 581.374C373.486 581.344 373.461 581.296 373.444 581.238C373.427 581.181 373.425 581.143 373.425 581.136H376.425ZM374.697 578.576L376.227 575.995C374.813 575.158 372.796 574.312 370.315 573.441L369.321 576.272L368.328 579.103C370.711 579.939 372.277 580.629 373.168 581.157L374.697 578.576ZM369.321 576.272L370.32 573.443C367.496 572.446 365.218 571.494 363.455 570.593L362.089 573.264L360.724 575.935C362.801 576.997 365.344 578.05 368.323 579.101L369.321 576.272ZM362.089 573.264L363.479 570.605C362.05 569.858 360.771 568.751 359.651 567.211L357.225 568.976L354.799 570.741C356.41 572.955 358.374 574.707 360.699 575.923L362.089 573.264ZM357.225 568.976L359.651 567.211C358.76 565.985 358.205 564.259 358.241 561.787L355.241 561.744L352.242 561.701C352.192 565.117 352.96 568.212 354.799 570.741L357.225 568.976ZM355.241 561.744H358.241C358.241 559.329 358.844 557.479 359.905 556.024L357.481 554.256L355.057 552.488C353.132 555.129 352.241 558.271 352.241 561.744H355.241ZM357.481 554.256L359.899 556.032C361.081 554.423 362.69 553.172 364.827 552.296L363.689 549.52L362.552 546.744C359.483 548.002 356.954 549.907 355.064 552.48L357.481 554.256ZM363.689 549.52L364.811 552.302C367.05 551.4 369.627 550.92 372.585 550.92V547.92V544.92C368.973 544.92 365.619 545.507 362.567 546.738L363.689 549.52ZM372.585 547.92V550.92C377.688 550.92 381.353 552.096 383.91 554.115L385.769 551.76L387.628 549.405C383.7 546.304 378.576 544.92 372.585 544.92V547.92ZM385.769 551.76L383.925 554.126C386.424 556.074 387.813 558.804 387.955 562.686L390.953 562.576L393.951 562.466C393.752 557.047 391.685 552.566 387.613 549.394L385.769 551.76ZM390.953 562.576V559.576H375.657V562.576V565.576H390.953V562.576ZM375.657 562.576L378.656 562.476C378.601 560.84 378.182 558.966 376.739 557.626L374.697 559.824L372.656 562.022C372.533 561.909 372.523 561.831 372.553 561.916C372.587 562.014 372.645 562.248 372.659 562.676L375.657 562.576ZM374.697 559.824L376.739 557.626C375.558 556.53 374.093 555.992 372.521 555.992V558.992V561.992C372.572 561.992 372.603 561.996 372.618 561.999C372.633 562.001 372.637 562.003 372.634 562.002C372.631 562.001 372.628 561.999 372.628 561.999C372.628 562 372.638 562.005 372.656 562.022L374.697 559.824ZM372.521 558.992V555.992C371.113 555.992 369.798 556.538 368.819 557.625L371.049 559.632L373.279 561.639C373.205 561.721 373.078 561.826 372.901 561.903C372.728 561.979 372.586 561.992 372.521 561.992V558.992ZM371.049 559.632L368.928 557.511C367.812 558.626 367.473 560.051 367.473 561.296H370.473H373.473C373.473 561.192 373.488 561.215 373.452 561.317C373.412 561.434 373.325 561.599 373.171 561.753L371.049 559.632ZM370.473 561.296H367.473C367.473 563.649 368.844 565.352 370.565 566.411L372.137 563.856L373.71 561.301C373.431 561.13 373.382 561.034 373.405 561.069C373.417 561.089 373.438 561.128 373.454 561.182C373.47 561.236 373.473 561.278 373.473 561.296H370.473ZM372.137 563.856L370.68 566.478C372.03 567.228 374.01 568.079 376.513 569.029L377.577 566.224L378.641 563.419C376.196 562.491 374.549 561.764 373.594 561.234L372.137 563.856ZM377.577 566.224L376.528 569.035C379.314 570.074 381.526 571.045 383.202 571.941L384.617 569.296L386.032 566.651C384.039 565.584 381.558 564.507 378.626 563.413L377.577 566.224ZM384.617 569.296L383.227 571.955C384.707 572.728 386.002 573.809 387.116 575.238L389.481 573.392L391.846 571.546C390.23 569.476 388.282 567.826 386.007 566.637L384.617 569.296ZM389.481 573.392L387.116 575.238C387.995 576.364 388.529 577.874 388.529 579.984H391.529H394.529C394.529 576.803 393.698 573.919 391.846 571.546L389.481 573.392ZM391.529 579.984H388.529C388.529 582.24 387.982 584.185 386.926 585.9L389.481 587.472L392.036 589.044C393.712 586.322 394.529 583.275 394.529 579.984H391.529ZM389.481 587.472L386.94 585.878C385.914 587.513 384.393 588.859 382.241 589.883L383.529 592.592L384.817 595.301C387.871 593.85 390.318 591.783 392.022 589.066L389.481 587.472ZM383.529 592.592L382.241 589.883C380.127 590.888 377.494 591.448 374.249 591.448V594.448V597.448C378.173 597.448 381.726 596.771 384.817 595.301L383.529 592.592ZM459.945 548.688H462.945V545.688H459.945V548.688ZM459.945 594V597H462.945V594H459.945ZM445.801 594H442.801V597H445.801V594ZM445.801 571.408H448.801L442.935 570.523L445.801 571.408ZM438.825 594V597H441.039L441.692 594.885L438.825 594ZM426.665 594L423.799 594.885L424.452 597H426.665V594ZM419.689 571.408L422.556 570.523L416.689 571.408H419.689ZM419.689 594V597H422.689V594H419.689ZM405.481 594H402.481V597H405.481V594ZM405.481 548.688V545.688H402.481V548.688H405.481ZM422.889 548.688L425.706 547.654L424.984 545.688H422.889V548.688ZM432.873 575.888L430.057 576.922L432.91 584.694L435.698 576.898L432.873 575.888ZM442.601 548.688V545.688H440.488L439.776 547.678L442.601 548.688ZM459.945 548.688H456.945V594H459.945H462.945V548.688H459.945ZM459.945 594V591H445.801V594V597H459.945V594ZM445.801 594H448.801V571.408H445.801H442.801V594H445.801ZM445.801 571.408L442.935 570.523L435.959 593.115L438.825 594L441.692 594.885L448.668 572.293L445.801 571.408ZM438.825 594V591H426.665V594V597H438.825V594ZM426.665 594L429.532 593.115L422.556 570.523L419.689 571.408L416.823 572.293L423.799 594.885L426.665 594ZM419.689 571.408H416.689V594H419.689H422.689V571.408H419.689ZM419.689 594V591H405.481V594V597H419.689V594ZM405.481 594H408.481V548.688H405.481H402.481V594H405.481ZM405.481 548.688V551.688H422.889V548.688V545.688H405.481V548.688ZM422.889 548.688L420.073 549.722L430.057 576.922L432.873 575.888L435.69 574.854L425.706 547.654L422.889 548.688ZM432.873 575.888L435.698 576.898L445.426 549.698L442.601 548.688L439.776 547.678L430.048 574.878L432.873 575.888ZM442.601 548.688V551.688H459.945V548.688V545.688H442.601V548.688ZM489.204 548.688H492.204V545.688H489.204V548.688ZM490.548 579.216L488.118 580.976L488.153 581.023L488.189 581.069L490.548 579.216ZM499.572 579.216L501.89 581.12L501.907 581.1L501.923 581.08L499.572 579.216ZM501.044 548.688V545.688H498.044V548.688H501.044ZM515.188 548.688H518.188V545.688H515.188V548.688ZM512.5 585.296L515.082 586.823L515.087 586.816L515.092 586.808L512.5 585.296ZM505.14 592.144L506.467 594.835L506.467 594.835L505.14 592.144ZM484.468 592.144L483.081 594.804L483.088 594.808L483.096 594.812L484.468 592.144ZM477.556 585.296L474.927 586.74L474.927 586.74L477.556 585.296ZM475.06 548.688V545.688H472.06V548.688H475.06ZM489.204 548.688H486.204V574.224H489.204H492.204V548.688H489.204ZM489.204 574.224H486.204C486.204 576.718 486.737 579.068 488.118 580.976L490.548 579.216L492.978 577.456C492.567 576.889 492.204 575.911 492.204 574.224H489.204ZM490.548 579.216L488.189 581.069C489.88 583.221 492.403 584.008 495.028 584.008V581.008V578.008C493.558 578.008 493.094 577.601 492.907 577.363L490.548 579.216ZM495.028 581.008V584.008C497.662 584.008 500.167 583.218 501.89 581.12L499.572 579.216L497.254 577.312C497.015 577.603 496.49 578.008 495.028 578.008V581.008ZM499.572 579.216L501.923 581.08C503.443 579.163 504.044 576.772 504.044 574.224H501.044H498.044C498.044 575.858 497.664 576.795 497.222 577.352L499.572 579.216ZM501.044 574.224H504.044V548.688H501.044H498.044V574.224H501.044ZM501.044 548.688V551.688H515.188V548.688V545.688H501.044V548.688ZM515.188 548.688H512.188V574.224H515.188H518.188V548.688H515.188ZM515.188 574.224H512.188C512.188 578.114 511.382 581.259 509.909 583.784L512.5 585.296L515.092 586.808C517.203 583.189 518.188 578.952 518.188 574.224H515.188ZM512.5 585.296L509.918 583.769C508.419 586.304 506.398 588.179 503.813 589.453L505.14 592.144L506.467 594.835C510.112 593.037 512.998 590.347 515.082 586.823L512.5 585.296ZM505.14 592.144L503.813 589.453C501.153 590.765 498.137 591.448 494.708 591.448V594.448V597.448C498.959 597.448 502.898 596.595 506.467 594.835L505.14 592.144ZM494.708 594.448V591.448C491.277 591.448 488.345 590.764 485.84 589.476L484.468 592.144L483.096 594.812C486.565 596.596 490.46 597.448 494.708 597.448V594.448ZM484.468 592.144L485.856 589.484C483.459 588.234 481.577 586.385 480.186 583.852L477.556 585.296L474.927 586.74C476.863 590.266 479.59 592.982 483.081 594.804L484.468 592.144ZM477.556 585.296L480.186 583.852C478.82 581.365 478.06 578.199 478.06 574.224H475.06H472.06C472.06 578.953 472.965 583.168 474.927 586.74L477.556 585.296ZM475.06 574.224H478.06V548.688H475.06H472.06V574.224H475.06ZM475.06 548.688V551.688H489.204V548.688V545.688H475.06V548.688ZM215.784 664.672L214.013 667.093L214.029 667.105L214.046 667.117L215.784 664.672ZM210.088 653.472V650.472H206.9L207.094 653.654L210.088 653.472ZM225.192 653.472L228.182 653.227L227.956 650.472H225.192V653.472ZM230.568 656.864L232.232 659.36L232.254 659.346L232.276 659.331L230.568 656.864ZM229.672 652.576L228.143 655.157L228.179 655.178L228.215 655.198L229.672 652.576ZM224.296 650.272L223.298 653.101L223.303 653.103L224.296 650.272ZM217.064 647.264L215.674 649.923L215.687 649.929L215.699 649.935L217.064 647.264ZM212.2 642.976L214.626 641.211L214.626 641.211L212.2 642.976ZM210.216 635.744L213.216 635.787L213.216 635.766V635.744H210.216ZM212.456 628.256L210.039 626.48L210.032 626.488L212.456 628.256ZM218.664 623.52L217.542 620.738L217.534 620.741L217.527 620.744L218.664 623.52ZM240.744 625.76L238.885 628.115L238.893 628.121L238.9 628.126L240.744 625.76ZM245.928 636.576V639.576H249.04L248.926 636.466L245.928 636.576ZM230.632 636.576L227.634 636.676L227.731 639.576H230.632V636.576ZM226.024 633.632L228.146 635.753L228.201 635.698L228.254 635.639L226.024 633.632ZM227.112 637.856L225.54 640.411L225.597 640.446L225.655 640.478L227.112 637.856ZM232.552 640.224L231.488 643.029L231.496 643.032L231.503 643.035L232.552 640.224ZM239.592 643.296L238.177 645.941L238.19 645.948L238.202 645.955L239.592 643.296ZM244.456 647.392L242.091 649.238L242.091 649.238L244.456 647.392ZM244.456 661.472L246.997 663.066L247.004 663.055L247.011 663.044L244.456 661.472ZM238.504 666.592L237.216 663.883L238.504 666.592ZM229.224 668.448V665.448C224.273 665.448 220.443 664.303 217.522 662.227L215.784 664.672L214.046 667.117C218.209 670.076 223.338 671.448 229.224 671.448V668.448ZM215.784 664.672L217.556 662.251C214.879 660.293 213.335 657.439 213.083 653.29L210.088 653.472L207.094 653.654C207.439 659.318 209.692 663.931 214.013 667.093L215.784 664.672ZM210.088 653.472V656.472H225.192V653.472V650.472H210.088V653.472ZM225.192 653.472L222.202 653.717C222.337 655.356 222.796 657.063 223.97 658.389C225.23 659.812 226.934 660.376 228.648 660.376V657.376V654.376C228.435 654.376 228.361 654.343 228.374 654.348C228.399 654.358 228.44 654.386 228.463 654.411C228.484 654.436 228.261 654.19 228.182 653.227L225.192 653.472ZM228.648 657.376V660.376C229.861 660.376 231.118 660.103 232.232 659.36L230.568 656.864L228.904 654.368C228.941 654.343 228.958 654.342 228.931 654.349C228.9 654.358 228.812 654.376 228.648 654.376V657.376ZM230.568 656.864L232.276 659.331C233.762 658.302 234.4 656.73 234.4 655.136H231.4H228.4C228.4 655.159 228.397 655.034 228.489 654.843C228.588 654.636 228.735 654.484 228.861 654.397L230.568 656.864ZM231.4 655.136H234.4C234.4 652.708 232.969 650.976 231.129 649.954L229.672 652.576L228.215 655.198C228.491 655.351 228.521 655.433 228.482 655.374C228.461 655.344 228.436 655.296 228.419 655.238C228.402 655.181 228.4 655.143 228.4 655.136H231.4ZM229.672 652.576L231.202 649.995C229.788 649.158 227.771 648.312 225.29 647.441L224.296 650.272L223.303 653.103C225.686 653.939 227.252 654.629 228.143 655.157L229.672 652.576ZM224.296 650.272L225.295 647.443C222.471 646.446 220.193 645.494 218.43 644.593L217.064 647.264L215.699 649.935C217.776 650.997 220.319 652.05 223.298 653.101L224.296 650.272ZM217.064 647.264L218.454 644.605C217.025 643.858 215.746 642.751 214.626 641.211L212.2 642.976L209.774 644.741C211.385 646.955 213.349 648.707 215.674 649.923L217.064 647.264ZM212.2 642.976L214.626 641.211C213.735 639.985 213.18 638.259 213.216 635.787L210.216 635.744L207.217 635.701C207.167 639.117 207.935 642.212 209.774 644.741L212.2 642.976ZM210.216 635.744H213.216C213.216 633.329 213.819 631.479 214.88 630.024L212.456 628.256L210.032 626.488C208.107 629.129 207.216 632.271 207.216 635.744H210.216ZM212.456 628.256L214.874 630.032C216.056 628.423 217.665 627.172 219.802 626.296L218.664 623.52L217.527 620.744C214.458 622.002 211.929 623.907 210.039 626.48L212.456 628.256ZM218.664 623.52L219.786 626.302C222.025 625.4 224.602 624.92 227.56 624.92V621.92V618.92C223.948 618.92 220.594 619.507 217.542 620.738L218.664 623.52ZM227.56 621.92V624.92C232.663 624.92 236.328 626.096 238.885 628.115L240.744 625.76L242.603 623.405C238.675 620.304 233.551 618.92 227.56 618.92V621.92ZM240.744 625.76L238.9 628.126C241.399 630.074 242.788 632.804 242.93 636.686L245.928 636.576L248.926 636.466C248.727 631.047 246.66 626.566 242.588 623.394L240.744 625.76ZM245.928 636.576V633.576H230.632V636.576V639.576H245.928V636.576ZM230.632 636.576L233.631 636.476C233.576 634.84 233.157 632.966 231.714 631.626L229.672 633.824L227.631 636.022C227.508 635.909 227.498 635.831 227.528 635.916C227.562 636.014 227.62 636.248 227.634 636.676L230.632 636.576ZM229.672 633.824L231.714 631.626C230.533 630.53 229.068 629.992 227.496 629.992V632.992V635.992C227.547 635.992 227.578 635.996 227.593 635.999C227.608 636.001 227.612 636.003 227.609 636.002C227.606 636.001 227.603 635.999 227.603 635.999C227.603 636 227.613 636.005 227.631 636.022L229.672 633.824ZM227.496 632.992V629.992C226.088 629.992 224.773 630.538 223.794 631.625L226.024 633.632L228.254 635.639C228.18 635.721 228.053 635.826 227.876 635.903C227.703 635.979 227.561 635.992 227.496 635.992V632.992ZM226.024 633.632L223.903 631.511C222.787 632.626 222.448 634.051 222.448 635.296H225.448H228.448C228.448 635.192 228.463 635.215 228.427 635.317C228.387 635.434 228.3 635.599 228.146 635.753L226.024 633.632ZM225.448 635.296H222.448C222.448 637.649 223.819 639.352 225.54 640.411L227.112 637.856L228.685 635.301C228.406 635.13 228.357 635.034 228.38 635.069C228.392 635.089 228.413 635.128 228.429 635.182C228.445 635.236 228.448 635.278 228.448 635.296H225.448ZM227.112 637.856L225.655 640.478C227.005 641.228 228.985 642.079 231.488 643.029L232.552 640.224L233.616 637.419C231.171 636.491 229.524 635.764 228.569 635.234L227.112 637.856ZM232.552 640.224L231.503 643.035C234.289 644.074 236.501 645.045 238.177 645.941L239.592 643.296L241.007 640.651C239.014 639.584 236.533 638.507 233.601 637.413L232.552 640.224ZM239.592 643.296L238.202 645.955C239.682 646.728 240.977 647.809 242.091 649.238L244.456 647.392L246.821 645.546C245.205 643.476 243.257 641.826 240.982 640.637L239.592 643.296ZM244.456 647.392L242.091 649.238C242.97 650.364 243.504 651.874 243.504 653.984H246.504H249.504C249.504 650.803 248.673 647.919 246.821 645.546L244.456 647.392ZM246.504 653.984H243.504C243.504 656.24 242.957 658.185 241.901 659.9L244.456 661.472L247.011 663.044C248.687 660.322 249.504 657.275 249.504 653.984H246.504ZM244.456 661.472L241.915 659.878C240.889 661.513 239.368 662.859 237.216 663.883L238.504 666.592L239.792 669.301C242.846 667.85 245.293 665.783 246.997 663.066L244.456 661.472ZM238.504 666.592L237.216 663.883C235.102 664.888 232.469 665.448 229.224 665.448V668.448V671.448C233.148 671.448 236.701 670.771 239.792 669.301L238.504 666.592ZM296.04 622.688H299.04V619.688H296.04V622.688ZM296.04 633.952V636.952H299.04V633.952H296.04ZM284.008 633.952V630.952H281.008V633.952H284.008ZM284.008 668V671H287.008V668H284.008ZM269.8 668H266.8V671H269.8V668ZM269.8 633.952H272.8V630.952H269.8V633.952ZM257.896 633.952H254.896V636.952H257.896V633.952ZM257.896 622.688V619.688H254.896V622.688H257.896ZM296.04 622.688H293.04V633.952H296.04H299.04V622.688H296.04ZM296.04 633.952V630.952H284.008V633.952V636.952H296.04V633.952ZM284.008 633.952H281.008V668H284.008H287.008V633.952H284.008ZM284.008 668V665H269.8V668V671H284.008V668ZM269.8 668H272.8V633.952H269.8H266.8V668H269.8ZM269.8 633.952V630.952H257.896V633.952V636.952H269.8V633.952ZM257.896 633.952H260.896V622.688H257.896H254.896V633.952H257.896ZM257.896 622.688V625.688H296.04V622.688V619.688H257.896V622.688ZM331.638 668L328.98 669.392L329.822 671H331.638V668ZM323.126 651.744L325.783 650.352L324.941 648.744H323.126V651.744ZM323.062 651.744V648.744H320.062V651.744H323.062ZM323.062 668V671H326.062V668H323.062ZM308.854 668H305.854V671H308.854V668ZM308.854 622.688V619.688H305.854V622.688H308.854ZM339.382 624.672L338.023 627.346L338.04 627.355L338.058 627.364L339.382 624.672ZM345.206 629.984L342.595 631.462L342.612 631.491L342.629 631.52L345.206 629.984ZM344.63 645.6L342.204 643.835L342.193 643.85L342.183 643.865L344.63 645.6ZM337.398 650.656L336.472 647.802L332.971 648.938L334.789 652.138L337.398 650.656ZM347.254 668V671H352.409L349.862 666.518L347.254 668ZM323.062 642.272H320.062V645.272H323.062V642.272ZM331.766 641.376L333.741 643.634L333.78 643.6L333.818 643.565L331.766 641.376ZM331.702 635.616L329.58 637.737L329.613 637.769L329.646 637.801L331.702 635.616ZM323.062 634.592V631.592H320.062V634.592H323.062ZM331.638 668L334.295 666.608L325.783 650.352L323.126 651.744L320.468 653.136L328.98 669.392L331.638 668ZM323.126 651.744V648.744H323.062V651.744V654.744H323.126V651.744ZM323.062 651.744H320.062V668H323.062H326.062V651.744H323.062ZM323.062 668V665H308.854V668V671H323.062V668ZM308.854 668H311.854V622.688H308.854H305.854V668H308.854ZM308.854 622.688V625.688H329.974V622.688V619.688H308.854V622.688ZM329.974 622.688V625.688C333.289 625.688 335.935 626.286 338.023 627.346L339.382 624.672L340.741 621.998C337.623 620.413 333.997 619.688 329.974 619.688V622.688ZM339.382 624.672L338.058 627.364C340.185 628.41 341.646 629.785 342.595 631.462L345.206 629.984L347.817 628.506C346.205 625.66 343.784 623.494 340.706 621.98L339.382 624.672ZM345.206 629.984L342.629 631.52C343.65 633.233 344.19 635.21 344.19 637.536H347.19H350.19C350.19 634.23 349.407 631.172 347.783 628.448L345.206 629.984ZM347.19 637.536H344.19C344.19 639.961 343.52 642.025 342.204 643.835L344.63 645.6L347.056 647.365C349.153 644.482 350.19 641.17 350.19 637.536H347.19ZM344.63 645.6L342.183 643.865C340.948 645.606 339.113 646.946 336.472 647.802L337.398 650.656L338.323 653.51C341.997 652.318 344.984 650.287 347.077 647.335L344.63 645.6ZM337.398 650.656L334.789 652.138L344.645 669.482L347.254 668L349.862 666.518L340.006 649.174L337.398 650.656ZM347.254 668V665H331.638V668V671H347.254V668ZM323.062 642.272V645.272H328.694V642.272V639.272H323.062V642.272ZM328.694 642.272V645.272C330.43 645.272 332.293 644.901 333.741 643.634L331.766 641.376L329.79 639.118C329.873 639.046 329.688 639.272 328.694 639.272V642.272ZM331.766 641.376L333.818 643.565C335.32 642.156 335.79 640.234 335.79 638.432H332.79H329.79C329.79 638.845 329.735 639.074 329.7 639.174C329.671 639.258 329.664 639.235 329.714 639.187L331.766 641.376ZM332.79 638.432H335.79C335.79 636.588 335.204 634.793 333.758 633.431L331.702 635.616L329.646 637.801C329.678 637.831 329.698 637.858 329.719 637.913C329.745 637.98 329.79 638.137 329.79 638.432H332.79ZM331.702 635.616L333.823 633.495C332.396 632.067 330.511 631.592 328.694 631.592V634.592V637.592C329.105 637.592 329.347 637.646 329.471 637.688C329.58 637.725 329.594 637.751 329.58 637.737L331.702 635.616ZM328.694 634.592V631.592H323.062V634.592V637.592H328.694V634.592ZM323.062 634.592H320.062V642.272H323.062H326.062V634.592H323.062ZM389.745 661.152L392.596 660.219L391.92 658.152H389.745V661.152ZM374.641 661.152V658.152H372.466L371.789 660.219L374.641 661.152ZM372.401 668V671H374.576L375.252 668.933L372.401 668ZM357.489 668L354.671 666.969L353.197 671H357.489V668ZM374.065 622.688V619.688H371.968L371.247 621.657L374.065 622.688ZM390.449 622.688L393.267 621.661L392.549 619.688H390.449V622.688ZM406.961 668V671H411.247L409.779 666.973L406.961 668ZM391.985 668L389.133 668.933L389.81 671H391.985V668ZM386.289 650.464V653.464H390.418L389.142 649.537L386.289 650.464ZM382.193 637.856L385.046 636.929L382.193 628.147L379.34 636.929L382.193 637.856ZM378.097 650.464L375.244 649.537L373.968 653.464H378.097V650.464ZM389.745 661.152V658.152H374.641V661.152V664.152H389.745V661.152ZM374.641 661.152L371.789 660.219L369.549 667.067L372.401 668L375.252 668.933L377.492 662.085L374.641 661.152ZM372.401 668V665H357.489V668V671H372.401V668ZM357.489 668L360.306 669.031L376.882 623.719L374.065 622.688L371.247 621.657L354.671 666.969L357.489 668ZM374.065 622.688V625.688H390.449V622.688V619.688H374.065V622.688ZM390.449 622.688L387.63 623.715L404.142 669.027L406.961 668L409.779 666.973L393.267 621.661L390.449 622.688ZM406.961 668V665H391.985V668V671H406.961V668ZM391.985 668L394.836 667.067L392.596 660.219L389.745 661.152L386.893 662.085L389.133 668.933L391.985 668ZM386.289 650.464L389.142 649.537L385.046 636.929L382.193 637.856L379.34 638.783L383.436 651.391L386.289 650.464ZM382.193 637.856L379.34 636.929L375.244 649.537L378.097 650.464L380.95 651.391L385.046 638.783L382.193 637.856ZM378.097 650.464V653.464H386.289V650.464V647.464H378.097V650.464ZM454.733 622.688H457.733V619.688H454.733V622.688ZM454.733 633.952V636.952H457.733V633.952H454.733ZM442.701 633.952V630.952H439.701V633.952H442.701ZM442.701 668V671H445.701V668H442.701ZM428.493 668H425.493V671H428.493V668ZM428.493 633.952H431.493V630.952H428.493V633.952ZM416.589 633.952H413.589V636.952H416.589V633.952ZM416.589 622.688V619.688H413.589V622.688H416.589ZM454.733 622.688H451.733V633.952H454.733H457.733V622.688H454.733ZM454.733 633.952V630.952H442.701V633.952V636.952H454.733V633.952ZM442.701 633.952H439.701V668H442.701H445.701V633.952H442.701ZM442.701 668V665H428.493V668V671H442.701V668ZM428.493 668H431.493V633.952H428.493H425.493V668H428.493ZM428.493 633.952V630.952H416.589V633.952V636.952H428.493V633.952ZM416.589 633.952H419.589V622.688H416.589H413.589V633.952H416.589ZM416.589 622.688V625.688H454.733V622.688V619.688H416.589V622.688ZM481.754 634.016V631.016H478.754V634.016H481.754ZM481.754 639.584H478.754V642.584H481.754V639.584ZM495.834 639.584H498.834V636.584H495.834V639.584ZM495.834 650.272V653.272H498.834V650.272H495.834ZM481.754 650.272V647.272H478.754V650.272H481.754ZM481.754 656.672H478.754V659.672H481.754V656.672ZM497.754 656.672H500.754V653.672H497.754V656.672ZM497.754 668V671H500.754V668H497.754ZM467.546 668H464.546V671H467.546V668ZM467.546 622.688V619.688H464.546V622.688H467.546ZM497.754 622.688H500.754V619.688H497.754V622.688ZM497.754 634.016V637.016H500.754V634.016H497.754ZM481.754 634.016H478.754V639.584H481.754H484.754V634.016H481.754ZM481.754 639.584V642.584H495.834V639.584V636.584H481.754V639.584ZM495.834 639.584H492.834V650.272H495.834H498.834V639.584H495.834ZM495.834 650.272V647.272H481.754V650.272V653.272H495.834V650.272ZM481.754 650.272H478.754V656.672H481.754H484.754V650.272H481.754ZM481.754 656.672V659.672H497.754V656.672V653.672H481.754V656.672ZM497.754 656.672H494.754V668H497.754H500.754V656.672H497.754ZM497.754 668V665H467.546V668V671H497.754V668ZM467.546 668H470.546V622.688H467.546H464.546V668H467.546ZM467.546 622.688V625.688H497.754V622.688V619.688H467.546V622.688ZM497.754 622.688H494.754V634.016H497.754H500.754V622.688H497.754ZM497.754 634.016V631.016H481.754V634.016V637.016H497.754V634.016ZM539.845 638.176L537.294 639.755L538.174 641.176H539.845V638.176ZM537.477 636.128L536.135 638.811L536.181 638.834L536.227 638.855L537.477 636.128ZM527.429 638.048L529.71 639.996L529.722 639.982L529.733 639.969L527.429 638.048ZM527.685 653.216L525.511 655.284L525.511 655.284L527.685 653.216ZM543.301 651.872L545.691 653.684L549.34 648.872H543.301V651.872ZM531.973 651.872H528.973V654.872H531.973V651.872ZM531.973 641.824V638.824H528.973V641.824H531.973ZM555.077 641.824H558.077V638.824H555.077V641.824ZM555.077 656.032L557.669 657.542L558.077 656.842V656.032H555.077ZM546.949 664.736L548.655 667.204L548.665 667.197L548.675 667.189L546.949 664.736ZM521.541 665.44L520.059 668.049L520.078 668.059L520.097 668.07L521.541 665.44ZM513.541 657.248L510.884 658.641L510.891 658.654L510.897 658.666L513.541 657.248ZM513.541 633.312L510.897 631.894L510.891 631.906L510.884 631.919L513.541 633.312ZM521.541 625.184L522.998 627.806L523.01 627.8L523.022 627.793L521.541 625.184ZM548.165 626.528L546.334 628.905L546.341 628.91L546.347 628.915L548.165 626.528ZM554.821 638.176V641.176H558.267L557.792 637.763L554.821 638.176ZM539.845 638.176L542.396 636.597C541.508 635.163 540.249 634.099 538.727 633.401L537.477 636.128L536.227 638.855C536.752 639.096 537.072 639.397 537.294 639.755L539.845 638.176ZM537.477 636.128L538.818 633.445C537.282 632.676 535.56 632.36 533.765 632.36V635.36V638.36C534.871 638.36 535.624 638.556 536.135 638.811L537.477 636.128ZM533.765 635.36V632.36C530.313 632.36 527.287 633.532 525.124 636.127L527.429 638.048L529.733 639.969C530.557 638.98 531.756 638.36 533.765 638.36V635.36ZM527.429 638.048L525.147 636.1C523.054 638.552 522.189 641.736 522.189 645.28H525.189H528.189C528.189 642.68 528.817 641.043 529.71 639.996L527.429 638.048ZM525.189 645.28H522.189C522.189 649.236 523.114 652.763 525.511 655.284L527.685 653.216L529.858 651.148C528.928 650.17 528.189 648.407 528.189 645.28H525.189ZM527.685 653.216L525.511 655.284C527.949 657.846 531.447 658.84 535.365 658.84V655.84V652.84C532.371 652.84 530.749 652.084 529.858 651.148L527.685 653.216ZM535.365 655.84V658.84C539.6 658.84 543.126 657.069 545.691 653.684L543.301 651.872L540.91 650.06C539.465 651.966 537.7 652.84 535.365 652.84V655.84ZM543.301 651.872V648.872H531.973V651.872V654.872H543.301V651.872ZM531.973 651.872H534.973V641.824H531.973H528.973V651.872H531.973ZM531.973 641.824V644.824H555.077V641.824V638.824H531.973V641.824ZM555.077 641.824H552.077V656.032H555.077H558.077V641.824H555.077ZM555.077 656.032L552.484 654.522C550.757 657.489 548.355 660.078 545.222 662.283L546.949 664.736L548.675 667.189C552.455 664.53 555.472 661.316 557.669 657.542L555.077 656.032ZM546.949 664.736L545.243 662.268C542.404 664.231 538.668 665.32 533.829 665.32V668.32V671.32C539.57 671.32 544.581 670.02 548.655 667.204L546.949 664.736ZM533.829 668.32V665.32C529.551 665.32 525.968 664.448 522.984 662.81L521.541 665.44L520.097 668.07C524.11 670.272 528.72 671.32 533.829 671.32V668.32ZM521.541 665.44L523.022 662.831C520.058 661.148 517.794 658.829 516.184 655.83L513.541 657.248L510.897 658.666C513.042 662.664 516.112 665.807 520.059 668.049L521.541 665.44ZM513.541 657.248L516.198 655.855C514.617 652.841 513.789 649.34 513.789 645.28H510.789H507.789C507.789 650.18 508.795 654.658 510.884 658.641L513.541 657.248ZM510.789 645.28H513.789C513.789 641.22 514.617 637.719 516.198 634.705L513.541 633.312L510.884 631.919C508.795 635.902 507.789 640.38 507.789 645.28H510.789ZM513.541 633.312L516.184 634.73C517.791 631.736 520.047 629.446 522.998 627.806L521.541 625.184L520.084 622.562C516.123 624.762 513.045 627.89 510.897 631.894L513.541 633.312ZM521.541 625.184L523.022 627.793C525.955 626.127 529.48 625.24 533.701 625.24V622.24V619.24C528.62 619.24 524.038 620.316 520.059 622.575L521.541 625.184ZM533.701 622.24V625.24C539.148 625.24 543.273 626.547 546.334 628.905L548.165 626.528L549.995 624.151C545.633 620.792 540.115 619.24 533.701 619.24V622.24ZM548.165 626.528L546.347 628.915C549.438 631.268 551.27 634.424 551.849 638.589L554.821 638.176L557.792 637.763C557.006 632.115 554.401 627.505 549.982 624.141L548.165 626.528ZM554.821 638.176V635.176H539.845V638.176V641.176H554.821V638.176ZM612.674 622.688L615.341 624.062L617.594 619.688H612.674V622.688ZM596.418 654.24L593.751 652.866L593.418 653.513V654.24H596.418ZM596.418 668V671H599.418V668H596.418ZM582.21 668H579.21V671H582.21V668ZM582.21 654.24H585.21V653.513L584.877 652.866L582.21 654.24ZM565.954 622.688V619.688H561.033L563.287 624.062L565.954 622.688ZM582.21 622.688L584.945 621.456L584.149 619.688H582.21V622.688ZM589.442 638.752L586.706 639.984L589.442 646.06L592.177 639.984L589.442 638.752ZM596.674 622.688V619.688H594.734L593.938 621.456L596.674 622.688ZM612.674 622.688L610.007 621.314L593.751 652.866L596.418 654.24L599.085 655.614L615.341 624.062L612.674 622.688ZM596.418 654.24H593.418V668H596.418H599.418V654.24H596.418ZM596.418 668V665H582.21V668V671H596.418V668ZM582.21 668H585.21V654.24H582.21H579.21V668H582.21ZM582.21 654.24L584.877 652.866L568.621 621.314L565.954 622.688L563.287 624.062L579.543 655.614L582.21 654.24ZM565.954 622.688V625.688H582.21V622.688V619.688H565.954V622.688ZM582.21 622.688L579.474 623.92L586.706 639.984L589.442 638.752L592.177 637.52L584.945 621.456L582.21 622.688ZM589.442 638.752L592.177 639.984L599.409 623.92L596.674 622.688L593.938 621.456L586.706 637.52L589.442 638.752ZM596.674 622.688V625.688H612.674V622.688V619.688H596.674V622.688Z" fill="black" mask="url(#path-3-outside-1_1048_2)"/>
<rect x="570" y="250" width="126" height="48" fill="#F5F5F5"/>
<mask id="path-6-outside-2_1048_2" maskUnits="userSpaceOnUse" x="184" y="476" width="453" height="54" fill="black">
<rect fill="white" x="184" y="476" width="453" height="54"/>
<path d="M254.328 480.688L243.96 526H226.296L221.048 500.272L215.8 526H198.136L187.768 480.688H203.064L207.16 509.232L213.304 480.688H228.792L234.936 509.232L239.032 480.688H254.328ZM282.59 492.016V497.584H296.67V508.272H282.59V514.672H298.59V526H268.382V480.688H298.59V492.016H282.59ZM343.241 502.768C345.972 503.408 348.084 504.731 349.577 506.736C351.113 508.699 351.881 510.981 351.881 513.584C351.881 517.552 350.558 520.624 347.913 522.8C345.31 524.933 341.556 526 336.649 526H312.905V480.688H336.009C340.617 480.688 344.244 481.691 346.889 483.696C349.534 485.701 350.857 488.624 350.857 492.464C350.857 495.109 350.153 497.349 348.745 499.184C347.38 500.976 345.545 502.171 343.241 502.768ZM327.113 498.352H332.617C333.897 498.352 334.836 498.096 335.433 497.584C336.073 497.072 336.393 496.283 336.393 495.216C336.393 494.107 336.073 493.296 335.433 492.784C334.836 492.229 333.897 491.952 332.617 491.952H327.113V498.352ZM333.577 514.608C334.857 514.608 335.796 514.373 336.393 513.904C337.033 513.392 337.353 512.581 337.353 511.472C337.353 509.296 336.094 508.208 333.577 508.208H327.113V514.608H333.577ZM428.906 526H414.698L399.658 503.216V526H385.45V480.688H399.658L414.698 503.856V480.688H428.906V526ZM466.365 526.448C462.098 526.448 458.173 525.445 454.589 523.44C451.048 521.435 448.232 518.661 446.141 515.12C444.05 511.579 443.005 507.589 443.005 503.152C443.005 498.715 444.05 494.725 446.141 491.184C448.232 487.643 451.048 484.891 454.589 482.928C458.173 480.923 462.098 479.92 466.365 479.92C470.632 479.92 474.536 480.923 478.077 482.928C481.618 484.891 484.413 487.643 486.461 491.184C488.552 494.725 489.597 498.715 489.597 503.152C489.597 507.589 488.552 511.579 486.461 515.12C484.413 518.661 481.597 521.435 478.013 523.44C474.472 525.445 470.589 526.448 466.365 526.448ZM466.365 513.2C469.181 513.2 471.357 512.304 472.893 510.512C474.429 508.677 475.197 506.224 475.197 503.152C475.197 500.037 474.429 497.584 472.893 495.792C471.357 493.957 469.181 493.04 466.365 493.04C463.506 493.04 461.309 493.957 459.773 495.792C458.237 497.584 457.469 500.037 457.469 503.152C457.469 506.224 458.237 508.677 459.773 510.512C461.309 512.304 463.506 513.2 466.365 513.2ZM549.315 480.688L534.083 526H515.715L500.483 480.688H515.587L524.931 511.856L534.211 480.688H549.315ZM575.663 492.016V497.584H589.743V508.272H575.663V514.672H591.663V526H561.455V480.688H591.663V492.016H575.663ZM620.185 515.248H633.881V526H605.977V480.688H620.185V515.248Z"/>
</mask>
<path d="M254.328 480.688L243.96 526H226.296L221.048 500.272L215.8 526H198.136L187.768 480.688H203.064L207.16 509.232L213.304 480.688H228.792L234.936 509.232L239.032 480.688H254.328ZM282.59 492.016V497.584H296.67V508.272H282.59V514.672H298.59V526H268.382V480.688H298.59V492.016H282.59ZM343.241 502.768C345.972 503.408 348.084 504.731 349.577 506.736C351.113 508.699 351.881 510.981 351.881 513.584C351.881 517.552 350.558 520.624 347.913 522.8C345.31 524.933 341.556 526 336.649 526H312.905V480.688H336.009C340.617 480.688 344.244 481.691 346.889 483.696C349.534 485.701 350.857 488.624 350.857 492.464C350.857 495.109 350.153 497.349 348.745 499.184C347.38 500.976 345.545 502.171 343.241 502.768ZM327.113 498.352H332.617C333.897 498.352 334.836 498.096 335.433 497.584C336.073 497.072 336.393 496.283 336.393 495.216C336.393 494.107 336.073 493.296 335.433 492.784C334.836 492.229 333.897 491.952 332.617 491.952H327.113V498.352ZM333.577 514.608C334.857 514.608 335.796 514.373 336.393 513.904C337.033 513.392 337.353 512.581 337.353 511.472C337.353 509.296 336.094 508.208 333.577 508.208H327.113V514.608H333.577ZM428.906 526H414.698L399.658 503.216V526H385.45V480.688H399.658L414.698 503.856V480.688H428.906V526ZM466.365 526.448C462.098 526.448 458.173 525.445 454.589 523.44C451.048 521.435 448.232 518.661 446.141 515.12C444.05 511.579 443.005 507.589 443.005 503.152C443.005 498.715 444.05 494.725 446.141 491.184C448.232 487.643 451.048 484.891 454.589 482.928C458.173 480.923 462.098 479.92 466.365 479.92C470.632 479.92 474.536 480.923 478.077 482.928C481.618 484.891 484.413 487.643 486.461 491.184C488.552 494.725 489.597 498.715 489.597 503.152C489.597 507.589 488.552 511.579 486.461 515.12C484.413 518.661 481.597 521.435 478.013 523.44C474.472 525.445 470.589 526.448 466.365 526.448ZM466.365 513.2C469.181 513.2 471.357 512.304 472.893 510.512C474.429 508.677 475.197 506.224 475.197 503.152C475.197 500.037 474.429 497.584 472.893 495.792C471.357 493.957 469.181 493.04 466.365 493.04C463.506 493.04 461.309 493.957 459.773 495.792C458.237 497.584 457.469 500.037 457.469 503.152C457.469 506.224 458.237 508.677 459.773 510.512C461.309 512.304 463.506 513.2 466.365 513.2ZM549.315 480.688L534.083 526H515.715L500.483 480.688H515.587L524.931 511.856L534.211 480.688H549.315ZM575.663 492.016V497.584H589.743V508.272H575.663V514.672H591.663V526H561.455V480.688H591.663V492.016H575.663ZM620.185 515.248H633.881V526H605.977V480.688H620.185V515.248Z" fill="white"/>
<path d="M254.328 480.688L257.252 481.357L258.091 477.688H254.328V480.688ZM243.96 526V529H246.351L246.884 526.669L243.96 526ZM226.296 526L223.356 526.6L223.846 529H226.296V526ZM221.048 500.272L223.987 499.672L218.108 499.672L221.048 500.272ZM215.8 526V529H218.249L218.739 526.6L215.8 526ZM198.136 526L195.211 526.669L195.744 529H198.136V526ZM187.768 480.688V477.688H184.004L184.843 481.357L187.768 480.688ZM203.064 480.688L206.033 480.262L205.664 477.688H203.064V480.688ZM207.16 509.232L204.19 509.658L210.092 509.863L207.16 509.232ZM213.304 480.688V477.688H210.881L210.371 480.057L213.304 480.688ZM228.792 480.688L231.724 480.057L231.214 477.688H228.792V480.688ZM234.936 509.232L232.003 509.863L237.905 509.658L234.936 509.232ZM239.032 480.688V477.688H236.431L236.062 480.262L239.032 480.688ZM254.328 480.688L251.403 480.019L241.035 525.331L243.96 526L246.884 526.669L257.252 481.357L254.328 480.688ZM243.96 526V523H226.296V526V529H243.96V526ZM226.296 526L229.235 525.4L223.987 499.672L221.048 500.272L218.108 500.872L223.356 526.6L226.296 526ZM221.048 500.272L218.108 499.672L212.86 525.4L215.8 526L218.739 526.6L223.987 500.872L221.048 500.272ZM215.8 526V523H198.136V526V529H215.8V526ZM198.136 526L201.06 525.331L190.692 480.019L187.768 480.688L184.843 481.357L195.211 526.669L198.136 526ZM187.768 480.688V483.688H203.064V480.688V477.688H187.768V480.688ZM203.064 480.688L200.094 481.114L204.19 509.658L207.16 509.232L210.129 508.806L206.033 480.262L203.064 480.688ZM207.16 509.232L210.092 509.863L216.236 481.319L213.304 480.688L210.371 480.057L204.227 508.601L207.16 509.232ZM213.304 480.688V483.688H228.792V480.688V477.688H213.304V480.688ZM228.792 480.688L225.859 481.319L232.003 509.863L234.936 509.232L237.868 508.601L231.724 480.057L228.792 480.688ZM234.936 509.232L237.905 509.658L242.001 481.114L239.032 480.688L236.062 480.262L231.966 508.806L234.936 509.232ZM239.032 480.688V483.688H254.328V480.688V477.688H239.032V480.688ZM282.59 492.016V489.016H279.59V492.016H282.59ZM282.59 497.584H279.59V500.584H282.59V497.584ZM296.67 497.584H299.67V494.584H296.67V497.584ZM296.67 508.272V511.272H299.67V508.272H296.67ZM282.59 508.272V505.272H279.59V508.272H282.59ZM282.59 514.672H279.59V517.672H282.59V514.672ZM298.59 514.672H301.59V511.672H298.59V514.672ZM298.59 526V529H301.59V526H298.59ZM268.382 526H265.382V529H268.382V526ZM268.382 480.688V477.688H265.382V480.688H268.382ZM298.59 480.688H301.59V477.688H298.59V480.688ZM298.59 492.016V495.016H301.59V492.016H298.59ZM282.59 492.016H279.59V497.584H282.59H285.59V492.016H282.59ZM282.59 497.584V500.584H296.67V497.584V494.584H282.59V497.584ZM296.67 497.584H293.67V508.272H296.67H299.67V497.584H296.67ZM296.67 508.272V505.272H282.59V508.272V511.272H296.67V508.272ZM282.59 508.272H279.59V514.672H282.59H285.59V508.272H282.59ZM282.59 514.672V517.672H298.59V514.672V511.672H282.59V514.672ZM298.59 514.672H295.59V526H298.59H301.59V514.672H298.59ZM298.59 526V523H268.382V526V529H298.59V526ZM268.382 526H271.382V480.688H268.382H265.382V526H268.382ZM268.382 480.688V483.688H298.59V480.688V477.688H268.382V480.688ZM298.59 480.688H295.59V492.016H298.59H301.59V480.688H298.59ZM298.59 492.016V489.016H282.59V492.016V495.016H298.59V492.016ZM343.241 502.768L342.488 499.864L342.556 505.689L343.241 502.768ZM349.577 506.736L347.171 508.528L347.192 508.557L347.214 508.585L349.577 506.736ZM347.913 522.8L349.815 525.12L349.819 525.117L347.913 522.8ZM312.905 526H309.905V529H312.905V526ZM312.905 480.688V477.688H309.905V480.688H312.905ZM348.745 499.184L346.365 497.358L346.359 497.366L348.745 499.184ZM327.113 498.352H324.113V501.352H327.113V498.352ZM335.433 497.584L333.559 495.241L333.519 495.273L333.481 495.306L335.433 497.584ZM335.433 492.784L333.392 494.982L333.473 495.058L333.559 495.127L335.433 492.784ZM327.113 491.952V488.952H324.113V491.952H327.113ZM336.393 513.904L338.246 516.263L338.257 516.255L338.267 516.247L336.393 513.904ZM327.113 508.208V505.208H324.113V508.208H327.113ZM327.113 514.608H324.113V517.608H327.113V514.608ZM343.241 502.768L342.556 505.689C344.687 506.188 346.152 507.16 347.171 508.528L349.577 506.736L351.983 504.944C350.015 502.302 347.256 500.628 343.926 499.847L343.241 502.768ZM349.577 506.736L347.214 508.585C348.318 509.995 348.881 511.62 348.881 513.584H351.881H354.881C354.881 510.343 353.908 507.402 351.94 504.887L349.577 506.736ZM351.881 513.584H348.881C348.881 516.814 347.846 518.971 346.007 520.483L347.913 522.8L349.819 525.117C353.271 522.277 354.881 518.29 354.881 513.584H351.881ZM347.913 522.8L346.011 520.48C344.143 522.011 341.171 523 336.649 523V526V529C341.941 529 346.478 527.855 349.815 525.12L347.913 522.8ZM336.649 526V523H312.905V526V529H336.649V526ZM312.905 526H315.905V480.688H312.905H309.905V526H312.905ZM312.905 480.688V483.688H336.009V480.688V477.688H312.905V480.688ZM336.009 480.688V483.688C340.212 483.688 343.121 484.604 345.077 486.087L346.889 483.696L348.701 481.305C345.366 478.777 341.022 477.688 336.009 477.688V480.688ZM346.889 483.696L345.077 486.087C346.85 487.431 347.857 489.396 347.857 492.464H350.857H353.857C353.857 487.852 352.219 483.972 348.701 481.305L346.889 483.696ZM350.857 492.464H347.857C347.857 494.548 347.314 496.121 346.365 497.358L348.745 499.184L351.125 501.01C352.992 498.578 353.857 495.67 353.857 492.464H350.857ZM348.745 499.184L346.359 497.366C345.425 498.592 344.181 499.425 342.488 499.864L343.241 502.768L343.994 505.672C346.909 504.916 349.334 503.36 351.131 501.002L348.745 499.184ZM327.113 498.352V501.352H332.617V498.352V495.352H327.113V498.352ZM332.617 498.352V501.352C334.193 501.352 335.993 501.055 337.385 499.862L335.433 497.584L333.481 495.306C333.589 495.213 333.632 495.228 333.492 495.266C333.346 495.305 333.069 495.352 332.617 495.352V498.352ZM335.433 497.584L337.307 499.927C338.862 498.682 339.393 496.897 339.393 495.216H336.393H333.393C333.393 495.457 333.356 495.522 333.373 495.481C333.382 495.458 333.402 495.417 333.439 495.367C333.476 495.317 333.518 495.274 333.559 495.241L335.433 497.584ZM336.393 495.216H339.393C339.393 493.539 338.89 491.707 337.307 490.441L335.433 492.784L333.559 495.127C333.51 495.087 333.463 495.039 333.425 494.986C333.387 494.934 333.369 494.894 333.363 494.877C333.352 494.851 333.393 494.94 333.393 495.216H336.393ZM335.433 492.784L337.474 490.586C336.079 489.29 334.24 488.952 332.617 488.952V491.952V494.952C333.052 494.952 333.307 495.001 333.431 495.037C333.544 495.071 333.494 495.077 333.392 494.982L335.433 492.784ZM332.617 491.952V488.952H327.113V491.952V494.952H332.617V491.952ZM327.113 491.952H324.113V498.352H327.113H330.113V491.952H327.113ZM333.577 514.608V517.608C335.11 517.608 336.865 517.348 338.246 516.263L336.393 513.904L334.54 511.545C334.651 511.458 334.681 511.48 334.513 511.522C334.344 511.564 334.045 511.608 333.577 511.608V514.608ZM336.393 513.904L338.267 516.247C339.85 514.981 340.353 513.149 340.353 511.472H337.353H334.353C334.353 511.748 334.312 511.837 334.323 511.811C334.329 511.794 334.347 511.754 334.385 511.702C334.423 511.649 334.47 511.601 334.519 511.561L336.393 513.904ZM337.353 511.472H340.353C340.353 509.798 339.849 508.032 338.371 506.754C336.977 505.549 335.2 505.208 333.577 505.208V508.208V511.208C334 511.208 334.26 511.255 334.398 511.295C334.528 511.332 334.515 511.352 334.447 511.294C334.37 511.227 334.328 511.15 334.318 511.123C334.314 511.114 334.353 511.21 334.353 511.472H337.353ZM333.577 508.208V505.208H327.113V508.208V511.208H333.577V508.208ZM327.113 508.208H324.113V514.608H327.113H330.113V508.208H327.113ZM327.113 514.608V517.608H333.577V514.608V511.608H327.113V514.608ZM428.906 526V529H431.906V526H428.906ZM414.698 526L412.194 527.653L413.084 529H414.698V526ZM399.658 503.216L402.162 501.563L396.658 493.226V503.216H399.658ZM399.658 526V529H402.658V526H399.658ZM385.45 526H382.45V529H385.45V526ZM385.45 480.688V477.688H382.45V480.688H385.45ZM399.658 480.688L402.174 479.055L401.287 477.688H399.658V480.688ZM414.698 503.856L412.182 505.489L417.698 513.987V503.856H414.698ZM414.698 480.688V477.688H411.698V480.688H414.698ZM428.906 480.688H431.906V477.688H428.906V480.688ZM428.906 526V523H414.698V526V529H428.906V526ZM414.698 526L417.202 524.347L402.162 501.563L399.658 503.216L397.154 504.869L412.194 527.653L414.698 526ZM399.658 503.216H396.658V526H399.658H402.658V503.216H399.658ZM399.658 526V523H385.45V526V529H399.658V526ZM385.45 526H388.45V480.688H385.45H382.45V526H385.45ZM385.45 480.688V483.688H399.658V480.688V477.688H385.45V480.688ZM399.658 480.688L397.142 482.321L412.182 505.489L414.698 503.856L417.214 502.223L402.174 479.055L399.658 480.688ZM414.698 503.856H417.698V480.688H414.698H411.698V503.856H414.698ZM414.698 480.688V483.688H428.906V480.688V477.688H414.698V480.688ZM428.906 480.688H425.906V526H428.906H431.906V480.688H428.906ZM454.589 523.44L453.111 526.051L453.117 526.054L453.124 526.058L454.589 523.44ZM446.141 515.12L443.558 516.645L443.558 516.645L446.141 515.12ZM454.589 482.928L456.043 485.552L456.054 485.546L454.589 482.928ZM478.077 482.928L476.599 485.539L476.611 485.545L476.623 485.552L478.077 482.928ZM486.461 491.184L483.864 492.686L483.871 492.698L483.878 492.709L486.461 491.184ZM486.461 515.12L483.878 513.595L483.871 513.606L483.864 513.618L486.461 515.12ZM478.013 523.44L476.548 520.822L476.541 520.826L476.535 520.829L478.013 523.44ZM472.893 510.512L475.171 512.464L475.182 512.451L475.193 512.438L472.893 510.512ZM472.893 495.792L470.593 497.718L470.604 497.731L470.615 497.744L472.893 495.792ZM459.773 495.792L462.051 497.744L462.062 497.731L462.073 497.718L459.773 495.792ZM459.773 510.512L457.473 512.438L457.484 512.451L457.495 512.464L459.773 510.512ZM466.365 526.448V523.448C462.591 523.448 459.172 522.567 456.054 520.822L454.589 523.44L453.124 526.058C457.174 528.324 461.606 529.448 466.365 529.448V526.448ZM454.589 523.44L456.067 520.829C452.988 519.086 450.551 516.689 448.724 513.595L446.141 515.12L443.558 516.645C445.912 520.634 449.107 523.784 453.111 526.051L454.589 523.44ZM446.141 515.12L448.724 513.595C446.928 510.552 446.005 507.097 446.005 503.152H443.005H440.005C440.005 508.082 441.173 512.605 443.558 516.645L446.141 515.12ZM443.005 503.152H446.005C446.005 499.207 446.928 495.752 448.724 492.709L446.141 491.184L443.558 489.659C441.173 493.699 440.005 498.222 440.005 503.152H443.005ZM446.141 491.184L448.724 492.709C450.548 489.621 452.977 487.251 456.043 485.552L454.589 482.928L453.135 480.304C449.118 482.53 445.916 485.665 443.558 489.659L446.141 491.184ZM454.589 482.928L456.054 485.546C459.172 483.801 462.591 482.92 466.365 482.92V479.92V476.92C461.606 476.92 457.174 478.044 453.124 480.31L454.589 482.928ZM466.365 479.92V482.92C470.14 482.92 473.53 483.801 476.599 485.539L478.077 482.928L479.555 480.317C475.541 478.044 471.124 476.92 466.365 476.92V479.92ZM478.077 482.928L476.623 485.552C479.683 487.248 482.085 489.61 483.864 492.686L486.461 491.184L489.058 489.682C486.741 485.675 483.553 482.533 479.531 480.304L478.077 482.928ZM486.461 491.184L483.878 492.709C485.674 495.752 486.597 499.207 486.597 503.152H489.597H492.597C492.597 498.222 491.429 493.699 489.044 489.659L486.461 491.184ZM489.597 503.152H486.597C486.597 507.097 485.674 510.552 483.878 513.595L486.461 515.12L489.044 516.645C491.429 512.605 492.597 508.082 492.597 503.152H489.597ZM486.461 515.12L483.864 513.618C482.087 516.69 479.663 519.079 476.548 520.822L478.013 523.44L479.478 526.058C483.531 523.79 486.739 520.632 489.058 516.622L486.461 515.12ZM478.013 523.44L476.535 520.829C473.462 522.57 470.091 523.448 466.365 523.448V526.448V529.448C471.087 529.448 475.482 528.321 479.491 526.051L478.013 523.44ZM466.365 513.2V516.2C469.871 516.2 472.954 515.051 475.171 512.464L472.893 510.512L470.615 508.56C469.76 509.557 468.491 510.2 466.365 510.2V513.2ZM472.893 510.512L475.193 512.438C477.297 509.925 478.197 506.724 478.197 503.152H475.197H472.197C472.197 505.724 471.561 507.43 470.593 508.586L472.893 510.512ZM475.197 503.152H478.197C478.197 499.553 477.304 496.329 475.171 493.84L472.893 495.792L470.615 497.744C471.554 498.839 472.197 500.521 472.197 503.152H475.197ZM472.893 495.792L475.193 493.866C472.984 491.228 469.895 490.04 466.365 490.04V493.04V496.04C468.467 496.04 469.73 496.687 470.593 497.718L472.893 495.792ZM466.365 493.04V490.04C462.809 490.04 459.691 491.217 457.473 493.866L459.773 495.792L462.073 497.718C462.927 496.698 464.203 496.04 466.365 496.04V493.04ZM459.773 495.792L457.495 493.84C455.362 496.329 454.469 499.553 454.469 503.152H457.469H460.469C460.469 500.521 461.112 498.839 462.051 497.744L459.773 495.792ZM457.469 503.152H454.469C454.469 506.724 455.369 509.925 457.473 512.438L459.773 510.512L462.073 508.586C461.105 507.43 460.469 505.724 460.469 503.152H457.469ZM459.773 510.512L457.495 512.464C459.721 515.061 462.833 516.2 466.365 516.2V513.2V510.2C464.18 510.2 462.897 509.547 462.051 508.56L459.773 510.512ZM549.315 480.688L552.158 481.644L553.488 477.688H549.315V480.688ZM534.083 526V529H536.239L536.926 526.956L534.083 526ZM515.715 526L512.871 526.956L513.558 529H515.715V526ZM500.483 480.688V477.688H496.309L497.639 481.644L500.483 480.688ZM515.587 480.688L518.46 479.826L517.819 477.688H515.587V480.688ZM524.931 511.856L522.057 512.718L524.94 522.336L527.806 512.712L524.931 511.856ZM534.211 480.688V477.688H531.974L531.335 479.832L534.211 480.688ZM549.315 480.688L546.471 479.732L531.239 525.044L534.083 526L536.926 526.956L552.158 481.644L549.315 480.688ZM534.083 526V523H515.715V526V529H534.083V526ZM515.715 526L518.558 525.044L503.326 479.732L500.483 480.688L497.639 481.644L512.871 526.956L515.715 526ZM500.483 480.688V483.688H515.587V480.688V477.688H500.483V480.688ZM515.587 480.688L512.713 481.55L522.057 512.718L524.931 511.856L527.804 510.994L518.46 479.826L515.587 480.688ZM524.931 511.856L527.806 512.712L537.086 481.544L534.211 480.688L531.335 479.832L522.055 511L524.931 511.856ZM534.211 480.688V483.688H549.315V480.688V477.688H534.211V480.688ZM575.663 492.016V489.016H572.663V492.016H575.663ZM575.663 497.584H572.663V500.584H575.663V497.584ZM589.743 497.584H592.743V494.584H589.743V497.584ZM589.743 508.272V511.272H592.743V508.272H589.743ZM575.663 508.272V505.272H572.663V508.272H575.663ZM575.663 514.672H572.663V517.672H575.663V514.672ZM591.663 514.672H594.663V511.672H591.663V514.672ZM591.663 526V529H594.663V526H591.663ZM561.455 526H558.455V529H561.455V526ZM561.455 480.688V477.688H558.455V480.688H561.455ZM591.663 480.688H594.663V477.688H591.663V480.688ZM591.663 492.016V495.016H594.663V492.016H591.663ZM575.663 492.016H572.663V497.584H575.663H578.663V492.016H575.663ZM575.663 497.584V500.584H589.743V497.584V494.584H575.663V497.584ZM589.743 497.584H586.743V508.272H589.743H592.743V497.584H589.743ZM589.743 508.272V505.272H575.663V508.272V511.272H589.743V508.272ZM575.663 508.272H572.663V514.672H575.663H578.663V508.272H575.663ZM575.663 514.672V517.672H591.663V514.672V511.672H575.663V514.672ZM591.663 514.672H588.663V526H591.663H594.663V514.672H591.663ZM591.663 526V523H561.455V526V529H591.663V526ZM561.455 526H564.455V480.688H561.455H558.455V526H561.455ZM561.455 480.688V483.688H591.663V480.688V477.688H561.455V480.688ZM591.663 480.688H588.663V492.016H591.663H594.663V480.688H591.663ZM591.663 492.016V489.016H575.663V492.016V495.016H591.663V492.016ZM620.185 515.248H617.185V518.248H620.185V515.248ZM633.881 515.248H636.881V512.248H633.881V515.248ZM633.881 526V529H636.881V526H633.881ZM605.977 526H602.977V529H605.977V526ZM605.977 480.688V477.688H602.977V480.688H605.977ZM620.185 480.688H623.185V477.688H620.185V480.688ZM620.185 515.248V518.248H633.881V515.248V512.248H620.185V515.248ZM633.881 515.248H630.881V526H633.881H636.881V515.248H633.881ZM633.881 526V523H605.977V526V529H633.881V526ZM605.977 526H608.977V480.688H605.977H602.977V526H605.977ZM605.977 480.688V483.688H620.185V480.688V477.688H605.977V480.688ZM620.185 480.688H617.185V515.248H620.185H623.185V480.688H620.185Z" fill="black" mask="url(#path-6-outside-2_1048_2)"/>
<path d="M385.35 950.38V953.02H382.53V961H379.2V953.02H376.41V950.38H385.35ZM393.528 961.105C392.528 961.105 391.608 960.87 390.768 960.4C389.938 959.93 389.278 959.28 388.788 958.45C388.298 957.62 388.053 956.685 388.053 955.645C388.053 954.605 388.298 953.67 388.788 952.84C389.278 952.01 389.938 951.365 390.768 950.905C391.608 950.435 392.528 950.2 393.528 950.2C394.528 950.2 395.443 950.435 396.273 950.905C397.103 951.365 397.758 952.01 398.238 952.84C398.728 953.67 398.973 954.605 398.973 955.645C398.973 956.685 398.728 957.62 398.238 958.45C397.758 959.28 397.098 959.93 396.258 960.4C395.428 960.87 394.518 961.105 393.528 961.105ZM393.528 958C394.188 958 394.698 957.79 395.058 957.37C395.418 956.94 395.598 956.365 395.598 955.645C395.598 954.915 395.418 954.34 395.058 953.92C394.698 953.49 394.188 953.275 393.528 953.275C392.858 953.275 392.343 953.49 391.983 953.92C391.623 954.34 391.443 954.915 391.443 955.645C391.443 956.365 391.623 956.94 391.983 957.37C392.343 957.79 392.858 958 393.528 958ZM407.449 961.105C406.449 961.105 405.529 960.87 404.689 960.4C403.859 959.93 403.199 959.28 402.709 958.45C402.219 957.62 401.974 956.685 401.974 955.645C401.974 954.605 402.219 953.67 402.709 952.84C403.199 952.01 403.859 951.365 404.689 950.905C405.529 950.435 406.449 950.2 407.449 950.2C408.449 950.2 409.364 950.435 410.194 950.905C411.024 951.365 411.679 952.01 412.159 952.84C412.649 953.67 412.894 954.605 412.894 955.645C412.894 956.685 412.649 957.62 412.159 958.45C411.679 959.28 411.019 959.93 410.179 960.4C409.349 960.87 408.439 961.105 407.449 961.105ZM407.449 958C408.109 958 408.619 957.79 408.979 957.37C409.339 956.94 409.519 956.365 409.519 955.645C409.519 954.915 409.339 954.34 408.979 953.92C408.619 953.49 408.109 953.275 407.449 953.275C406.779 953.275 406.264 953.49 405.904 953.92C405.544 954.34 405.364 954.915 405.364 955.645C405.364 956.365 405.544 956.94 405.904 957.37C406.264 957.79 406.779 958 407.449 958ZM426.381 961H423.051L419.526 955.66V961H416.196V950.38H419.526L423.051 955.81V950.38H426.381V961ZM440.185 950.38L436.375 957.775V961H433.045V957.775L429.235 950.38H433.045L434.74 954.145L436.435 950.38H440.185ZM446.732 958.345H450.992V961H443.042V958.495L447.242 953.02H443.042V950.38H450.992V952.885L446.732 958.345Z" fill="black"/>
<path d="M599.012 273.952C599.012 268.416 600.18 264.064 602.516 260.896C604.884 257.728 608.516 256.144 613.412 256.144C618.276 256.144 621.892 257.744 624.26 260.944C626.628 264.112 627.812 268.448 627.812 273.952C627.812 279.488 626.628 283.856 624.26 287.056C621.892 290.224 618.276 291.808 613.412 291.808C608.516 291.808 604.884 290.224 602.516 287.056C600.18 283.856 599.012 279.488 599.012 273.952ZM617.3 273.952C617.3 271.392 617.044 269.472 616.532 268.192C616.02 266.88 614.98 266.224 613.412 266.224C611.812 266.224 610.756 266.88 610.244 268.192C609.732 269.472 609.476 271.392 609.476 273.952C609.476 276.544 609.732 278.496 610.244 279.808C610.756 281.088 611.812 281.728 613.412 281.728C614.98 281.728 616.02 281.088 616.532 279.808C617.044 278.496 617.3 276.544 617.3 273.952ZM643.129 272.704C641.849 271.968 640.841 271.008 640.105 269.824C639.401 268.608 639.049 267.168 639.049 265.504C639.049 263.776 639.513 262.208 640.441 260.8C641.369 259.392 642.777 258.272 644.665 257.44C646.585 256.576 648.937 256.144 651.721 256.144C654.505 256.144 656.841 256.576 658.729 257.44C660.649 258.272 662.073 259.392 663.001 260.8C663.929 262.208 664.393 263.776 664.393 265.504C664.393 267.168 664.025 268.608 663.289 269.824C662.585 271.008 661.593 271.968 660.313 272.704C663.545 274.592 665.161 277.424 665.161 281.2C665.161 283.632 664.553 285.696 663.337 287.392C662.121 289.088 660.489 290.368 658.441 291.232C656.393 292.096 654.153 292.528 651.721 292.528C649.289 292.528 647.049 292.096 645.001 291.232C642.953 290.368 641.321 289.088 640.105 287.392C638.889 285.696 638.281 283.632 638.281 281.2C638.281 277.424 639.897 274.592 643.129 272.704ZM653.929 267.28C653.929 266.384 653.721 265.68 653.305 265.168C652.889 264.624 652.361 264.352 651.721 264.352C651.081 264.352 650.553 264.624 650.137 265.168C649.721 265.68 649.513 266.384 649.513 267.28C649.513 268.208 649.721 268.912 650.137 269.392C650.553 269.872 651.081 270.112 651.721 270.112C652.361 270.112 652.889 269.872 653.305 269.392C653.721 268.912 653.929 268.208 653.929 267.28ZM651.721 277.264C650.761 277.264 649.993 277.584 649.417 278.224C648.873 278.832 648.601 279.616 648.601 280.576C648.601 281.536 648.873 282.32 649.417 282.928C649.961 283.536 650.729 283.84 651.721 283.84C652.713 283.84 653.481 283.536 654.025 282.928C654.569 282.32 654.841 281.536 654.841 280.576C654.841 279.616 654.553 278.832 653.977 278.224C653.433 277.584 652.681 277.264 651.721 277.264Z" fill="black"/>
</g>
</g>
</g>
<defs>
<filter id="filter0_d_1048_2" x="62.6" y="139.6" width="697.8" height="944.8" filterUnits="userSpaceOnUse" color-interpolation-filters="sRGB">
<feFlood flood-opacity="0" result="BackgroundImageFix"/>
<feColorMatrix in="SourceAlpha" type="matrix" values="0 0 0 0 0 0 0 0 0 0 0 0 0 0 0 0 0 0 127 0" result="hardAlpha"/>
<feOffset dx="13" dy="12"/>
<feGaussianBlur stdDeviation="25.7"/>
<feComposite in2="hardAlpha" operator="out"/>
<feColorMatrix type="matrix" values="0 0 0 0 0 0 0 0 0 0 0 0 0 0 0 0 0 0 0.25 0"/>
<feBlend mode="normal" in2="BackgroundImageFix" result="effect1_dropShadow_1048_2"/>
<feBlend mode="normal" in="SourceGraphic" in2="effect1_dropShadow_1048_2" result="shape"/>
</filter>
<filter id="filter1_f_1048_2" x="119" y="177" width="8.00004" height="846" filterUnits="userSpaceOnUse" color-interpolation-filters="sRGB">
<feFlood flood-opacity="0" result="BackgroundImageFix"/>
<feBlend mode="normal" in="SourceGraphic" in2="BackgroundImageFix" result="shape"/>
<feGaussianBlur stdDeviation="1" result="effect1_foregroundBlur_1048_2"/>
</filter>
<filter id="filter2_f_1048_2" x="123" y="177" width="8.00004" height="846" filterUnits="userSpaceOnUse" color-interpolation-filters="sRGB">
<feFlood flood-opacity="0" result="BackgroundImageFix"/>
<feBlend mode="normal" in="SourceGraphic" in2="BackgroundImageFix" result="shape"/>
<feGaussianBlur stdDeviation="1" result="effect1_foregroundBlur_1048_2"/>
</filter>
<clipPath id="clip0_1048_2">
<rect width="797" height="1200" fill="white"/>
</clipPath>
<clipPath id="clip1_1048_2">
<rect width="595" height="842" fill="white" transform="translate(101 179)"/>
</clipPath>
</defs>
</svg>
