<svg width="536" height="1083" viewBox="0 0 536 1083" fill="none" xmlns="http://www.w3.org/2000/svg">
<path d="M373.042 800.5C379.75 800.5 385.208 800.125 390.542 800.666C393.375 800.958 397.417 802 398.458 804C399.542 806.083 398.458 810.25 396.917 812.541C392.417 819.25 387.333 825.666 382.125 831.833C381 833.166 378.292 834.458 376.167 833.625C373.958 833.208 375.125 828.625 376.083 827C379.792 820.833 384.125 815 388.583 808.541C383.875 808.541 379.958 808.625 376 808.541C365.417 808.291 361.708 803.208 365.458 793.375C370.75 779.458 376.417 765.666 381.917 751.791C382.583 750.125 383.167 748.458 383.75 746.75C384.958 744.208 384.167 744.041 382.583 745.75C379.583 749.083 376.542 752.375 373.542 755.708C368.208 761.625 362.917 767.583 357.542 773.458C356.333 774.791 354.75 775.916 353.5 777.083C351.292 779.125 348.125 778.833 346.167 777.958C344.5 777.208 342.75 775.708 343 771.916C343.625 764 344.833 756.125 346.083 748.291C348.875 730.625 351.792 713 353.958 694.958C350.542 700.291 347.042 705.625 343.75 711C336.458 722.875 329.417 734.875 321.958 746.625C319.417 750.666 316.958 756.083 310.708 754.583C304.833 753.166 304.792 747.5 304.083 742.916C301.917 728.5 300.083 714.041 298.083 699.583C297.875 698.125 297.458 696.708 296.833 693.791C292.292 701.958 288 708.833 284.583 716.083C277.375 731.333 270.583 746.833 263.625 762.208C259 772.458 253.583 773.25 246.667 764.208C238 752.916 229.708 741.291 221.208 729.833C219.625 727.708 217.833 725.791 215.125 722.583C214.958 725.583 214.708 727.25 214.833 728.875C216.208 747.541 217.625 766.208 219.042 784.916C219.417 789.833 220.917 795.291 216.417 798.916C211.708 802.708 206.958 799.416 202.417 797.541C197.708 795.583 193.083 793.458 187.542 792.125C189.792 796 192.042 799.833 194.292 803.708C196.125 806.875 198.208 809.916 199.708 813.208C200.25 814.375 199.875 817.125 199.125 817.458C197.792 818.083 196.5 818.791 194.25 817.166C193.292 816.5 192.375 815.333 191.708 814.208C187 806.583 182.083 799.083 177.917 791.166C176.708 788.833 176.583 784.625 177.917 782.666C179.042 781.041 183.417 780.5 185.833 781.208C192 782.958 197.917 785.708 203.917 788.041C205.875 788.791 207.833 789.625 210.542 790.708C210.333 786.208 210.125 782.5 209.958 778.75C209 759.208 208.042 739.666 207.125 720.125C207.083 718.791 207.167 717.458 207.375 716.166C208.167 711.791 211.958 709.458 215.792 711.666C219.292 713.666 222.708 716.375 225.208 719.541C234.417 731.25 243.25 743.291 252.208 755.208C253.167 756.5 254.167 757.708 255.542 759.458C260.667 748.375 265.25 737.75 270.417 727.458C276.583 715.166 283.125 703.083 289.708 691C291.708 687.333 293.417 682.458 298.833 683.125C304.25 683.791 305.667 688.75 306.458 693.083C308.958 706.75 310.958 720.541 313.167 734.25C313.5 736.458 313.833 738.708 315.25 741.291C320.375 733.458 325.5 725.625 330.583 717.75C338.083 706.208 345.5 694.625 353.042 683.125C354.833 680.375 356.75 677.041 360.833 678.291C365 679.583 365.417 683.375 365 686.916C363.292 701.375 361.542 715.875 359.458 730.291C357.75 741.916 355.542 753.458 354.5 765.916C358.833 761.333 362.958 756.583 367.5 752.208C373.208 746.666 379.083 741.25 385.25 736.25C387.125 734.708 391.333 733.416 392.542 734.375C394.292 735.791 395.458 739.708 394.833 742C392.5 750.416 389.5 758.708 386.375 766.875C382.417 777.666 378 788.208 373.042 800.5Z" fill="black"/>
<path d="M333 246C308.625 244.833 287.25 237.375 269.25 221C266.5 218.5 264.25 218.333 260.875 219.458C248.625 223.5 236.25 227.208 223.875 230.875C221.208 231.666 218.333 231.875 215.542 232.041C211.917 232.25 210.542 230.166 211.917 227C213.708 222.916 215.958 219.041 218.167 215.166C224.625 204 231.25 192.875 237.667 181.666C238.292 180.625 238.583 178.833 238.167 177.791C227.958 153.375 229 128.875 238.542 104.708C255.625 61.6248 296.167 36.6664 342.417 40.3331C387.167 43.8748 424.292 78.1664 432.792 123.791C442.375 175.125 412.958 224.708 363.167 240.25C353.458 243.291 344.875 246 333 246ZM222.083 224.625C226.792 223.208 230.417 222.125 234.042 221C244.292 217.833 254.542 214.5 264.833 211.541C268.167 210.458 269.417 212.583 269.708 212.791C278.208 220.208 288.542 226.291 295.458 229.5C312.833 237.625 331.125 239.708 349.792 235.791C401.083 225.041 432.792 179.416 425.5 127.541C418.25 76.1664 365.042 38.9998 314.458 49.9998C259.833 61.9581 227.917 113.333 241.958 168.125C244.458 177.916 243.833 185.958 238.958 194.208C238.208 195.5 237.583 196.875 236.875 198.166C232.125 206.708 227.333 215.208 222.083 224.625Z" fill="black"/>
<path d="M187.25 882.584C196.042 884.542 204.042 886.375 212.167 888.167C209.75 883.209 199.708 881.25 200.667 877.292C202.958 873 207.25 875.25 209.583 876.709C213.708 879.334 217.875 882.292 221 885.959C231.917 898.792 237.667 914.417 243.25 930.042C246.875 940.292 249.542 950.709 248.917 961.625C246.792 999.542 229.792 1028.54 194.875 1044.5C155.167 1062.63 107.083 1041.67 91.2916 1000.92C89.6249 996.625 87.4166 992.542 85.1666 988.5C79.1666 977.834 75.4999 966.792 77.5416 954.334C79.1666 944.25 83.8333 935.959 91.0833 928.959C92.7083 927.375 94.4166 925.625 95.4583 923.625C104.708 906.167 119.083 894.834 137.583 888.584C147.75 885.125 157.958 881.709 168.292 878.75C172 877.709 176.167 877.917 180.125 877.917C183.458 878.084 186.375 879.25 187.25 882.584ZM194.208 941.875C186.042 976.542 162.917 992.959 130.75 999.167C132.75 1005.21 135.667 1008.54 141.25 1010.38C144.375 1011.42 147.708 1012.13 150.958 1012.29C185 1014.04 209.792 979.125 197.125 947.417C196.417 945.709 195.375 944.084 194.208 941.875ZM160 1040.67C189.792 1042.17 211.542 1028.5 226.667 1003.96C243.25 977 242.958 948.917 229.833 920.5C226.667 922.042 223.75 923.5 220.708 925C221.708 926.625 222.458 927.875 223.25 929.167C228.208 937.542 231.458 946.5 232.333 956.25C233.875 973.625 228.5 988.959 217.875 1002.54C205.75 1018.04 189.333 1027.96 172.208 1036.88C169.75 1038.17 166.917 1038.67 164.208 1039.54C162.792 1039.88 161.375 1040.25 160 1040.67ZM188.875 904.084C197.25 906.459 205.167 910.042 211.958 915.834C212.75 916.5 214.167 916.959 215.125 916.709C219.125 915.834 227.625 913.75 225.875 911.334C222.417 901.125 202.833 891.375 188.917 892.75C188.875 896.292 188.875 899.875 188.875 904.084ZM180.125 942.292C168 937.625 138.667 958 136.042 972.5C148.542 970.542 171.375 956.334 178.208 946.125C179 944.959 179.5 943.584 180.125 942.292ZM181.458 931.792C176.042 928.417 169.583 926.459 163.542 928.167C156.5 930.167 149.375 933.334 143.417 937.542C134.042 944.125 127.458 953.417 124.083 964.542C123.333 967.042 122.583 969.959 125.208 972.834C126.458 970.542 127.458 968.5 128.583 966.542C140.458 946.334 156.958 933.25 181.458 931.792ZM168.75 892.25C149.375 891.417 134.792 900.292 121.5 913.792C126.667 913.167 131.083 912.667 135.5 912.084C137.458 911.834 139.625 911.959 141.25 911.084C149.042 906.917 157.292 904.084 165.75 902.75C166.792 899.125 167.75 895.834 168.75 892.25ZM212.167 991.375C227.292 972.25 225.083 945.625 210.708 928.292C210.125 927.584 209.167 926.75 208.333 926.667C204.417 926.292 200.5 926.167 196.625 925.959C197.167 927.084 197.708 927.459 198.25 927.834C219.25 941.334 225 960.125 215.167 983.042C214 985.792 213.167 988.625 212.167 991.375ZM121.917 983.209C115.5 980.25 112.542 975.334 112.75 968.792C112.833 966 113.5 963.209 114.292 960.542C116.542 952.75 121.042 946.209 126 939.917C126.625 939.125 126.875 938.084 127.292 937.167C117.333 941.959 105.25 967.084 109.292 984.709C112.75 986.084 116.667 987.625 120.625 989.167C121.125 988 121.417 987.584 121.458 987.125C121.667 985.917 121.75 984.792 121.917 983.209ZM129.708 988.917C146.458 986.417 160.083 979.5 171.042 967.459C164.667 970.75 158.625 974.834 152.125 977.792C145.417 980.834 138.208 982.792 130.5 985.5C130.458 985.709 130.167 986.917 129.708 988.917ZM144.833 1022.71C158.792 1024.92 172.25 1023 184.833 1016.67C188.333 1014.92 191.208 1011.88 194.375 1009.42C194.125 1008.92 193.833 1008.46 193.583 1007.96C178.875 1018.04 162.25 1021.46 144.833 1022.71ZM127.458 1012.33C125.292 1007.83 123.208 1003.54 121 998.917C118.25 998.334 115.125 997.667 111.75 996.959C114.417 1006.46 117 1009 127.458 1012.33ZM106.292 934.709C113.5 930.375 120.792 925.959 128.5 921.292C117.208 920.25 109.917 924.834 106.292 934.709ZM85.2916 970.25C85.8749 962.542 86.4166 955.542 87.0416 947.584C83.8749 955.292 83.0416 962.25 85.2916 970.25ZM181.333 896.125C175.833 896.5 175.667 896.709 175 902.125C176.542 902.292 178.083 902.459 180.25 902.709C180.625 900.417 180.958 898.542 181.333 896.125Z" fill="black"/>
<path d="M432.542 348.29C433.042 346.29 433.333 344.665 433.875 343.082C439.292 327.082 448 312.832 457.917 299.29C459.083 297.707 460.542 296.207 462.167 295.207C463.042 294.665 464.792 294.749 465.792 295.29C466.542 295.707 467.083 297.332 466.917 298.249C466.625 299.999 466 301.79 465.125 303.374C459.375 313.832 453.583 324.249 447.708 334.624C445.5 338.499 443.167 342.332 440.875 346.165C440.125 347.457 439.292 348.707 438.417 349.874C437.458 351.207 436 351.999 434.542 351.124C433.583 350.54 432.542 350.124 432.542 348.29Z" fill="black"/>
<path d="M491.542 410.333C489.542 410 487.208 409.75 484.958 409.25C476.083 407.25 467.208 405.25 458.375 403.167C456.458 402.708 454.583 401.917 452.875 401C450.583 399.792 449.792 398.083 450.167 396.208C450.542 394.333 452.042 393.167 454.667 393.125C456.458 393.083 458.375 393.125 460.083 393.542C471.292 396.375 482.5 399.292 493.667 402.25C494.917 402.583 496.208 403.167 497.167 404C499.583 406.042 498.833 409.25 495.75 410.042C494.542 410.333 493.167 410.208 491.542 410.333Z" fill="black"/>
<path d="M374.458 298.624C374.625 296.666 375.042 294.708 375.542 292.791C376 291.083 377.167 289.874 379.042 289.708C380.625 289.583 382.333 291.166 382.583 293.249C382.917 296.041 383.208 298.874 383.083 301.666C382.708 310.083 382.167 318.541 381.583 326.958C381.375 329.749 381 332.541 380.542 335.333C380.375 336.291 380.042 337.291 379.5 338.041C378.042 340.166 375.375 339.999 374.333 337.708C373.75 336.416 373.5 334.833 373.5 333.416C373.292 328.749 373.917 305.541 374.458 298.624Z" fill="black"/>
<path d="M361.167 496.083C347.375 505.166 340.708 504.291 333.042 492.458C314.583 508.166 301.208 508.958 288.917 494.749C284.417 499.916 278.542 506.333 270.917 504.833C263.583 503.416 259.167 496.749 259.292 496.208C257.667 500.083 250.167 508.083 242.208 506.916C233.958 505.708 228.875 500.541 226.167 493.041C222.708 483.333 224.083 473.374 225.375 463.499C226.667 453.666 228.208 443.791 230.25 434.083C231.333 428.999 233.375 424.041 235.5 419.208C237.208 415.166 240.375 412.583 245.25 412.999C250.125 413.416 252.833 416.666 253.75 420.833C255.083 426.833 255.542 433.083 256.208 438.083C259.125 436.208 262.75 431.208 267.5 430.958C272.333 430.708 275.042 431.833 279.125 439.416C280.583 436.999 281.792 434.791 283.208 432.708C284.792 430.416 286.417 428.041 288.375 426.083C294.417 420.166 299.75 421.458 303.083 429.541C318.583 418.541 328 419.416 339.958 433.041C341.958 430.041 343.708 426.874 346 424.083C349.833 419.416 354.25 415.833 360.958 418.083C366.583 419.958 370.292 425.249 370.375 432.458C370.417 437.208 369.708 441.958 369.333 446.958C373.5 444.791 377.583 443.083 381.083 447.958C384.75 441.999 388.042 436.333 391.708 430.874C393.458 428.291 395.667 425.916 398.042 423.958C403.542 419.458 409.917 421.458 411.125 428.458C412 433.749 411.958 439.374 411.167 444.708C408.833 459.999 404.958 474.874 396.958 488.333C392.958 495.041 387.167 499.999 379.958 503.166C369.708 507.624 365.417 505.999 361.167 496.083ZM298.167 439.999C298.167 438.249 299.458 429.833 296.042 428.999C293.833 428.124 291.75 432.166 290.583 434.249C286.417 441.958 283.083 450.124 278.667 457.666C277.292 459.999 275.583 460.999 273.875 460.833C272.167 460.999 272.667 457.374 272.708 455.666C272.875 451.208 273.75 446.791 273.583 442.374C273.542 440.583 273.417 438.041 270.333 437.333C269.125 437.041 267.125 437.208 265.292 439.208C263.292 441.374 261.375 443.708 259.917 446.291C257.292 450.874 255.292 455.833 252.5 460.333C251.5 461.958 250.208 463.874 248.208 464.333C246.5 464.208 245.292 463.083 246.125 457.541C246.583 454.333 247.083 451.166 247.417 447.916C248.208 440.291 248.917 432.583 248.833 424.916C248.833 422.833 248.542 418.499 244.292 418.708C240.042 418.916 239.458 422.833 239 425.958C238.958 426.249 238.958 426.624 238.917 426.958C237.75 435.499 236.625 444.041 235.417 452.583C233.875 463.416 231.708 474.166 230.958 485.041C230.333 493.958 234.917 499.708 241.458 500.874C247.792 501.999 251.792 498.666 255.208 489.374C256.792 485.041 258.083 480.541 259.917 476.291C260.458 474.999 261.625 472.708 263.625 473.291C265.583 474.166 265.292 476.416 265.25 477.916C265.083 481.708 263.708 485.499 264.125 489.166C264.417 491.708 266.333 494.708 268.458 496.291C271.208 498.333 275 498.291 277.625 495.583C280.333 492.749 283.083 489.666 284.75 486.166C291.708 471.208 296.5 455.583 298.167 439.999ZM375.5 449.791C374.083 448.999 371.333 452.833 370.375 454.333C368 457.916 366.125 461.791 363.75 465.374C363 466.499 361.625 468.124 360 467.749C358.417 466.999 358.417 466.208 358.5 463.874C358.542 462.624 358.75 461.249 359.042 459.958C360.292 454.291 361.875 448.708 362.792 442.999C363.458 438.791 363.917 434.333 363.292 430.166C362.917 427.666 360.708 424.166 358.583 423.499C356.542 422.874 352.917 424.666 351.083 426.499C348.125 429.541 345.958 433.374 343.667 437.041C343 438.166 342.667 439.916 343 441.166C346.667 455.499 344.208 469.208 338.625 482.416C336.75 486.833 339.042 489.374 341.208 492.083C343.5 494.999 347 495.916 350.167 494.083C353.5 492.124 356.458 489.374 359.292 486.666C360.792 485.208 361.542 482.958 363 481.416C363.75 480.583 365.417 479.874 366.333 480.166C367.042 480.374 367.708 482.208 367.667 483.333C367.625 485.124 366.917 486.916 366.708 488.666C366.167 493.416 366.083 496.499 368.417 498.583C369.583 499.874 375.042 497.958 377.792 496.583C386.792 492.041 392.917 484.541 395.75 474.999C399.583 462.208 402.875 449.208 405.792 436.166C406.417 433.374 407.958 427.791 403.833 426.916C401.542 425.624 398.042 429.833 396.708 432.208C391.625 441.041 387.25 450.333 382.417 459.333C381.458 461.124 379.792 464.791 377.792 464.791C375.792 464.583 374.958 463.874 375.625 457.791C375.833 455.666 377.417 450.083 375.5 449.791ZM337.875 452.166C337.333 448.999 336.958 444.541 335.75 440.291C331.667 426.041 316.792 422.416 306.417 433.124C305 434.624 303.917 437.083 303.833 439.166C303.417 454.083 299.625 468.249 294.792 482.166C292.333 489.291 294.5 494.124 301.833 496.583C310.958 499.624 320.583 496.124 327.5 487.208C335.167 477.249 338.917 461.499 337.875 452.166Z" fill="black"/>
<path d="M443.875 416.958C443.042 420.667 440.833 430.792 439.042 437.667C436.542 447.083 433.917 456.458 431.083 465.792C430 469.417 428.417 472.917 426.75 476.292C425.167 479.458 422.25 480.75 418.833 479.917C415.167 479.042 412.667 476.708 412.25 472.792C412.042 471 411.958 469.083 412.375 467.333C416.667 451.042 421.292 435.833 425.792 419.542C426.333 417.5 427.208 414.542 428.208 412.625C430.208 408.708 432.875 406.458 437.708 408.167C441.917 409.667 444.708 413.25 443.875 416.958ZM419.417 474.75C419.875 474.917 420.333 475.125 420.875 474.792C421.958 474.333 422.125 473.208 422.375 472.292C427.583 453.875 432.792 435.5 437.792 417.042C438.167 415.708 438.708 412.958 436.542 412.458C433.75 411.625 432.667 417.083 432 419.542C427.458 436.292 423.042 453.125 418.75 469.917C418.375 471.417 418 473.917 419.417 474.75Z" fill="black"/>
<path d="M425.417 496.209C425.208 503.625 419.75 508.584 413.833 508.417C408.5 508.25 404.167 503.084 404.292 497.084C404.458 490.334 408.375 486 414.917 486.209C420.625 486.375 425.583 490.25 425.417 496.209ZM410 496.334C410 501.167 413.458 501.459 414.25 501.459C416.667 501.167 418.583 500 418 495.25C417.833 493.959 417.042 492.375 415.167 492.084C411.542 491.5 409.958 494.084 410 496.334Z" fill="black"/>
<path d="M321.333 451.125C320.792 453.542 317.125 470.458 314.583 480.375C314.25 481.75 312.958 484.417 310.458 483.792C308.083 483.375 307.875 480.417 308.125 479C310.042 469.125 312.25 459.25 314.75 449.5C315.125 448 316.75 445.625 318.958 445.75C322.042 446.292 321.875 448.708 321.333 451.125Z" fill="black"/>
<path d="M156 123.917C151.417 123.917 147 123.917 142.875 124C137.667 124.042 136.125 126.959 135.75 131.875C135.083 141.417 133.792 150.958 132.625 160.458C132.375 162.542 131.708 164.667 130.875 166.625C129.583 169.792 127.125 171.167 123.667 170.334C121.75 169.875 119.792 169.417 117.917 168.834C112.875 167.25 111.333 164.834 112 159.542C114 143.084 116.167 126.667 117.958 110.209C119.125 99.5002 119.75 88.7502 120.625 78.0002C121.208 71.2502 123.167 69.2085 129.25 68.9585C138.542 68.5835 143.083 70.9168 143.583 77.5002C144.083 84.3752 143.958 91.4168 143.125 98.2502C142.667 101.917 143.917 103.042 146.75 103.834C147.875 104.167 149 104.375 150.125 104.625C155.458 105.709 156.167 105.125 156.625 99.8335C157.208 92.5835 158.083 85.3335 158.542 78.0418C159 71.0418 160.167 69.1668 165.333 68.3335C170.792 67.4585 176.542 70.4585 178.25 75.3752C179.042 77.6668 179.542 80.2085 179.542 82.6668C179.625 107.209 179.667 131.709 179.5 156.25C179.458 163.709 167.833 172.625 161.042 170.125C158.833 169.292 156.792 165.042 156.625 162.25C156.083 152.167 156.417 142.042 156.333 131.917C156.333 129.334 156.25 126.667 156 123.917ZM163.125 162.334C163.125 162.917 163.667 163.334 164.25 163.25C173.625 161.459 174.667 159.333 174.292 150.042C173.542 131.417 173.333 112.792 173.042 94.1668C173 90.2085 173.5 81.2502 173.458 77.2918C173.458 74.0002 171.542 72.9585 168.375 72.9168C165.25 72.9168 163.875 74.0002 163.75 77.2085C163.5 83.5002 162.875 89.7918 162.625 96.0835C161.958 111.084 157.375 113.917 143.208 108.209C138.375 106.292 136.792 103.042 137.042 98.1668C137.333 92.5418 137.583 86.8752 137.375 81.2502C137.167 74.8335 135.333 73.0002 128.667 74.8752C128.167 75.0002 127.625 75.2918 127.375 75.7502C125.542 78.8335 122.417 132.542 119.583 157.542C119.25 160.625 119.083 162.25 119.875 163.167C120.667 164.084 126.083 166.292 126.5 163.334C128.083 152.167 129.458 141 130.708 129.834C131.542 122.542 133.042 120.417 140.167 119.417C144.75 118.792 149.417 118.917 154.042 118.875C159.792 118.834 161.875 120.459 162.458 126.25C163 131.667 163.042 137.167 163.125 142.625C163.208 149.209 163.125 155.75 163.125 162.334Z" fill="black"/>
<path d="M19.7917 127.084C19.875 108.001 26.4167 90.959 41.9167 78.5423C52.625 69.959 59.2084 69.7923 68.5834 71.5423C101.333 77.7923 111.5 106.042 104.167 133.542C102.458 140.001 99.625 146.459 95.9167 152.001C83.7917 170.209 64.0834 175.126 42.8334 166.084C26.375 159.126 19.2084 147.417 19.7917 127.084ZM26.1667 128.709C26.1667 133.834 27.25 142.084 29.875 146.834C40.75 166.834 72.6667 168.417 87.6667 149.667C91.2917 145.126 94.125 139.542 96 134.001C103.333 112.209 95.9584 86.1673 70.1667 79.584C55.875 75.9173 47.7084 78.7923 39.625 91.5007C31.5417 104.209 27.0834 110.667 26.1667 128.709Z" fill="black"/>
<path d="M193.333 133.084C195.375 117.084 197.583 99.3758 199.917 81.6675C200.5 77.2508 201.375 72.8758 202.333 68.5425C202.583 67.3758 203.208 65.8341 204.083 65.3758C210.292 62.1258 220.75 68.3341 220.208 75.2508C219.042 89.4175 217.417 103.501 215.75 117.626C214.833 125.126 213.917 132.751 212.042 140.042C210.25 147.001 204.125 149.042 197.542 145.959C192.458 143.542 193.25 139.084 193.333 133.084ZM207 70.7091C206.583 71.3341 206.458 76.0425 206.375 76.9591C205.333 89.3341 204.708 98.1675 203.5 110.542C202.625 119.417 201.208 128.251 200.292 137.126C200.167 138.459 200.417 141.334 202.417 141.334C204.917 141.709 205.833 140.584 206.083 138.376C206.125 137.834 206.417 137.126 206.5 136.459C209.125 117.834 211.958 99.2508 214.292 80.5841C214.833 76.2925 215 74.1675 214.042 72.8341C213.5 72.1258 212.667 71.6675 211.333 71.2508C210.292 71.0008 207.417 70.0841 207 70.7091Z" fill="black"/>
<path d="M211.292 161.042C211.458 168.001 205.625 175.209 199.5 175.542C194.375 175.834 189.625 170.626 189.542 164.626C189.458 158.042 194.833 151.417 200.375 151.292C206.583 151.167 211.167 155.209 211.292 161.042ZM207.125 162.292C206.75 154.917 201.5 156.001 199.917 156.667C197.167 157.876 195.333 160.751 196.042 164.917C196.5 167.709 197.667 169.042 200.208 169.501C204.833 170.042 207.125 165.792 207.125 162.292Z" fill="black"/>
<path d="M31.9584 125.375C32.6667 115.334 37.125 104.5 46.9584 96.1669C54.8334 89.4586 63.5417 89.1252 72.5 93.2502C82.2084 97.7086 88.25 105.334 87.4167 116.292C86.8334 123.792 85.0834 131.417 82.4584 138.459C77.6667 151.167 66.375 156.709 53.2917 154.042C39.9167 151.25 32.0417 141.625 31.9584 125.375ZM81.0417 118.167C81.0834 102.709 69.5834 96.2502 57.5834 98.0002C56.375 98.1669 53.5417 99.9169 52.625 100.75C40.4584 109.75 39.875 117.917 39.9584 130.25C40 138.917 45.8334 145.584 54.4584 147.417C63.125 149.292 72.5 146.042 75.7917 138.125C78.4584 131.834 81.6667 125.375 81.0417 118.167Z" fill="black"/>
<path d="M287.167 927.792C285.458 926.958 284.667 923.833 286.042 922.083C287.167 920.458 290.042 920.25 292.333 919.875C295.958 919.333 296.625 919.333 300.542 918.833C306.25 918.125 306.208 919.958 306.208 921.25C306.208 923.25 305.167 924.167 303.667 924.875C299.708 926.75 299.333 926.166 299.125 927.833C298.958 929.25 296.917 943.375 295.333 948.5C292.125 958.833 284.125 964.708 275.792 963.625C265.75 962.333 258 954.458 257.583 943.708C256.75 923.625 262.042 906.792 276.125 892.291C281 887.291 286.042 885.625 290.292 885.166C293.792 884.791 294.583 887.541 294.375 889.458C294.083 892.041 291.75 892.166 289.75 892.916C285.542 894.5 283.042 896.125 280.958 898.791C271.542 910.958 267.208 925.083 266.625 940.333C266.542 942.916 267.167 945.667 268.125 948.042C269.792 952.125 272.917 954.792 277.583 955C282.292 955.25 285.25 952.375 286.542 948.458C288.667 941.958 290.042 935.25 291.708 928.583C291.75 928.5 291.625 928.375 291.542 928.375C288.125 928.5 287.917 928.167 287.167 927.792Z" fill="black"/>
<path d="M336.833 930.415C337.041 925.832 336.291 921.207 336.583 916.582C336.791 913.374 338.541 911.415 341.875 911.04C346.75 910.457 350.041 907.665 352.166 903.415C354.625 898.54 354.208 893.124 351.125 889.999C348.208 886.999 341.125 885.54 337.25 887.999C335.041 889.415 332.958 892.249 332.333 894.832C328 912.332 324.083 929.957 319.916 947.54C319.166 950.707 318.958 955.54 314.125 954.54C309.416 953.582 311.291 949.082 311.916 946.124C315.875 927.832 320 909.582 324.333 891.374C324.875 889.124 325.458 885.624 327.125 883.457C328.458 881.749 330.666 883.332 331.958 882.582C335.458 880.582 339.666 879.457 343.416 879.79C352 880.499 358.041 886.249 358.708 894.665C359.458 904.415 356.583 912.249 347 916.665C345.875 917.207 344.791 916.374 344.875 920.874C345 927.499 344.75 934.124 344.667 940.79C344.667 942.415 344.458 944.165 344.083 945.665C343.458 948.082 341.917 948.207 340.583 948.415C339.75 948.54 338 948.374 337.708 945.79C337.125 940.707 337.375 935.624 336.833 930.415Z" fill="black"/>
<path d="M419.167 908.625C416 908.625 412.333 908.667 409.25 908.667C407.125 914.583 405 920.625 402.792 926.667C402.292 928.042 401.75 928.833 401.167 930.125C400.458 931.667 399.417 933.5 397.083 933.125C394.833 932.583 395.167 930.125 395.5 929C397.042 923.625 398.75 918.25 400.958 913.125C405.917 901.417 411.042 889.792 416.458 878.292C417.417 876.25 419.125 873.833 421.833 873.792C424.625 873.75 426.25 876.958 426.667 879C428.208 886.417 427.708 893.417 427.5 900.125C427.25 907.708 426.833 914.333 425.542 921.792C425.25 923.5 424.917 926.583 421.458 926.375C419.042 926.167 419 923.208 418.875 920.75C418.542 915.625 419.167 913.125 419.167 908.625ZM419.833 884.917C419.833 883.042 420.083 882 419.125 884.042C416.583 889.958 413.625 896.708 410.917 903.042C413.75 903.333 416.042 903.125 419.458 903.042C419.75 896.5 419.5 890.958 419.833 884.917Z" fill="black"/>
<path d="M370.75 928.916C370.708 929.124 370.875 929.291 371.041 929.333C375.208 929.666 378.875 929.916 382.5 930.291C385.833 930.666 386.166 931.291 386.458 932.416C386.416 934.708 384.125 934.958 382.916 934.999C378.5 935.124 374 934.916 369.583 934.458C365.166 933.999 362.75 930.999 363.583 926.916C366.791 911.541 370.25 896.249 374.166 881.041C374.708 878.916 378.416 876.416 380.875 876.166C384.833 875.749 389.041 876.874 393.041 877.708C393.958 877.916 396.083 878.249 395.416 880.416C394.958 882.416 393.541 882.374 392.5 882.374C386.958 882.333 381.791 881.166 381.208 882.791C379.875 886.416 379.75 889.916 378.916 893.791C378.458 895.874 377.708 899.499 377.041 902.374C380.25 902.374 383.125 902.249 386 902.458C388.083 902.624 389.5 902.249 389.541 904.249C389.5 906.249 387.708 906.624 386.541 906.916C383.041 907.749 379.416 908.124 375.458 908.749L370.75 928.916Z" fill="black"/>
<path d="M446.458 874.207C444.375 874.207 444.375 874.207 440.833 874.124C439.541 874.082 437.458 874.499 437.458 871.749C437.458 868.874 439.291 868.874 440.291 868.832C446.041 868.541 451.791 868.582 457.541 868.791C458.541 868.832 460.416 868.624 460.416 870.957C460.416 872.666 460.041 872.957 457.166 873.249C456.125 873.374 454.958 873.457 454.375 873.499C451.708 888.707 449.166 903.541 446.416 918.291C445.833 921.374 445.5 925.957 441.083 925.332C436.166 924.666 438 919.916 438.458 917.124C440.583 904.082 443.208 891.082 445.666 878.082C445.833 876.999 446.083 875.916 446.458 874.207Z" fill="black"/>
<path d="M474.083 873.249C471.708 884.874 469.667 895.458 467.042 906.999C466.667 908.583 465.667 911.083 463 911.041C460.667 911.124 461.042 907.458 461.292 905.874C463.25 893.499 465.458 881.166 467.792 868.833C468.125 867.166 469.042 864.249 470.75 864.291C475.417 863.749 474.708 869.583 474.083 873.249Z" fill="black"/>
<path d="M462.667 923.874C464.542 924.249 465.5 926.624 465.625 928.499C465.833 931.749 463.75 933.832 460.167 933.999C458.208 934.082 456.083 933.082 455.625 929.541C455.292 926.457 457.583 922.582 462.667 923.874Z" fill="black"/>
<path d="M174.167 367.291C168.917 370.416 164.75 372.749 160.708 375.249C145.958 384.541 131.208 393.749 116.667 403.291C113.583 405.291 110.917 408.333 108.917 411.416C102.583 421.333 96.7502 431.583 90.5002 441.541C89.4585 443.166 88.1668 445.249 85.4585 445.249C83.7918 445.249 83.0418 442.124 84.3335 438.958C84.8752 437.666 85.3335 436.166 85.8752 434.791C86.9168 432.166 93.2502 424.083 89.6668 423.749C87.4168 423.541 86.7085 419.666 88.3335 416.374C89.5418 413.916 93.4585 411.374 95.6668 409.749C103.667 403.708 108.75 395.374 114.333 387.333C127 369.249 139.958 351.416 152.792 333.458C154.417 331.208 156.042 328.958 157.5 326.958C150.875 324.833 144.25 323.624 138.625 320.541C134.792 318.458 130.958 314.749 129.542 310.041C128.167 305.333 129.458 301.249 132.958 297.958C136.25 294.874 140 294.749 144.375 295.833C148.917 296.958 153.375 301.541 156.584 305.666C160.167 310.291 161.75 312.916 164.584 317.083C169.292 310.874 173.792 304.791 178.417 298.791C183.584 292.083 188.792 285.416 194.167 278.916C196.25 276.374 199.167 273.124 202.417 275.583C204.25 276.958 205.083 281.166 204.625 283.833C202.958 293.624 200.542 303.249 198.417 312.958C198.084 314.541 197.792 316.124 197.292 318.624C204.625 318.624 211.375 318.499 218.125 318.666C222.584 318.791 227.084 319.124 231.5 319.666C235.417 320.166 239.25 321.458 240.125 325.874C241 330.333 237.917 333.083 234.5 334.958C224.625 340.374 214.625 345.541 204.625 350.749C188.208 359.249 188.208 359.208 185.792 378.083C185 384.333 184.25 390.583 183.375 396.833C183 399.499 182.458 402.541 178.875 402.208C175.333 401.874 175.375 398.874 175.25 396.124C175 386.916 174.583 377.666 174.167 367.291ZM126.5 384.916C127.542 384.999 155.917 367.791 169.75 359.041C170.625 358.499 171.667 356.874 171.459 355.999C169.542 348.083 167.334 340.208 164.875 331.083C151.542 349.833 139.125 367.208 126.5 384.916ZM226.334 327.583C216.542 327.583 206.709 327.541 196.917 327.666C196.167 327.666 195.417 327.374 194.792 329.749C193.417 335.166 192.5 340.666 191.209 346.999C203.584 340.749 226.417 328.083 226.334 327.583ZM169.625 327.374C172.458 336.458 179 354.124 179.5 354.208C180.792 351.624 182.167 347.999 183.375 343.958C184.917 338.833 186.292 332.916 187.167 327.416C180.667 327.374 175.292 327.374 169.625 327.374ZM174.084 318.083C179.292 318.083 183.042 318.208 186.792 317.999C187.667 317.958 189.083 317.083 189.292 316.333C192 306.333 194.5 296.291 197.042 286.249C196.917 286.208 196.959 286.208 196.834 286.166L174.084 318.083ZM158.042 317.166C154.792 313.541 152.667 309.499 147.042 304.499C144.458 302.166 141.25 300.041 138 303.708C135.875 306.124 137.417 310.291 141.875 312.333C146.292 314.374 157.667 317.708 158.042 317.166Z" fill="black"/>
<path d="M152.292 587.876C153.958 585.334 155.333 583.126 156.792 580.959C165.375 568.334 179.542 562.084 192.792 565.167C205.667 568.126 215.333 579.459 218.042 594.209C221.833 614.959 216.542 634.001 207.417 652.292C194.708 677.751 179.708 701.751 162.042 724.042C159.375 727.376 155.875 731.584 151.708 732.042C149.917 732.251 146.125 731.292 144.667 729.584C138.417 722.292 132.542 714.667 126.875 706.917C110.542 684.542 96.9167 660.792 89.2501 633.959C85.2084 619.792 82.9167 605.417 86.5417 590.792C87.7084 586.167 89.4584 581.584 91.6251 577.376C97.5417 565.876 107.25 559.876 120.125 559.917C132.417 559.959 140.792 567.042 147.042 576.917C149.083 580.084 150.333 583.751 152.292 587.876ZM151.667 723.501C154.583 719.084 157.208 715.084 159.833 711.084C174.292 689.084 189.25 667.376 200.375 643.334C206.667 629.751 210.5 615.751 208.917 600.542C207.542 587.334 200.917 577.417 191.083 574.834C180.417 572.001 170.167 576.626 162.458 588.001C159.792 591.959 157.792 596.376 155.25 600.459C154.208 602.126 153.375 604.584 151.167 604.792C148.833 605.126 145.875 596.126 145.125 594.126C143.542 589.959 142.417 585.501 140.042 581.792C135.125 574.084 128.583 568.209 118.583 569.042C108.667 569.876 102.333 575.709 98.5834 584.667C94.7501 593.751 93.7917 603.209 95.0001 612.917C97.2501 630.917 103.833 647.542 111.875 663.584C122.667 685.042 136.792 704.251 151.667 723.501Z" fill="black"/>
</svg>
