<svg width="560" height="1250" viewBox="0 0 560 1250" fill="none" xmlns="http://www.w3.org/2000/svg">
<path d="M181.625 88.2091C183.125 79.4174 184.5 70.6258 186.125 61.8758C186.833 58.1674 187.875 54.4591 188.958 50.8341C190.417 45.9174 194.083 44.2924 198.875 44.6257C202.667 44.8757 206.458 45.2507 210.208 45.6257C216.583 46.2924 218.375 48.5841 216.833 54.8341C215.333 61.0841 213.75 67.3758 211.625 73.4174C204.917 92.2508 198.042 111.042 191.042 129.792C183.417 150.251 175.625 170.667 168 191.126C166.542 195.084 165.667 195.751 160.083 195.292C156.5 195.001 152.875 194.251 149.292 193.626C141.375 192.292 139.542 189.667 141.75 182.042C145.75 168.001 149.917 154.001 154 140.001C155.542 134.667 157.833 128.126 159.333 122.751C159.917 120.626 158.917 119.209 158.333 117.001C153.833 99.8758 148.833 82.9174 144.625 65.7091C142.75 58.0424 145.083 55.0424 152.458 52.4174C154.792 51.5841 157.167 50.8341 159.5 50.0008C166.25 47.6674 168.833 48.5424 171.125 55.4591C174.167 64.7091 176.583 74.2091 179.25 83.5841C179.708 85.1674 180.083 86.7508 180.542 88.3341C181.083 90.0008 181.333 91.1258 181.625 88.2091ZM161.625 188.626C178.583 142.417 198.333 97.7091 212.75 50.2924C212.833 50.0424 212.625 49.7507 212.375 49.7507L196.333 48.7091C195.958 48.6674 195.667 48.9591 195.583 49.3341C195.042 52.4174 194.708 54.8758 194.125 57.2924C191.167 70.1674 188.583 83.1674 185.042 95.8758C183.833 100.167 182.25 101.584 180.25 101.376C177.875 101.292 176.042 98.1258 175.208 96.0008C173.125 90.6258 171.75 85.0008 170.167 79.4174C168 71.6258 165.917 63.7924 163.667 55.5007C163.542 55.0007 163 54.7091 162.542 54.8758L150.708 58.8758C150.25 59.0424 150 59.5008 150.125 59.9591C154.667 76.4591 159.417 92.3758 163.292 108.501C164.708 114.417 165.292 121.084 164.042 126.959C161.333 139.876 157.25 152.542 153.625 165.251C151.708 172.042 149.667 178.792 147.583 185.959C147.5 186.209 147.667 186.459 147.917 186.501L161.083 188.876C161.333 188.917 161.542 188.792 161.625 188.626Z" fill="black"/>
<path d="M307.083 66.5842C307.083 67.0008 307.083 68.6258 307.083 70.2925C307.125 74.7925 306.417 75.4175 300.5 76.2092C296.542 76.7092 292.875 78.0008 290.708 81.8342C289.292 84.2925 289.583 85.9592 292.583 86.5008C296.5 87.2092 300.417 87.6675 304.333 88.3758C320.167 91.3342 329.5 103.418 326.625 117.543C324.625 127.251 317.292 132.959 309.542 137.918C298.042 145.251 285.417 146.668 272.292 143.834C267.75 142.876 263.333 141.459 258.833 140.334C253.833 139.126 252.458 135.668 252.75 131.084C252.75 130.918 252.792 130.751 252.833 130.584C253.875 118.834 254.875 118.209 266.542 119.168C274.875 119.834 283.333 120.584 291.667 119.918C295.708 119.584 299.958 116.751 303.25 114.001C306.833 111.043 305.792 107.626 301.292 106.334C297.833 105.334 294.167 104.918 290.542 104.584C273.625 103.043 266.375 93.3342 270.083 76.9175C272.833 64.7092 283.125 55.6675 295.583 54.5842C304.625 53.7508 306.542 55.5425 307.083 66.5842ZM258.417 132.126C258.292 132.668 258.625 133.168 259.167 133.293C266.375 135.543 268.75 136.501 276.083 137.918C294.708 140.709 304.708 135.626 315.208 125.334C321.833 118.834 322.833 109.126 316.542 102.501C312.917 98.7092 309.292 96.4592 302.208 94.5008C298.292 93.4175 293.958 93.4175 289.917 92.4592C283.875 91.0425 281.208 84.8758 284.083 79.3758C286.292 75.1258 289.833 72.3342 294.667 71.4175C298.083 70.7508 300.25 70.6258 301.792 69.8342C303.167 69.1258 302.042 66.0008 301.083 62.5842C300.958 62.0842 300.458 61.7092 299.917 61.6675C287.667 61.2925 279 68.1675 276.583 80.2925C274.375 91.2092 279.5 96.9592 290.458 98.2925C294.917 98.8342 298.75 99.6258 302.458 100.376C310.042 101.709 314.542 110.209 308.417 117.834C303.917 123.376 297.875 126.834 290.917 127.209C281.125 127.751 271.667 126.418 261.208 126.293C260.583 126.293 260 126.709 259.833 127.293C259.458 128.501 258.875 130.376 258.417 132.126Z" fill="black"/>
<path d="M216.375 140.459C216.333 140.584 216.292 140.792 216.375 140.917C217.292 141.917 223.917 144.292 227.292 145.792C230 147.001 231.917 149.001 231 151.959C229.667 156.167 227.917 160.292 225.958 164.292C225.542 165.167 223.25 165.917 222.167 165.584C214.333 163.251 206.5 160.917 198.917 157.959C193.833 155.959 191.333 150.167 193.167 145.001C201.375 122.042 209.833 99.209 218.125 76.2923C220.25 70.459 224.5 68.1673 230.333 68.5006C239.75 69.0423 249.167 69.7506 258.583 70.334C261.708 70.5423 263.25 72.4173 262.792 75.2506C260.5 89.5006 259.417 94.334 244.917 94.3756C244.25 94.3756 243.583 94.4173 242.917 94.459C238.083 94.584 235.958 94.834 233.625 95.6673C232.708 96.0006 230.667 99.834 229.125 106.334C232.875 107.001 236.583 107.876 240.333 108.334C243.958 108.792 246.5 112.126 246.083 115.751C244.458 130.626 239.5 132.626 227.667 132.167C224.167 132.042 222.167 131.959 220.75 132.542C218.875 133.417 218.125 135.501 216.375 140.459ZM224.958 152.376C225.125 152.042 224.958 151.626 224.583 151.459C220.583 149.751 217.167 148.376 212.833 146.334C210.958 145.417 207.583 144.709 208.625 141.542C210.375 136.292 212.167 130.792 215.417 126.459C216.792 124.626 220.917 125.876 224.083 126.251C231.75 127.209 234 126.542 235.708 125.542C238.833 123.751 238.792 118.792 239.167 114.709C239.208 114.334 238.958 113.959 238.583 113.917C234.625 113.376 230.583 112.959 226.667 112.209C221.458 111.209 220 108.709 221.5 103.584C222.542 99.9173 223.958 96.3756 225.333 92.834C226.667 89.334 229.208 88.2923 233.083 88.0006C239.75 87.5006 243.708 88.0006 248.917 87.1256C251 86.7923 252.625 86.3756 254.417 82.584C255.292 80.709 255.708 78.459 256.292 75.9173C256.375 75.5423 256.125 75.1673 255.75 75.1673L226.708 73.459C226.125 73.4173 225.625 73.7923 225.417 74.334C216.625 99.959 208 125.209 199.25 150.709C199.167 150.959 199.292 151.209 199.542 151.292L221.458 158.417C221.792 158.542 222.125 158.376 222.292 158.042L224.958 152.376Z" fill="black"/>
<path d="M307.375 592.667C289.917 602.834 272.458 612.959 255.083 623.292C253.875 624.001 253.042 626.167 252.917 627.709C250.167 664.501 231.958 691.292 199.625 708.334C194.25 711.167 187.917 712.334 180.875 711.751C171.583 711.001 165.708 703.626 166.667 694.334C167.5 686.209 171.583 679.626 176.417 673.417C187.167 659.709 200.708 648.959 214.583 638.709C223.375 632.209 232.542 626.251 241.792 619.834C239.5 615.334 233.917 612.126 229.083 612.542C219.917 613.292 215.542 615.376 208.625 618.126C186.917 626.751 168.167 640.251 151.542 656.376C139.167 668.376 127.667 681.251 115.792 693.751C114.75 694.834 113.792 696.042 112.75 697.001C111.125 698.501 109.5 699.084 107.958 698.042C106.292 697.292 106.917 694.584 107.375 693.167C108.125 690.834 109.375 688.584 110.875 686.667C134.25 656.209 161.167 629.709 196.083 612.584C203.75 608.834 212.083 606.209 220.375 604.126C232.292 601.167 242.833 603.626 249.917 615.084C266.875 606.001 283.583 597.042 300.583 587.917C294.333 587.917 288.417 587.917 282.458 587.917C281.458 587.917 280.458 588.042 279.458 587.959C276.75 587.751 273.167 588.292 272.917 584.376C272.667 580.542 276.292 580.501 278.667 580.459C290.708 580.167 302.792 580.001 314.833 580.292C319.75 580.417 322.125 583.667 320.125 588.084C314.458 600.917 308.167 613.542 301.833 626.084C301.25 627.251 299.125 629.042 296.75 627.876C295 626.792 295.042 623.959 295.583 622.584C298.875 614.292 302.542 606.126 306.125 597.917C306.75 596.459 307.458 595.001 308.125 593.542C309.625 591.292 308.75 591.876 307.375 592.667ZM245.25 630.334C245.375 628.834 243.125 630.792 242.75 631.042C223.125 644.126 203.958 657.792 188.083 675.417C183.833 680.126 180.25 685.751 177.625 691.542C174.167 699.251 178.542 704.626 186.917 703.084C192.333 702.084 197.958 700.292 202.667 697.459C222.708 685.501 238.667 662.209 242.75 645.667C244.25 639.334 244.25 637.584 245.25 630.334Z" fill="black"/>
<path d="M56.9514 851.554C56.9514 864.1 56.7556 879.391 54.7975 894.878C53.4269 905.856 50.6857 916.442 45.0074 926.244C42.8535 929.773 40.3081 933.105 37.1752 935.85C28.9515 942.907 18.5739 942.711 10.5459 935.262C7.02145 932.125 4.86761 928.204 3.30118 923.892C1.34315 918.207 0.559932 912.129 0.364128 906.052C-0.61489 883.508 0.364128 860.964 3.49699 838.615C4.67181 830.578 6.23824 822.54 8.97949 814.699C10.9375 809.014 13.483 803.72 17.0074 799.016C20.5319 794.311 25.0354 790.782 30.9095 789.214C33.6507 788.626 36.1962 788.822 38.9374 789.214C46.378 790.586 50.6857 794.899 53.0353 801.956C55.1891 807.837 56.1682 813.914 56.364 819.992C56.5598 829.597 56.7556 839.203 56.9514 851.554ZM44.8115 839.987C45.0074 839.203 45.0074 838.615 45.0074 838.027C45.0074 831.95 45.2032 825.873 45.0074 819.992C44.8115 816.071 44.2241 812.15 43.6367 808.425C43.2451 806.269 42.0703 804.113 41.2871 801.956C39.7207 798.035 34.0424 796.859 30.7137 799.604C28.364 801.564 26.406 803.72 25.2312 806.465C23.469 810.19 21.9025 814.11 20.7277 818.031C17.7907 829.205 16.42 840.576 15.441 851.946C14.462 863.904 13.8746 876.058 13.483 888.213C13.0914 896.838 13.2872 905.66 14.462 914.286C14.8536 917.422 15.6368 920.559 17.0074 923.5C20.9235 930.949 27.385 931.733 32.6717 925.264C35.0214 922.519 36.392 919.383 37.5668 916.05C39.7207 910.169 40.8955 904.092 41.6787 898.015C42.0703 895.466 42.2661 892.918 42.4619 890.369C39.7207 888.997 36.9794 888.017 34.6298 886.644C26.6018 882.136 22.8815 875.274 23.6648 865.864C24.0564 860.179 25.6228 854.886 28.5598 849.789C32.2801 843.908 36.9794 839.791 44.8115 839.987Z" fill="black"/>
<path d="M89.2589 887.625C90.0421 872.53 91.2169 857.239 93.175 842.34C94.5456 832.538 95.7204 822.932 97.6784 813.326C98.6575 807.641 100.615 802.152 102.574 796.663C103.553 793.527 105.315 790.586 107.077 787.842C108.448 785.881 110.21 784.313 112.168 782.745C114.126 780.98 116.671 780 119.217 780C127.441 780.392 135.273 781.764 139.776 789.998C142.126 794.311 144.084 798.624 145.063 803.328C147.021 812.15 148 821.168 148 830.186C148 850.77 146.238 871.158 140.951 891.153C138.797 899.583 135.664 907.425 130.573 914.286C128.028 917.618 125.287 920.559 121.958 923.108C109.231 932.517 93.3708 923.696 90.4337 911.149C89.8463 908.209 89.4547 905.268 89.4547 902.328C89.2589 897.623 89.2589 892.526 89.2589 887.625ZM135.664 837.831C135.86 836.263 136.056 835.283 135.86 834.302C135.273 826.265 135.077 818.227 134.098 810.19C133.706 806.269 132.336 802.348 131.161 798.624C129.986 794.899 127.049 792.35 123.525 790.782C121.566 789.802 119.804 790.194 118.434 791.762C117.455 792.938 116.476 794.311 115.692 795.683C114.518 798.428 113.343 801.172 112.56 803.917C110.21 811.562 109.035 819.6 107.86 827.637C105.511 844.3 103.553 861.16 102.574 878.019C101.986 886.645 101.79 895.466 101.399 904.092C101.399 906.052 101.595 908.209 102.182 909.973C104.14 916.05 110.601 918.011 115.692 914.09C116.867 913.306 118.042 912.129 118.825 910.953C120.587 908.601 122.35 906.248 123.72 903.504C127.049 897.231 128.811 890.369 130.378 883.312C130.573 882.724 130.378 882.136 130.378 881.352C128.811 880.959 127.441 880.567 125.874 880.175C122.741 879.391 119.804 878.019 117.259 875.862C112.364 871.942 110.014 866.845 110.601 860.572C111.189 852.926 114.713 846.457 120.587 841.36C124.112 838.419 128.028 836.851 132.727 837.243C133.706 837.831 134.49 837.831 135.664 837.831Z" fill="black"/>
<path d="M255.512 1152.86C246.262 1150.49 230.679 1147.95 224.929 1144.03C222.554 1142.41 222.845 1140.61 223.262 1139.36C223.679 1138.2 226.054 1136.99 227.512 1137.07C230.804 1137.2 234.095 1137.91 237.262 1138.78C244.304 1140.7 251.304 1142.7 258.22 1144.99C261.887 1146.2 263.054 1148.99 260.929 1150.78C259.679 1151.82 258.512 1152.86 255.512 1152.86Z" fill="black"/>
<path d="M109.679 1217.24C110.095 1215.03 110.929 1213.86 112.137 1212.16C116.845 1205.57 121.762 1199.11 126.595 1192.66C126.887 1192.28 127.22 1191.86 127.595 1191.57C129.262 1190.16 131.137 1188.49 133.304 1190.03C135.47 1191.61 134.72 1193.95 133.554 1195.82C128.72 1203.7 123.804 1211.53 118.804 1219.32C118.054 1220.53 116.762 1221.57 115.47 1222.2C112.262 1223.74 109.429 1221.61 109.679 1217.24Z" fill="black"/>
<path d="M213.804 1215.78C213.804 1217.66 212.345 1218.99 211.262 1219.2C209.804 1219.49 208.554 1219.24 206.47 1217.82C205.762 1217.37 205.345 1216.24 204.929 1215.37C201.887 1208.78 198.804 1202.24 195.845 1195.62C195.095 1193.99 194.345 1192.12 194.47 1190.41C194.595 1188.87 195.554 1186.66 196.804 1186.12C198.012 1185.57 199.637 1185.41 201.554 1187.28C202.262 1187.95 202.929 1189.07 203.387 1190.12C206.387 1197.07 209.387 1204.03 212.304 1211.03C212.845 1212.37 213.179 1213.82 213.804 1215.78Z" fill="black"/>
<path d="M81.5536 1158.37C79.6369 1157.82 78.3869 1156.91 78.0953 1155.66C77.7203 1154.07 78.5119 1151.95 79.4286 1150.45C80.1369 1149.32 81.7619 1148.62 83.1369 1148.16C90.0119 1145.87 96.9286 1143.62 103.887 1141.49C105.054 1141.12 106.554 1140.99 107.679 1141.37C109.512 1141.99 110.304 1143.45 108.804 1145.2C107.97 1146.2 107.012 1147.24 105.887 1147.78C99.3869 1151.03 92.8453 1154.16 86.2619 1157.24C85.0536 1157.78 83.4286 1158.95 81.5536 1158.37Z" fill="black"/>
<path d="M222.72 1086.87C221.804 1086.49 221.012 1084.99 220.97 1083.99C220.929 1082.62 221.345 1080.95 222.179 1079.82C226.054 1074.49 230.137 1069.24 234.179 1064.03C234.762 1063.24 235.554 1062.62 236.345 1061.99C238.137 1060.62 240.47 1059.41 242.054 1061.49C242.97 1062.7 243.262 1065.78 242.387 1066.82C237.054 1073.32 231.304 1079.53 225.595 1085.74C225.137 1086.28 224.22 1087.16 222.72 1086.87Z" fill="black"/>
<path d="M89.137 1077.82C91.4703 1078.53 93.262 1078.95 94.9703 1079.57C99.9286 1081.36 104.887 1083.2 109.804 1085.07C111.179 1085.61 112.637 1086.16 113.762 1087.03C114.554 1087.66 115.429 1089.24 115.137 1089.82C114.637 1090.78 113.887 1091.99 112.179 1091.86C111.47 1091.82 110.554 1091.78 109.762 1091.57C104.179 1090.07 98.5953 1088.66 93.0536 1086.99C91.1786 1086.45 89.2203 1085.66 87.7203 1084.45C86.637 1083.57 85.637 1081.61 85.9286 1080.45C86.1786 1079.36 87.0953 1077.82 89.137 1077.82Z" fill="black"/>
<path d="M165.387 1060.57C165.345 1061.07 165.304 1061.57 165.137 1062.03C164.429 1064.07 163.97 1066.36 161.095 1066.16C158.054 1065.95 157.929 1063.45 157.97 1061.41C158.095 1056.49 158.554 1051.57 158.929 1046.61C159.095 1044.82 159.304 1042.99 159.804 1041.28C160.304 1039.53 161.012 1037.74 163.429 1038.03C165.679 1038.32 166.429 1039.82 166.47 1041.82C166.47 1043.99 165.804 1056.49 165.387 1060.57Z" fill="black"/>
<path d="M333.458 1085C310.833 1084.04 288.417 1076.83 268.375 1062.71C266.125 1061.13 264.042 1059 262.583 1056.67C261.708 1055.29 260.917 1053.08 262.167 1051.38C263.625 1049.42 265.583 1049.83 267.292 1050.04C269.167 1050.29 270.917 1051.54 272.667 1052.5C292.708 1063.71 313.708 1071.88 337.125 1072.04C353.542 1072.17 368.375 1066.96 382.375 1058.83C385.083 1057.25 387.875 1055.58 390.792 1054.67C393.917 1053.67 395.208 1054.67 395.958 1055.79C397.125 1057.58 396.208 1059.88 395.125 1060.92C392.25 1063.83 388.875 1066.29 385.542 1068.75C370.583 1079.71 353.75 1085 333.458 1085Z" fill="black"/>
<path d="M299.583 974.417C299.75 972.959 299.958 971.292 300.625 970.167C302.208 967.5 303.833 967 305.5 967C307.833 967 309.25 968.792 309.75 970.334C310.667 973.125 310.625 976.5 310.583 979.459C310.417 993 310.167 1006.58 309.625 1020.13C309.458 1023.88 309.708 1028.67 304.208 1029.38C300.667 1029.83 298.625 1026.46 298.5 1019.96C298.333 1012.21 298.458 983.834 299.583 974.417Z" fill="black"/>
<path d="M357.333 992.209C357.333 986.417 357.208 980.626 357.375 974.792C357.458 971.584 357.833 968.042 362 967.667C366.042 967.334 367.625 970.542 367.75 973.834C368.25 988.209 368.542 1002.58 368.583 1016.92C368.583 1021.21 366.167 1022.46 363.875 1022.63C360.208 1022.88 358.75 1020.17 358.458 1017C357.75 1008.79 357.125 992.251 357.333 992.209Z" fill="black"/>
<path d="M298.067 836.641C294.215 839.334 290.17 841.065 286.221 842.796C278.806 846.161 271.101 846.738 263.203 844.719C258.099 843.373 253.284 841.257 248.853 838.276C241.245 833.083 236.429 825.968 234.311 817.121C233.155 812.697 232.866 808.178 233.251 803.562C233.829 795.869 235.37 788.272 237.97 780.964C239.704 776.156 242.015 771.636 245.29 767.694C246.446 766.251 247.89 764.905 249.239 763.367C248.853 763.078 248.468 762.886 248.179 762.597C236.237 755.577 231.229 745 232.095 731.441C232.192 729.71 232.577 727.883 233.155 726.248C238.163 710.959 248.372 701.246 264.359 698.073C270.041 696.919 275.82 697.208 281.406 698.938C284.68 699.996 287.57 701.535 290.266 703.747C290.748 704.131 291.23 704.516 291.615 704.804C291.615 704.804 291.711 704.804 291.904 704.9C292.096 704.516 292.289 704.131 292.482 703.747C298.838 686.534 311.454 676.341 328.79 671.34C336.013 669.321 343.333 669.513 350.364 672.398C362.595 677.398 369.818 686.726 372.804 699.419C374.345 706.247 374.152 713.074 371.648 719.613C370.781 722.017 369.529 724.325 368.084 726.441C367.892 726.729 367.796 727.018 367.603 727.402C368.084 727.498 368.47 727.691 368.759 727.691C374.152 728.46 378.775 730.864 382.916 734.326C389.561 739.903 393.895 746.827 396.496 755.001C398.229 760.386 399.096 765.867 399.674 771.444C400.059 775.387 400.156 779.329 399.674 783.272C398.807 790.099 396.399 796.446 392.354 802.023C388.598 807.312 383.398 810.293 377.041 811.351C376.174 811.447 375.404 811.64 374.441 811.832C374.537 812.409 374.537 812.793 374.633 813.274C375.404 817.794 375.115 822.217 374.345 826.641C373.189 833.564 370.974 840.007 367.314 846.065C364.328 850.969 360.572 855.104 355.757 858.374C350.46 862.028 344.585 863.951 338.229 864.721C330.235 865.682 322.626 864.144 315.403 860.393C310.01 857.508 305.58 853.47 302.401 848.277C300.475 845.104 299.127 841.642 298.549 837.988C298.356 837.699 298.26 837.315 298.067 836.641ZM242.208 806.735C242.208 809.524 242.401 812.313 243.075 815.005C244.616 821.448 247.89 826.737 253.284 830.776C257.714 834.045 262.626 836.161 267.923 837.507C270.234 838.084 272.642 838.18 274.953 838.084C278.902 837.892 282.562 836.834 286.125 835.007C289.4 833.372 292.77 831.737 296.045 830.199C296.719 829.91 297.393 829.526 298.067 829.333C298.934 829.045 299.801 829.045 300.475 829.718C301.053 830.295 301.631 830.583 302.401 830.679C303.557 830.872 304.231 831.641 304.713 832.603C304.905 833.083 305.098 833.564 305.194 834.045C305.772 835.584 306.157 837.218 306.832 838.757C309.143 844.911 313.381 849.527 319.159 852.604C327.634 857.124 336.495 857.508 345.355 854.047C352.29 851.45 357.201 846.546 360.669 840.103C362.691 836.353 364.039 832.41 365.003 828.275C366.062 823.467 366.64 818.659 365.966 813.755C365.773 812.216 365.869 810.582 365.966 809.043C366.062 807.024 367.025 805.678 369.144 804.908C371.552 804.043 373.959 803.466 376.367 802.985C380.508 802.216 383.59 799.908 385.902 796.446C387.635 793.85 388.887 791.061 389.561 787.984C390.428 784.137 391.006 780.195 390.91 776.252C390.813 774.04 390.717 771.733 390.428 769.521C389.947 764.905 389.08 760.386 387.732 755.962C385.613 749.135 381.857 743.269 376.367 738.653C372.611 735.576 368.47 733.364 363.462 733.46C362.884 733.46 362.306 733.364 361.728 733.268C359.898 732.787 359.031 731.153 359.417 729.229C359.513 728.748 359.706 728.364 359.898 727.883C360.958 725.287 361.921 722.69 362.98 720.19C367.314 709.42 366.158 699.131 360.091 689.419C354.216 680.187 342.851 675.283 332.257 677.783C317.907 681.149 307.217 689.226 301.053 702.881C300.475 704.131 299.994 705.381 299.512 706.728C298.549 709.42 297.586 712.209 296.623 714.901C295.852 717.113 293.637 717.882 291.711 716.536C291.23 716.248 290.844 715.767 290.459 715.286C289.881 714.613 289.4 713.94 288.918 713.267C286.221 709.612 282.658 707.305 278.324 706.054C273.123 704.612 267.923 704.804 262.915 706.343C251.743 709.805 244.616 717.498 241.534 728.556C238.645 737.595 240.763 745.865 246.638 752.981C249.142 756.058 252.128 758.655 256.173 759.712C256.269 759.712 256.462 759.809 256.558 759.905C259.255 761.059 260.025 763.847 258.292 766.251C257.81 766.925 257.232 767.405 256.654 767.982C252.224 771.829 249.142 776.637 247.023 782.022C243.942 790.003 242.497 798.273 242.208 806.735Z" fill="black"/>
<path d="M365.292 770.963C365.195 781.926 361.632 793.273 354.312 803.466C347.378 813.082 338.325 819.717 326.768 822.506C312.321 826.064 299.223 822.794 287.762 813.467C278.42 805.87 272.642 795.869 270.138 784.234C266.767 768.752 269.271 754.231 277.554 740.673C281.406 734.326 286.414 729.037 292.771 725.094C294.023 724.325 295.275 723.652 296.527 722.979C298.742 721.825 301.053 720.96 303.268 719.806C305.965 718.363 308.95 717.786 312.032 717.402C328.694 715.19 342.274 721.056 352.868 733.749C361.054 743.557 365.292 756.155 365.292 770.963ZM277.843 771.156C277.843 774.329 278.131 777.502 278.709 780.579C280.443 789.619 284.295 797.696 291.037 804.235C298.164 811.159 306.735 814.717 316.752 814.524C323.975 814.428 330.62 812.12 336.591 808.082C342.659 804.043 347.282 798.658 350.652 792.311C356.335 781.637 357.972 770.29 355.661 758.366C354.505 752.212 352.193 746.538 348.534 741.346C338.517 727.306 322.145 722.113 307.024 726.729C306.35 726.922 305.58 727.018 304.906 727.21C304.135 727.498 303.268 727.691 302.498 728.075C298.838 730.191 295.371 732.691 292.385 735.672C282.658 745.481 278.035 757.405 277.843 771.156Z" fill="black"/>
<path d="M341.214 771.925C340.733 770.771 340.251 769.713 339.962 768.655C339.77 767.79 339.673 766.828 339.77 765.963C339.962 764.809 340.636 763.943 341.888 763.655C343.044 763.366 343.911 763.847 344.681 764.713C344.778 764.905 344.97 765.001 345.067 765.193C346.993 767.79 348.919 770.386 350.845 772.886C351.712 774.04 351.712 774.906 351.038 775.771C350.364 776.541 349.497 776.829 348.534 776.637C347.763 776.444 346.993 776.156 346.126 775.964C345.837 776.733 345.452 777.406 345.163 778.175C343.911 781.156 342.563 784.041 340.829 786.83C338.71 790.099 336.11 792.984 332.932 795.388C328.405 798.85 323.204 800.677 317.522 800.965C310.588 801.254 304.135 799.908 298.26 796.254C295.949 794.811 293.734 793.273 291.23 791.542C291.037 791.542 290.459 791.638 289.881 791.542C288.244 791.349 287.185 789.907 287.666 788.272C287.859 787.695 288.148 787.022 288.533 786.445C289.881 784.233 291.326 782.118 292.771 780.002C293.156 779.425 293.734 778.848 294.312 778.464C295.853 777.502 297.682 778.368 297.779 780.195C297.875 780.868 297.682 781.637 297.49 782.31C297.105 783.464 296.719 784.714 296.238 785.964C296.43 786.157 296.527 786.349 296.719 786.541C301.342 789.33 305.965 791.926 311.358 792.792C321.086 794.427 328.887 791.638 334.858 783.656C336.495 781.445 337.843 779.137 338.999 776.733C339.673 775.002 340.444 773.463 341.214 771.925Z" fill="black"/>
<path d="M333.702 760.001C333.702 760.963 333.798 761.828 333.702 762.79C333.606 764.328 332.835 765.29 331.583 765.578C330.235 765.867 329.079 765.29 328.309 764.232C327.923 763.655 327.538 762.982 327.249 762.309C325.708 758.558 325.227 754.616 324.938 750.577C324.938 749.904 325.034 749.231 325.227 748.654C326.094 746.25 329.175 745.673 330.813 747.692C331.294 748.365 331.68 749.135 331.968 750C333.124 753.27 333.798 756.539 333.702 760.001Z" fill="black"/>
<path d="M303.268 764.232C303.268 765.098 303.268 765.963 303.268 766.828C303.268 767.502 303.076 768.271 302.979 768.944C302.69 770.098 302.016 770.963 300.764 771.156C299.416 771.348 298.453 770.771 297.779 769.713C297.49 769.232 297.201 768.655 297.104 768.079C296.045 764.136 295.563 760.193 295.756 756.155C295.756 755.481 295.949 754.712 296.238 754.039C296.719 752.885 297.682 752.212 299.031 752.212C300.283 752.212 301.246 752.789 301.824 753.847C302.112 754.424 302.401 755.097 302.498 755.674C302.787 758.462 303.364 761.347 303.268 764.232Z" fill="black"/>
<path d="M463 171.792C459.208 166.375 455 160.875 451.417 154.959C450.042 152.709 448.917 148.875 449.958 147C451.042 145.084 454.917 143.667 457.458 143.834C466.375 144.375 475.25 145.459 484.083 146.875C487.542 147.417 489.583 146.417 491.958 144.25C499.875 136.917 507.833 129.625 516.042 122.709C518.042 121 522.125 119.292 523.708 120.209C525.792 121.417 527.375 125.209 527.375 127.917C527.375 135.334 526.667 142.792 525.875 150.209C525.5 153.625 524.75 154.542 529.875 155.875C535.625 157.375 541.458 158.667 547.042 160.709C549 161.417 551.417 163.834 551.625 165.709C551.875 167.584 550.167 170.792 548.458 171.709C541.458 175.417 534.208 178.625 526.875 181.625C524.083 182.75 522.667 183.875 522.25 187.042C520.625 200.375 518.667 213.625 516.792 226.917C516.625 228.084 515.667 236.542 510.75 236.5C508.625 236.5 506.625 236.5 503.625 232.625C495.875 221.875 488.458 210.875 481.208 199.792C479.292 196.875 477.625 195.834 474.083 196.75C466.083 198.875 458 200.667 449.875 202.25C447.875 202.625 444.708 204.042 443.458 201.209C442.417 199.334 444.083 197.042 445.208 195.5C450.875 187.625 456.833 179.917 463 171.792ZM515.583 161.75C507.458 160.209 500 158.667 492.5 157.417C491.417 157.209 489.833 157.75 489 158.5C483.792 163.292 478.708 168.292 473.458 173.334C476.125 177.334 478.25 180.875 480.792 184.125C481.542 185.125 483.583 185.959 484.75 185.667C493.708 183.292 502.583 180.709 511.417 177.959C512.542 177.625 513.958 176.167 514.167 175.084C514.875 170.875 515.125 166.584 515.583 161.75ZM508.083 223.834C509.75 210.584 511.25 198.792 512.833 186.5C504 189.084 495.833 191.459 486.958 194.042C494.042 204.042 500.667 213.375 508.083 223.834ZM518.958 130.459C511.667 137.167 505.417 142.917 498.417 149.334C505.042 150.584 510.625 151.667 516.667 152.792C517.417 145.417 518.083 138.625 518.958 130.459ZM480.375 154.875C472.75 153.875 466.333 153 458.458 151.959C462.458 157.459 465.625 161.75 468.833 166.125C472.625 162.459 476.042 159.125 480.375 154.875ZM539.167 166.584C534.458 165.625 529.75 164.667 524.75 163.667C524.375 167.375 524.083 170.375 523.708 174.209C529.583 171.792 539.25 166.959 539.167 166.584ZM457.875 190.834C458.083 191.167 468.25 189.584 473.625 188.375C471.542 185.209 469.875 182.667 467.917 179.75C464.25 183.834 461.083 187.334 457.875 190.834Z" fill="black"/>
<path d="M402.583 280.043C397.375 277.376 392.167 274.876 387.125 272.043C380.792 268.543 380.583 263.459 387.042 260.168C393.792 256.709 400.917 253.751 408.167 251.584C411.833 250.459 415.583 248.418 415.583 248.418C415.583 248.418 417.792 243.751 418.375 242.168C420.792 235.668 423.958 229.418 427.042 223.209C430.417 216.376 435.667 216.001 439.667 222.584C442.917 227.918 445.375 233.751 448.417 239.793C455.542 238.543 463 237.293 470.458 235.918C474 235.293 478.333 234.459 479.583 238.376C480.417 241.001 479.167 245.334 477.292 247.626C472.958 253.043 467.917 257.918 462.75 262.543C459.583 265.376 458.833 267.668 460.5 271.793C463.792 280.084 466.5 288.668 468.917 297.251C469.583 299.584 469.167 303.418 467.667 304.834C466.125 306.251 462.25 306.459 459.958 305.626C450.958 302.334 442.042 298.626 433.333 294.543C429.667 292.834 427.458 293.376 424.583 295.918C417.5 302.168 410.292 308.293 402.792 314.043C400.917 315.459 397.958 316.709 395.25 315.834C392.833 315.376 393.417 310.834 393.958 308.709C396.458 299.251 399.5 290.001 402.583 280.043ZM412.75 276.334C417.167 278.376 420.958 280.376 424.958 281.918C426.167 282.376 428.292 282.043 429.333 281.251C434.833 276.959 440.167 272.501 445.375 267.876C446.333 267.043 447.542 266.334 446.75 263.834C445.458 259.626 443.625 255.543 441.833 251.001C434.958 252.876 428.417 254.584 422 256.584C420.833 256.959 420.375 256.751 419.167 259.626C416.875 264.876 415 270.376 412.75 276.334ZM435.583 286.793C443.333 289.793 450.25 292.459 458.292 295.543C455.5 287.543 453.167 280.959 450.625 273.751C445.542 278.168 440.958 282.126 435.583 286.793ZM424.292 246.209C429.667 244.751 433.875 243.584 438.625 242.293C436.708 237.501 435.042 233.251 432.792 227.668C429.667 234.501 427.208 239.834 424.292 246.209ZM404.208 300.793C404.458 300.959 414.958 293.084 420.375 288.668C416.667 286.876 413.625 285.376 410.167 283.709C408.083 289.751 406.125 295.293 404.208 300.793ZM455.167 257.334C459.25 253.376 463.375 249.334 467.625 245.251C462.458 246.376 457.25 247.543 451.583 248.751C452.958 252.084 454.167 254.918 455.167 257.334ZM410.667 259.793C404.125 262.251 399.042 264.126 392.833 266.459C397.708 268.918 401.458 270.834 405.583 272.876C407.208 268.709 408.667 264.918 410.667 259.793Z" fill="black"/>
<path d="M389.125 150.958C396.5 148.416 403.625 145.708 410.875 143.541C413 142.916 416.667 142.916 417.542 144.041C419.5 146.541 418.75 149.375 417.625 151.125C412.333 159.5 406.667 167.666 400.75 175.625C398.333 178.833 397.417 181.5 398.75 185.541C401.083 192.416 402.958 199.5 404.417 206.625C404.917 209.041 404.458 212.875 402.875 214.208C401.333 215.5 397.5 215.166 395.208 214.25C389.667 212.125 384.292 209.416 379.083 206.583C375.708 204.75 373.458 205.125 370.417 207.708C365.125 212.166 359.333 216.125 353.458 219.833C348.417 223 345.125 221.583 345.542 216.083C345.833 212.916 345.958 209.541 346.583 206.333C347.25 202.75 349.125 195.083 349.042 194.333C344 192.458 338.625 190.791 333.542 188.5C331.375 187.5 328.458 185.208 328.417 183.416C328.333 181.208 330.333 178 332.375 176.791C339.5 172.625 358.75 163.625 358.75 163.625C360.625 158.583 362.958 149.708 364.667 144.625C366.458 139.375 368.25 134.125 370.167 128.958C370.917 126.958 373.125 124.25 374.75 124.166C376.5 124.083 379.208 126.333 380.083 128.208C383.333 135.458 386 142.958 389.125 150.958ZM358.75 189.833C363 191.583 366.625 193.166 370.333 194.541C371.292 194.875 372.917 195.041 373.458 194.5C378 189.916 382.417 185.166 386.75 180.416C387.125 180.041 387.167 179.083 387 178.5C385.458 173.166 383.875 167.875 382.25 162.416C376.583 164.791 371.667 166.75 366.875 168.958C365.5 169.583 363.875 170.833 363.458 172.125C361.708 177.791 360.375 183.583 358.75 189.833ZM394.75 171.375C400.083 164.541 408.708 152 408.375 151.666C402.667 154.041 396.917 156.375 391 158.833C392.208 162.875 393.292 166.5 394.75 171.375ZM366.917 159.916C371.917 157.791 375.833 156.166 380.042 154.375C378.25 148.666 376.583 143.25 374.5 136.625C371.833 144.833 369.542 151.833 366.917 159.916ZM379.958 198.916C385.25 201.291 389.917 203.375 395.417 205.875C393.5 199.666 391.917 194.541 390.167 189C386.583 192.458 383.583 195.375 379.958 198.916ZM355 173.958C349 176.916 344.125 179.333 338 182.333C343.417 184.25 347.375 185.625 351.5 187.041C352.625 182.75 353.625 179.083 355 173.958ZM352.958 210.041C353.375 210.333 362.208 204.666 366.833 201.041C362.917 199.5 360.083 198.416 356.833 197.166C355.458 201.791 354.208 205.916 352.958 210.041Z" fill="black"/>
<path d="M380.456 537.22C379.863 537.022 379.369 536.924 378.974 536.726C375.515 535.639 371.958 534.651 368.499 533.465C366.029 532.674 363.756 531.39 361.78 529.71C360.989 529.018 360.1 528.327 359.408 527.437C356.543 524.077 356.444 520.026 359.211 516.469C359.705 515.876 360.1 515.382 360.693 514.69C359.902 514.394 359.31 514.196 358.618 513.899C356.345 513.01 354.072 512.121 351.898 511.133C350.12 510.342 348.539 509.057 347.254 507.575C344.29 504.314 343.894 500.757 346.266 497.002C347.155 495.619 348.341 494.334 349.428 492.951C349.131 492.753 348.736 492.555 348.341 492.259C347.649 491.864 346.958 491.468 346.266 490.974C343.894 489.097 343.301 486.626 344.882 483.958C345.574 482.773 346.365 481.686 347.353 480.697C350.317 477.535 353.973 475.658 358.025 474.176C362.966 472.397 368.203 471.31 373.44 470.519C385.792 468.642 398.342 467.555 410.793 466.764C420.872 466.073 430.951 465.875 441.03 466.073C448.244 466.27 455.358 466.666 462.473 467.654C463.659 467.851 464.845 468.148 466.031 468.543C466.821 468.839 467.513 469.235 468.106 469.828C469.588 471.31 468.995 473.484 467.019 474.176C466.623 474.274 466.228 474.373 465.833 474.373C464.647 474.472 463.363 474.571 462.177 474.571C456.248 474.571 450.22 474.571 444.291 474.373C434.508 474.077 424.627 474.373 414.844 474.867C405.753 475.361 396.563 475.954 387.472 476.646C379.27 477.239 370.97 478.029 362.867 479.413C360.001 479.907 357.234 480.697 354.369 481.488C352.59 481.982 351.009 482.871 349.626 484.057C347.056 486.33 347.254 487.516 350.218 488.701C350.713 488.899 351.207 488.998 351.8 489.196C353.479 489.887 354.962 489.69 356.641 488.899C361.879 486.429 367.412 484.946 373.045 483.464C382.531 480.994 392.314 479.512 401.998 478.425C410.793 477.436 419.587 476.844 428.382 477.041C441.425 477.239 454.271 478.721 467.019 481.686C468.204 481.982 469.39 482.278 470.477 482.773C471.07 482.97 471.762 483.365 472.256 483.662C474.331 485.045 474.628 487.219 472.75 488.998C472.058 489.69 471.169 490.283 470.28 490.777C463.955 494.235 457.236 496.607 450.022 497.694C440.338 499.077 430.556 499.571 420.872 499.472C410.891 499.374 400.812 499.176 390.832 498.781C382.235 498.385 373.638 497.694 365.14 496.409C363.163 496.113 361.088 495.717 359.112 495.322C358.025 495.124 357.136 495.124 356.147 495.717C354.863 496.409 353.677 497.002 352.491 497.793C351.8 498.188 351.207 498.879 350.713 499.472C349.527 500.955 349.527 502.437 350.91 503.82C351.997 505.006 353.381 505.698 354.863 506.291C357.926 507.476 361.187 508.267 364.448 509.057C367.511 509.848 370.278 509.65 373.341 508.465C378.381 506.488 383.816 505.698 389.152 504.907C401.998 503.129 414.844 502.338 427.789 501.943C435.101 501.745 442.414 501.548 449.726 502.042C454.568 502.338 459.311 502.733 463.955 504.018C465.042 504.314 466.129 504.71 467.216 505.204C469.786 506.488 470.378 508.959 468.501 511.231C467.908 512.022 467.019 512.615 466.228 513.208C464.351 514.591 462.177 515.481 460.003 516.172C454.963 517.951 449.825 518.84 444.489 519.334C431.544 520.619 418.698 520.817 405.753 520.322C398.935 520.125 392.116 519.73 385.298 518.939C380.95 518.445 376.701 517.753 372.452 517.062C371.464 516.864 370.575 516.864 369.685 517.259C368.499 517.852 367.215 518.346 366.029 518.939C365.436 519.236 364.843 519.631 364.349 520.125C363.46 521.014 363.46 521.706 364.25 522.595C364.942 523.287 365.733 523.979 366.622 524.473C368.203 525.263 369.883 526.054 371.661 526.647C377.887 528.722 384.211 529.809 390.733 530.599C391.425 530.698 392.215 530.599 392.907 530.402C402.69 527.931 412.67 526.251 422.65 524.967C430.753 523.88 438.757 523.188 446.959 522.793C450.813 522.595 454.667 522.793 458.422 523.781C459.509 524.077 460.596 524.473 461.584 525.066C464.548 526.844 464.845 529.71 462.276 532.082C460.991 533.267 459.509 534.058 458.026 534.75C453.679 536.726 449.133 537.912 444.39 538.801C438.066 539.888 431.643 540.481 425.22 540.481C418.5 540.382 411.781 540.382 405.16 540.086C400.516 539.888 395.871 539.196 391.227 538.801C388.855 538.603 386.187 539.789 384.705 541.864C385.199 542.754 386.089 543.05 386.978 543.445C389.448 544.532 392.116 545.125 394.784 545.422C398.836 545.916 402.986 546.311 407.136 546.607C413.461 547.003 419.884 547.2 426.208 547.398C431.247 547.596 436.386 547.793 441.425 547.991C442.611 548.09 443.896 548.189 445.082 548.386C446.07 548.584 447.058 548.88 447.848 549.671C448.935 550.758 448.935 551.845 447.848 552.833C447.058 553.525 446.169 553.92 445.082 554.117C443.501 554.414 441.92 554.612 440.24 554.809C428.975 556.291 417.808 555.995 406.642 554.71C401.01 554.019 395.377 553.228 389.844 551.647C387.571 550.955 385.298 550.264 383.322 548.979C382.729 548.584 382.037 548.189 381.444 547.694C378.381 545.422 377.689 542.062 379.666 538.603C379.863 538.208 380.16 537.813 380.456 537.22ZM467.019 486.923C463.659 485.737 460.398 485.441 457.137 485.144C450.912 484.749 444.686 484.452 438.461 484.156C428.481 483.761 418.599 484.255 408.619 485.243C397.749 486.231 386.978 488.01 376.306 489.986C375.021 490.283 373.737 490.579 372.452 490.875C372.946 491.172 373.341 491.271 373.835 491.369C375.911 491.468 377.986 491.567 380.16 491.567C395.081 491.567 409.903 491.666 424.824 491.567C433.52 491.567 442.117 491.172 450.813 490.381C455.853 489.887 460.892 489.097 465.734 487.516C466.129 487.318 466.623 487.12 467.019 486.923ZM401.701 511.429C401.701 511.528 401.701 511.627 401.701 511.726C401.899 511.726 402.097 511.726 402.294 511.726C418.895 512.022 435.496 511.726 451.999 510.935C455.556 510.737 459.015 510.441 462.473 509.453C462.868 509.354 463.264 509.156 463.659 508.959C462.177 508.465 460.694 508.267 459.212 508.168C452.888 507.773 446.663 507.971 440.338 508.366C429.568 509.057 418.698 509.848 407.927 510.737C405.852 510.935 403.777 511.231 401.701 511.429ZM423.441 532.674C424.034 532.674 424.627 532.674 425.22 532.674C430.852 532.378 436.485 532.18 442.018 531.686C445.477 531.39 448.837 530.698 452.295 530.204C452.888 530.105 453.58 530.006 454.074 529.512C450.121 528.722 432.038 530.896 423.441 532.674Z" fill="black"/>
<path d="M147.583 489.459C126.958 508.084 102.875 521.876 79.625 536.917C77.2083 538.501 74.25 539.751 71.4166 540.126C66.6667 540.792 63.375 536.417 65.1667 532.084C68.8333 523.084 72.0833 513.834 76.625 505.292C86.5417 486.542 97.0416 468.084 107.583 449.709C109.292 446.709 109.125 445.042 107 442.417C91.5 423.417 76.125 404.251 60.7917 385.084C59.2917 383.209 57.9167 380.876 57.5417 378.584C56.9167 374.792 59.8333 372.501 64.75 372.542C80.6667 372.626 96.5833 373.167 112.5 372.876C126.75 372.584 141 371.542 155.208 370.542C157.042 370.417 159.417 369.251 160.417 367.792C167.958 357.084 175.125 346.126 182.708 335.459C184 333.626 187.417 331.376 188.667 331.959C190.667 332.876 192.833 335.917 192.917 338.167C193.375 347.251 193.125 356.376 193.125 366.126C199.625 365.584 205.333 365.209 211.042 364.667C224.75 363.417 238.417 361.959 252.125 360.917C255.167 360.709 259.333 360.876 261.125 362.709C264.125 365.792 261.417 369.626 259.375 372.584C244.875 393.501 228.333 412.709 210.5 430.834C205.875 435.542 199.625 439.792 197.583 445.501C195.583 451.042 198.083 458.209 198.583 464.667C199.958 482.376 201.375 500.042 202.583 517.751C202.833 521.167 203.042 525.001 201.792 528.042C200.792 530.459 197.583 533.084 195.25 533.501C189.625 534.417 157.042 497.376 147.583 489.459ZM179 381.376C172.917 382.001 167.5 382.417 162.083 383.209C160.667 383.417 158.917 384.459 158.208 385.667C147.708 403.501 137.292 421.417 127 439.334C126.417 440.376 126.25 442.459 126.875 443.251C134.375 452.626 142.083 461.834 150.083 471.459C159.833 462.959 169.167 455.042 178.208 446.792C179.417 445.709 179.875 443.292 179.875 441.501C179.75 433.209 179.125 424.959 179 416.667C178.875 405.167 179 393.584 179 381.376ZM76.7917 383.792C90.6666 400.167 104.292 416.251 118.417 432.917C129.083 416.626 139.542 400.626 150.542 383.792C125.25 383.792 101.25 383.792 76.7917 383.792ZM250.875 370.126C250.458 369.459 212.375 375.209 193.125 378.917C193.958 395.876 194.792 412.376 195.625 428.876C196.25 429.084 233.083 389.917 250.875 370.126ZM139.542 480.209C132.083 471.709 125.333 464.042 118.167 455.834C108.292 474.792 89.5833 511.917 89.8333 512.126C106.208 501.626 122.583 491.084 139.542 480.209ZM185.625 508.042C186.083 507.709 182.375 475.209 181 459.334C172.875 466.834 165.583 473.542 159.25 479.376C167.458 488.376 177.583 499.126 185.625 508.042ZM168.792 369.126C173.292 368.626 176.5 368.292 179.958 367.917C180.417 362.584 180.792 357.667 181.208 352.751C180.833 352.667 180.458 352.542 180.125 352.459C176.583 357.667 173.042 362.876 168.792 369.126Z" fill="black"/>
</svg>
