<svg width="22" height="21" viewBox="0 0 22 21" fill="none" xmlns="http://www.w3.org/2000/svg">
<path d="M0.730585 16.4255C0.059221 16.2032 -0.136826 15.8162 0.0906611 15.1599L5.09353 0.715698C5.32101 0.0593889 5.7168 -0.134069 6.38817 0.0883171L9.18274 1.01221C9.87999 1.24364 10.2462 1.56908 10.5218 2.24709L14.3058 8.08878L15.9463 3.35178C16.1738 2.69547 16.5696 2.50202 17.241 2.7244L21.2691 4.05691C21.9423 4.2793 22.1365 4.66802 21.9091 5.32433L16.9062 19.7686C16.6787 20.4249 16.2829 20.6165 15.6116 20.3941L11.5834 19.0616C10.912 18.8392 10.716 18.4523 10.9434 17.796L11.4687 16.2773L8.75736 9.32185L6.05341 17.1307C5.82592 17.787 5.43013 17.9786 4.75877 17.7562L0.730585 16.4237V16.4255Z" fill="#DB2777"/>
</svg>
