<svg width="106" height="130" viewBox="0 0 106 130" fill="none" xmlns="http://www.w3.org/2000/svg">
<path d="M26.0535 127.01C23.5036 125.31 21.2392 123.217 19.3446 120.808C17.2791 118.311 15.3646 115.685 13.6065 112.967C9.47781 106.928 6.24449 100.323 4.00699 93.3579C1.31049 85.2576 0 77.5025 0 69.9146C0 61.4476 1.83361 54.0593 5.40377 47.8573C8.06592 42.998 11.9752 38.9361 16.729 36.0898C21.3353 33.2327 26.6257 31.6679 32.0451 31.5597C33.9326 31.5597 35.982 31.8294 38.1392 32.3687C39.7031 32.8001 41.5907 33.5012 43.9097 34.3641C46.8758 35.4966 48.4937 36.1977 49.033 36.3595C50.7587 37.0066 52.2148 37.2763 53.3474 37.2763C54.2103 37.2763 55.4506 37.0066 56.8258 36.5752C57.6078 36.3056 59.0909 35.8202 61.1942 34.9034C63.2759 34.1484 64.9261 33.5012 66.2366 33.0158C68.232 32.4226 70.1627 31.8833 71.8992 31.6137C74.0025 31.2901 76.0896 31.1822 78.0904 31.344C81.9194 31.6137 85.4248 32.4226 88.5528 33.6091C94.0536 35.8202 98.492 39.2717 101.803 44.1793C100.401 45.0422 99.1068 46.0453 97.8934 47.1455C95.267 49.4644 93.0397 52.2149 91.26 55.2619C88.9472 59.4157 87.7506 64.0981 87.787 68.8522C87.8678 74.6928 89.3509 79.8269 92.3171 84.2761C94.4772 87.5756 97.2932 90.3953 100.59 92.5598C102.262 93.6923 103.729 94.4743 105.12 94.9866C104.473 97.009 103.761 98.9774 102.936 100.919C101.064 105.271 98.8372 109.44 96.1946 113.377C93.8648 116.774 92.0312 119.309 90.6398 120.981C88.4719 123.569 86.3794 125.511 84.2761 126.897C81.9571 128.434 79.2337 129.248 76.4455 129.248C74.558 129.329 72.6704 129.086 70.8692 128.563C69.3052 128.051 67.7628 127.474 66.2528 126.821C64.6705 126.097 63.0397 125.485 61.3721 124.988C59.323 124.452 57.2127 124.185 55.0947 124.195C52.9375 124.195 50.8342 124.465 48.8388 124.977C47.167 125.452 45.5491 126.034 43.9474 126.73C41.6824 127.673 40.1993 128.294 39.3364 128.563C37.5979 129.078 35.8069 129.394 33.9974 129.507C31.193 129.507 28.5828 128.698 25.9834 127.08L26.0535 127.01ZM63.017 27.4557C59.3498 29.2893 55.8659 30.0659 52.3766 29.807C51.8373 26.3231 52.3766 22.7422 53.8327 18.8215C55.1271 15.4779 56.8528 12.4578 59.2257 9.7613C61.7065 6.95695 64.6726 4.63796 68.0163 2.96614C71.5757 1.13253 74.9732 0.161789 78.209 0C78.6405 3.66723 78.209 7.28053 76.8608 11.1635C75.6196 14.6127 73.7955 17.8232 71.4678 20.6551C69.1218 23.4595 66.2096 25.7785 62.9145 27.4503L63.017 27.4557Z" fill="black"/>
</svg>
