<svg width="30" height="30" viewBox="0 0 30 30" fill="none" xmlns="http://www.w3.org/2000/svg">
<path d="M15 3.75H6.25C5.58696 3.75 4.95107 4.01339 4.48223 4.48223C4.01339 4.95107 3.75 5.58696 3.75 6.25V23.75C3.75 24.413 4.01339 25.0489 4.48223 25.5178C4.95107 25.9866 5.58696 26.25 6.25 26.25H23.75C24.413 26.25 25.0489 25.9866 25.5178 25.5178C25.9866 25.0489 26.25 24.413 26.25 23.75V15" stroke="black" stroke-width="2" stroke-linecap="round" stroke-linejoin="round"/>
<path d="M22.9687 3.28129C23.466 2.78401 24.1405 2.50464 24.8437 2.50464C25.547 2.50464 26.2215 2.78401 26.7187 3.28129C27.216 3.77857 27.4954 4.45303 27.4954 5.15629C27.4954 5.85955 27.216 6.53401 26.7187 7.03129L15.4525 18.2988C15.1557 18.5953 14.789 18.8124 14.3862 18.93L10.795 19.98C10.6874 20.0114 10.5734 20.0133 10.4649 19.9855C10.3563 19.9577 10.2573 19.9012 10.1781 19.822C10.0988 19.7428 10.0424 19.6437 10.0145 19.5352C9.98674 19.4266 9.98862 19.3126 10.02 19.205L11.07 15.6138C11.1882 15.2114 11.4057 14.8451 11.7025 14.5488L22.9687 3.28129Z" fill="#DB2777" stroke="black" stroke-width="2" stroke-linecap="round" stroke-linejoin="round"/>
</svg>
