<svg width="30" height="30" viewBox="0 0 30 30" fill="none" xmlns="http://www.w3.org/2000/svg">
<path d="M13.75 17.5H16.25C16.913 17.5 17.5489 17.2366 18.0178 16.7678C18.4866 16.2989 18.75 15.663 18.75 15C18.75 14.337 18.4866 13.7011 18.0178 13.2322C17.5489 12.7634 16.913 12.5 16.25 12.5H12.5C11.75 12.5 11.125 12.75 10.75 13.25L3.75 20" stroke="black" stroke-width="2" stroke-linecap="round" stroke-linejoin="round"/>
<path d="M8.75 25L10.75 23.25C11.125 22.75 11.75 22.5 12.5 22.5H17.5C18.875 22.5 20.125 22 21 21L26.75 15.5C27.2324 15.0441 27.5139 14.4153 27.5326 13.7519C27.5514 13.0885 27.3058 12.4448 26.85 11.9625C26.3942 11.4801 25.7654 11.1986 25.102 11.1798C24.4385 11.1611 23.7949 11.4066 23.3125 11.8625L18.0625 16.7375" stroke="black" stroke-width="2" stroke-linecap="round" stroke-linejoin="round"/>
<path d="M2.5 18.75L10 26.25" stroke="black" stroke-width="2" stroke-linecap="round" stroke-linejoin="round"/>
<path d="M24.375 10.625C25.25 9.75 26.25 8.625 26.25 7.25C26.3374 6.48616 26.1642 5.7152 25.7587 5.06205C25.3531 4.4089 24.7389 3.91184 24.0155 3.65143C23.2921 3.39101 22.502 3.3825 21.7732 3.62727C21.0444 3.87204 20.4196 4.35574 20 5C19.5538 4.40573 18.9288 3.97016 18.2168 3.75723C17.5048 3.5443 16.7433 3.56524 16.0441 3.81695C15.3449 4.06867 14.7448 4.53792 14.3319 5.15581C13.919 5.77369 13.715 6.50768 13.75 7.25C13.75 8.75 14.75 9.75 15.625 10.75L20 15L24.375 10.625Z" fill="#DB2777" stroke="black" stroke-width="2" stroke-linecap="round" stroke-linejoin="round"/>
</svg>
