<svg width="24" height="24" viewBox="0 0 24 24" fill="none" xmlns="http://www.w3.org/2000/svg">
<path d="M15.686 15C15.1299 17.6299 13.8538 20.0534 12 22C9.43224 19.3038 8.00001 15.7233 8.00001 12C8.00001 8.27674 9.43224 4.69615 12 2C10.1519 2.00048 8.34003 2.51311 6.7656 3.48098C5.19117 4.44885 3.91576 5.8341 3.08095 7.48294C2.24613 9.13178 1.88458 10.9797 2.03642 12.8216C2.18826 14.6635 2.84756 16.4273 3.94113 17.9171C5.03469 19.407 6.51974 20.5647 8.23141 21.2616C9.94309 21.9586 11.8144 22.1676 13.6377 21.8654C15.4609 21.5632 17.1648 20.7617 18.5601 19.5498C19.9554 18.3379 20.9876 16.763 21.542 15" stroke="black" stroke-width="2" stroke-linecap="round" stroke-linejoin="round"/>
<path d="M2 12H10.5" stroke="black" stroke-width="2" stroke-linecap="round" stroke-linejoin="round"/>
<path d="M21.4855 9.591C22.184 8.9092 22.9823 8.03259 22.9823 6.96119C23.0521 6.36601 22.9139 5.76527 22.5901 5.25634C22.2663 4.7474 21.7759 4.3601 21.1984 4.15718C20.6209 3.95427 19.9902 3.94763 19.4083 4.13836C18.8265 4.32908 18.3277 4.70598 17.9927 5.20799C17.6365 4.74493 17.1375 4.40554 16.5691 4.23962C16.0007 4.07371 15.3928 4.09002 14.8346 4.28616C14.2763 4.4823 13.7972 4.84794 13.4676 5.32939C13.138 5.81085 12.9752 6.38277 13.0031 6.96119C13.0031 8.12999 13.8014 8.9092 14.5 9.6884L17.9927 13L21.4855 9.591Z" fill="#DB2777" stroke="black" stroke-width="2" stroke-linecap="round" stroke-linejoin="round"/>
</svg>
