<svg width="52" height="52" viewBox="0 0 52 52" fill="none" xmlns="http://www.w3.org/2000/svg">
<circle cx="26" cy="26" r="26" fill="#DB2777"/>
<g filter="url(#filter0_d_37_2251)">
<path d="M26 34C30.4183 34 34 30.4183 34 26C34 21.5817 30.4183 18 26 18C21.5817 18 18 21.5817 18 26C18 30.4183 21.5817 34 26 34Z" fill="white"/>
<path d="M26 34C30.4183 34 34 30.4183 34 26C34 21.5817 30.4183 18 26 18C21.5817 18 18 21.5817 18 26C18 30.4183 21.5817 34 26 34Z" stroke="white" stroke-width="2" stroke-linecap="round" stroke-linejoin="round"/>
</g>
<path d="M30 21L28.2981 26.7428C28.2055 27.0555 28.0494 27.3395 27.8423 27.5726C27.6351 27.8056 27.3826 27.9812 27.1047 28.0854L22 30L23.7019 24.2572C23.7945 23.9445 23.9506 23.6605 24.1577 23.4274C24.3649 23.1944 24.6174 23.0188 24.8953 22.9146L30 21Z" fill="#DB2777" stroke="#DB2777" stroke-linecap="round" stroke-linejoin="round"/>
<circle cx="0.75" cy="0.75" r="0.75" transform="matrix(-1 0 0 1 27 25)" fill="white"/>
<defs>
<filter id="filter0_d_37_2251" x="14" y="15" width="24" height="24" filterUnits="userSpaceOnUse" color-interpolation-filters="sRGB">
<feFlood flood-opacity="0" result="BackgroundImageFix"/>
<feColorMatrix in="SourceAlpha" type="matrix" values="0 0 0 0 0 0 0 0 0 0 0 0 0 0 0 0 0 0 127 0" result="hardAlpha"/>
<feOffset dy="1"/>
<feGaussianBlur stdDeviation="1.5"/>
<feComposite in2="hardAlpha" operator="out"/>
<feColorMatrix type="matrix" values="0 0 0 0 0 0 0 0 0 0 0 0 0 0 0 0 0 0 0.25 0"/>
<feBlend mode="normal" in2="BackgroundImageFix" result="effect1_dropShadow_37_2251"/>
<feBlend mode="normal" in="SourceGraphic" in2="effect1_dropShadow_37_2251" result="shape"/>
</filter>
</defs>
</svg>
