<svg width="24" height="24" viewBox="0 0 24 24" fill="none" xmlns="http://www.w3.org/2000/svg">
<path d="M20.1775 5.97749L2.97749 10.9775L2.07749 8.57749C1.77749 7.47749 2.37749 6.37749 3.37749 6.07749L16.8775 2.07749C17.9775 1.77749 19.0775 2.37749 19.3775 3.37749L20.1775 5.97749Z" stroke="#1B1B1B" stroke-width="2" stroke-linecap="round" stroke-linejoin="round"/>
<path d="M6.2002 5.3L9.3002 9.2" stroke="#1B1B1B" stroke-width="2" stroke-linecap="round" stroke-linejoin="round"/>
<path d="M12.3999 3.39999L15.4999 7.39999" stroke="#1B1B1B" stroke-width="2" stroke-linecap="round" stroke-linejoin="round"/>
<path d="M3 11H21V19C21 19.5304 20.7893 20.0391 20.4142 20.4142C20.0391 20.7893 19.5304 21 19 21H5C4.46957 21 3.96086 20.7893 3.58579 20.4142C3.21071 20.0391 3 19.5304 3 19V11Z" stroke="#1B1B1B" stroke-width="2" stroke-linecap="round" stroke-linejoin="round"/>
<path d="M9.19925 17.8115C9.01615 17.7464 8.96268 17.633 9.02473 17.4408L10.3891 13.2096C10.4512 13.0174 10.5591 12.9607 10.7422 13.0259L11.5044 13.2965C11.6945 13.3643 11.7944 13.4596 11.8696 13.6582L12.9016 15.3694L13.349 13.9818C13.411 13.7896 13.519 13.7329 13.7021 13.7981L14.8007 14.1884C14.9843 14.2535 15.0372 14.3674 14.9752 14.5597L13.6108 18.7908C13.5487 18.983 13.4408 19.0392 13.2577 18.974L12.1591 18.5837C11.976 18.5186 11.9225 18.4052 11.9846 18.213L12.1278 17.7681L11.3884 15.7306L10.6509 18.0181C10.5889 18.2103 10.4809 18.2665 10.2978 18.2013L9.19925 17.811V17.8115Z" fill="#DB2777"/>
</svg>
