<svg width="24" height="24" viewBox="0 0 24 24" fill="none" xmlns="http://www.w3.org/2000/svg">
<path d="M12 17V21" stroke="#1B1B1B" stroke-width="2" stroke-linecap="round" stroke-linejoin="round"/>
<path d="M22 13V15C22 15.5304 21.7893 16.0391 21.4142 16.4142C21.0391 16.7893 20.5304 17 20 17H4C3.46957 17 2.96086 16.7893 2.58579 16.4142C2.21071 16.0391 2 15.5304 2 15V5C2 4.46957 2.21071 3.96086 2.58579 3.58579C2.96086 3.21071 3.46957 3 4 3H11" stroke="#1B1B1B" stroke-width="2" stroke-linecap="round" stroke-linejoin="round"/>
<path d="M8 21H16" stroke="#1B1B1B" stroke-width="2" stroke-linecap="round" stroke-linejoin="round"/>
<path d="M5.18642 9.98147C5.0511 9.98147 4.99139 9.92176 4.99139 9.78644V7.12707H4.19503C4.05971 7.12707 4 7.06736 4 6.93204V6.27665C4 6.14098 4.05971 6.08127 4.19503 6.08127H7.05508C7.1904 6.08127 7.25011 6.14133 7.25011 6.27665V6.93204C7.25011 7.06736 7.1904 7.12707 7.05508 7.12707H6.25872V9.7868C6.25872 9.92212 6.19901 9.98183 6.06369 9.98183H5.18607L5.18642 9.98147Z" fill="#1B1B1B"/>
<path d="M8.70461 10.0627C7.35037 10.0627 7.02002 9.61861 7.02002 8.95792V7.11046C7.02002 6.44977 7.35037 6 8.70461 6C10.0588 6 10.3839 6.44977 10.3839 7.11046V8.95757C10.3839 9.61826 10.0588 10.0624 8.70461 10.0624V10.0627ZM8.70461 9.01728C9.09996 9.01728 9.15967 8.90881 9.15967 8.76289V7.30549C9.15967 7.16487 9.09996 7.0564 8.70461 7.0564C8.30925 7.0564 8.24954 7.16487 8.24954 7.30549V8.76289C8.24954 8.90881 8.31455 9.01728 8.70461 9.01728Z" fill="#1B1B1B"/>
<path d="M10.8257 10.0627C9.47146 10.0627 9.14111 9.61861 9.14111 8.95792V7.11046C9.14111 6.44977 9.47146 6 10.8257 6C12.1799 6 12.505 6.44977 12.505 7.11046V8.95757C12.505 9.61826 12.1799 10.0624 10.8257 10.0624V10.0627ZM10.8257 9.01728C11.2211 9.01728 11.2808 8.90881 11.2808 8.76289V7.30549C11.2808 7.16487 11.2211 7.0564 10.8257 7.0564C10.4303 7.0564 10.3706 7.16487 10.3706 7.30549V8.76289C10.3706 8.90881 10.4356 9.01728 10.8257 9.01728Z" fill="#1B1B1B"/>
<path d="M17.2108 9.98147C17.0699 9.98147 17.0158 9.92176 17.0158 9.78644V9.09325L16.1869 7.98279C16.0188 7.76091 15.981 7.65244 15.981 7.3168V6.27665C15.981 6.14133 16.0407 6.08127 16.176 6.08127H17.0102C17.1455 6.08127 17.2052 6.14133 17.2052 6.27665V7.16487C17.2052 7.24084 17.2052 7.31644 17.2543 7.39241L17.5034 7.78246C17.5412 7.84747 17.574 7.87468 17.6334 7.87468H17.6875C17.7472 7.87468 17.7797 7.84747 17.8175 7.78246L18.0666 7.39241C18.1153 7.31644 18.1153 7.24084 18.1153 7.16487V6.27665C18.1153 6.14133 18.175 6.08127 18.3103 6.08127H19.1177C19.253 6.08127 19.3127 6.14133 19.3127 6.27665V7.3168C19.3127 7.65244 19.2696 7.76091 19.1071 7.98279L18.2835 9.09855V9.7868C18.2835 9.92212 18.2238 9.98183 18.0885 9.98183H17.2108V9.98147Z" fill="#1B1B1B"/>
<path d="M19.1706 9.98147C19.0353 9.98147 18.9756 9.92176 18.9756 9.78644V9.06039C18.9756 8.91977 19.0134 8.82756 19.1109 8.72474L20.4273 7.12672H19.2681C19.1328 7.12672 19.0731 7.06701 19.0731 6.93169V6.27665C19.0731 6.14133 19.1328 6.08127 19.2681 6.08127H21.76C21.8954 6.08127 21.9551 6.14133 21.9551 6.27665V7.08397C21.9551 7.22988 21.9173 7.3221 21.8197 7.42491L20.563 8.94698H21.8575C21.9929 8.94698 22.0526 9.00669 22.0526 9.142V9.7868C22.0526 9.92212 21.9929 9.98183 21.8575 9.98183H19.1706V9.98147Z" fill="#1B1B1B"/>
<path d="M12.3344 9.23987C12.2061 9.19641 12.1687 9.1208 12.2121 8.99255L13.1679 6.16995C13.2113 6.0417 13.2869 6.00389 13.4152 6.04735L13.949 6.22789C14.0822 6.27311 14.1522 6.33671 14.2048 6.4692L14.9277 7.61075L15.2411 6.68508C15.2845 6.55682 15.3601 6.51902 15.4884 6.56248L16.2579 6.82287C16.3865 6.86632 16.4236 6.94229 16.3802 7.07054L15.4245 9.89314C15.381 10.0214 15.3054 10.0588 15.1771 10.0154L14.4076 9.755C14.2794 9.71154 14.2419 9.63593 14.2854 9.50768L14.3857 9.2109L13.8678 7.85171L13.3512 9.37766C13.3078 9.50591 13.2322 9.54336 13.1039 9.49991L12.3344 9.23952V9.23987Z" fill="#DB2777"/>
</svg>
