<svg width="24" height="24" viewBox="0 0 24 24" fill="none" xmlns="http://www.w3.org/2000/svg">
<path d="M12 21V7" stroke="#1B1B1B" stroke-width="2" stroke-linecap="round" stroke-linejoin="round"/>
<path d="M22 6V4C22 3.73478 21.8946 3.48043 21.7071 3.29289C21.5196 3.10536 21.2652 3 21 3H16C14.9391 3 13.9217 3.42143 13.1716 4.17157C12.4214 4.92172 12 5.93913 12 7C12 5.93913 11.5786 4.92172 10.8284 4.17157C10.0783 3.42143 9.06087 3 8 3H3C2.73478 3 2.48043 3.10536 2.29289 3.29289C2.10536 3.48043 2 3.73478 2 4V17C2 17.2652 2.10536 17.5196 2.29289 17.7071C2.48043 17.8946 2.73478 18 3 18H9C9.79565 18 10.5587 18.3161 11.1213 18.8787C11.6839 19.4413 12 20.2044 12 21C12 20.2044 12.3161 19.4413 12.8787 18.8787C13.4413 18.3161 14.2044 18 15 18H21C21.2652 18 21.5196 17.8946 21.7071 17.7071C21.8946 17.5196 22 17.2652 22 17V15.7" stroke="#1B1B1B" stroke-width="2" stroke-linecap="round" stroke-linejoin="round"/>
<path d="M21.4462 8.55262C21.1805 8.28731 20.8418 8.10715 20.4733 8.03511C20.1048 7.96308 19.7232 8.00242 19.3771 8.14814C19.1515 8.24148 18.9415 8.38149 18.7704 8.56039L18.4982 8.82486L18.2259 8.56039C17.9617 8.29534 17.6248 8.11468 17.2579 8.04129C16.8909 7.9679 16.5104 8.00508 16.1646 8.14814C15.9313 8.24148 15.729 8.38149 15.5501 8.56039C14.8112 9.29157 14.7723 10.5283 15.7057 11.4695L18.4982 14.2309L21.2984 11.4695C22.2318 10.5283 22.1851 9.29157 21.4462 8.56039V8.55262Z" fill="#DB2777"/>
</svg>
