<svg width="24" height="24" viewBox="0 0 24 24" fill="none" xmlns="http://www.w3.org/2000/svg">
<g clip-path="url(#clip0_459_147)">
<path d="M8 22C8.55228 22 9 21.5523 9 21C9 20.4477 8.55228 20 8 20C7.44772 20 7 20.4477 7 21C7 21.5523 7.44772 22 8 22Z" stroke="#1B1B1B" stroke-width="2" stroke-linecap="round" stroke-linejoin="round"/>
<path d="M19 22C19.5523 22 20 21.5523 20 21C20 20.4477 19.5523 20 19 20C18.4477 20 18 20.4477 18 21C18 21.5523 18.4477 22 19 22Z" stroke="#1B1B1B" stroke-width="2" stroke-linecap="round" stroke-linejoin="round"/>
<path d="M15.5631 0.581605C15.5905 0.562486 15.6235 0.551399 15.6583 0.549595C15.6932 0.547791 15.7286 0.555341 15.7605 0.571395C15.7924 0.587448 15.8196 0.611366 15.8389 0.640448C15.8582 0.66953 15.869 0.702618 15.8699 0.73598L15.9183 2.49807C15.9215 2.61407 15.9543 2.72954 16.0139 2.83457C16.0735 2.93959 16.1581 3.03103 16.2604 3.10105L17.8161 4.16458C17.8456 4.18469 17.8692 4.21187 17.8841 4.24305C17.899 4.27423 17.9047 4.30816 17.9006 4.341C17.8964 4.37385 17.8826 4.4043 17.8606 4.42892C17.8387 4.45353 17.8094 4.47132 17.7763 4.48027L16.0272 4.95137C15.9118 4.98249 15.8081 5.04037 15.7249 5.12004C15.6418 5.1997 15.5817 5.29875 15.5498 5.40867L15.0682 7.07534C15.0592 7.10714 15.0407 7.13528 15.015 7.15653C14.9892 7.17778 14.9572 7.1913 14.9225 7.19555C14.8879 7.19979 14.852 7.19458 14.8189 7.18052C14.7859 7.16646 14.757 7.14411 14.7357 7.11602L13.6063 5.64601C13.5318 5.54921 13.4349 5.46946 13.324 5.41361C13.213 5.35776 13.0912 5.32749 12.9691 5.32539L11.1159 5.29472C11.0806 5.29423 11.0456 5.28434 11.0147 5.26618C10.9838 5.24801 10.9583 5.22231 10.941 5.19198C10.9238 5.16165 10.9156 5.12792 10.9173 5.09462C10.919 5.06133 10.9306 5.0298 10.9507 5.00363L12.0016 3.62374C12.0709 3.53265 12.1147 3.42532 12.1292 3.311C12.1436 3.19669 12.1283 3.07882 12.0844 2.96757L11.4202 1.28258C11.4074 1.25053 11.4041 1.21634 11.4107 1.18388C11.4173 1.15143 11.4335 1.12203 11.4575 1.09902C11.4815 1.07602 11.5123 1.06033 11.5463 1.05376C11.5804 1.04719 11.6164 1.04998 11.6502 1.06184L13.4309 1.67739C13.5482 1.71801 13.6722 1.73156 13.7921 1.71688C13.9121 1.7022 14.0245 1.65973 14.1197 1.59311L15.5631 0.581605Z" fill="#DB2777"/>
<path d="M2.0498 2.05H4.0498L6.7098 14.47C6.80738 14.9249 7.06048 15.3315 7.42552 15.6199C7.79056 15.9082 8.24471 16.0604 8.7098 16.05H18.4898C18.945 16.0493 19.3863 15.8933 19.7408 15.6078C20.0954 15.3224 20.3419 14.9245 20.4398 14.48L22.0898 7.05H5.1198" stroke="#1B1B1B" stroke-width="2" stroke-linecap="round" stroke-linejoin="round"/>
</g>
<defs>
<clipPath id="clip0_459_147">
<rect width="24" height="24" fill="white"/>
</clipPath>
</defs>
</svg>
