<svg width="256" height="256" viewBox="0 0 256 256" fill="none" xmlns="http://www.w3.org/2000/svg">
<g clip-path="url(#clip0_274_130)">
<rect x="1" width="256" height="256" rx="50" fill="url(#paint0_linear_274_130)"/>
<path d="M73.8904 207.554L70.0123 203.859C69.7405 203.604 69.5732 203.262 69.5732 202.866C69.5732 202.096 70.2109 201.466 70.9948 201.466H75.2911V199.54H68.7265C66.6934 199.54 65 200.962 65 203.197C65 204.147 65.3711 205.015 65.9774 205.666L70.5506 210.143C70.5506 210.143 71.3189 210.723 71.0523 211.678C70.7858 212.633 69.6203 212.633 69.1812 212.633H65V216.54H71.345C73.9113 216.54 75.9967 214.5 75.9967 211.987V211.955C76.0646 210.061 75.0872 208.71 73.8904 207.554Z" fill="#0668B2"/>
<path d="M99.9004 207.554L96.0225 203.859C95.7507 203.604 95.5782 203.262 95.5782 202.866C95.5782 202.096 96.2158 201.466 97.005 201.466H101.296V199.54H94.7368C92.7038 199.54 91.0052 200.962 91.0052 203.197C91.0052 204.147 91.3815 205.015 91.9878 205.666L96.5556 210.143C96.5556 210.143 97.329 210.723 97.0573 211.678C96.7907 212.633 95.62 212.633 95.181 212.633H91V216.54H97.3447C99.9161 216.54 101.996 214.5 101.996 211.987V211.955C102.069 210.061 101.097 208.71 99.9004 207.554Z" fill="#0668B2"/>
<path d="M90 211.6C90 209.562 88.946 207.589 86.8331 206.806C88.4291 206.274 89.2622 205.002 89.2622 203.219C89.2622 202.024 88.7403 201.018 87.9172 200.361C86.7327 199.48 84.9611 199.545 84.9611 199.545V199.54H78V216.54H85.3977C86.0251 216.507 87.345 216.328 88.4141 215.377C89.3576 214.475 90 213.132 90 211.6ZM81.7591 201.491H83.4304C83.6813 201.491 85.4279 201.491 85.5734 203.333C85.6738 204.654 84.8457 205.475 83.5056 205.475H81.7591V201.491ZM83.7666 212.632H81.7641V208.105H83.6863C83.9423 208.105 85.8896 208.105 86.0301 210.198C86.1355 211.698 85.1016 212.632 83.7666 212.632Z" fill="#0668B2"/>
<path d="M166.63 199V216.26H169.97V199.01L166.63 199Z" fill="#9CA2A3"/>
<path d="M161.87 206.62H158.7V204.02H161.87V199.01H165.26V216.25H161.87V206.62Z" fill="#9CA2A3"/>
<path d="M160.09 212.33H154.62C152.51 212.33 150.82 211.88 150.82 210.2V199.34H160.05V201.7H154.62V209.84H160.09V212.33Z" fill="#9CA2A3"/>
<path d="M191.78 199H187.77V216.4H191.78V199Z" fill="#9CA2A3"/>
<path d="M173.17 199.32V210.14C173.17 211.84 174.88 212.29 177.01 212.29H184.46V199.32H173.17ZM180.61 209.86H177.01V201.7H180.61V209.86Z" fill="#9CA2A3"/>
<path d="M109.7 202.81C110.26 202.12 110.94 201.77 111.72 201.77C112.57 201.77 113.25 202.13 113.78 202.84C114.3 203.55 114.56 204.35 114.56 205.22C114.56 206.09 114.29 206.88 113.77 207.57C113.24 208.27 112.55 208.62 111.7 208.62C110.87 208.62 110.18 208.26 109.66 207.55C109.13 206.84 108.87 206.05 108.87 205.17C108.86 204.3 109.14 203.52 109.7 202.81ZM107.19 200.9C105.94 202.08 105.32 203.51 105.32 205.17C105.32 206.84 105.95 208.26 107.2 209.44C108.45 210.62 109.94 211.22 111.68 211.22C113.42 211.22 114.92 210.62 116.16 209.44C117.41 208.26 118.03 206.84 118.03 205.17C118.03 203.51 117.41 202.09 116.14 200.9C114.89 199.72 113.39 199.13 111.65 199.13C109.92 199.13 108.42 199.72 107.19 200.9Z" fill="#9CA2A3"/>
<path d="M120.35 199V216.4H124.36V206.6H127.21V204.08H124.36V199H120.35Z" fill="#9CA2A3"/>
<path d="M142.08 199V216.4H146.09V206.6H148.95V204.08H146.09V199H142.08Z" fill="#9CA2A3"/>
<path d="M135.37 204.13H129.19V206.54H134.69C133.57 208.79 131.24 210.26 128.52 210.4V212.9C132.6 212.76 136.02 211.26 138.08 207.77C139.87 204.73 139.62 199.31 139.62 199.31H128.87V201.72H135.51C135.56 202.54 135.51 203.09 135.37 204.13Z" fill="#9CA2A3"/>
<path d="M202.175 120.042C203.952 102.203 203.496 98.1219 194.301 85.4932C191.972 82.3 190.171 79.4669 193.34 80.3073C196.269 81.0755 194.084 74.4491 196.821 76.0817C192.524 56.2503 168.947 44.4618 150.988 37.8834C146.739 36.971 142.465 36.0107 138.216 35.0743C135.839 35.0743 132.525 34.6182 130.173 34.6182C115.071 36.5389 100.858 36.6109 88.1088 45.6143C84.3154 48.4473 80.57 53.6093 76.3444 57.4027C73.9915 59.7796 73.0312 61.6523 70.6783 64.0292C61.2428 75.8656 57.0172 89.0945 55.6247 103.764C55.1925 133.055 65.0122 155.791 92.4064 170.965C95.3595 172.598 115.287 182.105 125.755 183.426C138.168 184.986 154.83 180.185 159.56 177.808C163.329 174.951 167.338 175.191 170.172 171.877C172.524 169.501 178.022 165.875 179.463 163.018C186.065 152.142 204.072 132.815 202.175 120.042Z" fill="#0B8DC8"/>
<path d="M174.805 113.992C175.885 103.284 175.621 100.835 170.075 93.272C168.683 91.3753 167.626 89.6466 169.523 90.1508C171.276 90.607 171.804 88.3021 171.588 87.6299C169.019 75.7214 154.878 68.6387 144.074 64.7253C141.529 64.1491 138.984 63.5729 136.415 63.0206C134.998 63.0206 133.005 62.7325 131.589 62.7565C122.514 63.909 114.014 63.933 106.355 69.335C104.099 71.0396 101.842 74.1368 99.2968 76.4177C97.8803 77.8342 97.3281 78.9866 95.9116 80.4031C90.2455 87.4858 87.7005 95.4568 86.8842 104.244C86.6441 121.819 92.5503 135.456 108.972 144.555C110.725 145.54 122.682 151.254 128.996 152.046C136.439 152.982 146.426 150.101 149.26 148.661C151.516 146.98 153.941 147.1 155.622 145.107C157.038 143.691 160.352 141.506 161.192 139.801C165.153 133.247 175.958 121.651 174.805 113.992Z" fill="#FAA627"/>
<path d="M100.354 94.5924C108.301 78.6265 127.7 72.12 143.69 80.091C159.68 88.014 166.162 107.437 158.239 123.403C150.292 139.369 130.869 145.876 114.903 137.929C98.9131 129.958 92.4066 110.558 100.354 94.5924Z" fill="white"/>
</g>
<defs>
<linearGradient id="paint0_linear_274_130" x1="129" y1="0" x2="129" y2="256" gradientUnits="userSpaceOnUse">
<stop stop-color="white"/>
<stop offset="1" stop-color="white" stop-opacity="0.9"/>
</linearGradient>
<clipPath id="clip0_274_130">
<rect width="256" height="256" fill="white"/>
</clipPath>
</defs>
</svg>
