<?xml version="1.0" encoding="UTF-8"?>
<svg id="Layer_2" data-name="Layer 2" xmlns="http://www.w3.org/2000/svg" viewBox="0 0 105.48 105.48">
  <defs>
    <style>
      .cls-1 {
        fill: #db2777;
      }

      .cls-2 {
        fill: #fff;
      }
    </style>
  </defs>
  <g id="Layer_1-2" data-name="Layer 1">
    <g>
      <circle class="cls-2" cx="52.74" cy="52.74" r="52.74"/>
      <path class="cls-1" d="M9.59,78.79c-2.81-.95-3.62-2.6-2.67-5.41L27.84,11.6c.95-2.81,2.61-3.63,5.41-2.68l11.68,3.95c2.92.99,4.45,2.38,5.6,5.28l15.82,24.99,6.86-20.26c.95-2.81,2.61-3.63,5.41-2.68l16.84,5.7c2.81.95,3.63,2.61,2.67,5.42l-20.91,61.78c-.95,2.81-2.6,3.62-5.41,2.67l-16.84-5.7c-2.81-.95-3.62-2.6-2.67-5.41l2.2-6.49-11.33-29.74-11.31,33.4c-.95,2.81-2.6,3.62-5.41,2.67l-16.84-5.7Z"/>
    </g>
  </g>
</svg>