<svg width="158" height="36" viewBox="0 0 158 36" fill="none" xmlns="http://www.w3.org/2000/svg">
<g clip-path="url(#clip0_232_6)">
<path d="M10.3837 35.2799C9.19935 35.2799 8.67677 34.7508 8.67677 33.5518V9.98696H1.7069C0.522585 9.98696 0 9.45787 0 8.25881V2.45134C0 1.24915 0.522585 0.720062 1.7069 0.720062H26.7384C27.9227 0.720062 28.4453 1.25228 28.4453 2.45134V8.25881C28.4453 9.45787 27.9227 9.98696 26.7384 9.98696H19.7686V33.5549C19.7686 34.754 19.246 35.2831 18.0616 35.2831H10.3806L10.3837 35.2799Z" fill="#060B34"/>
<path d="M41.1724 36C29.3199 36 26.4287 32.0647 26.4287 26.2103V9.83981C26.4287 3.98539 29.3199 0 41.1724 0C53.0249 0 55.8697 3.98539 55.8697 9.83981V26.2071C55.8697 32.0616 53.0249 35.9969 41.1724 35.9969V36ZM41.1724 26.7362C44.6326 26.7362 45.1552 25.7751 45.1552 24.4821V11.568C45.1552 10.3219 44.6326 9.36081 41.1724 9.36081C37.7122 9.36081 37.1896 10.3219 37.1896 11.568V24.4821C37.1896 25.7751 37.7586 26.7362 41.1724 26.7362Z" fill="#060B34"/>
<path d="M59.7447 36C47.8922 36 45.001 32.0647 45.001 26.2103V9.83981C45.001 3.98539 47.8922 0 59.7447 0C71.5972 0 74.442 3.98539 74.442 9.83981V26.2071C74.442 32.0616 71.5972 35.9969 59.7447 35.9969V36ZM59.7447 26.7362C63.2049 26.7362 63.7275 25.7751 63.7275 24.4821V11.568C63.7275 10.3219 63.2049 9.36081 59.7447 9.36081C56.2845 9.36081 55.7619 10.3219 55.7619 11.568V24.4821C55.7619 25.7751 56.3309 26.7362 59.7447 26.7362Z" fill="#060B34"/>
<path d="M115.621 35.2799C114.388 35.2799 113.915 34.7508 113.915 33.5518V27.4093L106.66 17.5695C105.188 15.6034 104.857 14.6423 104.857 11.6681V2.45134C104.857 1.25228 105.38 0.720062 106.564 0.720062H113.865C115.049 0.720062 115.572 1.25228 115.572 2.45134V10.3219C115.572 10.995 115.572 11.665 116.002 12.3381L118.182 15.7944C118.513 16.3705 118.8 16.6115 119.32 16.6115H119.793C120.315 16.6115 120.6 16.3705 120.931 15.7944L123.111 12.3381C123.538 11.665 123.538 10.995 123.538 10.3219V2.45134C123.538 1.25228 124.06 0.720062 125.244 0.720062H132.31C133.494 0.720062 134.017 1.25228 134.017 2.45134V11.6681C134.017 14.6423 133.64 15.6034 132.217 17.5695L125.009 27.4563V33.5549C125.009 34.754 124.487 35.2831 123.303 35.2831H115.621V35.2799Z" fill="#060B34"/>
<path d="M132.777 35.2799C131.593 35.2799 131.07 34.7508 131.07 33.5518V27.1182C131.07 25.8722 131.401 25.055 132.255 24.144L143.776 9.98382H133.631C132.446 9.98382 131.924 9.45474 131.924 8.25567V2.45134C131.924 1.25228 132.446 0.720062 133.631 0.720062H155.44C156.624 0.720062 157.147 1.25228 157.147 2.45134V9.60501C157.147 10.898 156.816 11.7151 155.963 12.6261L144.964 26.1132H156.294C157.478 26.1132 158 26.6423 158 27.8414V33.5549C158 34.754 157.478 35.2831 156.294 35.2831H132.777V35.2799Z" fill="#060B34"/>
<path d="M72.9422 28.7086C71.8197 28.3235 71.4919 27.6535 71.8723 26.5171L80.2367 1.50587C80.6171 0.369422 81.2788 0.0344368 82.4013 0.419514L87.0736 2.01931C88.2394 2.42004 88.8517 2.98356 89.3124 4.15758L95.6391 14.2729L98.3819 6.07044C98.7622 4.93399 99.424 4.59901 100.546 4.98408L107.281 7.29142C108.407 7.67649 108.732 8.34959 108.351 9.48604L99.9867 34.4973C99.6064 35.6337 98.9447 35.9656 97.8222 35.5805L91.0873 33.2732C89.9649 32.8881 89.6371 32.2181 90.0174 31.0817L90.8956 28.4519L86.3624 16.408L81.8416 29.9296C81.4613 31.066 80.7995 31.3979 79.677 31.0128L72.9422 28.7055V28.7086Z" fill="#DB2777"/>
</g>
<defs>
<clipPath id="clip0_232_6">
<rect width="158" height="36" fill="white"/>
</clipPath>
</defs>
</svg>
