<?xml version="1.0" encoding="UTF-8"?>
<svg id="Layer_2" data-name="Layer 2" xmlns="http://www.w3.org/2000/svg" viewBox="0 0 158.49 35.69">
  <defs>
    <style>
      .cls-1 {
        fill: #000;
        stroke-width: 0px;
      }
    </style>
  </defs>
  <g id="Layer_1-2" data-name="Layer 1">
    <path class="cls-1" d="M156.79,25.94h-11.31l10.98-13.3c.85-.9,1.18-1.7,1.18-2.98V2.61c0-1.18-.52-1.7-1.7-1.7h-21.77c-.24,0-.44.03-.63.07-.18-.04-.39-.07-.62-.07h-7.05c-1.18,0-1.7.52-1.7,1.7v7.76c0,.66,0,1.33-.43,1.99l-2.18,3.41c-.33.57-.61.8-1.14.8h-.47c-.52,0-.8-.24-1.14-.8l-2.18-3.41c-.43-.66-.43-1.33-.43-1.99V2.61c0-1.18-.52-1.7-1.7-1.7h-7.29c-1.18,0-1.7.52-1.7,1.7v3.78l-5.53-1.8c-1.12-.37-1.78-.03-2.15,1.09l-2.69,8.28-6.33-10.23c-.47-1.15-1.09-1.7-2.26-2.08l-4.68-1.52c-1.12-.37-1.78-.03-2.15,1.09l-5.15,15.82v-7.15c0-5.77-2.84-9.7-14.67-9.7-4.04,0-7.04.46-9.23,1.29-2.19-.83-5.18-1.29-9.22-1.29-7.27,0-11.16,1.48-13.08,3.96v-1.55c0-1.18-.52-1.7-1.7-1.7H1.7C.52.91,0,1.43,0,2.61v5.73c0,1.18.52,1.7,1.7,1.7h6.96v23.24c0,1.18.52,1.7,1.7,1.7h7.67c1.18,0,1.7-.52,1.7-1.7V10.04h6.96s.04,0,.06,0v16c0,5.77,2.89,9.65,14.72,9.65,4.04,0,7.03-.45,9.22-1.28,2.2.83,5.19,1.28,9.23,1.28,9.54,0,13.23-2.52,14.3-6.53l5.14,1.67c1.12.37,1.78.03,2.15-1.09l4.41-13.55,4.67,11.82-.95,2.93c-.37,1.12-.03,1.78,1.09,2.15l6.75,2.2c1.13.37,1.78.03,2.15-1.09l6.25-19.21c.27.85.72,1.57,1.45,2.54l7.24,9.7v6.06c0,1.18.47,1.7,1.7,1.7h7.67c1.18,0,1.7-.52,1.7-1.7v-6.01l7.19-9.75c1.42-1.94,1.8-2.89,1.8-5.82v-1.66h9.67l-11.5,13.96c-.85.9-1.18,1.7-1.18,2.93v6.34c0,1.18.52,1.7,1.7,1.7h23.47c1.18,0,1.7-.52,1.7-1.7v-5.63c0-1.18-.52-1.7-1.7-1.7ZM41.47,26.56c-3.41,0-3.97-.95-3.97-2.22v-12.73c0-1.23.57-2.18,3.97-2.18,2.35,0,3.34.44,3.74,1.11v14.9c-.39.68-1.38,1.12-3.74,1.12ZM63.9,24.33c0,1.28-.52,2.22-3.97,2.22-2.44,0-3.42-.49-3.78-1.23v-14.68c.36-.73,1.34-1.21,3.78-1.21,3.45,0,3.97.95,3.97,2.18v12.73Z"/>
  </g>
</svg>