<?xml version="1.0" encoding="UTF-8"?>
<svg id="Layer_2" data-name="Layer 2" xmlns="http://www.w3.org/2000/svg" viewBox="0 0 510.96 114.99">
  <defs>
    <style>
      .cls-1 {
        fill: #db2777;
      }

      .cls-1, .cls-2 {
        stroke-width: 0px;
      }

      .cls-2 {
        fill: #fff;
      }
    </style>
  </defs>
  <g id="Layer_1-2" data-name="Layer 1">
    <g>
      <path class="cls-2" d="M33.58,112.69c-3.83,0-5.52-1.69-5.52-5.52V31.9H5.52c-3.83,0-5.52-1.69-5.52-5.52V7.83C0,3.99,1.69,2.3,5.52,2.3h80.95c3.83,0,5.52,1.7,5.52,5.53v18.55c0,3.83-1.69,5.52-5.52,5.52h-22.54v75.28c0,3.83-1.69,5.52-5.52,5.52h-24.84Z"/>
      <path class="cls-2" d="M133.15,114.99c-38.33,0-47.68-12.57-47.68-31.27V31.43c0-18.7,9.35-31.43,47.68-31.43s47.53,12.73,47.53,31.43v52.28c0,18.7-9.2,31.27-47.53,31.27ZM133.15,85.4c11.19,0,12.88-3.07,12.88-7.2v-41.25c0-3.98-1.69-7.05-12.88-7.05s-12.88,3.07-12.88,7.05v41.25c0,4.13,1.84,7.2,12.88,7.2Z"/>
      <path class="cls-2" d="M193.21,114.99c-38.33,0-47.68-12.57-47.68-31.27V31.43c0-18.7,9.35-31.43,47.68-31.43s47.53,12.73,47.53,31.43v52.28c0,18.7-9.2,31.27-47.53,31.27ZM193.21,85.4c11.19,0,12.88-3.07,12.88-7.2v-41.25c0-3.98-1.69-7.05-12.88-7.05s-12.88,3.07-12.88,7.05v41.25c0,4.13,1.84,7.2,12.88,7.2Z"/>
      <path class="cls-2" d="M373.91,112.69c-3.99,0-5.52-1.69-5.52-5.52v-19.62l-23.46-31.43c-4.76-6.28-5.83-9.35-5.83-18.85V7.83c0-3.83,1.69-5.53,5.52-5.53h23.61c3.83,0,5.52,1.7,5.52,5.53v25.14c0,2.15,0,4.29,1.39,6.44l7.05,11.04c1.07,1.84,2,2.61,3.68,2.61h1.53c1.69,0,2.61-.77,3.68-2.61l7.05-11.04c1.38-2.15,1.38-4.29,1.38-6.44V7.83c0-3.83,1.69-5.53,5.52-5.53h22.85c3.83,0,5.52,1.7,5.52,5.53v29.44c0,9.5-1.22,12.57-5.82,18.85l-23.31,31.58v19.48c0,3.83-1.69,5.52-5.52,5.52h-24.84Z"/>
      <path class="cls-2" d="M429.39,112.69c-3.83,0-5.52-1.69-5.52-5.52v-20.55c0-3.98,1.07-6.59,3.83-9.5l37.26-45.23h-32.81c-3.83,0-5.52-1.69-5.52-5.52V7.83c0-3.83,1.69-5.53,5.52-5.53h70.53c3.83,0,5.52,1.7,5.52,5.53v22.85c0,4.13-1.07,6.74-3.83,9.65l-35.57,43.08h36.64c3.83,0,5.52,1.69,5.52,5.52v18.25c0,3.83-1.69,5.52-5.52,5.52h-76.05Z"/>
      <path class="cls-1" d="M235.89,91.7c-3.63-1.23-4.69-3.37-3.46-7l27.05-79.89c1.23-3.63,3.37-4.7,7-3.47l15.11,5.11c3.77,1.28,5.75,3.08,7.24,6.83l20.46,32.31,8.87-26.2c1.23-3.63,3.37-4.7,7-3.47l21.78,7.37c3.64,1.23,4.69,3.38,3.46,7.01l-27.05,79.89c-1.23,3.63-3.37,4.69-7,3.46l-21.78-7.37c-3.63-1.23-4.69-3.37-3.46-7l2.84-8.4-14.66-38.47-14.62,43.19c-1.23,3.63-3.37,4.69-7,3.46l-21.78-7.37Z"/>
    </g>
  </g>
</svg>