<svg width="530" height="530" viewBox="0 0 530 530" fill="none" xmlns="http://www.w3.org/2000/svg">
<path d="M238.342 477.866L237.659 481.553L211.916 476.782L212.599 473.094L223.392 475.095L229.071 444.458L233.227 445.228L227.549 475.865L238.342 477.866Z" fill="black"/>
<path d="M149.73 429.766C151.596 426.591 153.781 424.185 156.286 422.547C158.791 420.908 161.411 420.049 164.147 419.97C166.882 419.89 169.534 420.604 172.1 422.113C174.667 423.621 176.582 425.59 177.843 428.018C179.105 430.447 179.629 433.154 179.417 436.14C179.204 439.126 178.166 442.206 176.3 445.38C174.435 448.554 172.249 450.961 169.744 452.599C167.239 454.238 164.619 455.097 161.884 455.176C159.148 455.256 156.497 454.541 153.93 453.033C151.363 451.524 149.449 449.556 148.187 447.127C146.925 444.699 146.401 441.992 146.613 439.006C146.826 436.02 147.865 432.94 149.73 429.766ZM153.257 431.838C151.726 434.444 150.869 436.9 150.687 439.205C150.496 441.505 150.869 443.55 151.808 445.34C152.736 447.125 154.111 448.552 155.934 449.623C157.756 450.694 159.677 451.204 161.698 451.152C163.709 451.095 165.677 450.426 167.602 449.146C169.518 447.859 171.242 445.913 172.773 443.307C174.305 440.701 175.166 438.248 175.358 435.949C175.539 433.644 175.166 431.599 174.237 429.814C173.299 428.024 171.919 426.593 170.097 425.522C168.275 424.451 166.358 423.945 164.347 424.002C162.327 424.054 160.359 424.722 158.443 426.009C156.517 427.289 154.789 429.232 153.257 431.838Z" fill="black"/>
<path d="M100.447 380.574C103.283 378.226 106.158 376.709 109.072 376.023C111.986 375.337 114.742 375.423 117.34 376.282C119.939 377.14 122.188 378.716 124.086 381.009C125.985 383.302 127.113 385.806 127.471 388.519C127.828 391.232 127.398 393.956 126.18 396.69C124.962 399.425 122.935 401.966 120.099 404.313C117.263 406.661 114.388 408.178 111.474 408.864C108.56 409.55 105.804 409.464 103.206 408.605C100.607 407.747 98.3583 406.171 96.4598 403.878C94.5613 401.584 93.4332 399.081 93.0754 396.368C92.7177 393.655 93.1478 390.931 94.3659 388.197C95.5839 385.462 97.611 382.921 100.447 380.574ZM103.056 383.725C100.727 385.652 99.0846 387.669 98.1276 389.774C97.1634 391.87 96.8169 393.92 97.0883 395.923C97.3523 397.917 98.1583 399.728 99.5061 401.356C100.854 402.984 102.486 404.119 104.403 404.759C106.313 405.391 108.391 405.434 110.638 404.887C112.878 404.331 115.162 403.09 117.49 401.162C119.819 399.235 121.465 397.223 122.429 395.126C123.386 393.021 123.733 390.972 123.469 388.977C123.197 386.974 122.388 385.159 121.04 383.531C119.692 381.903 118.063 380.773 116.154 380.141C114.237 379.5 112.158 379.457 109.919 380.013C107.672 380.56 105.384 381.797 103.056 383.725Z" fill="black"/>
<path d="M54.9869 324.87L87.8576 313.116L89.235 316.968L69.8315 344.109L69.9463 344.43L95.7549 335.201L97.1783 339.182L64.3076 350.936L62.9301 347.084L82.3749 319.856L82.2601 319.535L56.3873 328.787L54.9869 324.87Z" fill="black"/>
<path d="M47.0275 278.227L47.0499 273.386L63.3899 263.78L63.3918 263.37L47.1413 253.613L47.1636 248.773L67.6279 261.481L82.0141 261.547L81.9945 265.775L67.6083 265.708L47.0275 278.227Z" fill="black"/>
<path d="M89.3139 212.521L86.4345 211.461L66.5721 184.099L60.0017 201.951L56.4825 200.656L64.7956 178.069L67.6749 179.128L87.5373 206.491L94.1077 188.639L97.6269 189.934L89.3139 212.521Z" fill="black"/>
<path d="M142.324 120.075L116.643 94.5761L120.366 92.4341L140.867 113.441L141.163 113.271L133.427 84.9201L137.564 82.5401L158.184 103.479L158.479 103.309L150.625 75.0261L154.348 72.8841L163.482 107.903L159.7 110.079L139.15 89.8084L138.913 89.9444L146.107 117.899L142.324 120.075Z" fill="black"/>
<path d="M222.851 86.6034L216.807 52.2215L228.424 50.1792C231.11 49.707 233.396 49.7783 235.281 50.3931C237.164 50.9966 238.659 52.0202 239.767 53.4639C240.874 54.9076 241.606 56.6423 241.962 58.668C242.318 60.6938 242.22 62.5629 241.667 64.2754C241.114 65.9878 240.061 67.4423 238.506 68.6387C236.949 69.8239 234.838 70.6506 232.175 71.1189L222.773 72.7716L222.112 69.0111L231.379 67.382C233.215 67.0593 234.645 66.531 235.67 65.797C236.706 65.0611 237.389 64.1564 237.719 63.083C238.059 61.9964 238.108 60.7647 237.866 59.3881C237.624 58.0115 237.155 56.8536 236.459 55.9145C235.763 54.9753 234.801 54.3253 233.572 53.9644C232.341 53.5923 230.797 53.5696 228.939 53.8962L221.62 55.183L227.015 85.8715L222.851 86.6034ZM236.32 68.3134L247.496 82.2709L242.661 83.1209L231.619 69.1397L236.32 68.3134Z" fill="black"/>
<path d="M305.293 50.8327L299.249 85.2146L295.085 84.4826L301.129 50.1008L305.293 50.8327Z" fill="black"/>
<path d="M360.889 73.0947L362.759 69.8443L385.454 82.9002L383.584 86.1507L374.069 80.6767L358.531 107.685L354.866 105.577L370.404 78.5687L360.889 73.0947Z" fill="black"/>
<path d="M433.246 126.492L406.562 149L403.836 145.769L430.521 123.261L433.246 126.492Z" fill="black"/>
<path d="M474.451 203.192L441.69 215.249L440.277 211.41L459.429 184.091L459.311 183.771L433.589 193.238L432.129 189.271L464.89 177.214L466.303 181.053L447.11 208.459L447.228 208.779L473.014 199.289L474.451 203.192Z" fill="black"/>
<path d="M472.047 274.799C473.193 274.418 474.22 273.919 475.126 273.301C476.043 272.695 476.824 271.97 477.468 271.126C478.112 270.293 478.602 269.348 478.938 268.289C479.274 267.231 479.439 266.071 479.433 264.81C479.424 262.742 478.881 260.863 477.805 259.175C476.729 257.487 475.149 256.148 473.065 255.157C470.98 254.167 468.427 253.679 465.404 253.693C462.382 253.707 459.833 254.224 457.758 255.245C455.683 256.266 454.116 257.643 453.056 259.375C451.995 261.107 451.47 263.053 451.48 265.212C451.489 267.212 451.924 268.971 452.783 270.49C453.654 272.02 454.875 273.207 456.447 274.052C458.031 274.909 459.891 275.332 462.027 275.322L461.76 276.619L461.712 266.119L465.462 266.102L465.523 279.397L461.773 279.414C458.898 279.428 456.395 278.825 454.265 277.608C452.134 276.402 450.479 274.728 449.298 272.585C448.129 270.454 447.538 268.003 447.526 265.23C447.511 262.139 448.226 259.42 449.67 257.072C451.114 254.736 453.173 252.908 455.849 251.589C458.525 250.281 461.704 249.619 465.385 249.602C468.147 249.589 470.631 249.947 472.839 250.675C475.059 251.415 476.95 252.463 478.513 253.82C480.076 255.176 481.277 256.784 482.115 258.644C482.953 260.504 483.377 262.553 483.388 264.792C483.396 266.632 483.126 268.35 482.576 269.943C482.038 271.548 481.266 272.978 480.261 274.232C479.267 275.498 478.073 276.555 476.679 277.402C475.296 278.25 473.759 278.836 472.068 279.162L472.047 274.799Z" fill="black"/>
<path d="M450.243 396.086L423.352 373.826L426.047 370.57L449.524 390.004L449.655 389.847L450.73 379.673L454.039 382.412L452.938 392.83L450.243 396.086Z" fill="black"/>
<path d="M377.763 410.721C379.977 409.42 382.217 408.914 384.483 409.203C386.755 409.503 388.979 410.562 391.155 412.381C393.336 414.209 395.389 416.759 397.312 420.032C399.223 423.284 400.444 426.304 400.974 429.09C401.5 431.891 401.341 434.357 400.497 436.487C399.649 438.633 398.128 440.351 395.934 441.641C393.739 442.93 391.503 443.42 389.226 443.111C386.944 442.818 384.712 441.756 382.531 439.928C380.345 438.115 378.296 435.582 376.385 432.33C374.462 429.057 373.233 426.023 372.697 423.228C372.167 420.442 372.324 417.983 373.167 415.853C374.017 413.733 375.549 412.022 377.763 410.721ZM379.663 413.954C377.468 415.243 376.386 417.303 376.414 420.133C376.443 422.964 377.609 426.338 379.912 430.257C381.443 432.863 383.027 434.918 384.662 436.422C386.287 437.931 387.901 438.861 389.504 439.211C391.097 439.567 392.618 439.318 394.068 438.466C396.243 437.188 397.312 435.116 397.276 432.251C397.246 429.396 396.082 426.013 393.785 422.104C392.253 419.498 390.678 417.445 389.058 415.946C387.439 414.446 385.835 413.523 384.248 413.177C382.651 412.837 381.123 413.096 379.663 413.954Z" fill="black"/>
<path d="M320.287 468.319L313.925 433.994L318.081 433.224L323.636 463.191L323.837 463.154L331.185 456.036L331.968 460.26L324.443 467.549L320.287 468.319Z" fill="black"/>
</svg>
