<svg width="530" height="530" viewBox="0 0 530 530" fill="none" xmlns="http://www.w3.org/2000/svg">
<circle cx="265" cy="265" r="255" fill="#E9D4FF"/>
<mask id="mask0_1024_118" style="mask-type:alpha" maskUnits="userSpaceOnUse" x="42" y="-97" width="608" height="608">
<rect x="42" y="-97" width="608" height="608" fill="black"/>
</mask>
<g mask="url(#mask0_1024_118)">
<path d="M114.964 449.127C114.964 449.127 125.738 458.476 139.347 428.277C122.181 418.52 114.964 449.127 114.964 449.127Z" fill="black"/>
<path d="M94.6928 430.099C94.6928 430.099 103.637 443.497 121.583 419.777C106.52 403.403 94.6928 430.099 94.6928 430.099Z" fill="black"/>
<path d="M128.73 387.384C128.73 387.384 140.911 389.619 141.191 426.826C123.632 419.06 128.73 387.384 128.73 387.384Z" fill="black"/>
<path d="M115.655 377.227C115.655 377.227 127.566 381.87 124.941 418.843C108.125 407.64 115.655 377.227 115.655 377.227Z" fill="black"/>
<path d="M76.1282 409.875C76.1282 409.875 84.0215 424.863 103.592 404.687C89.8421 385.591 76.1282 409.875 76.1282 409.875Z" fill="black"/>
<path d="M61.6053 380.336C61.6053 380.336 66.8696 398.026 88.998 386.412C78.7173 362.382 61.6053 380.336 61.6053 380.336Z" fill="black"/>
<path d="M103.055 360.424C103.055 360.424 113.884 369.61 105.641 404.412C91.069 386.94 103.055 360.424 103.055 360.424Z" fill="black"/>
<path d="M93.2039 343.342C93.2039 343.342 103.232 354.612 92.337 387.501C79.2425 367.263 93.2039 343.342 93.2039 343.342Z" fill="black"/>
<path d="M54.4485 356.424C54.4485 356.424 58.7555 372.908 79.2325 363.888C70.5312 341.275 54.4485 356.424 54.4485 356.424Z" fill="black"/>
<path d="M46.8589 324.388C46.8589 324.388 48.4167 342.077 69.656 341.622C64.8169 316.229 46.8589 324.388 46.8589 324.388Z" fill="black"/>
<path d="M86.328 325.139C86.328 325.139 94.1811 337.854 81.0614 364.542C71.3678 342.984 86.328 325.139 86.328 325.139Z" fill="black"/>
<path d="M80.6755 305.979C80.6755 305.979 87.4749 320.159 72.375 344.025C64.4394 320.705 80.6755 305.979 80.6755 305.979Z" fill="black"/>
<path d="M45.6859 298.317C45.6859 298.317 46.7337 313.597 65.0094 314.101C61.2665 292.056 45.6859 298.317 45.6859 298.317Z" fill="black"/>
<path d="M44.2938 268.925C44.2938 268.925 42.889 284.132 60.491 292.002C60.3591 269.162 44.2938 268.925 44.2938 268.925Z" fill="black"/>
<path d="M75.696 284.87C75.696 284.87 80.2443 298.415 65.3545 315.352C60.632 293.792 75.696 284.87 75.696 284.87Z" fill="black"/>
<path d="M75.0097 266.858C75.0097 266.858 78.4654 281.204 62.3701 295.043C59.3669 272.711 75.0097 266.858 75.0097 266.858Z" fill="black"/>
<path d="M46.4026 247.934C46.4026 247.934 45.1534 261.226 60.5347 268.17C60.4506 248.197 46.4026 247.934 46.4026 247.934Z" fill="black"/>
<path d="M49.3333 222.587C49.3333 222.587 46.0206 234.943 59.8029 247.874C62.8831 228.516 49.3333 222.587 49.3333 222.587Z" fill="black"/>
<path d="M74.5554 247.646C74.5554 247.646 76.5081 260.721 61.5524 269.73C60.5724 249.818 74.5554 247.646 74.5554 247.646Z" fill="black"/>
<path d="M75.591 231.794C75.591 231.794 76.5082 245.156 60.9661 251.116C61.5476 231.164 75.591 231.794 75.591 231.794Z" fill="black"/>
<path d="M53.6092 198.83C53.6092 198.83 50.1711 210.611 63.245 223.782C66.5923 205.222 53.6092 198.83 53.6092 198.83Z" fill="black"/>
<path d="M60.6743 176.606C60.6743 176.606 55.4832 186.614 66.0472 204.64C72.2236 188.035 60.6743 176.606 60.6743 176.606Z" fill="black"/>
<path d="M79.7677 210.885C79.7677 210.885 79.3365 223.865 63.9215 225.674C66.4274 206.779 79.7677 210.885 79.7677 210.885Z" fill="black"/>
<path d="M83.4468 196.638C83.4468 196.638 82.006 209.431 66.5701 208.156C70.531 189.907 83.4468 196.638 83.4468 196.638Z" fill="black"/>
<path d="M67.9826 156.035C67.9826 156.035 62.6364 166.031 73.1487 184.52C79.5545 167.877 67.9826 156.035 67.9826 156.035Z" fill="black"/>
<path d="M78.6321 137.426C78.6321 137.426 71.8774 144.938 79.1214 167.073C87.9535 153.558 78.6321 137.426 78.6321 137.426Z" fill="black"/>
<path d="M90.3726 177.389C90.3726 177.389 87.7541 189.854 72.4228 184.955C78.0654 167.62 90.3726 177.389 90.3726 177.389Z" fill="black"/>
<path d="M96.3713 165.093C96.3713 165.093 92.8005 176.94 77.9712 169.025C84.9225 152.95 96.3713 165.093 96.3713 165.093Z" fill="black"/>
<path d="M87.23 115.824C87.23 115.824 80.9611 124.343 89.51 145.256C97.4834 130.441 87.23 115.824 87.23 115.824Z" fill="black"/>
<path d="M99.5882 100.141C99.5882 100.141 92.1746 105.851 97.1353 129.538C107.195 118.426 99.5882 100.141 99.5882 100.141Z" fill="black"/>
<path d="M108.106 144.518C108.106 144.518 104.286 156.164 89.6334 147.451C96.9216 131.762 108.106 144.518 108.106 144.518Z" fill="black"/>
<path d="M115.247 133.893C115.247 133.893 110.548 144.687 96.6893 133.124C105.145 119.008 115.247 133.893 115.247 133.893Z" fill="black"/>
<path d="M113.531 93.8605C113.531 93.8605 107.055 98.4021 110.862 118.985C119.713 109.933 113.531 93.8605 113.531 93.8605Z" fill="black"/>
<path d="M126.124 85.8223C126.124 85.8223 119.141 87.6004 119.566 109.052C129.562 103.87 126.124 85.8223 126.124 85.8223Z" fill="black"/>
<path d="M126.283 125.706C126.283 125.706 121.34 133.786 110.625 120.84C119.047 110.798 126.283 125.706 126.283 125.706Z" fill="black"/>
<path d="M133.801 119.774C133.801 119.774 128.267 126.807 118.645 111.828C127.785 103.542 133.801 119.774 133.801 119.774Z" fill="black"/>
<path d="M134.652 84.3776C134.652 84.3776 129.07 86.7234 130.501 104.089C138.356 98.5898 134.652 84.3776 134.652 84.3776Z" fill="black"/>
<path d="M145.443 80.4552C145.443 80.4552 139.672 80.4701 138.308 97.8494C146.778 95.7022 145.443 80.4552 145.443 80.4552Z" fill="black"/>
<path d="M158.394 92.524C158.394 92.524 154.343 85.957 145.626 96.5813C152.521 104.73 158.394 92.524 158.394 92.524Z" fill="black"/>
<path d="M142.397 112.639C142.397 112.639 137.77 118.149 130.162 105.537C137.75 99.1523 142.397 112.639 142.397 112.639Z" fill="black"/>
<path d="M148.93 109.385C148.93 109.385 143.909 113.93 137.345 99.9007C145.372 95.0772 148.93 109.385 148.93 109.385Z" fill="black"/>
<path d="M146.691 95.5983L147.224 97.2994C48.7247 136.426 46.5949 310.796 85.4621 371.187C141.367 457.096 137.64 397.555 186.091 457.096L181.831 463.901C142.964 409.463 129.653 456.246 81.7351 374.59C21.5709 251.255 86.5269 107.506 146.691 95.5983Z" fill="black"/>
<path d="M416.113 449.127C416.113 449.127 405.339 458.476 391.73 428.277C408.895 418.52 416.113 449.127 416.113 449.127Z" fill="black"/>
<path d="M436.384 430.099C436.384 430.099 427.44 443.497 409.494 419.777C424.557 403.403 436.384 430.099 436.384 430.099Z" fill="black"/>
<path d="M402.347 387.384C402.347 387.384 390.167 389.619 389.886 426.826C407.445 419.06 402.347 387.384 402.347 387.384Z" fill="black"/>
<path d="M415.422 377.227C415.422 377.227 403.511 381.87 406.136 418.843C422.952 407.64 415.422 377.227 415.422 377.227Z" fill="black"/>
<path d="M454.948 409.875C454.948 409.875 447.055 424.863 427.484 404.687C441.234 385.591 454.948 409.875 454.948 409.875Z" fill="black"/>
<path d="M469.472 380.336C469.472 380.336 464.207 398.026 442.079 386.412C452.36 362.382 469.472 380.336 469.472 380.336Z" fill="black"/>
<path d="M428.023 360.424C428.023 360.424 417.194 369.61 425.437 404.412C440.008 386.94 428.023 360.424 428.023 360.424Z" fill="black"/>
<path d="M437.873 343.342C437.873 343.342 427.846 354.612 438.74 387.501C451.835 367.263 437.873 343.342 437.873 343.342Z" fill="black"/>
<path d="M476.629 356.424C476.629 356.424 472.322 372.908 451.845 363.888C460.546 341.275 476.629 356.424 476.629 356.424Z" fill="black"/>
<path d="M484.217 324.388C484.217 324.388 482.66 342.077 461.42 341.622C466.26 316.228 484.217 324.388 484.217 324.388Z" fill="black"/>
<path d="M444.748 325.139C444.748 325.139 436.895 337.854 450.015 364.542C459.709 342.983 444.748 325.139 444.748 325.139Z" fill="black"/>
<path d="M450.401 305.979C450.401 305.979 443.601 320.159 458.701 344.025C466.637 320.704 450.401 305.979 450.401 305.979Z" fill="black"/>
<path d="M485.392 298.317C485.392 298.317 484.344 313.597 466.069 314.101C469.812 292.056 485.392 298.317 485.392 298.317Z" fill="black"/>
<path d="M486.783 268.925C486.783 268.925 488.187 284.132 470.585 292.002C470.717 269.161 486.783 268.925 486.783 268.925Z" fill="black"/>
<path d="M455.38 284.869C455.38 284.869 450.832 298.415 465.722 315.352C470.444 293.792 455.38 284.869 455.38 284.869Z" fill="black"/>
<path d="M456.067 266.858C456.067 266.858 452.612 281.204 468.707 295.043C471.71 272.711 456.067 266.858 456.067 266.858Z" fill="black"/>
<path d="M484.674 247.934C484.674 247.934 485.924 261.226 470.542 268.17C470.626 248.196 484.674 247.934 484.674 247.934Z" fill="black"/>
<path d="M481.744 222.587C481.744 222.587 485.057 234.943 471.274 247.874C468.194 228.516 481.744 222.587 481.744 222.587Z" fill="black"/>
<path d="M456.522 247.646C456.522 247.646 454.57 260.721 469.525 269.73C470.505 249.817 456.522 247.646 456.522 247.646Z" fill="black"/>
<path d="M455.485 231.794C455.485 231.794 454.568 245.156 470.11 251.116C469.529 231.164 455.485 231.794 455.485 231.794Z" fill="black"/>
<path d="M477.468 198.83C477.468 198.83 480.906 210.611 467.832 223.782C464.485 205.222 477.468 198.83 477.468 198.83Z" fill="black"/>
<path d="M470.403 176.605C470.403 176.605 475.594 186.614 465.03 204.64C458.854 188.035 470.403 176.605 470.403 176.605Z" fill="black"/>
<path d="M451.31 210.885C451.31 210.885 451.741 223.865 467.156 225.675C464.65 206.779 451.31 210.885 451.31 210.885Z" fill="black"/>
<path d="M447.63 196.638C447.63 196.638 449.071 209.431 464.507 208.156C460.546 189.907 447.63 196.638 447.63 196.638Z" fill="black"/>
<path d="M463.095 156.035C463.095 156.035 468.441 166.031 457.928 184.52C451.523 167.877 463.095 156.035 463.095 156.035Z" fill="black"/>
<path d="M452.445 137.426C452.445 137.426 459.199 144.938 451.955 167.073C443.123 153.558 452.445 137.426 452.445 137.426Z" fill="black"/>
<path d="M440.705 177.389C440.705 177.389 443.323 189.854 458.654 184.955C453.012 167.62 440.705 177.389 440.705 177.389Z" fill="black"/>
<path d="M434.706 165.093C434.706 165.093 438.277 176.94 453.106 169.025C446.155 152.95 434.706 165.093 434.706 165.093Z" fill="black"/>
<path d="M443.846 117.525C443.846 117.525 450.115 126.044 441.566 146.958C433.593 132.143 443.846 117.525 443.846 117.525Z" fill="black"/>
<path d="M430.423 103.544C430.423 103.544 437.837 109.254 432.876 132.941C422.817 121.829 430.423 103.544 430.423 103.544Z" fill="black"/>
<path d="M422.971 144.518C422.971 144.518 426.791 156.164 441.444 147.451C434.156 131.762 422.971 144.518 422.971 144.518Z" fill="black"/>
<path d="M414.765 133.893C414.765 133.893 419.464 144.688 433.323 133.125C424.867 119.009 414.765 133.893 414.765 133.893Z" fill="black"/>
<path d="M417.547 93.8605C417.547 93.8605 424.022 98.4021 420.215 118.985C411.364 109.933 417.547 93.8605 417.547 93.8605Z" fill="black"/>
<path d="M404.952 85.8223C404.952 85.8223 411.936 87.6004 411.51 109.052C401.515 103.87 404.952 85.8223 404.952 85.8223Z" fill="black"/>
<path d="M404.794 125.705C404.794 125.705 409.736 133.786 420.452 120.84C412.03 110.798 404.794 125.705 404.794 125.705Z" fill="black"/>
<path d="M397.275 119.774C397.275 119.774 402.81 126.807 412.431 111.828C403.292 103.542 397.275 119.774 397.275 119.774Z" fill="black"/>
<path d="M396.425 84.3776C396.425 84.3776 402.007 86.7234 400.576 104.089C392.721 98.5898 396.425 84.3776 396.425 84.3776Z" fill="black"/>
<path d="M385.633 80.4551C385.633 80.4551 391.404 80.4699 392.769 97.8493C384.299 95.7021 385.633 80.4551 385.633 80.4551Z" fill="black"/>
<path d="M372.683 92.5239C372.683 92.5239 376.734 85.9569 385.451 96.5812C378.556 104.73 372.683 92.5239 372.683 92.5239Z" fill="black"/>
<path d="M388.68 112.639C388.68 112.639 393.307 118.149 400.915 105.537C393.327 99.1523 388.68 112.639 388.68 112.639Z" fill="black"/>
<path d="M382.147 109.385C382.147 109.385 387.168 113.93 393.732 99.9006C385.705 95.0771 382.147 109.385 382.147 109.385Z" fill="black"/>
<path d="M384.387 95.5983L383.854 97.2994C482.353 136.426 484.483 310.796 445.616 371.187C389.711 457.096 393.438 397.555 344.987 457.096L349.246 463.901C388.113 409.463 401.424 456.246 449.343 374.59C509.507 251.255 444.551 107.506 384.387 95.5983Z" fill="black"/>
<path d="M241.134 459.62C241.521 459.62 241.827 459.733 242.054 459.96C242.281 460.187 242.394 460.48 242.394 460.84V463H223.274V461.78C223.274 461.527 223.327 461.267 223.434 461C223.541 460.733 223.707 460.487 223.934 460.26L233.114 451.04C233.874 450.267 234.567 449.527 235.194 448.82C235.821 448.1 236.354 447.38 236.794 446.66C237.234 445.94 237.574 445.213 237.814 444.48C238.054 443.733 238.174 442.94 238.174 442.1C238.174 441.26 238.041 440.527 237.774 439.9C237.507 439.26 237.141 438.733 236.674 438.32C236.221 437.907 235.681 437.6 235.054 437.4C234.427 437.187 233.754 437.08 233.034 437.08C232.301 437.08 231.627 437.187 231.014 437.4C230.401 437.613 229.854 437.913 229.374 438.3C228.907 438.673 228.514 439.12 228.194 439.64C227.874 440.16 227.647 440.733 227.514 441.36C227.354 441.827 227.134 442.14 226.854 442.3C226.587 442.447 226.207 442.487 225.714 442.42L223.854 442.1C224.041 440.793 224.401 439.64 224.934 438.64C225.481 437.627 226.161 436.78 226.974 436.1C227.801 435.42 228.741 434.907 229.794 434.56C230.847 434.2 231.987 434.02 233.214 434.02C234.427 434.02 235.561 434.2 236.614 434.56C237.667 434.92 238.581 435.447 239.354 436.14C240.127 436.82 240.734 437.653 241.174 438.64C241.614 439.627 241.834 440.747 241.834 442C241.834 443.067 241.674 444.06 241.354 444.98C241.034 445.887 240.601 446.753 240.054 447.58C239.507 448.407 238.874 449.213 238.154 450C237.447 450.787 236.694 451.58 235.894 452.38L228.334 460.1C228.867 459.953 229.407 459.84 229.954 459.76C230.501 459.667 231.027 459.62 231.534 459.62H241.134ZM267.397 448.68C267.397 451.187 267.124 453.36 266.577 455.2C266.044 457.027 265.31 458.54 264.377 459.74C263.444 460.94 262.337 461.833 261.057 462.42C259.79 463.007 258.43 463.3 256.977 463.3C255.51 463.3 254.144 463.007 252.877 462.42C251.624 461.833 250.53 460.94 249.597 459.74C248.664 458.54 247.93 457.027 247.397 455.2C246.864 453.36 246.597 451.187 246.597 448.68C246.597 446.173 246.864 444 247.397 442.16C247.93 440.32 248.664 438.8 249.597 437.6C250.53 436.387 251.624 435.487 252.877 434.9C254.144 434.313 255.51 434.02 256.977 434.02C258.43 434.02 259.79 434.313 261.057 434.9C262.337 435.487 263.444 436.387 264.377 437.6C265.31 438.8 266.044 440.32 266.577 442.16C267.124 444 267.397 446.173 267.397 448.68ZM263.697 448.68C263.697 446.493 263.51 444.66 263.137 443.18C262.777 441.687 262.284 440.487 261.657 439.58C261.044 438.673 260.33 438.027 259.517 437.64C258.704 437.24 257.857 437.04 256.977 437.04C256.097 437.04 255.25 437.24 254.437 437.64C253.624 438.027 252.91 438.673 252.297 439.58C251.684 440.487 251.19 441.687 250.817 443.18C250.457 444.66 250.277 446.493 250.277 448.68C250.277 450.867 250.457 452.7 250.817 454.18C251.19 455.66 251.684 456.853 252.297 457.76C252.91 458.667 253.624 459.32 254.437 459.72C255.25 460.107 256.097 460.3 256.977 460.3C257.857 460.3 258.704 460.107 259.517 459.72C260.33 459.32 261.044 458.667 261.657 457.76C262.284 456.853 262.777 455.66 263.137 454.18C263.51 452.7 263.697 450.867 263.697 448.68ZM289.14 459.62C289.527 459.62 289.833 459.733 290.06 459.96C290.287 460.187 290.4 460.48 290.4 460.84V463H271.28V461.78C271.28 461.527 271.333 461.267 271.44 461C271.547 460.733 271.713 460.487 271.94 460.26L281.12 451.04C281.88 450.267 282.573 449.527 283.2 448.82C283.827 448.1 284.36 447.38 284.8 446.66C285.24 445.94 285.58 445.213 285.82 444.48C286.06 443.733 286.18 442.94 286.18 442.1C286.18 441.26 286.047 440.527 285.78 439.9C285.513 439.26 285.147 438.733 284.68 438.32C284.227 437.907 283.687 437.6 283.06 437.4C282.433 437.187 281.76 437.08 281.04 437.08C280.307 437.08 279.633 437.187 279.02 437.4C278.407 437.613 277.86 437.913 277.38 438.3C276.913 438.673 276.52 439.12 276.2 439.64C275.88 440.16 275.653 440.733 275.52 441.36C275.36 441.827 275.14 442.14 274.86 442.3C274.593 442.447 274.213 442.487 273.72 442.42L271.86 442.1C272.047 440.793 272.407 439.64 272.94 438.64C273.487 437.627 274.167 436.78 274.98 436.1C275.807 435.42 276.747 434.907 277.8 434.56C278.853 434.2 279.993 434.02 281.22 434.02C282.433 434.02 283.567 434.2 284.62 434.56C285.673 434.92 286.587 435.447 287.36 436.14C288.133 436.82 288.74 437.653 289.18 438.64C289.62 439.627 289.84 440.747 289.84 442C289.84 443.067 289.68 444.06 289.36 444.98C289.04 445.887 288.607 446.753 288.06 447.58C287.513 448.407 286.88 449.213 286.16 450C285.453 450.787 284.7 451.58 283.9 452.38L276.34 460.1C276.873 459.953 277.413 459.84 277.96 459.76C278.507 459.667 279.033 459.62 279.54 459.62H289.14ZM300.643 445.16C302.137 444.84 303.51 444.68 304.763 444.68C306.257 444.68 307.577 444.9 308.723 445.34C309.87 445.78 310.823 446.387 311.583 447.16C312.357 447.933 312.937 448.847 313.323 449.9C313.723 450.953 313.923 452.1 313.923 453.34C313.923 454.86 313.657 456.233 313.123 457.46C312.603 458.687 311.877 459.74 310.943 460.62C310.023 461.487 308.937 462.153 307.683 462.62C306.43 463.087 305.077 463.32 303.623 463.32C302.783 463.32 301.977 463.233 301.203 463.06C300.43 462.9 299.703 462.68 299.023 462.4C298.357 462.12 297.737 461.8 297.163 461.44C296.59 461.08 296.083 460.7 295.643 460.3L296.743 458.78C296.983 458.433 297.297 458.26 297.683 458.26C297.95 458.26 298.25 458.367 298.583 458.58C298.917 458.78 299.323 459.007 299.803 459.26C300.283 459.513 300.843 459.747 301.483 459.96C302.137 460.16 302.91 460.26 303.803 460.26C304.803 460.26 305.703 460.1 306.503 459.78C307.303 459.46 307.99 459.007 308.563 458.42C309.137 457.82 309.577 457.107 309.883 456.28C310.19 455.453 310.343 454.527 310.343 453.5C310.343 452.607 310.21 451.8 309.943 451.08C309.69 450.36 309.297 449.747 308.763 449.24C308.243 448.733 307.59 448.34 306.803 448.06C306.017 447.78 305.097 447.64 304.043 447.64C303.323 447.64 302.57 447.7 301.783 447.82C301.01 447.94 300.217 448.133 299.403 448.4L297.163 447.74L299.463 434.34H313.043V435.9C313.043 436.407 312.883 436.827 312.563 437.16C312.257 437.48 311.723 437.64 310.963 437.64H301.963L300.643 445.16Z" fill="black"/>
<path d="M189.98 187.775H179.38V218H171.855V187.775H161.255V181.725H189.98V187.775ZM228.957 199.85C228.957 202.5 228.507 204.958 227.607 207.225C226.723 209.492 225.465 211.45 223.832 213.1C222.215 214.75 220.265 216.05 217.982 217C215.698 217.933 213.165 218.4 210.382 218.4C207.598 218.4 205.065 217.933 202.782 217C200.498 216.05 198.54 214.75 196.907 213.1C195.273 211.45 194.007 209.492 193.107 207.225C192.223 204.958 191.782 202.5 191.782 199.85C191.782 197.2 192.223 194.75 193.107 192.5C194.007 190.233 195.273 188.275 196.907 186.625C198.54 184.975 200.498 183.683 202.782 182.75C205.065 181.8 207.598 181.325 210.382 181.325C213.165 181.325 215.698 181.8 217.982 182.75C220.265 183.683 222.215 184.983 223.832 186.65C225.465 188.3 226.723 190.258 227.607 192.525C228.507 194.775 228.957 197.217 228.957 199.85ZM221.282 199.85C221.282 197.95 221.032 196.25 220.532 194.75C220.032 193.233 219.307 191.95 218.357 190.9C217.423 189.833 216.282 189.025 214.932 188.475C213.598 187.908 212.082 187.625 210.382 187.625C208.682 187.625 207.157 187.908 205.807 188.475C204.457 189.025 203.307 189.833 202.357 190.9C201.423 191.95 200.707 193.233 200.207 194.75C199.707 196.25 199.457 197.95 199.457 199.85C199.457 201.767 199.707 203.483 200.207 205C200.707 206.5 201.423 207.775 202.357 208.825C203.307 209.875 204.457 210.683 205.807 211.25C207.157 211.8 208.682 212.075 210.382 212.075C212.082 212.075 213.598 211.8 214.932 211.25C216.282 210.683 217.423 209.875 218.357 208.825C219.307 207.775 220.032 206.5 220.532 205C221.032 203.483 221.282 201.767 221.282 199.85ZM269.984 199.85C269.984 202.5 269.534 204.958 268.634 207.225C267.751 209.492 266.492 211.45 264.859 213.1C263.242 214.75 261.292 216.05 259.009 217C256.726 217.933 254.192 218.4 251.409 218.4C248.626 218.4 246.092 217.933 243.809 217C241.526 216.05 239.567 214.75 237.934 213.1C236.301 211.45 235.034 209.492 234.134 207.225C233.251 204.958 232.809 202.5 232.809 199.85C232.809 197.2 233.251 194.75 234.134 192.5C235.034 190.233 236.301 188.275 237.934 186.625C239.567 184.975 241.526 183.683 243.809 182.75C246.092 181.8 248.626 181.325 251.409 181.325C254.192 181.325 256.726 181.8 259.009 182.75C261.292 183.683 263.242 184.983 264.859 186.65C266.492 188.3 267.751 190.258 268.634 192.525C269.534 194.775 269.984 197.217 269.984 199.85ZM262.309 199.85C262.309 197.95 262.059 196.25 261.559 194.75C261.059 193.233 260.334 191.95 259.384 190.9C258.451 189.833 257.309 189.025 255.959 188.475C254.626 187.908 253.109 187.625 251.409 187.625C249.709 187.625 248.184 187.908 246.834 188.475C245.484 189.025 244.334 189.833 243.384 190.9C242.451 191.95 241.734 193.233 241.234 194.75C240.734 196.25 240.484 197.95 240.484 199.85C240.484 201.767 240.734 203.483 241.234 205C241.734 206.5 242.451 207.775 243.384 208.825C244.334 209.875 245.484 210.683 246.834 211.25C248.184 211.8 249.709 212.075 251.409 212.075C253.109 212.075 254.626 211.8 255.959 211.25C257.309 210.683 258.451 209.875 259.384 208.825C260.334 207.775 261.059 206.5 261.559 205C262.059 203.483 262.309 201.767 262.309 199.85ZM307.036 181.725V218H303.161C302.578 218 302.086 217.908 301.686 217.725C301.286 217.525 300.895 217.192 300.511 216.725L282.436 193.725C282.486 194.308 282.52 194.883 282.536 195.45C282.57 196.017 282.586 196.542 282.586 197.025V218H275.961V181.725H279.911C280.228 181.725 280.495 181.742 280.711 181.775C280.945 181.792 281.153 181.85 281.336 181.95C281.52 182.033 281.695 182.15 281.861 182.3C282.028 182.45 282.211 182.65 282.411 182.9L300.611 206C300.545 205.367 300.495 204.758 300.461 204.175C300.428 203.575 300.411 203.008 300.411 202.475V181.725H307.036ZM331.533 204.05V218H324.033V204.05L310.858 181.725H317.458C318.108 181.725 318.625 181.883 319.008 182.2C319.408 182.5 319.725 182.892 319.958 183.375L325.908 194.8C326.308 195.567 326.667 196.283 326.983 196.95C327.317 197.617 327.608 198.283 327.858 198.95C328.092 198.283 328.358 197.617 328.658 196.95C328.975 196.267 329.325 195.55 329.708 194.8L335.608 183.375C335.808 182.975 336.108 182.6 336.508 182.25C336.908 181.9 337.425 181.725 338.058 181.725H344.708L331.533 204.05ZM373.868 184.475C373.868 184.858 373.802 185.25 373.668 185.65C373.552 186.033 373.377 186.392 373.143 186.725L355.243 212.125H373.368V218H345.618V215.075C345.618 214.725 345.677 214.383 345.793 214.05C345.91 213.7 346.077 213.383 346.293 213.1L364.243 187.6H346.893V181.725H373.868V184.475ZM262.287 226.725L251.037 263H244.262L236.837 239.275C236.72 238.942 236.603 238.575 236.487 238.175C236.37 237.775 236.262 237.35 236.162 236.9C236.062 237.35 235.953 237.775 235.837 238.175C235.72 238.575 235.603 238.942 235.487 239.275L227.987 263H221.187L209.962 226.725H216.262C216.912 226.725 217.453 226.875 217.887 227.175C218.337 227.475 218.628 227.875 218.762 228.375L224.387 248.825C224.52 249.392 224.653 250.008 224.787 250.675C224.937 251.325 225.078 252.017 225.212 252.75C225.362 252 225.52 251.3 225.687 250.65C225.853 250 226.037 249.392 226.237 248.825L232.787 228.375C232.92 227.958 233.203 227.583 233.637 227.25C234.087 226.9 234.628 226.725 235.262 226.725H237.462C238.112 226.725 238.637 226.883 239.037 227.2C239.453 227.5 239.762 227.892 239.962 228.375L246.487 248.825C246.687 249.358 246.87 249.942 247.037 250.575C247.203 251.192 247.362 251.85 247.512 252.55C247.645 251.85 247.77 251.192 247.887 250.575C248.02 249.942 248.153 249.358 248.287 248.825L253.912 228.375C254.028 227.942 254.312 227.558 254.762 227.225C255.212 226.892 255.753 226.725 256.387 226.725H262.287ZM274.418 232.6V241.925H286.518V247.6H274.418V257.125H289.968V263H266.868V226.725H289.968V232.6H274.418ZM310.004 257.25C311.204 257.25 312.187 257.108 312.954 256.825C313.737 256.525 314.362 256.133 314.829 255.65C315.295 255.167 315.62 254.617 315.804 254C315.987 253.367 316.079 252.717 316.079 252.05C316.079 251.317 315.97 250.658 315.754 250.075C315.537 249.492 315.187 249 314.704 248.6C314.22 248.183 313.587 247.867 312.804 247.65C312.037 247.433 311.087 247.325 309.954 247.325H303.579V257.25H310.004ZM303.579 232.425V242.225H308.504C309.554 242.225 310.487 242.142 311.304 241.975C312.12 241.792 312.804 241.508 313.354 241.125C313.904 240.742 314.32 240.242 314.604 239.625C314.904 238.992 315.054 238.233 315.054 237.35C315.054 236.45 314.929 235.683 314.679 235.05C314.445 234.417 314.079 233.908 313.579 233.525C313.079 233.142 312.445 232.867 311.679 232.7C310.912 232.517 310.004 232.425 308.954 232.425H303.579ZM308.954 226.725C311.387 226.725 313.462 226.958 315.179 227.425C316.912 227.875 318.32 228.525 319.404 229.375C320.504 230.208 321.304 231.225 321.804 232.425C322.304 233.625 322.554 234.967 322.554 236.45C322.554 237.283 322.429 238.083 322.179 238.85C321.945 239.617 321.57 240.342 321.054 241.025C320.554 241.692 319.904 242.3 319.104 242.85C318.304 243.4 317.354 243.867 316.254 244.25C318.72 244.833 320.545 245.783 321.729 247.1C322.912 248.417 323.504 250.125 323.504 252.225C323.504 253.758 323.204 255.183 322.604 256.5C322.02 257.817 321.162 258.958 320.029 259.925C318.895 260.892 317.495 261.65 315.829 262.2C314.179 262.733 312.279 263 310.129 263H296.079V226.725H308.954ZM217.749 271.725V308H213.874C213.291 308 212.799 307.908 212.399 307.725C211.999 307.525 211.608 307.192 211.224 306.725L193.149 283.725C193.199 284.308 193.233 284.883 193.249 285.45C193.283 286.017 193.299 286.542 193.299 287.025V308H186.674V271.725H190.624C190.941 271.725 191.208 271.742 191.424 271.775C191.658 271.792 191.866 271.85 192.049 271.95C192.233 272.033 192.408 272.15 192.574 272.3C192.741 272.45 192.924 272.65 193.124 272.9L211.324 296C211.258 295.367 211.208 294.758 211.174 294.175C211.141 293.575 211.124 293.008 211.124 292.475V271.725H217.749ZM260.896 289.85C260.896 292.5 260.446 294.958 259.546 297.225C258.663 299.492 257.404 301.45 255.771 303.1C254.154 304.75 252.204 306.05 249.921 307C247.638 307.933 245.104 308.4 242.321 308.4C239.538 308.4 237.004 307.933 234.721 307C232.438 306.05 230.479 304.75 228.846 303.1C227.213 301.45 225.946 299.492 225.046 297.225C224.163 294.958 223.721 292.5 223.721 289.85C223.721 287.2 224.163 284.75 225.046 282.5C225.946 280.233 227.213 278.275 228.846 276.625C230.479 274.975 232.438 273.683 234.721 272.75C237.004 271.8 239.538 271.325 242.321 271.325C245.104 271.325 247.638 271.8 249.921 272.75C252.204 273.683 254.154 274.983 255.771 276.65C257.404 278.3 258.663 280.258 259.546 282.525C260.446 284.775 260.896 287.217 260.896 289.85ZM253.221 289.85C253.221 287.95 252.971 286.25 252.471 284.75C251.971 283.233 251.246 281.95 250.296 280.9C249.363 279.833 248.221 279.025 246.871 278.475C245.538 277.908 244.021 277.625 242.321 277.625C240.621 277.625 239.096 277.908 237.746 278.475C236.396 279.025 235.246 279.833 234.296 280.9C233.363 281.95 232.646 283.233 232.146 284.75C231.646 286.25 231.396 287.95 231.396 289.85C231.396 291.767 231.646 293.483 232.146 295C232.646 296.5 233.363 297.775 234.296 298.825C235.246 299.875 236.396 300.683 237.746 301.25C239.096 301.8 240.621 302.075 242.321 302.075C244.021 302.075 245.538 301.8 246.871 301.25C248.221 300.683 249.363 299.875 250.296 298.825C251.246 297.775 251.971 296.5 252.471 295C252.971 293.483 253.221 291.767 253.221 289.85ZM297.354 271.725L282.754 308H275.954L261.354 271.725H267.404C268.054 271.725 268.579 271.883 268.979 272.2C269.396 272.5 269.704 272.892 269.904 273.375L277.754 294.275C278.054 295.058 278.346 295.917 278.629 296.85C278.929 297.767 279.204 298.733 279.454 299.75C279.671 298.733 279.904 297.767 280.154 296.85C280.421 295.917 280.704 295.058 281.004 294.275L288.804 273.375C288.971 272.958 289.262 272.583 289.679 272.25C290.112 271.9 290.646 271.725 291.279 271.725H297.354ZM308.761 277.6V286.925H320.861V292.6H308.761V302.125H324.311V308H301.211V271.725H324.311V277.6H308.761ZM351.947 301.9V308H330.422V271.725H337.922V301.9H351.947ZM208.558 316.725L197.308 353H190.533L183.108 329.275C182.992 328.942 182.875 328.575 182.758 328.175C182.642 327.775 182.533 327.35 182.433 326.9C182.333 327.35 182.225 327.775 182.108 328.175C181.992 328.575 181.875 328.942 181.758 329.275L174.258 353H167.458L156.233 316.725H162.533C163.183 316.725 163.725 316.875 164.158 317.175C164.608 317.475 164.9 317.875 165.033 318.375L170.658 338.825C170.792 339.392 170.925 340.008 171.058 340.675C171.208 341.325 171.35 342.017 171.483 342.75C171.633 342 171.792 341.3 171.958 340.65C172.125 340 172.308 339.392 172.508 338.825L179.058 318.375C179.192 317.958 179.475 317.583 179.908 317.25C180.358 316.9 180.9 316.725 181.533 316.725H183.733C184.383 316.725 184.908 316.883 185.308 317.2C185.725 317.5 186.033 317.892 186.233 318.375L192.758 338.825C192.958 339.358 193.142 339.942 193.308 340.575C193.475 341.192 193.633 341.85 193.783 342.55C193.917 341.85 194.042 341.192 194.158 340.575C194.292 339.942 194.425 339.358 194.558 338.825L200.183 318.375C200.3 317.942 200.583 317.558 201.033 317.225C201.483 316.892 202.025 316.725 202.658 316.725H208.558ZM224.489 333.9C225.706 333.9 226.756 333.75 227.639 333.45C228.522 333.133 229.247 332.708 229.814 332.175C230.381 331.625 230.797 330.983 231.064 330.25C231.331 329.517 231.464 328.717 231.464 327.85C231.464 326.133 230.889 324.8 229.739 323.85C228.606 322.9 226.872 322.425 224.539 322.425H220.639V333.9H224.489ZM242.064 353H235.289C234.022 353 233.106 352.517 232.539 351.55L225.639 340.425C225.356 339.992 225.039 339.675 224.689 339.475C224.356 339.275 223.856 339.175 223.189 339.175H220.639V353H213.139V316.725H224.539C227.072 316.725 229.239 316.992 231.039 317.525C232.839 318.042 234.314 318.767 235.464 319.7C236.614 320.633 237.456 321.75 237.989 323.05C238.522 324.333 238.789 325.75 238.789 327.3C238.789 328.5 238.614 329.642 238.264 330.725C237.931 331.792 237.439 332.767 236.789 333.65C236.139 334.533 235.339 335.317 234.389 336C233.439 336.683 232.356 337.233 231.139 337.65C231.622 337.917 232.072 338.242 232.489 338.625C232.906 338.992 233.281 339.433 233.614 339.95L242.064 353ZM253.66 353H246.11V316.725H253.66V353ZM287.421 322.775H276.821V353H269.296V322.775H258.696V316.725H287.421V322.775ZM299.972 353H292.422V316.725H299.972V353ZM339.134 316.725V353H335.259C334.676 353 334.184 352.908 333.784 352.725C333.384 352.525 332.992 352.192 332.609 351.725L314.534 328.725C314.584 329.308 314.617 329.883 314.634 330.45C314.667 331.017 314.684 331.542 314.684 332.025V353H308.059V316.725H312.009C312.326 316.725 312.592 316.742 312.809 316.775C313.042 316.792 313.251 316.85 313.434 316.95C313.617 317.033 313.792 317.15 313.959 317.3C314.126 317.45 314.309 317.65 314.509 317.9L332.709 341C332.642 340.367 332.592 339.758 332.559 339.175C332.526 338.575 332.509 338.008 332.509 337.475V316.725H339.134ZM364.881 334.525H377.331V349.5C375.481 350.85 373.506 351.842 371.406 352.475C369.323 353.092 367.114 353.4 364.781 353.4C361.798 353.4 359.098 352.942 356.681 352.025C354.264 351.092 352.198 349.8 350.481 348.15C348.764 346.5 347.439 344.542 346.506 342.275C345.573 340.008 345.106 337.533 345.106 334.85C345.106 332.133 345.548 329.642 346.431 327.375C347.331 325.108 348.606 323.158 350.256 321.525C351.906 319.892 353.898 318.617 356.231 317.7C358.581 316.783 361.206 316.325 364.106 316.325C365.606 316.325 367.006 316.45 368.306 316.7C369.606 316.933 370.806 317.267 371.906 317.7C373.006 318.117 374.014 318.617 374.931 319.2C375.848 319.783 376.681 320.425 377.431 321.125L375.256 324.475C374.923 325.008 374.489 325.333 373.956 325.45C373.423 325.567 372.839 325.433 372.206 325.05C371.606 324.683 371.014 324.358 370.431 324.075C369.864 323.775 369.256 323.517 368.606 323.3C367.956 323.083 367.248 322.917 366.481 322.8C365.714 322.683 364.831 322.625 363.831 322.625C362.148 322.625 360.623 322.917 359.256 323.5C357.889 324.083 356.723 324.908 355.756 325.975C354.806 327.042 354.073 328.325 353.556 329.825C353.039 331.325 352.781 333 352.781 334.85C352.781 336.85 353.064 338.642 353.631 340.225C354.198 341.792 354.998 343.117 356.031 344.2C357.064 345.283 358.298 346.108 359.731 346.675C361.181 347.242 362.789 347.525 364.556 347.525C365.756 347.525 366.823 347.408 367.756 347.175C368.706 346.925 369.631 346.592 370.531 346.175V340.075H366.431C365.948 340.075 365.564 339.95 365.281 339.7C365.014 339.433 364.881 339.1 364.881 338.7V334.525ZM220.676 389.075C221.093 389.075 221.443 389.225 221.726 389.525L224.701 392.7C223.234 394.567 221.409 395.983 219.226 396.95C217.059 397.917 214.476 398.4 211.476 398.4C208.759 398.4 206.318 397.942 204.151 397.025C201.984 396.092 200.143 394.8 198.626 393.15C197.109 391.5 195.943 389.542 195.126 387.275C194.309 385.008 193.901 382.533 193.901 379.85C193.901 378.05 194.093 376.342 194.476 374.725C194.876 373.092 195.451 371.592 196.201 370.225C196.951 368.858 197.851 367.625 198.901 366.525C199.968 365.425 201.168 364.492 202.501 363.725C203.834 362.942 205.284 362.35 206.851 361.95C208.434 361.533 210.118 361.325 211.901 361.325C213.234 361.325 214.493 361.442 215.676 361.675C216.876 361.908 217.993 362.233 219.026 362.65C220.059 363.067 221.009 363.575 221.876 364.175C222.759 364.758 223.551 365.4 224.251 366.1L221.726 369.55C221.576 369.767 221.384 369.958 221.151 370.125C220.918 370.292 220.601 370.375 220.201 370.375C219.801 370.375 219.393 370.233 218.976 369.95C218.576 369.667 218.076 369.35 217.476 369C216.893 368.65 216.151 368.333 215.251 368.05C214.368 367.767 213.243 367.625 211.876 367.625C210.359 367.625 208.968 367.9 207.701 368.45C206.434 369 205.343 369.8 204.426 370.85C203.526 371.883 202.826 373.158 202.326 374.675C201.826 376.192 201.576 377.917 201.576 379.85C201.576 381.8 201.843 383.542 202.376 385.075C202.926 386.592 203.668 387.875 204.601 388.925C205.551 389.975 206.651 390.775 207.901 391.325C209.168 391.858 210.518 392.125 211.951 392.125C212.801 392.125 213.568 392.083 214.251 392C214.951 391.917 215.593 391.775 216.176 391.575C216.776 391.375 217.334 391.117 217.851 390.8C218.384 390.483 218.918 390.083 219.451 389.6C219.634 389.45 219.826 389.325 220.026 389.225C220.226 389.125 220.443 389.075 220.676 389.075ZM250.96 391.9V398H229.435V361.725H236.935V391.9H250.96ZM275.208 384.225L271.283 373.125C271.05 372.542 270.8 371.858 270.533 371.075C270.283 370.292 270.041 369.442 269.808 368.525C269.575 369.458 269.325 370.325 269.058 371.125C268.808 371.908 268.566 372.592 268.333 373.175L264.433 384.225H275.208ZM287.808 398H281.983C281.333 398 280.8 397.85 280.383 397.55C279.983 397.233 279.683 396.833 279.483 396.35L277.033 389.425H262.583L260.133 396.35C259.966 396.767 259.675 397.15 259.258 397.5C258.841 397.833 258.316 398 257.683 398H251.808L265.983 361.725H273.658L287.808 398ZM311.315 368.675C311.082 369.058 310.84 369.342 310.59 369.525C310.357 369.692 310.049 369.775 309.665 369.775C309.299 369.775 308.899 369.65 308.465 369.4C308.049 369.133 307.557 368.85 306.99 368.55C306.424 368.25 305.774 367.975 305.04 367.725C304.307 367.458 303.449 367.325 302.465 367.325C300.732 367.325 299.432 367.717 298.565 368.5C297.699 369.267 297.265 370.275 297.265 371.525C297.265 372.325 297.499 372.992 297.965 373.525C298.449 374.042 299.074 374.492 299.84 374.875C300.624 375.258 301.507 375.6 302.49 375.9C303.474 376.2 304.482 376.533 305.515 376.9C306.549 377.25 307.557 377.667 308.54 378.15C309.524 378.633 310.399 379.242 311.165 379.975C311.949 380.708 312.574 381.608 313.04 382.675C313.524 383.725 313.765 385.008 313.765 386.525C313.765 388.175 313.474 389.725 312.89 391.175C312.324 392.608 311.499 393.867 310.415 394.95C309.332 396.017 307.99 396.858 306.39 397.475C304.807 398.092 303.007 398.4 300.99 398.4C299.84 398.4 298.69 398.283 297.54 398.05C296.407 397.817 295.307 397.492 294.24 397.075C293.19 396.658 292.199 396.158 291.265 395.575C290.332 394.992 289.515 394.342 288.815 393.625L291.015 390.075C291.199 389.808 291.44 389.592 291.74 389.425C292.04 389.242 292.357 389.15 292.69 389.15C293.14 389.15 293.615 389.317 294.115 389.65C294.615 389.983 295.19 390.35 295.84 390.75C296.49 391.15 297.24 391.517 298.09 391.85C298.957 392.183 299.99 392.35 301.19 392.35C302.94 392.35 304.29 391.95 305.24 391.15C306.207 390.35 306.69 389.158 306.69 387.575C306.69 386.658 306.449 385.917 305.965 385.35C305.499 384.783 304.882 384.308 304.115 383.925C303.349 383.542 302.474 383.217 301.49 382.95C300.507 382.667 299.499 382.358 298.465 382.025C297.432 381.692 296.424 381.292 295.44 380.825C294.457 380.358 293.582 379.742 292.815 378.975C292.049 378.208 291.424 377.258 290.94 376.125C290.474 374.992 290.24 373.583 290.24 371.9C290.24 370.55 290.507 369.242 291.04 367.975C291.574 366.708 292.357 365.583 293.39 364.6C294.424 363.617 295.69 362.825 297.19 362.225C298.707 361.625 300.44 361.325 302.39 361.325C304.574 361.325 306.59 361.667 308.44 362.35C310.307 363.017 311.882 363.95 313.165 365.15L311.315 368.675ZM339.354 368.675C339.121 369.058 338.879 369.342 338.629 369.525C338.396 369.692 338.088 369.775 337.704 369.775C337.338 369.775 336.938 369.65 336.504 369.4C336.088 369.133 335.596 368.85 335.029 368.55C334.463 368.25 333.813 367.975 333.079 367.725C332.346 367.458 331.488 367.325 330.504 367.325C328.771 367.325 327.471 367.717 326.604 368.5C325.738 369.267 325.304 370.275 325.304 371.525C325.304 372.325 325.538 372.992 326.004 373.525C326.488 374.042 327.113 374.492 327.879 374.875C328.663 375.258 329.546 375.6 330.529 375.9C331.513 376.2 332.521 376.533 333.554 376.9C334.588 377.25 335.596 377.667 336.579 378.15C337.563 378.633 338.438 379.242 339.204 379.975C339.988 380.708 340.613 381.608 341.079 382.675C341.563 383.725 341.804 385.008 341.804 386.525C341.804 388.175 341.513 389.725 340.929 391.175C340.363 392.608 339.538 393.867 338.454 394.95C337.371 396.017 336.029 396.858 334.429 397.475C332.846 398.092 331.046 398.4 329.029 398.4C327.879 398.4 326.729 398.283 325.579 398.05C324.446 397.817 323.346 397.492 322.279 397.075C321.229 396.658 320.238 396.158 319.304 395.575C318.371 394.992 317.554 394.342 316.854 393.625L319.054 390.075C319.238 389.808 319.479 389.592 319.779 389.425C320.079 389.242 320.396 389.15 320.729 389.15C321.179 389.15 321.654 389.317 322.154 389.65C322.654 389.983 323.229 390.35 323.879 390.75C324.529 391.15 325.279 391.517 326.129 391.85C326.996 392.183 328.029 392.35 329.229 392.35C330.979 392.35 332.329 391.95 333.279 391.15C334.246 390.35 334.729 389.158 334.729 387.575C334.729 386.658 334.488 385.917 334.004 385.35C333.538 384.783 332.921 384.308 332.154 383.925C331.388 383.542 330.513 383.217 329.529 382.95C328.546 382.667 327.538 382.358 326.504 382.025C325.471 381.692 324.463 381.292 323.479 380.825C322.496 380.358 321.621 379.742 320.854 378.975C320.088 378.208 319.463 377.258 318.979 376.125C318.513 374.992 318.279 373.583 318.279 371.9C318.279 370.55 318.546 369.242 319.079 367.975C319.613 366.708 320.396 365.583 321.429 364.6C322.463 363.617 323.729 362.825 325.229 362.225C326.746 361.625 328.479 361.325 330.429 361.325C332.613 361.325 334.629 361.667 336.479 362.35C338.346 363.017 339.921 363.95 341.204 365.15L339.354 368.675Z" fill="black"/>
<path d="M240.517 103.681C240.517 105.398 240.245 106.977 239.701 108.417C239.157 109.846 238.389 111.078 237.397 112.113C236.405 113.148 235.21 113.953 233.813 114.529C232.426 115.094 230.89 115.377 229.205 115.377C227.519 115.377 225.983 115.094 224.597 114.529C223.21 113.953 222.021 113.148 221.029 112.113C220.037 111.078 219.269 109.846 218.725 108.417C218.181 106.977 217.909 105.398 217.909 103.681C217.909 101.964 218.181 100.39 218.725 98.9611C219.269 97.5211 220.037 96.2838 221.029 95.2491C222.021 94.2038 223.21 93.3931 224.597 92.8171C225.983 92.2411 227.519 91.9531 229.205 91.9531C230.89 91.9531 232.426 92.2411 233.813 92.8171C235.21 93.3931 236.405 94.2038 237.397 95.2491C238.389 96.2838 239.157 97.5211 239.701 98.9611C240.245 100.39 240.517 101.964 240.517 103.681ZM237.333 103.681C237.333 102.273 237.141 101.009 236.757 99.8891C236.373 98.7691 235.829 97.8251 235.125 97.0571C234.421 96.2784 233.567 95.6811 232.565 95.2651C231.562 94.8491 230.442 94.6411 229.205 94.6411C227.978 94.6411 226.863 94.8491 225.861 95.2651C224.858 95.6811 223.999 96.2784 223.285 97.0571C222.581 97.8251 222.037 98.7691 221.653 99.8891C221.269 101.009 221.077 102.273 221.077 103.681C221.077 105.089 221.269 106.353 221.653 107.473C222.037 108.582 222.581 109.526 223.285 110.305C223.999 111.073 224.858 111.665 225.861 112.081C226.863 112.486 227.978 112.689 229.205 112.689C230.442 112.689 231.562 112.486 232.565 112.081C233.567 111.665 234.421 111.073 235.125 110.305C235.829 109.526 236.373 108.582 236.757 107.473C237.141 106.353 237.333 105.089 237.333 103.681ZM245.889 115.137V101.361L244.097 101.153C243.862 101.1 243.675 101.02 243.537 100.913C243.398 100.796 243.329 100.63 243.329 100.417V99.2491H245.889V97.9211C245.889 96.9931 246.017 96.1718 246.273 95.4571C246.539 94.7318 246.913 94.1238 247.393 93.6331C247.873 93.1318 248.454 92.7531 249.137 92.4971C249.819 92.2411 250.587 92.1131 251.441 92.1131C252.166 92.1131 252.838 92.2198 253.457 92.4331L253.377 93.8731C253.355 94.1291 253.217 94.2678 252.961 94.2891C252.705 94.3104 252.353 94.3211 251.905 94.3211C251.414 94.3211 250.966 94.3851 250.561 94.5131C250.166 94.6304 249.825 94.8331 249.537 95.1211C249.259 95.4091 249.041 95.7931 248.881 96.2731C248.731 96.7424 248.657 97.3238 248.657 98.0171V99.2491H255.969V98.3531C255.969 97.3611 256.123 96.4544 256.433 95.6331C256.742 94.8011 257.206 94.0864 257.825 93.4891C258.443 92.8918 259.211 92.4278 260.129 92.0971C261.057 91.7664 262.129 91.6011 263.345 91.6011C263.75 91.6011 264.166 91.6278 264.593 91.6811C265.019 91.7344 265.387 91.8144 265.697 91.9211L265.585 93.4091C265.574 93.5158 265.531 93.5904 265.457 93.6331C265.393 93.6758 265.302 93.7024 265.185 93.7131C265.067 93.7238 264.918 93.7291 264.737 93.7291C264.566 93.7184 264.369 93.7131 264.145 93.7131C262.246 93.7131 260.87 94.1077 260.017 94.8971C259.163 95.6758 258.737 96.8544 258.737 98.4331V99.2491H268.529V115.137H265.665V101.313H258.817V115.137H255.969V101.313H248.737V115.137H245.889ZM285.127 101.809C285.042 101.926 284.956 102.017 284.871 102.081C284.786 102.145 284.668 102.177 284.519 102.177C284.359 102.177 284.183 102.113 283.991 101.985C283.799 101.846 283.559 101.697 283.271 101.537C282.994 101.377 282.647 101.233 282.231 101.105C281.826 100.966 281.324 100.897 280.727 100.897C279.927 100.897 279.223 101.041 278.615 101.329C278.007 101.606 277.495 102.012 277.079 102.545C276.674 103.078 276.364 103.724 276.151 104.481C275.948 105.238 275.847 106.086 275.847 107.025C275.847 108.006 275.959 108.881 276.183 109.649C276.407 110.406 276.722 111.046 277.127 111.569C277.543 112.081 278.039 112.476 278.615 112.753C279.202 113.02 279.858 113.153 280.583 113.153C281.276 113.153 281.847 113.073 282.295 112.913C282.743 112.742 283.111 112.556 283.399 112.353C283.698 112.15 283.943 111.969 284.135 111.809C284.338 111.638 284.535 111.553 284.727 111.553C284.962 111.553 285.143 111.644 285.271 111.825L286.071 112.865C285.719 113.302 285.319 113.676 284.871 113.985C284.423 114.294 283.938 114.556 283.415 114.769C282.903 114.972 282.364 115.121 281.799 115.217C281.234 115.313 280.658 115.361 280.071 115.361C279.058 115.361 278.114 115.174 277.239 114.801C276.375 114.428 275.623 113.889 274.983 113.185C274.343 112.47 273.842 111.596 273.479 110.561C273.116 109.526 272.935 108.348 272.935 107.025C272.935 105.82 273.1 104.705 273.431 103.681C273.772 102.657 274.263 101.777 274.903 101.041C275.554 100.294 276.348 99.7131 277.287 99.2971C278.236 98.8811 279.324 98.6731 280.551 98.6731C281.692 98.6731 282.695 98.8598 283.559 99.2331C284.434 99.5958 285.207 100.113 285.879 100.785L285.127 101.809ZM292.776 98.9291V115.137H289.928V98.9291H292.776ZM293.384 93.8411C293.384 94.1184 293.326 94.3798 293.208 94.6251C293.102 94.8598 292.952 95.0731 292.76 95.2651C292.579 95.4464 292.36 95.5904 292.104 95.6971C291.859 95.8038 291.598 95.8571 291.32 95.8571C291.043 95.8571 290.782 95.8038 290.536 95.6971C290.302 95.5904 290.094 95.4464 289.912 95.2651C289.731 95.0731 289.587 94.8598 289.48 94.6251C289.374 94.3798 289.32 94.1184 289.32 93.8411C289.32 93.5637 289.374 93.3024 289.48 93.0571C289.587 92.8011 289.731 92.5824 289.912 92.4011C290.094 92.2091 290.302 92.0598 290.536 91.9531C290.782 91.8464 291.043 91.7931 291.32 91.7931C291.598 91.7931 291.859 91.8464 292.104 91.9531C292.36 92.0598 292.579 92.2091 292.76 92.4011C292.952 92.5824 293.102 92.8011 293.208 93.0571C293.326 93.3024 293.384 93.5637 293.384 93.8411ZM306.88 107.841C305.568 107.884 304.448 107.99 303.52 108.161C302.602 108.321 301.85 108.534 301.264 108.801C300.688 109.068 300.266 109.382 300 109.745C299.744 110.108 299.616 110.513 299.616 110.961C299.616 111.388 299.685 111.756 299.824 112.065C299.962 112.374 300.149 112.63 300.384 112.833C300.629 113.025 300.912 113.169 301.232 113.265C301.562 113.35 301.914 113.393 302.288 113.393C302.789 113.393 303.248 113.345 303.664 113.249C304.08 113.142 304.469 112.993 304.832 112.801C305.205 112.609 305.557 112.38 305.888 112.113C306.229 111.846 306.56 111.542 306.88 111.201V107.841ZM297.68 101.217C298.576 100.353 299.541 99.7078 300.576 99.2811C301.61 98.8544 302.757 98.6411 304.016 98.6411C304.922 98.6411 305.728 98.7904 306.432 99.0891C307.136 99.3878 307.728 99.8038 308.208 100.337C308.688 100.87 309.05 101.516 309.296 102.273C309.541 103.03 309.664 103.862 309.664 104.769V115.137H308.4C308.122 115.137 307.909 115.094 307.76 115.009C307.61 114.913 307.493 114.732 307.408 114.465L307.088 112.929C306.661 113.324 306.245 113.676 305.84 113.985C305.434 114.284 305.008 114.54 304.56 114.753C304.112 114.956 303.632 115.11 303.12 115.217C302.618 115.334 302.058 115.393 301.44 115.393C300.81 115.393 300.218 115.308 299.664 115.137C299.109 114.956 298.624 114.689 298.208 114.337C297.802 113.985 297.477 113.542 297.232 113.009C296.997 112.465 296.88 111.825 296.88 111.089C296.88 110.449 297.056 109.836 297.408 109.249C297.76 108.652 298.33 108.124 299.12 107.665C299.909 107.206 300.938 106.833 302.208 106.545C303.477 106.246 305.034 106.076 306.88 106.033V104.769C306.88 103.51 306.608 102.561 306.064 101.921C305.52 101.27 304.725 100.945 303.68 100.945C302.976 100.945 302.384 101.036 301.904 101.217C301.434 101.388 301.024 101.585 300.672 101.809C300.33 102.022 300.032 102.22 299.776 102.401C299.53 102.572 299.285 102.657 299.04 102.657C298.848 102.657 298.682 102.609 298.544 102.513C298.405 102.406 298.288 102.278 298.192 102.129L297.68 101.217ZM317.586 91.5691V115.137H314.738V91.5691H317.586ZM197.469 148.401C197.639 148.401 197.789 148.47 197.917 148.609L199.149 149.937C198.21 151.025 197.069 151.873 195.725 152.481C194.391 153.089 192.775 153.393 190.877 153.393C189.234 153.393 187.741 153.11 186.397 152.545C185.053 151.969 183.906 151.169 182.957 150.145C182.007 149.11 181.271 147.873 180.749 146.433C180.226 144.993 179.965 143.409 179.965 141.681C179.965 139.953 180.237 138.369 180.781 136.929C181.325 135.489 182.087 134.252 183.069 133.217C184.061 132.182 185.245 131.382 186.621 130.817C187.997 130.241 189.517 129.953 191.181 129.953C192.813 129.953 194.253 130.214 195.501 130.737C196.749 131.26 197.847 131.969 198.797 132.865L197.773 134.289C197.709 134.396 197.623 134.486 197.517 134.561C197.421 134.625 197.287 134.657 197.117 134.657C196.925 134.657 196.69 134.556 196.413 134.353C196.135 134.14 195.773 133.905 195.325 133.649C194.877 133.393 194.317 133.164 193.645 132.961C192.973 132.748 192.146 132.641 191.165 132.641C189.981 132.641 188.898 132.849 187.917 133.265C186.935 133.67 186.087 134.262 185.373 135.041C184.669 135.82 184.119 136.769 183.725 137.889C183.33 139.009 183.133 140.273 183.133 141.681C183.133 143.11 183.335 144.385 183.741 145.505C184.157 146.625 184.717 147.574 185.421 148.353C186.135 149.121 186.973 149.708 187.933 150.113C188.903 150.518 189.949 150.721 191.069 150.721C191.751 150.721 192.365 150.684 192.909 150.609C193.463 150.524 193.97 150.396 194.429 150.225C194.898 150.054 195.33 149.841 195.725 149.585C196.13 149.318 196.53 149.004 196.925 148.641C197.106 148.481 197.287 148.401 197.469 148.401ZM213.251 143.265C213.251 142.604 213.155 142.001 212.963 141.457C212.782 140.902 212.51 140.428 212.147 140.033C211.795 139.628 211.363 139.318 210.851 139.105C210.339 138.881 209.758 138.769 209.107 138.769C207.742 138.769 206.659 139.169 205.859 139.969C205.07 140.758 204.579 141.857 204.387 143.265H213.251ZM215.555 150.865C215.203 151.292 214.782 151.665 214.291 151.985C213.801 152.294 213.273 152.55 212.707 152.753C212.153 152.956 211.577 153.105 210.979 153.201C210.382 153.308 209.79 153.361 209.203 153.361C208.083 153.361 207.049 153.174 206.099 152.801C205.161 152.417 204.345 151.862 203.651 151.137C202.969 150.401 202.435 149.494 202.051 148.417C201.667 147.34 201.475 146.102 201.475 144.705C201.475 143.574 201.646 142.518 201.987 141.537C202.339 140.556 202.841 139.708 203.491 138.993C204.142 138.268 204.937 137.702 205.875 137.297C206.814 136.881 207.87 136.673 209.043 136.673C210.014 136.673 210.91 136.838 211.731 137.169C212.563 137.489 213.278 137.958 213.875 138.577C214.483 139.185 214.958 139.942 215.299 140.849C215.641 141.745 215.811 142.769 215.811 143.921C215.811 144.369 215.763 144.668 215.667 144.817C215.571 144.966 215.39 145.041 215.123 145.041H204.291C204.323 146.065 204.462 146.956 204.707 147.713C204.963 148.47 205.315 149.105 205.763 149.617C206.211 150.118 206.745 150.497 207.363 150.753C207.982 150.998 208.675 151.121 209.443 151.121C210.158 151.121 210.771 151.041 211.283 150.881C211.806 150.71 212.254 150.529 212.627 150.337C213.001 150.145 213.31 149.969 213.555 149.809C213.811 149.638 214.03 149.553 214.211 149.553C214.446 149.553 214.627 149.644 214.755 149.825L215.555 150.865ZM222.654 140.177C223.166 139.068 223.795 138.204 224.542 137.585C225.288 136.956 226.2 136.641 227.278 136.641C227.619 136.641 227.944 136.678 228.254 136.753C228.574 136.828 228.856 136.945 229.102 137.105L228.894 139.233C228.83 139.5 228.67 139.633 228.414 139.633C228.264 139.633 228.046 139.601 227.758 139.537C227.47 139.473 227.144 139.441 226.782 139.441C226.27 139.441 225.811 139.516 225.406 139.665C225.011 139.814 224.654 140.038 224.334 140.337C224.024 140.625 223.742 140.988 223.486 141.425C223.24 141.852 223.016 142.342 222.814 142.897V153.137H219.95V136.929H221.582C221.891 136.929 222.104 136.988 222.222 137.105C222.339 137.222 222.419 137.425 222.462 137.713L222.654 140.177ZM247.286 153.137H244.438V139.313H236.086V149.041C236.086 149.724 236.251 150.23 236.582 150.561C236.912 150.892 237.339 151.057 237.862 151.057C238.16 151.057 238.416 151.02 238.63 150.945C238.854 150.86 239.046 150.769 239.206 150.673C239.366 150.577 239.499 150.492 239.606 150.417C239.723 150.332 239.824 150.289 239.91 150.289C240.059 150.289 240.192 150.38 240.31 150.561L241.142 151.921C240.651 152.38 240.059 152.742 239.366 153.009C238.672 153.265 237.958 153.393 237.222 153.393C235.942 153.393 234.955 153.036 234.262 152.321C233.579 151.606 233.238 150.577 233.238 149.233V139.313H231.286C231.115 139.313 230.971 139.265 230.854 139.169C230.736 139.062 230.678 138.902 230.678 138.689V137.553L233.334 137.201L233.99 132.209C234.022 132.049 234.091 131.921 234.198 131.825C234.315 131.718 234.464 131.665 234.646 131.665H236.086V137.249H247.286V153.137ZM247.99 131.729C247.99 132.006 247.931 132.268 247.814 132.513C247.707 132.748 247.558 132.956 247.366 133.137C247.184 133.318 246.971 133.462 246.726 133.569C246.48 133.676 246.219 133.729 245.942 133.729C245.664 133.729 245.403 133.676 245.158 133.569C244.923 133.462 244.715 133.318 244.534 133.137C244.352 132.956 244.208 132.748 244.102 132.513C243.995 132.268 243.942 132.006 243.942 131.729C243.942 131.452 243.995 131.19 244.102 130.945C244.208 130.689 244.352 130.47 244.534 130.289C244.715 130.097 244.923 129.948 245.158 129.841C245.403 129.734 245.664 129.681 245.942 129.681C246.219 129.681 246.48 129.734 246.726 129.841C246.971 129.948 247.184 130.097 247.366 130.289C247.558 130.47 247.707 130.689 247.814 130.945C247.931 131.19 247.99 131.452 247.99 131.729ZM253.693 153.137V139.361L251.901 139.153C251.666 139.1 251.479 139.02 251.341 138.913C251.202 138.796 251.133 138.63 251.133 138.417V137.249H253.693V136.353C253.693 135.361 253.847 134.454 254.157 133.633C254.466 132.801 254.93 132.086 255.549 131.489C256.167 130.892 256.935 130.428 257.853 130.097C258.781 129.766 259.853 129.601 261.069 129.601C261.474 129.601 261.89 129.628 262.317 129.681C262.743 129.734 263.111 129.814 263.421 129.921L263.309 131.409C263.298 131.516 263.255 131.59 263.181 131.633C263.117 131.676 263.026 131.702 262.909 131.713C262.791 131.724 262.642 131.729 262.461 131.729C262.29 131.718 262.093 131.713 261.869 131.713C259.97 131.713 258.594 132.108 257.741 132.897C256.887 133.676 256.461 134.854 256.461 136.433V137.249H266.253V153.137H263.389V139.313H256.541V153.137H253.693ZM282.837 139.809C282.752 139.926 282.666 140.017 282.581 140.081C282.496 140.145 282.378 140.177 282.229 140.177C282.069 140.177 281.893 140.113 281.701 139.985C281.509 139.846 281.269 139.697 280.981 139.537C280.704 139.377 280.357 139.233 279.941 139.105C279.536 138.966 279.034 138.897 278.437 138.897C277.637 138.897 276.933 139.041 276.325 139.329C275.717 139.606 275.205 140.012 274.789 140.545C274.384 141.078 274.074 141.724 273.861 142.481C273.658 143.238 273.557 144.086 273.557 145.025C273.557 146.006 273.669 146.881 273.893 147.649C274.117 148.406 274.432 149.046 274.837 149.569C275.253 150.081 275.749 150.476 276.325 150.753C276.912 151.02 277.568 151.153 278.293 151.153C278.986 151.153 279.557 151.073 280.005 150.913C280.453 150.742 280.821 150.556 281.109 150.353C281.408 150.15 281.653 149.969 281.845 149.809C282.048 149.638 282.245 149.553 282.437 149.553C282.672 149.553 282.853 149.644 282.981 149.825L283.781 150.865C283.429 151.302 283.029 151.676 282.581 151.985C282.133 152.294 281.648 152.556 281.125 152.769C280.613 152.972 280.074 153.121 279.509 153.217C278.944 153.313 278.368 153.361 277.781 153.361C276.768 153.361 275.824 153.174 274.949 152.801C274.085 152.428 273.333 151.889 272.693 151.185C272.053 150.47 271.552 149.596 271.189 148.561C270.826 147.526 270.645 146.348 270.645 145.025C270.645 143.82 270.81 142.705 271.141 141.681C271.482 140.657 271.973 139.777 272.613 139.041C273.264 138.294 274.058 137.713 274.997 137.297C275.946 136.881 277.034 136.673 278.261 136.673C279.402 136.673 280.405 136.86 281.269 137.233C282.144 137.596 282.917 138.113 283.589 138.785L282.837 139.809ZM296.262 145.841C294.95 145.884 293.83 145.99 292.902 146.161C291.985 146.321 291.233 146.534 290.646 146.801C290.07 147.068 289.649 147.382 289.382 147.745C289.126 148.108 288.998 148.513 288.998 148.961C288.998 149.388 289.068 149.756 289.206 150.065C289.345 150.374 289.532 150.63 289.766 150.833C290.012 151.025 290.294 151.169 290.614 151.265C290.945 151.35 291.297 151.393 291.67 151.393C292.172 151.393 292.63 151.345 293.046 151.249C293.462 151.142 293.852 150.993 294.214 150.801C294.588 150.609 294.94 150.38 295.27 150.113C295.612 149.846 295.942 149.542 296.262 149.201V145.841ZM287.062 139.217C287.958 138.353 288.924 137.708 289.958 137.281C290.993 136.854 292.14 136.641 293.398 136.641C294.305 136.641 295.11 136.79 295.814 137.089C296.518 137.388 297.11 137.804 297.59 138.337C298.07 138.87 298.433 139.516 298.678 140.273C298.924 141.03 299.046 141.862 299.046 142.769V153.137H297.782C297.505 153.137 297.292 153.094 297.142 153.009C296.993 152.913 296.876 152.732 296.79 152.465L296.47 150.929C296.044 151.324 295.628 151.676 295.222 151.985C294.817 152.284 294.39 152.54 293.942 152.753C293.494 152.956 293.014 153.11 292.502 153.217C292.001 153.334 291.441 153.393 290.822 153.393C290.193 153.393 289.601 153.308 289.046 153.137C288.492 152.956 288.006 152.689 287.59 152.337C287.185 151.985 286.86 151.542 286.614 151.009C286.38 150.465 286.262 149.825 286.262 149.089C286.262 148.449 286.438 147.836 286.79 147.249C287.142 146.652 287.713 146.124 288.502 145.665C289.292 145.206 290.321 144.833 291.59 144.545C292.86 144.246 294.417 144.076 296.262 144.033V142.769C296.262 141.51 295.99 140.561 295.446 139.921C294.902 139.27 294.108 138.945 293.062 138.945C292.358 138.945 291.766 139.036 291.286 139.217C290.817 139.388 290.406 139.585 290.054 139.809C289.713 140.022 289.414 140.22 289.158 140.401C288.913 140.572 288.668 140.657 288.422 140.657C288.23 140.657 288.065 140.609 287.926 140.513C287.788 140.406 287.67 140.278 287.574 140.129L287.062 139.217ZM318.846 153.137H315.998V139.313H307.646V149.041C307.646 149.724 307.811 150.23 308.142 150.561C308.472 150.892 308.899 151.057 309.422 151.057C309.72 151.057 309.976 151.02 310.19 150.945C310.414 150.86 310.606 150.769 310.766 150.673C310.926 150.577 311.059 150.492 311.166 150.417C311.283 150.332 311.384 150.289 311.47 150.289C311.619 150.289 311.752 150.38 311.87 150.561L312.702 151.921C312.211 152.38 311.619 152.742 310.926 153.009C310.232 153.265 309.518 153.393 308.782 153.393C307.502 153.393 306.515 153.036 305.822 152.321C305.139 151.606 304.798 150.577 304.798 149.233V139.313H302.846C302.675 139.313 302.531 139.265 302.414 139.169C302.296 139.062 302.238 138.902 302.238 138.689V137.553L304.894 137.201L305.55 132.209C305.582 132.049 305.651 131.921 305.758 131.825C305.875 131.718 306.024 131.665 306.206 131.665H307.646V137.249H318.846V153.137ZM319.55 131.729C319.55 132.006 319.491 132.268 319.374 132.513C319.267 132.748 319.118 132.956 318.926 133.137C318.744 133.318 318.531 133.462 318.286 133.569C318.04 133.676 317.779 133.729 317.502 133.729C317.224 133.729 316.963 133.676 316.718 133.569C316.483 133.462 316.275 133.318 316.094 133.137C315.912 132.956 315.768 132.748 315.662 132.513C315.555 132.268 315.502 132.006 315.502 131.729C315.502 131.452 315.555 131.19 315.662 130.945C315.768 130.689 315.912 130.47 316.094 130.289C316.275 130.097 316.483 129.948 316.718 129.841C316.963 129.734 317.224 129.681 317.502 129.681C317.779 129.681 318.04 129.734 318.286 129.841C318.531 129.948 318.744 130.097 318.926 130.289C319.118 130.47 319.267 130.689 319.374 130.945C319.491 131.19 319.55 131.452 319.55 131.729ZM330.997 136.673C332.181 136.673 333.247 136.87 334.197 137.265C335.146 137.66 335.957 138.22 336.629 138.945C337.301 139.67 337.813 140.55 338.165 141.585C338.527 142.609 338.709 143.756 338.709 145.025C338.709 146.305 338.527 147.457 338.165 148.481C337.813 149.505 337.301 150.38 336.629 151.105C335.957 151.83 335.146 152.39 334.197 152.785C333.247 153.169 332.181 153.361 330.997 153.361C329.802 153.361 328.725 153.169 327.765 152.785C326.815 152.39 326.005 151.83 325.333 151.105C324.661 150.38 324.143 149.505 323.781 148.481C323.429 147.457 323.253 146.305 323.253 145.025C323.253 143.756 323.429 142.609 323.781 141.585C324.143 140.55 324.661 139.67 325.333 138.945C326.005 138.22 326.815 137.66 327.765 137.265C328.725 136.87 329.802 136.673 330.997 136.673ZM330.997 151.137C332.597 151.137 333.791 150.604 334.581 149.537C335.37 148.46 335.765 146.961 335.765 145.041C335.765 143.11 335.37 141.606 334.581 140.529C333.791 139.452 332.597 138.913 330.997 138.913C330.186 138.913 329.477 139.052 328.869 139.329C328.271 139.606 327.77 140.006 327.365 140.529C326.97 141.052 326.671 141.697 326.469 142.465C326.277 143.222 326.181 144.081 326.181 145.041C326.181 146.961 326.575 148.46 327.365 149.537C328.165 150.604 329.375 151.137 330.997 151.137ZM345.649 139.281C346.001 138.886 346.374 138.529 346.769 138.209C347.163 137.889 347.579 137.617 348.017 137.393C348.465 137.158 348.934 136.982 349.425 136.865C349.926 136.737 350.465 136.673 351.041 136.673C351.926 136.673 352.705 136.822 353.377 137.121C354.059 137.409 354.625 137.825 355.073 138.369C355.531 138.902 355.878 139.548 356.113 140.305C356.347 141.062 356.465 141.9 356.465 142.817V153.137H353.601V142.817C353.601 141.59 353.318 140.641 352.753 139.969C352.198 139.286 351.35 138.945 350.209 138.945C349.366 138.945 348.577 139.148 347.841 139.553C347.115 139.958 346.443 140.508 345.825 141.201V153.137H342.961V136.929H344.673C345.078 136.929 345.329 137.126 345.425 137.521L345.649 139.281Z" fill="black"/>
</g>
</svg>
